<?xml version="1.0" encoding="UTF-8" standalone="no"?>
<!DOCTYPE svg  PUBLIC '-//W3C//DTD SVG 1.1//EN'  'http://www.w3.org/Graphics/SVG/1.1/DTD/svg11.dtd'>
<svg xmlns="http://www.w3.org/2000/svg">
<defs>
<font id="TRIALBwModelica-Hairline" horiz-adv-x="654">
<font-face underline-position="-100" font-weight="250" descent="-200" panose-1="0 0 3 0 0 0 0 0 0 0" units-per-em="1000" unicode-range="U+000D-FB02" bbox="-844 -230 1236 1020" x-height="520" underline-thickness="50" font-family="TRIALBwModelica" ascent="800" cap-height="740"/>
<missing-glyph d="M862 -3q-7 -7 -17 -7q-20 0 -20 23v324l-339 -340q-7 -7 -17 -7q-20 0 -20 23v324l-340 -340q-7 -7 -17 -7q-17 0 -17 18q0 10 5 15l342 341h-324q-23 0 -23 19q0 7 7 16l340 342h-327q-20 0 -20 19v1q0 19 20 19h370q23 0 23 -20q0 -10 -8 -17l-341 -340h330q8 0 14 -6 t6 -14v-327l339 338q7 8 17 8q18 0 18 -22v-324l340 338q6 8 16 8q7 0 12 -5.5t5 -13.5q0 -9 -6 -14z" horiz-adv-x="1274"/>
<glyph glyph-name="fi" horiz-adv-x="559" unicode="fi" d="M445 520h20v-520h-20v520zM454 735q9 0 15.5 -6.5t6.5 -15.5t-6.5 -15.5t-15.5 -6.5t-15.5 6.5t-6.5 15.5t6.5 15.5t15.5 6.5zM113 659q0 59 37.5 95t99.5 36q59 0 98 -20l-3 -18q-37 20 -95 20q-53 0 -85 -32t-32 -84v-136h210v-18h-210v-502h-20v502h-95v18h95v139z "/>
<glyph glyph-name="fl" horiz-adv-x="563" unicode="fl" d="M467 780v-780h-20v780h20zM113 659q0 59 37.5 95t99.5 36q59 0 98 -20l-3 -18q-37 20 -95 20q-53 0 -85 -32t-32 -84v-136h210v-18h-210v-502h-20v502h-95v18h95v139z"/>
<glyph glyph-name=".notdef" d="M862 -3q-7 -7 -17 -7q-20 0 -20 23v324l-339 -340q-7 -7 -17 -7q-20 0 -20 23v324l-340 -340q-7 -7 -17 -7q-17 0 -17 18q0 10 5 15l342 341h-324q-23 0 -23 19q0 7 7 16l340 342h-327q-20 0 -20 19v1q0 19 20 19h370q23 0 23 -20q0 -10 -8 -17l-341 -340h330q8 0 14 -6 t6 -14v-327l339 338q7 8 17 8q18 0 18 -22v-324l340 338q6 8 16 8q7 0 12 -5.5t5 -13.5q0 -9 -6 -14z" horiz-adv-x="1274"/>
<glyph glyph-name=".null" horiz-adv-x="0"/>
<glyph glyph-name="nonmarkingreturn" horiz-adv-x="333"/>
<glyph glyph-name="CR" horiz-adv-x="240" unicode=""/>
<glyph glyph-name="space" horiz-adv-x="280" unicode=" "/>
<glyph glyph-name="exclam" horiz-adv-x="234" unicode="!" d="M117 -10q-9 0 -15.5 6.5t-6.5 15.5t6.5 15.5t15.5 6.5t15.5 -6.5t6.5 -15.5t-6.5 -15.5t-15.5 -6.5zM127 121h-20l-2 619h24z"/>
<glyph glyph-name="quotedbl" horiz-adv-x="282" unicode='&quot;' d="M184 564l-1 216h24l-1 -216h-22zM76 564l-1 216h24l-1 -216h-22z"/>
<glyph glyph-name="numbersign" horiz-adv-x="639" unicode="#" d="M453 459h-218l-51 -221h218zM474 459l-51 -221h123l-5 -19h-122l-51 -219h-21l51 219h-218l-51 -219h-21l51 219h-122l5 19h121l51 221h-122l5 19h122l51 222h21l-51 -222h218l51 222h21l-51 -222h122l-5 -19h-122z"/>
<glyph glyph-name="dollar" horiz-adv-x="544" unicode="$" d="M278 10q86 5 138.5 50.5t52.5 116.5q0 65 -44.5 107.5t-146.5 78.5v-353zM255 396v334q-78 -4 -125 -49t-47 -115q0 -68 39 -102.5t112 -60.5zM494 179q0 -82 -59 -133.5t-157 -55.5v-32h-23v32q-136 3 -194 81l12 19q66 -78 182 -80v361l-37 12q-35 13 -60 25.5 t-50 33.5t-37.5 51.5t-12.5 70.5q0 80 53.5 130.5t143.5 55.5v30h23v-30q124 -1 191 -85l-14 -17q-67 79 -177 82v-342l9 -3q35 -12 57.5 -21t54 -27t50 -38t32 -51t13.5 -69z"/>
<glyph glyph-name="percent" horiz-adv-x="694" unicode="%" d="M506 8q56 0 90.5 39.5t34.5 103.5t-34.5 103.5t-90.5 39.5q-57 0 -91.5 -39t-34.5 -104t34.5 -104t91.5 -39zM506 -10q-67 0 -108 44t-41 117t41 117t108 44t107.5 -44t40.5 -117t-40.5 -117t-107.5 -44zM188 446q56 0 90.5 39.5t34.5 103.5t-34.5 103.5t-90.5 39.5 q-57 0 -91.5 -39t-34.5 -104t34.5 -104t91.5 -39zM138 -10l-18 12l439 748l18 -12zM188 428q-67 0 -108 44t-41 117t41 117t108 44t107.5 -44t40.5 -117t-40.5 -117t-107.5 -44z"/>
<glyph glyph-name="ampersand" horiz-adv-x="781" unicode="&amp;" d="M285 8q80 0 139 40.5t59 111.5v228h-182q-98 0 -158.5 -52.5t-60.5 -137.5q0 -86 56 -138t147 -52zM119 569q0 -73 50 -118t132 -45h182v163q0 73 -50 118t-132 45t-132 -45t-50 -118zM612 8q63 0 116 20v-18q-44 -20 -120 -20q-51 0 -84 29t-40 77q-23 -53 -78.5 -79.5 t-125.5 -26.5q-98 0 -159 56.5t-61 148.5q0 79 48.5 133t131.5 70q-67 15 -105 61t-38 113q0 80 56 129t148 49q91 0 146.5 -49t55.5 -129v-166h217v-18h-217v-268q0 -50 30 -81t79 -31z"/>
<glyph glyph-name="quotesingle" horiz-adv-x="174" unicode="&apos;" d="M76 564l-1 216h24l-1 -216h-22z"/>
<glyph glyph-name="parenleft" horiz-adv-x="256" unicode="(" d="M225 780q-23 -40 -31.5 -55.5t-34.5 -72t-39 -100.5t-25 -113.5t-12 -138.5q0 -85 14.5 -163t43.5 -146.5t42.5 -95t41.5 -75.5h-18q-148 230 -148 480t148 480h18z"/>
<glyph glyph-name="parenright" horiz-adv-x="256" unicode=")" d="M49 780q148 -230 148 -480t-148 -480h-18q23 40 31.5 55.5t34.5 72t39 100.5t25 113.5t12 138.5q0 85 -14.5 163t-43.5 146.5t-42.5 95t-41.5 75.5h18z"/>
<glyph glyph-name="asterisk" horiz-adv-x="388" unicode="*" d="M209 603l74 -98l-19 -14l-70 101l-70 -101l-19 14l74 98l-118 36l8 22l116 -40l-3 119h24l-3 -119l116 40l8 -22z"/>
<glyph glyph-name="plus" horiz-adv-x="508" unicode="+" d="M452 335h-188v-183h-20v183h-188v18h188v183h20v-183h188v-18z"/>
<glyph glyph-name="comma" horiz-adv-x="184" unicode="," d="M112 42l-74 -187h-22l68 187h28z"/>
<glyph glyph-name="hyphen" horiz-adv-x="400" unicode="-" d="M322 294v-18h-244v18h244z"/>
<glyph glyph-name="period" horiz-adv-x="190" unicode="." d="M95 -10q-11 0 -18.5 8t-7.5 18t7.5 18t18.5 8t18.5 -8t7.5 -18t-7.5 -18t-18.5 -8z"/>
<glyph glyph-name="slash" horiz-adv-x="356" unicode="/" d="M69 -100h-21l239 880h21z"/>
<glyph glyph-name="zero" horiz-adv-x="671" unicode="0" d="M336 10q111 0 179 99t68 261t-68 261t-179 99q-112 0 -180 -99t-68 -261t68 -261t180 -99zM336 -10q-122 0 -197 104.5t-75 275.5t75 275.5t197 104.5t196.5 -104.5t74.5 -275.5t-74.5 -275.5t-196.5 -104.5z"/>
<glyph glyph-name="one" horiz-adv-x="385" unicode="1" d="M18 565l237 175h18v-740h-23v706l-218 -160z"/>
<glyph glyph-name="two" horiz-adv-x="541" unicode="2" d="M487 20v-20h-437v16l220 236q6 6 28.5 30.5t31.5 34t29.5 34t30 38.5t24 38t21 43t12 43t5.5 47q0 79 -50.5 124.5t-134.5 45.5q-85 0 -136 -48t-51 -127l-24 1q0 87 58 140.5t153 53.5q94 0 151.5 -51t57.5 -137q0 -22 -3 -43t-12.5 -43.5t-15.5 -38t-23 -39.5 t-23.5 -34.5t-29.5 -36.5t-27.5 -31.5t-30.5 -33t-27 -28.5l-200 -214h403z"/>
<glyph glyph-name="three" horiz-adv-x="549" unicode="3" d="M260 408q106 0 170.5 -56.5t64.5 -148.5q0 -96 -66 -154.5t-175 -58.5q-144 0 -205 91l11 18q61 -89 192 -89q98 0 158 53t60 140q0 83 -59.5 134t-157.5 51q-72 0 -125 -26l-6 13l324 345h-374v20h407v-16l-306 -327q39 11 87 11z"/>
<glyph glyph-name="four" horiz-adv-x="583" unicode="4" d="M410 194v509l-362 -509h362zM409 174h-385v22l385 544h23v-546h120v-20h-120v-174h-23v174z"/>
<glyph glyph-name="five" horiz-adv-x="551" unicode="5" d="M252 -10q-137 0 -206 72l7 19q68 -71 197 -71q100 0 161.5 55t61.5 144t-56.5 144t-148.5 55q-76 0 -162 -24l-17 3l51 353h326v-20h-304l-47 -315q80 23 157 23q102 0 164 -60.5t62 -158.5t-68 -158.5t-178 -60.5z"/>
<glyph glyph-name="six" horiz-adv-x="540" unicode="6" d="M274 10q90 0 145 56.5t55 149.5t-55 150t-145 57t-145 -57t-55 -150t55 -149.5t145 -56.5zM276 443q100 0 161.5 -62.5t61.5 -164.5t-62 -164t-163 -62t-163 62t-62 163q0 79 39 137l255 388h28l-222 -335q53 38 127 38z"/>
<glyph glyph-name="seven" horiz-adv-x="483" unicode="7" d="M463 740l-276 -740h-26l270 720h-411v20h443z"/>
<glyph glyph-name="eight" horiz-adv-x="578" unicode="8" d="M289 10q90 0 145 49.5t55 131.5t-55 132t-145 50t-145 -50t-55 -132t55 -131.5t145 -49.5zM109 561q0 -76 49.5 -122t130.5 -46t130.5 46t49.5 122t-49.5 122.5t-130.5 46.5t-130.5 -46.5t-49.5 -122.5zM357 384q73 -17 115 -68.5t42 -125.5q0 -90 -62 -145t-163 -55 t-163 55t-62 144q0 74 42.5 125.5t114.5 68.5q-64 17 -100.5 64.5t-36.5 114.5q0 85 56.5 136.5t148.5 51.5t148.5 -51.5t56.5 -135.5q0 -68 -36.5 -115t-100.5 -64z"/>
<glyph glyph-name="nine" horiz-adv-x="540" unicode="9" d="M266 317q90 0 145 57t55 150t-55 149.5t-145 56.5t-145 -56.5t-55 -149.5t55 -150t145 -57zM266 750q101 0 163 -62t62 -163q0 -79 -39 -137l-255 -388h-28l222 335q-53 -38 -127 -38q-100 0 -161.5 62.5t-61.5 164.5t62 164t163 62z"/>
<glyph glyph-name="colon" horiz-adv-x="210" unicode=":" d="M105 -10q-11 0 -18.5 8t-7.5 18t7.5 18t18.5 8t18.5 -8t7.5 -18t-7.5 -18t-18.5 -8zM105 478q-11 0 -18.5 8t-7.5 18t7.5 18t18.5 8t18.5 -8t7.5 -18t-7.5 -18t-18.5 -8z"/>
<glyph glyph-name="semicolon" horiz-adv-x="269" unicode=";" d="M168 42l-74 -187h-22l68 187h28zM138 478q-10 0 -18 8t-8 18t8 18t18 8t18 -8t8 -18t-8 -18t-18 -8z"/>
<glyph glyph-name="less" horiz-adv-x="488" unicode="&lt;" d="M414 539l-350 -189l350 -189v-21l-375 205v10l375 205v-21z"/>
<glyph glyph-name="equal" horiz-adv-x="558" unicode="=" d="M477 233v-18h-396v18h396zM477 473v-18h-396v18h396z"/>
<glyph glyph-name="greater" horiz-adv-x="488" unicode="&gt;" d="M449 355v-10l-375 -205v21l350 189l-350 189v21z"/>
<glyph glyph-name="question" horiz-adv-x="496" unicode="?" d="M236 -10q-9 0 -15.5 6.5t-6.5 15.5t6.5 15.5t15.5 6.5t15.5 -6.5t6.5 -15.5t-6.5 -15.5t-15.5 -6.5zM226 121q0 57 8.5 104t19 75t31 55.5t32.5 39t36 31.5q27 22 40.5 35.5t25.5 41t12 62.5q0 74 -51 119.5t-135 45.5q-82 0 -133 -45.5t-53 -119.5l-23 1q2 83 60 133.5 t149 50.5q95 0 153 -50t58 -132q0 -40 -13.5 -72t-28 -47.5t-44.5 -40.5q-30 -26 -45.5 -42.5t-37 -50.5t-31.5 -82t-10 -112h-20z"/>
<glyph glyph-name="at" horiz-adv-x="1023" unicode="@" d="M495 60q82 0 132.5 54.5t50.5 143.5t-50.5 144t-132.5 55t-132.5 -55t-50.5 -144t50.5 -143.5t132.5 -54.5zM698 467v-288q0 -53 25.5 -84.5t69.5 -31.5q64 0 104.5 68t40.5 180q0 190 -117.5 307t-304.5 117q-197 0 -316.5 -131.5t-119.5 -346.5q0 -213 118 -341 t319 -128q143 0 268 40l9 -16q-129 -42 -274 -42q-214 0 -338 133t-124 355q0 223 125 359t333 136q197 0 320.5 -121.5t123.5 -318.5q0 -120 -46.5 -194t-120.5 -74q-51 0 -82 34t-33 92q-19 -59 -66 -94t-119 -35q-93 0 -148 59.5t-55 156.5q0 99 55 158t148 59 q70 0 118 -35t67 -95v122h20z"/>
<glyph glyph-name="A" horiz-adv-x="701" unicode="A" d="M557 251l-206 464l-207 -464h413zM566 231h-431l-103 -231h-25l332 740h23l332 -740h-25z"/>
<glyph glyph-name="B" horiz-adv-x="663" unicode="B" d="M374 20q92 0 148.5 48t56.5 127t-56.5 127t-148.5 48h-239v-350h239zM135 390h216q89 0 143.5 45.5t54.5 119.5t-56.5 119.5t-148.5 45.5h-209v-330zM422 383q83 -8 132.5 -58.5t49.5 -126.5q0 -89 -61 -143.5t-162 -54.5h-269v740h241q100 0 160.5 -50t60.5 -132 q0 -69 -40 -114t-112 -61z"/>
<glyph glyph-name="C" horiz-adv-x="749" unicode="C" d="M673 614q-107 116 -250 116q-152 0 -245 -98.5t-93 -259.5q0 -163 91.5 -262.5t240.5 -99.5q86 0 157 37.5t116 99.5l17 -16q-48 -65 -123 -103t-166 -38q-161 0 -259.5 104.5t-98.5 276.5q0 170 99 274.5t260 104.5q157 0 269 -121z"/>
<glyph glyph-name="D" horiz-adv-x="745" unicode="D" d="M320 20q153 0 246.5 95.5t93.5 251.5q0 159 -93.5 256t-246.5 97h-185v-700h185zM330 740q160 0 257.5 -102.5t97.5 -270.5q0 -165 -97.5 -266t-257.5 -101h-218v740h218z"/>
<glyph glyph-name="E" horiz-adv-x="604" unicode="E" d="M540 20v-20h-428v740h418v-20h-395v-331h375v-20h-375v-349h405z"/>
<glyph glyph-name="F" horiz-adv-x="528" unicode="F" d="M135 720v-351h325v-20h-325v-349h-23v740h378v-20h-355z"/>
<glyph glyph-name="G" horiz-adv-x="783" unicode="G" d="M744 370q-1 -176 -91 -278t-245 -102q-156 0 -251.5 104.5t-95.5 275.5t95.5 275.5t251.5 104.5q72 0 126 -16t109 -56l-15 -16q-90 68 -220 68q-145 0 -233.5 -99t-88.5 -261t89 -261t234 -99q139 0 223 94t87 249h-270v20h295v-3z"/>
<glyph glyph-name="H" horiz-adv-x="777" unicode="H" d="M665 740v-740h-23v365h-507v-365h-23v740h23v-355h507v355h23z"/>
<glyph glyph-name="I" horiz-adv-x="247" unicode="I" d="M135 0h-23v740h23v-740z"/>
<glyph glyph-name="J" horiz-adv-x="393" unicode="J" d="M20 55q46 -45 118 -45q59 0 92.5 34.5t33.5 92.5v603h23v-609q0 -65 -39.5 -103t-109.5 -38q-83 0 -125 48z"/>
<glyph glyph-name="K" horiz-adv-x="655" unicode="K" d="M325 370h-190v-370h-23v740h23v-350h191l276 350h30l-284 -361l291 -379h-30z"/>
<glyph glyph-name="L" horiz-adv-x="517" unicode="L" d="M503 20v-20h-391v740h23v-720h368z"/>
<glyph glyph-name="M" horiz-adv-x="978" unicode="M" d="M862 0l-37 692l-325 -692h-22l-325 692l-37 -692h-23l40 750h18l338 -720l338 720h18l40 -750h-23z"/>
<glyph glyph-name="N" horiz-adv-x="817" unicode="N" d="M705 740v-740h-17l-553 696v-696h-23v740h17l553 -696v696h23z"/>
<glyph glyph-name="O" horiz-adv-x="829" unicode="O" d="M415 10q148 0 238.5 99t90.5 261t-90.5 261t-238.5 99q-149 0 -239.5 -99t-90.5 -261t90.5 -261t239.5 -99zM415 -10q-160 0 -257.5 104.5t-97.5 275.5t97.5 275.5t257.5 104.5q159 0 256.5 -104.5t97.5 -275.5t-97.5 -275.5t-256.5 -104.5z"/>
<glyph glyph-name="P" horiz-adv-x="622" unicode="P" d="M350 330q94 0 151.5 53.5t57.5 141.5t-57.5 141.5t-151.5 53.5h-215v-390h215zM356 740q103 0 165.5 -59t62.5 -155q0 -97 -61.5 -156.5t-162.5 -59.5h-225v-310h-23v740h244z"/>
<glyph glyph-name="Q" horiz-adv-x="830" unicode="Q" d="M415 10q155 0 247 109l-91 116h30l75 -98q68 94 68 233q0 162 -90.5 261t-238.5 99q-149 0 -239.5 -99t-90.5 -261t90.5 -261t239.5 -99zM755 0l-78 100q-99 -110 -262 -110q-160 0 -257.5 104.5t-97.5 275.5t97.5 275.5t257.5 104.5q159 0 256.5 -104.5t97.5 -275.5 q0 -152 -78 -252l91 -118h-27z"/>
<glyph glyph-name="R" horiz-adv-x="672" unicode="R" d="M357 346q95 0 153.5 51.5t58.5 135.5q0 85 -60.5 136t-158.5 51h-215v-374h222zM612 0l-221 327q-10 -1 -31 -1h-225v-326h-23v740h243q108 0 173.5 -56.5t65.5 -150.5q0 -79 -47.5 -133.5t-129.5 -68.5l223 -331h-28z"/>
<glyph glyph-name="S" horiz-adv-x="557" unicode="S" d="M475 177q0 72 -50.5 114t-149.5 75l-51 17q-35 13 -60 25.5t-50 33.5t-37.5 51.5t-12.5 70.5q0 84 59 135t156 51q127 0 196 -85l-14 -17q-68 82 -184 82q-85 0 -136.5 -45t-51.5 -119q0 -68 39 -102.5t112 -60.5l53 -18q35 -12 57.5 -21t54 -27t50 -38t32 -51t13.5 -69 q0 -85 -63.5 -137t-166.5 -52q-142 0 -203 81l12 19q67 -80 188 -80q94 0 151 46t57 121z"/>
<glyph glyph-name="T" horiz-adv-x="545" unicode="T" d="M533 720h-249v-720h-23v720h-249v20h521v-20z"/>
<glyph glyph-name="U" horiz-adv-x="780" unicode="U" d="M678 740v-489q0 -118 -79 -189.5t-209 -71.5t-209 71.5t-79 189.5v489h23v-488q0 -109 73 -175.5t192 -66.5t192 66.5t73 175.5v488h23z"/>
<glyph glyph-name="V" horiz-adv-x="703" unicode="V" d="M363 0h-23l-332 740h25l319 -717l318 717h25z"/>
<glyph glyph-name="W" horiz-adv-x="1117" unicode="W" d="M1103 740l-282 -740h-23l-239 703l-240 -703h-23l-282 740h25l269 -709l238 709h25l239 -709l268 709h25z"/>
<glyph glyph-name="X" horiz-adv-x="606" unicode="X" d="M568 0l-265 362l-265 -362h-27l277 380l-251 360h27l239 -340l239 340h27l-252 -359l278 -381h-27z"/>
<glyph glyph-name="Y" horiz-adv-x="627" unicode="Y" d="M607 740l-282 -418v-322h-23v322l-282 418h28l266 -396l265 396h28z"/>
<glyph glyph-name="Z" horiz-adv-x="596" unicode="Z" d="M563 20v-20h-529v17l489 703h-483v20h513v-17l-489 -703h499z"/>
<glyph glyph-name="bracketleft" horiz-adv-x="326" unicode="[" d="M106 780h195v-18h-175v-924h175v-18h-195v960z"/>
<glyph glyph-name="backslash" horiz-adv-x="356" unicode="\" d="M69 780l239 -880h-21l-239 880h21z"/>
<glyph glyph-name="bracketright" horiz-adv-x="326" unicode="]" d="M25 -180v18h175v924h-175v18h195v-960h-195z"/>
<glyph glyph-name="asciicircum" horiz-adv-x="428" unicode="^" d="M345 334l-131 262l-131 -262h-24l143 286h24l143 -286h-24z"/>
<glyph glyph-name="underscore" horiz-adv-x="473" unicode="_" d="M448 0v-18h-423v18h423z"/>
<glyph glyph-name="grave" horiz-adv-x="600" unicode="`" d="M10 760h32l126 -140h-22z"/>
<glyph glyph-name="a" horiz-adv-x="536" unicode="a" d="M211 8q83 0 151.5 64.5t68.5 170.5q-86 24 -180 24q-84 0 -135 -36.5t-51 -96.5q0 -57 40 -91.5t106 -34.5zM252 530q90 0 144.5 -55.5t54.5 -146.5v-328h-20v151q-24 -74 -85.5 -117.5t-138.5 -43.5q-74 0 -119 39.5t-45 103.5q0 68 56.5 110t149.5 42q94 0 182 -24v60 q0 86 -49.5 138.5t-131.5 52.5q-100 0 -161 -72l-12 15q62 75 175 75z"/>
<glyph glyph-name="b" d="M344 8q105 0 169 69t64 182q0 114 -64 183.5t-169 69.5q-104 0 -168 -69.5t-64 -182.5t64 -182.5t168 -69.5zM349 530q113 0 181.5 -74.5t68.5 -196.5q0 -121 -69 -195t-181 -74q-94 0 -154 45t-83 121v-156h-20v780h20v-416q23 76 83 121t154 45z" unicode="b"/>
<glyph glyph-name="c" horiz-adv-x="526" unicode="c" d="M459 461q-65 51 -150 51q-104 0 -168 -69.5t-64 -182.5t64.5 -182.5t169.5 -69.5q98 0 163 64l13 -15q-69 -67 -180 -67q-113 0 -182.5 74.5t-69.5 196.5q0 121 70.5 195t185.5 74q94 0 161 -54z"/>
<glyph glyph-name="d" d="M310 8q104 0 168 69.5t64 182.5t-64 182.5t-168 69.5q-105 0 -169 -69.5t-64 -183.5q0 -113 64 -182t169 -69zM562 780v-780h-20v156q-23 -76 -83 -121t-154 -45q-112 0 -181 74t-69 195q0 122 68.5 196.5t181.5 74.5q94 0 154 -45t83 -121v416h20z" unicode="d"/>
<glyph glyph-name="e" horiz-adv-x="574" unicode="e" d="M291 512q-95 0 -153 -66.5t-60 -176.5h425q-1 109 -59 176t-153 67zM525 251h-447q4 -110 62 -176.5t151 -66.5q123 0 204 111l14 -13q-80 -116 -218 -116q-106 0 -170.5 75.5t-64.5 198.5q0 120 64.5 193t170.5 73q105 0 169.5 -73t64.5 -191v-15z"/>
<glyph glyph-name="f" horiz-adv-x="351" unicode="f" d="M250 772q-53 0 -85 -32t-32 -84v-136h210v-18h-210v-502h-20v502h-95v18h95v139q0 59 37.5 95t99.5 36q59 0 98 -20l-3 -18q-37 20 -95 20z"/>
<glyph glyph-name="g" d="M311 8q104 0 168 69.5t64 182.5t-64 182.5t-168 69.5q-105 0 -169 -69t-64 -182q0 -114 64 -183.5t169 -69.5zM563 520v-492q0 -116 -73.5 -187t-193.5 -71q-138 0 -226 70l5 18q95 -70 220 -70q112 0 180 67.5t68 177.5v123q-23 -76 -83 -121t-154 -45 q-113 0 -181.5 74.5t-68.5 196.5q0 121 69 195t181 74q94 0 154 -45t83 -121v156h20z" unicode="g"/>
<glyph glyph-name="h" horiz-adv-x="621" unicode="h" d="M317 530q98 0 158.5 -55t60.5 -146v-329h-20v321q0 86 -55.5 138.5t-146.5 52.5t-146.5 -52.5t-55.5 -138.5v-321h-20v780h20v-378q43 128 205 128z"/>
<glyph glyph-name="i" horiz-adv-x="208" unicode="i" d="M114 520v-520h-20v520h20zM103 691q-9 0 -15.5 6.5t-6.5 15.5t6.5 15.5t15.5 6.5t15.5 -6.5t6.5 -15.5t-6.5 -15.5t-15.5 -6.5z"/>
<glyph glyph-name="j" horiz-adv-x="216" unicode="j" d="M-84 -197q32 -15 75 -15q50 0 80.5 34.5t30.5 91.5v606h20v-609q0 -64 -36 -102.5t-95 -38.5q-47 0 -78 15zM111 691q-9 0 -15.5 6.5t-6.5 15.5t6.5 15.5t15.5 6.5t15.5 -6.5t6.5 -15.5t-6.5 -15.5t-15.5 -6.5z"/>
<glyph glyph-name="k" horiz-adv-x="540" unicode="k" d="M269 264h-157v-264h-20v780h20v-498h156l223 238h26l-231 -247l243 -273h-27z"/>
<glyph glyph-name="l" horiz-adv-x="212" unicode="l" d="M96 780h20v-780h-20v780z"/>
<glyph glyph-name="m" horiz-adv-x="965" unicode="m" d="M679 530q91 0 146 -55t55 -146v-329h-20v321q0 86 -50 138.5t-132 52.5t-132 -52.5t-50 -138.5v-321h-20v321q0 86 -50 138.5t-132 52.5t-132 -52.5t-50 -138.5v-321h-20v520h20v-114q40 124 185 124q73 0 123.5 -38t67.5 -103q18 64 66 102.5t125 38.5z"/>
<glyph glyph-name="n" horiz-adv-x="621" unicode="n" d="M317 530q98 0 158.5 -55t60.5 -146v-329h-20v321q0 86 -55.5 138.5t-146.5 52.5t-146.5 -52.5t-55.5 -138.5v-321h-20v520h20v-118q43 128 205 128z"/>
<glyph glyph-name="o" horiz-adv-x="619" unicode="o" d="M310 8q104 0 168 69.5t64 182.5t-64 182.5t-168 69.5q-105 0 -169 -69.5t-64 -182.5t64 -182.5t169 -69.5zM310 -10q-115 0 -185 74t-70 196t70 196t185 74q114 0 184 -74.5t70 -195.5t-70 -195.5t-184 -74.5z"/>
<glyph glyph-name="p" d="M344 8q105 0 169 69.5t64 183.5q0 113 -64 182t-169 69q-104 0 -168 -69.5t-64 -182.5t64 -182.5t168 -69.5zM349 530q112 0 181 -74t69 -195q0 -122 -68.5 -196.5t-181.5 -74.5q-94 0 -154 45t-83 121v-376h-20v740h20v-156q23 76 83 121t154 45z" unicode="p"/>
<glyph glyph-name="q" d="M310 8q104 0 168 69.5t64 182.5t-64 182.5t-168 69.5q-105 0 -169 -69t-64 -182q0 -114 64 -183.5t169 -69.5zM562 520v-740h-20v376q-23 -76 -83 -121t-154 -45q-113 0 -181.5 74.5t-68.5 196.5q0 121 69 195t181 74q94 0 154 -45t83 -121v156h20z" unicode="q"/>
<glyph glyph-name="r" horiz-adv-x="339" unicode="r" d="M112 403q41 127 220 127l-3 -18q-105 0 -161 -51t-56 -140v-321h-20v520h20v-117z"/>
<glyph glyph-name="s" horiz-adv-x="423" unicode="s" d="M349 127q0 82 -114 121l-60 20q-59 20 -89 48.5t-30 80.5q0 60 41.5 96.5t109.5 36.5q84 0 147 -42l-10 -17q-56 41 -135 41q-59 0 -95 -31t-36 -82q0 -44 26 -68.5t77 -42.5l60 -20q130 -45 130 -139q0 -63 -44 -101t-119 -38q-103 0 -149 49l11 15q49 -46 137 -46 q64 0 103 33t39 86z"/>
<glyph glyph-name="t" horiz-adv-x="359" unicode="t" d="M240 8q63 0 116 20v-18q-44 -20 -120 -20q-56 0 -90.5 35t-34.5 92v385h-95v18h95v153h20v-153h217v-18h-217v-382q0 -50 30 -81t79 -31z"/>
<glyph glyph-name="u" horiz-adv-x="613" unicode="u" d="M521 520v-520h-20v118q-42 -128 -201 -128q-96 0 -155.5 55.5t-59.5 145.5v329h20v-321q0 -86 54.5 -138.5t143.5 -52.5t143.5 52.5t54.5 138.5v321h20z"/>
<glyph glyph-name="v" horiz-adv-x="540" unicode="v" d="M281 0h-22l-242 520h23l230 -495l230 495h23z"/>
<glyph glyph-name="w" horiz-adv-x="947" unicode="w" d="M928 520l-222 -520h-22l-210 493l-211 -493h-22l-222 520h23l210 -495l210 495h23l210 -495l210 495h23z"/>
<glyph glyph-name="x" horiz-adv-x="513" unicode="x" d="M466 0l-209 252l-210 -252h-27l223 267l-211 253h26l199 -239l198 239h26l-211 -253l223 -267h-27z"/>
<glyph glyph-name="y" horiz-adv-x="540" unicode="y" d="M219 -136q-23 -49 -44.5 -71.5t-60.5 -22.5q-32 0 -51 9l3 18q18 -9 45 -9q32 0 50.5 19t37.5 60l63 136l-243 517h23l232 -494l228 494h23z"/>
<glyph glyph-name="z" horiz-adv-x="483" unicode="z" d="M450 18v-18h-413v15l371 487h-366v18h393v-15l-370 -487h385z"/>
<glyph glyph-name="braceleft" horiz-adv-x="368" unicode="{" d="M156 452q0 -58 -20 -100t-52 -52q32 -10 52 -52t20 -100v-205q0 -51 25.5 -82t66.5 -31q45 0 93 12v-20q-43 -12 -90 -12q-53 0 -85.5 36t-32.5 95v205q0 64 -24.5 104t-64.5 40h-10v20h10q40 0 64.5 40t24.5 104v205q0 59 32.5 95t85.5 36q47 0 90 -12v-20 q-48 12 -93 12q-41 0 -66.5 -31t-25.5 -82v-205z"/>
<glyph glyph-name="bar" horiz-adv-x="237" unicode="|" d="M130 780v-1000h-23v1000h23z"/>
<glyph glyph-name="braceright" horiz-adv-x="368" unicode="}" d="M212 657q0 51 -25.5 82t-66.5 31q-45 0 -93 -12v20q44 12 90 12q53 0 85.5 -36t32.5 -95v-205q0 -64 24.5 -104t64.5 -40h10v-20h-10q-40 0 -64.5 -40t-24.5 -104v-205q0 -59 -32.5 -95t-85.5 -36q-47 0 -90 12v20q48 -12 93 -12q41 0 66.5 31t25.5 82v205q0 58 20 100 t52 52q-32 10 -52 52t-20 100v205z"/>
<glyph glyph-name="asciitilde" horiz-adv-x="556" unicode="~" d="M103 254h-20q0 43 30.5 69.5t76.5 26.5q33 0 63.5 -21t59 -42t57.5 -21q36 0 60.5 20.5t24.5 53.5h20q0 -43 -30.5 -69.5t-76.5 -26.5q-33 0 -63.5 21t-59 42t-57.5 21q-36 0 -60.5 -20.5t-24.5 -53.5z"/>
<glyph glyph-name="uni00A0" horiz-adv-x="280" unicode=" "/>
<glyph glyph-name="exclamdown" horiz-adv-x="218" unicode="¡" d="M97 -220l2 619h20l2 -619h-24zM109 530q9 0 15.5 -6.5t6.5 -15.5t-6.5 -15.5t-15.5 -6.5t-15.5 6.5t-6.5 15.5t6.5 15.5t15.5 6.5z"/>
<glyph glyph-name="cent" horiz-adv-x="550" unicode="¢" d="M85 310q0 -109 60.5 -178t160.5 -74v504q-100 -4 -160.5 -73t-60.5 -179zM495 107q-62 -62 -168 -67v-40h-21v40q-110 3 -176.5 77t-66.5 194q0 117 66.5 191t176.5 78v40h21v-40q87 -1 153 -54l-13 -15q-61 48 -140 51v-504q93 3 155 64z"/>
<glyph glyph-name="sterling" horiz-adv-x="559" unicode="£" d="M492 20v-20h-435v20h60v312h-50v20h50v217q0 82 51 131.5t134 49.5t134 -50t51 -131l-23 -3q0 74 -44.5 119t-117.5 45t-117.5 -46t-44.5 -121v-211h318v-20h-318v-312h352z"/>
<glyph glyph-name="currency" horiz-adv-x="583" unicode="¤" d="M98 344q0 -81 57 -138.5t137 -57.5t136.5 57.5t56.5 138.5q0 80 -57 137.5t-136 57.5q-80 0 -137 -57.5t-57 -137.5zM507 344q0 -84 -56 -145l51 -51l-14 -15l-51 52q-63 -55 -145 -55q-81 0 -145 54l-51 -51l-15 14l52 51q-57 62 -57 146q0 83 57 145l-52 51l15 14 l51 -51q64 54 145 54q82 0 145 -55l51 52l14 -15l-51 -51q56 -61 56 -144z"/>
<glyph glyph-name="yen" horiz-adv-x="649" unicode="¥" d="M339 326h181v-20h-184v-69h184v-20h-184v-217h-23v217h-184v20h184v69h-184v20h181l-279 414h28l266 -396l265 396h28z"/>
<glyph glyph-name="brokenbar" horiz-adv-x="233" unicode="¦" d="M128 180v-400h-23v400h23zM128 780v-400h-23v400h23z"/>
<glyph glyph-name="section" horiz-adv-x="561" unicode="§" d="M294 165q90 -31 133 -62q49 46 49 114q0 72 -50.5 114t-149.5 75l-51 17q-57 21 -85 40q-50 -45 -50 -117q0 -68 39 -102.5t112 -60.5zM445 89q56 -53 56 -130q0 -85 -63.5 -137t-166.5 -52q-142 0 -203 81l12 19q67 -80 188 -80q94 0 151 46t57 121q0 72 -50.5 114 t-149.5 75l-51 17q-35 13 -60 25.5t-50 33.5t-37.5 51.5t-12.5 70.5q0 83 57 132q-57 49 -57 128q0 84 59 135t156 51q127 0 196 -85l-14 -17q-68 82 -184 82q-85 0 -136.5 -45t-51.5 -119q0 -68 39 -102.5t112 -60.5l53 -18q35 -12 57.5 -21t54 -27t50 -38t32 -51t13.5 -69 q0 -79 -56 -130z"/>
<glyph glyph-name="dieresis" horiz-adv-x="600" unicode="¨" d="M270 691q-9 0 -15.5 6.5t-6.5 15.5t6.5 15.5t15.5 6.5t15.5 -6.5t6.5 -15.5t-6.5 -15.5t-15.5 -6.5zM101 691q-9 0 -15.5 6.5t-6.5 15.5t6.5 15.5t15.5 6.5t15.5 -6.5t6.5 -15.5t-6.5 -15.5t-15.5 -6.5z"/>
<glyph glyph-name="copyright" horiz-adv-x="844" unicode="©" d="M563 494q-57 62 -134 62q-80 0 -129 -51.5t-49 -136.5q0 -86 48.5 -138.5t127.5 -52.5q93 0 145 74l16 -15q-58 -78 -161 -78q-90 0 -145 57.5t-55 151.5t55 151.5t145 57.5q88 0 150 -67zM422 10q151 0 243.5 99t92.5 261t-92.5 261t-243.5 99q-152 0 -244 -99t-92 -261 t92 -261t244 -99zM422 -10q-163 0 -262 104.5t-99 275.5t99 275.5t262 104.5t262 -104.5t99 -275.5t-99 -275.5t-262 -104.5z"/>
<glyph glyph-name="ordfeminine" horiz-adv-x="391" unicode="ª" d="M165 441q48 0 86.5 36.5t38.5 97.5q-50 13 -102 13q-48 0 -77 -21t-29 -55q0 -32 22.5 -51.5t60.5 -19.5zM189 750q55 0 88.5 -33.5t33.5 -88.5v-198h-21v85q-15 -42 -50.5 -66.5t-79.5 -24.5q-45 0 -72.5 24t-27.5 64q0 41 34.5 66.5t90.5 25.5q53 0 105 -13v32 q0 49 -29 79t-76 30q-58 0 -94 -41l-11 14q40 45 109 45z"/>
<glyph glyph-name="guillemotleft" horiz-adv-x="501" unicode="«" d="M275 270l170 -220h-22l-173 220l173 220h22zM246 490l-170 -220l170 -220h-22l-173 220l173 220h22z"/>
<glyph glyph-name="logicalnot" horiz-adv-x="565" unicode="¬" d="M484 244h-20v141h-376v18h396v-159z"/>
<glyph glyph-name="uni00AD" horiz-adv-x="400" unicode="­" d="M322 294v-18h-244v18h244z"/>
<glyph glyph-name="registered" horiz-adv-x="421" unicode="®" d="M173 637h40q17 0 28 9t11 24q0 16 -10.5 25.5t-27.5 9.5h-41v-68zM270 670q0 -34 -34 -45l46 -69h-21l-42 66h-46v-66h-18v163h61q24 0 39 -13.5t15 -35.5zM210 499q59 0 95.5 38.5t36.5 100.5t-36.5 100.5t-95.5 38.5t-95 -38.5t-36 -100.5t36 -100.5t95 -38.5zM210 790 q67 0 107.5 -42t40.5 -110t-40.5 -110t-107.5 -42q-66 0 -106.5 42t-40.5 110t40.5 110t106.5 42z"/>
<glyph glyph-name="macron" horiz-adv-x="600" unicode="¯" d="M354 683v-18h-274v18h274z"/>
<glyph glyph-name="degree" horiz-adv-x="350" unicode="°" d="M175 582q43 0 69 26t26 69t-26 69t-69 26t-69 -26t-26 -69t26 -69t69 -26zM175 564q-53 0 -85.5 31t-32.5 82t32.5 82t85.5 31t85.5 -31t32.5 -82t-32.5 -82t-85.5 -31z"/>
<glyph glyph-name="plusminus" horiz-adv-x="561" unicode="±" d="M93 129h375v-19h-375v19zM468 409v-19h-178v-182h-19v182h-178v19h178v182h19v-182h178z"/>
<glyph glyph-name="uni00B2" horiz-adv-x="342" unicode="²" d="M303 416v-20h-267v16l132 142q3 3 16.5 17.5t18 19.5t16.5 19t17.5 22t14 22t12.5 25t7 24.5t3 26.5q0 45 -28 70.5t-76 25.5t-77 -27.5t-29 -72.5l-23 2q0 53 35.5 85.5t93.5 32.5q57 0 92.5 -31t35.5 -83q0 -22 -8.5 -46.5t-15.5 -39t-29.5 -41.5t-28 -32.5 t-32.5 -34.5l-115 -123z"/>
<glyph glyph-name="uni00B3" horiz-adv-x="343" unicode="³" d="M164 644q64 0 102.5 -34t38.5 -90q0 -59 -40 -94.5t-107 -35.5q-87 0 -125 53l10 18q36 -51 112 -51q57 0 91.5 30t34.5 80q0 47 -34 76t-90 29q-41 0 -73 -15l-7 12l184 198h-213v20h246v-15l-174 -185q19 4 44 4z"/>
<glyph glyph-name="acute" horiz-adv-x="600" unicode="´" d="M141 620l126 140h32l-136 -140h-22z"/>
<glyph glyph-name="paragraph" horiz-adv-x="518" unicode="¶" d="M401 -220h-23v940h-125v-940h-23v650h-66q-58 0 -94 43t-36 114q0 69 39.5 111t104.5 42h223v-960z"/>
<glyph glyph-name="periodcentered" horiz-adv-x="208" unicode="·" d="M104 260q-10 0 -18 8t-8 18t8 18t18 8t18 -8t8 -18t-8 -18t-18 -8z"/>
<glyph glyph-name="cedilla" horiz-adv-x="600" unicode="¸" d="M123 -74q47 0 75.5 -21t28.5 -55q0 -36 -30.5 -58t-80.5 -22q-63 0 -92 31l9 17q27 -28 81 -28q40 0 64.5 16.5t24.5 43.5q0 26 -24 42t-63 16q-29 0 -53 -9l-6 12l58 89h23l-51 -77q15 3 36 3z"/>
<glyph glyph-name="uni00B9" horiz-adv-x="247" unicode="¹" d="M14 734l143 106h18v-444h-23v412l-125 -91z"/>
<glyph glyph-name="ordmasculine" horiz-adv-x="426" unicode="º" d="M214 442q59 0 95.5 40t36.5 105t-36.5 104.5t-95.5 39.5q-60 0 -97 -40t-37 -104q0 -65 37 -105t97 -40zM214 424q-70 0 -113 44.5t-43 118.5q0 73 43 118t113 45q69 0 112 -45t43 -118t-43 -118t-112 -45z"/>
<glyph glyph-name="guillemotright" horiz-adv-x="501" unicode="»" d="M450 270l-173 -220h-22l170 220l-170 220h22zM78 490l173 -220l-173 -220h-22l170 220l-170 220h22z"/>
<glyph glyph-name="onequarter" horiz-adv-x="751" unicode="¼" d="M634 121v288l-206 -288h206zM633 102h-228v19l230 323h21v-322h70v-20h-70v-102h-23v102zM14 634l143 106h18v-444h-23v412l-125 -91zM124 -10l-18 12l439 748l18 -12z"/>
<glyph glyph-name="onehalf" horiz-adv-x="764" unicode="½" d="M725 20v-20h-267v16l132 142q3 3 16.5 17.5t18 19.5t16.5 19t17.5 22t14 22t12.5 25t7 24.5t3 26.5q0 45 -28 70.5t-76 25.5t-77 -27.5t-29 -72.5l-23 2q0 53 35.5 85.5t93.5 32.5q57 0 92.5 -31t35.5 -83q0 -22 -8.5 -46.5t-15.5 -39t-29.5 -41.5t-28 -32.5t-32.5 -34.5 l-115 -123zM14 634l143 106h18v-444h-23v412l-125 -91zM124 -10l-18 12l439 748l18 -12z"/>
<glyph glyph-name="threequarters" horiz-adv-x="847" unicode="¾" d="M730 409l-206 -288h206v288zM822 122v-20h-70v-102h-23v102h-228v19l230 323h21v-322h70zM305 420q0 -59 -40 -94.5t-107 -35.5q-87 0 -125 53l10 18q36 -51 112 -51q57 0 91.5 30t34.5 80q0 47 -34 76t-90 29q-41 0 -73 -15l-7 12l184 198h-213v20h246v-15l-174 -185 q19 4 44 4q64 0 102.5 -34t38.5 -90zM659 738l-439 -748l-18 12l439 748z"/>
<glyph glyph-name="questiondown" horiz-adv-x="488" unicode="¿" d="M266 399q0 -57 -8.5 -104t-19 -75t-31 -55.5t-32.5 -39t-36 -31.5q-27 -22 -40.5 -35.5t-25.5 -41t-12 -62.5q0 -74 51 -119.5t135 -45.5q82 0 133 45.5t53 119.5l23 -1q-2 -83 -60 -133.5t-149 -50.5q-95 0 -153 50t-58 132q0 40 13.5 72t28 47.5t44.5 40.5 q30 26 45.5 42.5t37 50.5t31.5 82t10 112h20zM256 530q9 0 15.5 -6.5t6.5 -15.5t-6.5 -15.5t-15.5 -6.5t-15.5 6.5t-6.5 15.5t6.5 15.5t15.5 6.5z"/>
<glyph glyph-name="Agrave" horiz-adv-x="701" unicode="À" d="M557 251l-206 464l-207 -464h413zM566 231h-431l-103 -231h-25l332 740h23l332 -740h-25zM343 840l-136 140h32l126 -140h-22z"/>
<glyph glyph-name="Aacute" horiz-adv-x="701" unicode="Á" d="M557 251l-206 464l-207 -464h413zM566 231h-431l-103 -231h-25l332 740h23l332 -740h-25zM359 840h-22l126 140h32z"/>
<glyph glyph-name="Acircumflex" horiz-adv-x="701" unicode="Â" d="M557 251l-206 464l-207 -464h413zM566 231h-431l-103 -231h-25l332 740h23l332 -740h-25zM233 840h-24l128 140h28l128 -140h-24l-118 125z"/>
<glyph glyph-name="Atilde" horiz-adv-x="701" unicode="Ã" d="M557 251l-206 464l-207 -464h413zM566 231h-431l-103 -231h-25l332 740h23l332 -740h-25zM269 938q-27 0 -46 -20.5t-19 -53.5h-20q0 43 25 69.5t62 26.5q29 0 56 -21t52.5 -42t51.5 -21q27 0 46 20.5t19 53.5h20q0 -43 -25 -69.5t-62 -26.5q-29 0 -56 21t-52.5 42 t-51.5 21z"/>
<glyph glyph-name="Adieresis" horiz-adv-x="701" unicode="Ä" d="M557 251l-206 464l-207 -464h413zM566 231h-431l-103 -231h-25l332 740h23l332 -740h-25zM435 911q-9 0 -15.5 6.5t-6.5 15.5t6.5 15.5t15.5 6.5t15.5 -6.5t6.5 -15.5t-6.5 -15.5t-15.5 -6.5zM266 911q-9 0 -15.5 6.5t-6.5 15.5t6.5 15.5t15.5 6.5t15.5 -6.5t6.5 -15.5 t-6.5 -15.5t-15.5 -6.5z"/>
<glyph glyph-name="Aring" horiz-adv-x="701" unicode="Å" d="M557 251l-206 464l-207 -464h413zM566 231h-431l-103 -231h-25l332 740h23l332 -740h-25zM351 993q-37 0 -59 -23.5t-22 -62.5t22 -62.5t59 -23.5t59 23.5t22 62.5t-22 62.5t-59 23.5zM351 804q-46 0 -74 28.5t-28 74.5t28 74.5t74 28.5t74 -28.5t28 -74.5t-28 -74.5 t-74 -28.5z"/>
<glyph glyph-name="AE" horiz-adv-x="1045" unicode="Æ" d="M562 251l-135 466l-266 -466h401zM981 20v-20h-346l-67 231h-418l-132 -231h-25l422 740h556v-20h-522l97 -331h405v-20h-399l102 -349h327z"/>
<glyph glyph-name="Ccedilla" horiz-adv-x="749" unicode="Ç" d="M413 -10l-44 -67q15 3 36 3q47 0 75.5 -21t28.5 -55q0 -36 -30.5 -58t-80.5 -22q-63 0 -92 31l9 17q27 -28 81 -28q40 0 64.5 16.5t24.5 43.5q0 26 -24 42t-63 16q-29 0 -53 -9l-6 12l52 80q-150 9 -240.5 112.5t-90.5 267.5q0 170 99 274.5t260 104.5q157 0 269 -121 l-15 -15q-107 116 -250 116q-152 0 -245 -98.5t-93 -259.5q0 -163 91.5 -262.5t240.5 -99.5q86 0 157 37.5t116 99.5l17 -16q-48 -65 -123 -103t-166 -38h-5z"/>
<glyph glyph-name="Egrave" horiz-adv-x="604" unicode="È" d="M540 20v-20h-428v740h418v-20h-395v-331h375v-20h-375v-349h405zM313 840l-136 140h32l126 -140h-22z"/>
<glyph glyph-name="Eacute" horiz-adv-x="604" unicode="É" d="M540 20v-20h-428v740h418v-20h-395v-331h375v-20h-375v-349h405zM329 840h-22l126 140h32z"/>
<glyph glyph-name="Ecircumflex" horiz-adv-x="604" unicode="Ê" d="M540 20v-20h-428v740h418v-20h-395v-331h375v-20h-375v-349h405zM203 840h-24l128 140h28l128 -140h-24l-118 125z"/>
<glyph glyph-name="Edieresis" horiz-adv-x="604" unicode="Ë" d="M540 20v-20h-428v740h418v-20h-395v-331h375v-20h-375v-349h405zM405 911q-9 0 -15.5 6.5t-6.5 15.5t6.5 15.5t15.5 6.5t15.5 -6.5t6.5 -15.5t-6.5 -15.5t-15.5 -6.5zM236 911q-9 0 -15.5 6.5t-6.5 15.5t6.5 15.5t15.5 6.5t15.5 -6.5t6.5 -15.5t-6.5 -15.5t-15.5 -6.5z "/>
<glyph glyph-name="Igrave" horiz-adv-x="247" unicode="Ì" d="M135 0h-23v740h23v-740zM-20 980h32l126 -140h-22z"/>
<glyph glyph-name="Iacute" horiz-adv-x="247" unicode="Í" d="M135 0h-23v740h23v-740zM110 840l126 140h32l-136 -140h-22z"/>
<glyph glyph-name="Icircumflex" horiz-adv-x="247" unicode="Î" d="M112 740h23v-740h-23v740zM266 840h-24l-118 125l-118 -125h-24l128 140h28z"/>
<glyph glyph-name="Idieresis" horiz-adv-x="247" unicode="Ï" d="M135 0h-23v740h23v-740zM208 911q-9 0 -15.5 6.5t-6.5 15.5t6.5 15.5t15.5 6.5t15.5 -6.5t6.5 -15.5t-6.5 -15.5t-15.5 -6.5zM39 911q-9 0 -15.5 6.5t-6.5 15.5t6.5 15.5t15.5 6.5t15.5 -6.5t6.5 -15.5t-6.5 -15.5t-15.5 -6.5z"/>
<glyph glyph-name="Eth" horiz-adv-x="745" unicode="Ð" d="M320 20q153 0 246.5 95.5t93.5 251.5q0 159 -93.5 256t-246.5 97h-185v-339h230v-18h-230v-343h185zM330 740q160 0 257.5 -102.5t97.5 -270.5q0 -165 -97.5 -266t-257.5 -101h-218v363h-91v18h91v359h218z"/>
<glyph glyph-name="Ntilde" horiz-adv-x="817" unicode="Ñ" d="M705 740v-740h-17l-553 696v-696h-23v740h17l553 -696v696h23zM261 864h-20q0 43 25 69.5t62 26.5q29 0 56 -21t52.5 -42t51.5 -21q27 0 46 20.5t19 53.5h20q0 -43 -25 -69.5t-62 -26.5q-29 0 -56 21t-52.5 42t-51.5 21q-27 0 -46 -20.5t-19 -53.5z"/>
<glyph glyph-name="Ograve" horiz-adv-x="829" unicode="Ò" d="M415 10q148 0 238.5 99t90.5 261t-90.5 261t-238.5 99q-149 0 -239.5 -99t-90.5 -261t90.5 -261t239.5 -99zM415 -10q-160 0 -257.5 104.5t-97.5 275.5t97.5 275.5t257.5 104.5q159 0 256.5 -104.5t97.5 -275.5t-97.5 -275.5t-256.5 -104.5zM271 980h32l126 -140h-22z "/>
<glyph glyph-name="Oacute" horiz-adv-x="829" unicode="Ó" d="M415 10q148 0 238.5 99t90.5 261t-90.5 261t-238.5 99q-149 0 -239.5 -99t-90.5 -261t90.5 -261t239.5 -99zM415 -10q-160 0 -257.5 104.5t-97.5 275.5t97.5 275.5t257.5 104.5q159 0 256.5 -104.5t97.5 -275.5t-97.5 -275.5t-256.5 -104.5zM401 840l126 140h32 l-136 -140h-22z"/>
<glyph glyph-name="Ocircumflex" horiz-adv-x="829" unicode="Ô" d="M415 10q148 0 238.5 99t90.5 261t-90.5 261t-238.5 99q-149 0 -239.5 -99t-90.5 -261t90.5 -261t239.5 -99zM415 750q159 0 256.5 -104.5t97.5 -275.5t-97.5 -275.5t-256.5 -104.5q-160 0 -257.5 104.5t-97.5 275.5t97.5 275.5t257.5 104.5zM297 840h-24l128 140h28 l128 -140h-24l-118 125z"/>
<glyph glyph-name="Otilde" horiz-adv-x="829" unicode="Õ" d="M415 10q148 0 238.5 99t90.5 261t-90.5 261t-238.5 99q-149 0 -239.5 -99t-90.5 -261t90.5 -261t239.5 -99zM415 -10q-160 0 -257.5 104.5t-97.5 275.5t97.5 275.5t257.5 104.5q159 0 256.5 -104.5t97.5 -275.5t-97.5 -275.5t-256.5 -104.5zM268 864h-20q0 43 25 69.5 t62 26.5q29 0 56 -21t52.5 -42t51.5 -21q27 0 46 20.5t19 53.5h20q0 -43 -25 -69.5t-62 -26.5q-29 0 -56 21t-52.5 42t-51.5 21q-27 0 -46 -20.5t-19 -53.5z"/>
<glyph glyph-name="Odieresis" horiz-adv-x="829" unicode="Ö" d="M415 10q148 0 238.5 99t90.5 261t-90.5 261t-238.5 99q-149 0 -239.5 -99t-90.5 -261t90.5 -261t239.5 -99zM415 -10q-160 0 -257.5 104.5t-97.5 275.5t97.5 275.5t257.5 104.5q159 0 256.5 -104.5t97.5 -275.5t-97.5 -275.5t-256.5 -104.5zM499 911q-9 0 -15.5 6.5 t-6.5 15.5t6.5 15.5t15.5 6.5t15.5 -6.5t6.5 -15.5t-6.5 -15.5t-15.5 -6.5zM330 911q-9 0 -15.5 6.5t-6.5 15.5t6.5 15.5t15.5 6.5t15.5 -6.5t6.5 -15.5t-6.5 -15.5t-15.5 -6.5z"/>
<glyph glyph-name="multiply" horiz-adv-x="485" unicode="×" d="M256 344l154 -155l-13 -13l-154 155l-155 -155l-13 13l155 155l-155 154l13 13l155 -154l154 154l13 -13z"/>
<glyph glyph-name="Oslash" horiz-adv-x="835" unicode="Ø" d="M418 10q148 0 238.5 99t90.5 261q0 157 -84 253l-477 -521q89 -92 232 -92zM88 370q0 -155 83 -252l478 521q-89 91 -231 91q-148 0 -239 -99t-91 -261zM679 640q93 -104 93 -270q0 -171 -97.5 -275.5t-256.5 -104.5q-151 0 -248 95l-87 -95l-16 14l88 96 q-92 103 -92 270q0 171 97.5 275.5t257.5 104.5q150 0 247 -94l86 94l16 -14z"/>
<glyph glyph-name="Ugrave" horiz-adv-x="780" unicode="Ù" d="M678 740v-489q0 -118 -79 -189.5t-209 -71.5t-209 71.5t-79 189.5v489h23v-488q0 -109 73 -175.5t192 -66.5t192 66.5t73 175.5v488h23zM246 980h32l126 -140h-22z"/>
<glyph glyph-name="Uacute" horiz-adv-x="780" unicode="Ú" d="M678 740v-489q0 -118 -79 -189.5t-209 -71.5t-209 71.5t-79 189.5v489h23v-488q0 -109 73 -175.5t192 -66.5t192 66.5t73 175.5v488h23zM376 840l126 140h32l-136 -140h-22z"/>
<glyph glyph-name="Ucircumflex" horiz-adv-x="780" unicode="Û" d="M678 740v-489q0 -118 -79 -189.5t-209 -71.5t-209 71.5t-79 189.5v489h23v-488q0 -109 73 -175.5t192 -66.5t192 66.5t73 175.5v488h23zM272 840h-24l128 140h28l128 -140h-24l-118 125z"/>
<glyph glyph-name="Udieresis" horiz-adv-x="780" unicode="Ü" d="M678 740v-489q0 -118 -79 -189.5t-209 -71.5t-209 71.5t-79 189.5v489h23v-488q0 -109 73 -175.5t192 -66.5t192 66.5t73 175.5v488h23zM474 911q-9 0 -15.5 6.5t-6.5 15.5t6.5 15.5t15.5 6.5t15.5 -6.5t6.5 -15.5t-6.5 -15.5t-15.5 -6.5zM305 911q-9 0 -15.5 6.5 t-6.5 15.5t6.5 15.5t15.5 6.5t15.5 -6.5t6.5 -15.5t-6.5 -15.5t-15.5 -6.5z"/>
<glyph glyph-name="Yacute" horiz-adv-x="627" unicode="Ý" d="M607 740l-282 -418v-322h-23v322l-282 418h28l266 -396l265 396h28zM323 840h-22l126 140h32z"/>
<glyph glyph-name="Thorn" horiz-adv-x="626" unicode="Þ" d="M350 180q94 0 151.5 53.5t57.5 141.5t-57.5 141.5t-151.5 53.5h-215v-390h215zM356 590q103 0 165.5 -59t62.5 -155q0 -97 -61.5 -156.5t-162.5 -59.5h-225v-160h-23v740h23v-150h221z"/>
<glyph glyph-name="germandbls" horiz-adv-x="588" unicode="ß" d="M354 418q84 -16 132.5 -72.5t48.5 -140.5q0 -97 -66.5 -156t-173.5 -59q-40 0 -75 12l3 18q33 -12 71 -12q99 0 159 55t60 145t-60.5 145t-158.5 55v18q82 0 132 47.5t50 125.5t-50 125.5t-132 47.5t-132 -47.5t-50 -125.5v-599h-20v602q0 85 55.5 136.5t146.5 51.5 q92 0 148 -51.5t56 -136.5q0 -71 -38.5 -119.5t-105.5 -64.5z"/>
<glyph glyph-name="agrave" horiz-adv-x="536" unicode="à" d="M211 8q83 0 151.5 64.5t68.5 170.5q-86 24 -180 24q-84 0 -135 -36.5t-51 -96.5q0 -57 40 -91.5t106 -34.5zM252 530q90 0 144.5 -55.5t54.5 -146.5v-328h-20v151q-24 -74 -85.5 -117.5t-138.5 -43.5q-74 0 -119 39.5t-45 103.5q0 68 56.5 110t149.5 42q94 0 182 -24v60 q0 86 -49.5 138.5t-131.5 52.5q-100 0 -161 -72l-12 15q62 75 175 75zM257 620l-136 140h32l126 -140h-22z"/>
<glyph glyph-name="aacute" horiz-adv-x="536" unicode="á" d="M211 8q83 0 151.5 64.5t68.5 170.5q-86 24 -180 24q-84 0 -135 -36.5t-51 -96.5q0 -57 40 -91.5t106 -34.5zM252 530q90 0 144.5 -55.5t54.5 -146.5v-328h-20v151q-24 -74 -85.5 -117.5t-138.5 -43.5q-74 0 -119 39.5t-45 103.5q0 68 56.5 110t149.5 42q94 0 182 -24v60 q0 86 -49.5 138.5t-131.5 52.5q-100 0 -161 -72l-12 15q62 75 175 75zM273 620h-22l126 140h32z"/>
<glyph glyph-name="acircumflex" horiz-adv-x="536" unicode="â" d="M211 8q83 0 151.5 64.5t68.5 170.5q-86 24 -180 24q-84 0 -135 -36.5t-51 -96.5q0 -57 40 -91.5t106 -34.5zM252 530q90 0 144.5 -55.5t54.5 -146.5v-328h-20v151q-24 -74 -85.5 -117.5t-138.5 -43.5q-74 0 -119 39.5t-45 103.5q0 68 56.5 110t149.5 42q94 0 182 -24v60 q0 86 -49.5 138.5t-131.5 52.5q-100 0 -161 -72l-12 15q62 75 175 75zM147 620h-24l128 140h28l128 -140h-24l-118 125z"/>
<glyph glyph-name="atilde" horiz-adv-x="536" unicode="ã" d="M211 8q83 0 151.5 64.5t68.5 170.5q-86 24 -180 24q-84 0 -135 -36.5t-51 -96.5q0 -57 40 -91.5t106 -34.5zM252 530q90 0 144.5 -55.5t54.5 -146.5v-328h-20v151q-24 -74 -85.5 -117.5t-138.5 -43.5q-74 0 -119 39.5t-45 103.5q0 68 56.5 110t149.5 42q94 0 182 -24v60 q0 86 -49.5 138.5t-131.5 52.5q-100 0 -161 -72l-12 15q62 75 175 75zM183 718q-27 0 -46 -20.5t-19 -53.5h-20q0 43 25 69.5t62 26.5q29 0 56 -21t52.5 -42t51.5 -21q27 0 46 20.5t19 53.5h20q0 -43 -25 -69.5t-62 -26.5q-29 0 -56 21t-52.5 42t-51.5 21z"/>
<glyph glyph-name="adieresis" horiz-adv-x="536" unicode="ä" d="M211 8q83 0 151.5 64.5t68.5 170.5q-86 24 -180 24q-84 0 -135 -36.5t-51 -96.5q0 -57 40 -91.5t106 -34.5zM252 530q90 0 144.5 -55.5t54.5 -146.5v-328h-20v151q-24 -74 -85.5 -117.5t-138.5 -43.5q-74 0 -119 39.5t-45 103.5q0 68 56.5 110t149.5 42q94 0 182 -24v60 q0 86 -49.5 138.5t-131.5 52.5q-100 0 -161 -72l-12 15q62 75 175 75zM349 691q-9 0 -15.5 6.5t-6.5 15.5t6.5 15.5t15.5 6.5t15.5 -6.5t6.5 -15.5t-6.5 -15.5t-15.5 -6.5zM180 691q-9 0 -15.5 6.5t-6.5 15.5t6.5 15.5t15.5 6.5t15.5 -6.5t6.5 -15.5t-6.5 -15.5t-15.5 -6.5z "/>
<glyph glyph-name="aring" horiz-adv-x="536" unicode="å" d="M211 8q83 0 151.5 64.5t68.5 170.5q-86 24 -180 24q-84 0 -135 -36.5t-51 -96.5q0 -57 40 -91.5t106 -34.5zM252 530q90 0 144.5 -55.5t54.5 -146.5v-328h-20v151q-24 -74 -85.5 -117.5t-138.5 -43.5q-74 0 -119 39.5t-45 103.5q0 68 56.5 110t149.5 42q94 0 182 -24v60 q0 86 -49.5 138.5t-131.5 52.5q-100 0 -161 -72l-12 15q62 75 175 75zM265 773q-37 0 -59 -23.5t-22 -62.5t22 -62.5t59 -23.5t59 23.5t22 62.5t-22 62.5t-59 23.5zM265 584q-46 0 -74 28.5t-28 74.5t28 74.5t74 28.5t74 -28.5t28 -74.5t-28 -74.5t-74 -28.5z"/>
<glyph glyph-name="ae" horiz-adv-x="948" unicode="æ" d="M211 8q83 0 151.5 64.5t68.5 170.5q-86 24 -180 24q-84 0 -135 -36.5t-51 -96.5q0 -57 40 -91.5t106 -34.5zM665 512q-95 0 -153 -66.5t-60 -176.5h425q-1 109 -59 176t-153 67zM899 251h-447q4 -110 62 -176.5t151 -66.5q123 0 204 111l14 -13q-80 -116 -218 -116 q-84 0 -143 49t-80 135q-18 -84 -83.5 -134t-151.5 -50q-74 0 -119 39.5t-45 103.5q0 68 56.5 110t149.5 42q94 0 182 -24v60q0 86 -49.5 138.5t-131.5 52.5q-100 0 -161 -72l-12 15q62 75 175 75q79 0 131.5 -43.5t64.5 -116.5q24 75 81 117.5t136 42.5q105 0 169.5 -73 t64.5 -191v-15z"/>
<glyph glyph-name="ccedilla" horiz-adv-x="526" unicode="ç" d="M298 -74q47 0 75.5 -21t28.5 -55q0 -36 -30.5 -58t-80.5 -22q-63 0 -92 31l9 17q27 -28 81 -28q40 0 64.5 16.5t24.5 43.5q0 26 -24 42t-63 16q-29 0 -53 -9l-6 12l52 80q-104 8 -166.5 81t-62.5 189q0 121 70.5 195t185.5 74q94 0 161 -54l-13 -15q-65 51 -150 51 q-104 0 -168 -69.5t-64 -182.5t64.5 -182.5t169.5 -69.5q98 0 163 64l13 -15q-69 -67 -180 -67h-1l-44 -67q15 3 36 3z"/>
<glyph glyph-name="egrave" horiz-adv-x="574" unicode="è" d="M291 512q-95 0 -153 -66.5t-60 -176.5h425q-1 109 -59 176t-153 67zM525 251h-447q4 -110 62 -176.5t151 -66.5q123 0 204 111l14 -13q-80 -116 -218 -116q-106 0 -170.5 75.5t-64.5 198.5q0 120 64.5 193t170.5 73q105 0 169.5 -73t64.5 -191v-15zM283 620l-136 140h32 l126 -140h-22z"/>
<glyph glyph-name="eacute" horiz-adv-x="574" unicode="é" d="M291 512q-95 0 -153 -66.5t-60 -176.5h425q-1 109 -59 176t-153 67zM525 251h-447q4 -110 62 -176.5t151 -66.5q123 0 204 111l14 -13q-80 -116 -218 -116q-106 0 -170.5 75.5t-64.5 198.5q0 120 64.5 193t170.5 73q105 0 169.5 -73t64.5 -191v-15zM299 620h-22l126 140 h32z"/>
<glyph glyph-name="ecircumflex" horiz-adv-x="574" unicode="ê" d="M291 512q-95 0 -153 -66.5t-60 -176.5h425q-1 109 -59 176t-153 67zM525 251h-447q4 -110 62 -176.5t151 -66.5q123 0 204 111l14 -13q-80 -116 -218 -116q-106 0 -170.5 75.5t-64.5 198.5q0 120 64.5 193t170.5 73q105 0 169.5 -73t64.5 -191v-15zM173 620h-24l128 140 h28l128 -140h-24l-118 125z"/>
<glyph glyph-name="edieresis" horiz-adv-x="574" unicode="ë" d="M291 512q-95 0 -153 -66.5t-60 -176.5h425q-1 109 -59 176t-153 67zM525 251h-447q4 -110 62 -176.5t151 -66.5q123 0 204 111l14 -13q-80 -116 -218 -116q-106 0 -170.5 75.5t-64.5 198.5q0 120 64.5 193t170.5 73q105 0 169.5 -73t64.5 -191v-15zM375 691 q-9 0 -15.5 6.5t-6.5 15.5t6.5 15.5t15.5 6.5t15.5 -6.5t6.5 -15.5t-6.5 -15.5t-15.5 -6.5zM206 691q-9 0 -15.5 6.5t-6.5 15.5t6.5 15.5t15.5 6.5t15.5 -6.5t6.5 -15.5t-6.5 -15.5t-15.5 -6.5z"/>
<glyph glyph-name="igrave" horiz-adv-x="208" unicode="ì" d="M114 520v-520h-20v520h20zM-40 760h32l126 -140h-22z"/>
<glyph glyph-name="iacute" horiz-adv-x="208" unicode="í" d="M114 520v-520h-20v520h20zM90 620l126 140h32l-136 -140h-22z"/>
<glyph glyph-name="icircumflex" horiz-adv-x="208" unicode="î" d="M94 520h20v-520h-20v520zM246 620h-24l-118 125l-118 -125h-24l128 140h28z"/>
<glyph glyph-name="idieresis" horiz-adv-x="208" unicode="ï" d="M114 520v-520h-20v520h20zM188 691q-9 0 -15.5 6.5t-6.5 15.5t6.5 15.5t15.5 6.5t15.5 -6.5t6.5 -15.5t-6.5 -15.5t-15.5 -6.5zM19 691q-9 0 -15.5 6.5t-6.5 15.5t6.5 15.5t15.5 6.5t15.5 -6.5t6.5 -15.5t-6.5 -15.5t-15.5 -6.5z"/>
<glyph glyph-name="eth" horiz-adv-x="622" unicode="ð" d="M310 8q104 0 168 69.5t64 182.5t-64.5 182.5t-167.5 69.5q-105 0 -169 -69.5t-64 -182.5t64 -182.5t169 -69.5zM319 712q245 -186 245 -435q0 -133 -69.5 -210t-184.5 -77t-185 74t-70 196t68.5 196t181.5 74q155 0 220 -125q-53 168 -223 296l-98 -67l-16 12l98 67 q-49 36 -102 65l17 12q55 -32 102 -66l97 66l16 -12z"/>
<glyph glyph-name="ntilde" horiz-adv-x="621" unicode="ñ" d="M317 530q98 0 158.5 -55t60.5 -146v-329h-20v321q0 86 -55.5 138.5t-146.5 52.5t-146.5 -52.5t-55.5 -138.5v-321h-20v520h20v-118q43 128 205 128zM232 718q-27 0 -46 -20.5t-19 -53.5h-20q0 43 25 69.5t62 26.5q29 0 56 -21t52.5 -42t51.5 -21q27 0 46 20.5t19 53.5h20 q0 -43 -25 -69.5t-62 -26.5q-29 0 -56 21t-52.5 42t-51.5 21z"/>
<glyph glyph-name="ograve" horiz-adv-x="619" unicode="ò" d="M310 8q104 0 168 69.5t64 182.5t-64 182.5t-168 69.5q-105 0 -169 -69.5t-64 -182.5t64 -182.5t169 -69.5zM310 -10q-115 0 -185 74t-70 196t70 196t185 74q114 0 184 -74.5t70 -195.5t-70 -195.5t-184 -74.5zM166 760h32l126 -140h-22z"/>
<glyph glyph-name="oacute" horiz-adv-x="619" unicode="ó" d="M310 8q104 0 168 69.5t64 182.5t-64 182.5t-168 69.5q-105 0 -169 -69.5t-64 -182.5t64 -182.5t169 -69.5zM310 -10q-115 0 -185 74t-70 196t70 196t185 74q114 0 184 -74.5t70 -195.5t-70 -195.5t-184 -74.5zM296 620l126 140h32l-136 -140h-22z"/>
<glyph glyph-name="ocircumflex" horiz-adv-x="619" unicode="ô" d="M310 8q104 0 168 69.5t64 182.5t-64 182.5t-168 69.5q-105 0 -169 -69.5t-64 -182.5t64 -182.5t169 -69.5zM310 530q114 0 184 -74.5t70 -195.5t-70 -195.5t-184 -74.5q-115 0 -185 74t-70 196t70 196t185 74zM192 620h-24l128 140h28l128 -140h-24l-118 125z"/>
<glyph glyph-name="otilde" horiz-adv-x="619" unicode="õ" d="M310 8q104 0 168 69.5t64 182.5t-64 182.5t-168 69.5q-105 0 -169 -69.5t-64 -182.5t64 -182.5t169 -69.5zM310 -10q-115 0 -185 74t-70 196t70 196t185 74q114 0 184 -74.5t70 -195.5t-70 -195.5t-184 -74.5zM163 644h-20q0 43 25 69.5t62 26.5q29 0 56 -21t52.5 -42 t51.5 -21q27 0 46 20.5t19 53.5h20q0 -43 -25 -69.5t-62 -26.5q-29 0 -56 21t-52.5 42t-51.5 21q-27 0 -46 -20.5t-19 -53.5z"/>
<glyph glyph-name="odieresis" horiz-adv-x="619" unicode="ö" d="M310 8q104 0 168 69.5t64 182.5t-64 182.5t-168 69.5q-105 0 -169 -69.5t-64 -182.5t64 -182.5t169 -69.5zM310 -10q-115 0 -185 74t-70 196t70 196t185 74q114 0 184 -74.5t70 -195.5t-70 -195.5t-184 -74.5zM394 691q-9 0 -15.5 6.5t-6.5 15.5t6.5 15.5t15.5 6.5 t15.5 -6.5t6.5 -15.5t-6.5 -15.5t-15.5 -6.5zM225 691q-9 0 -15.5 6.5t-6.5 15.5t6.5 15.5t15.5 6.5t15.5 -6.5t6.5 -15.5t-6.5 -15.5t-15.5 -6.5z"/>
<glyph glyph-name="divide" horiz-adv-x="558" unicode="÷" d="M279 191q-9 0 -15.5 6.5t-6.5 15.5t6.5 15.5t15.5 6.5t15.5 -6.5t6.5 -15.5t-6.5 -15.5t-15.5 -6.5zM477 353v-18h-396v18h396zM279 453q-9 0 -15.5 6.5t-6.5 15.5t6.5 15.5t15.5 6.5t15.5 -6.5t6.5 -15.5t-6.5 -15.5t-15.5 -6.5z"/>
<glyph glyph-name="oslash" horiz-adv-x="623" unicode="ø" d="M312 8q104 0 168 69.5t64 182.5q0 105 -57 175l-337 -364q63 -63 162 -63zM79 260q0 -105 57 -175l337 365q-64 62 -161 62q-105 0 -169 -69.5t-64 -182.5zM501 450q65 -75 65 -190q0 -121 -70 -195.5t-184 -74.5q-107 0 -176 66l-61 -66l-16 12l63 68q-65 75 -65 190 q0 122 70 196t185 74q106 0 175 -66l61 66l16 -12z"/>
<glyph glyph-name="ugrave" horiz-adv-x="613" unicode="ù" d="M521 520v-520h-20v118q-42 -128 -201 -128q-96 0 -155.5 55.5t-59.5 145.5v329h20v-321q0 -86 54.5 -138.5t143.5 -52.5t143.5 52.5t54.5 138.5v321h20zM295 620l-136 140h32l126 -140h-22z"/>
<glyph glyph-name="uacute" horiz-adv-x="613" unicode="ú" d="M521 520v-520h-20v118q-42 -128 -201 -128q-96 0 -155.5 55.5t-59.5 145.5v329h20v-321q0 -86 54.5 -138.5t143.5 -52.5t143.5 52.5t54.5 138.5v321h20zM311 620h-22l126 140h32z"/>
<glyph glyph-name="ucircumflex" horiz-adv-x="613" unicode="û" d="M521 520v-520h-20v118q-42 -128 -201 -128q-96 0 -155.5 55.5t-59.5 145.5v329h20v-321q0 -86 54.5 -138.5t143.5 -52.5t143.5 52.5t54.5 138.5v321h20zM185 620h-24l128 140h28l128 -140h-24l-118 125z"/>
<glyph glyph-name="udieresis" horiz-adv-x="613" unicode="ü" d="M521 520v-520h-20v118q-42 -128 -201 -128q-96 0 -155.5 55.5t-59.5 145.5v329h20v-321q0 -86 54.5 -138.5t143.5 -52.5t143.5 52.5t54.5 138.5v321h20zM387 691q-9 0 -15.5 6.5t-6.5 15.5t6.5 15.5t15.5 6.5t15.5 -6.5t6.5 -15.5t-6.5 -15.5t-15.5 -6.5zM218 691 q-9 0 -15.5 6.5t-6.5 15.5t6.5 15.5t15.5 6.5t15.5 -6.5t6.5 -15.5t-6.5 -15.5t-15.5 -6.5z"/>
<glyph glyph-name="yacute" horiz-adv-x="540" unicode="ý" d="M219 -136q-23 -49 -44.5 -71.5t-60.5 -22.5q-32 0 -51 9l3 18q18 -9 45 -9q32 0 50.5 19t37.5 60l63 136l-243 517h23l232 -494l228 494h23zM258 620l126 140h32l-136 -140h-22z"/>
<glyph glyph-name="thorn" d="M344 8q105 0 169 69.5t64 183.5q0 113 -64 182t-169 69q-104 0 -168 -69.5t-64 -182.5t64 -182.5t168 -69.5zM349 530q112 0 181 -74t69 -195q0 -122 -68.5 -196.5t-181.5 -74.5q-94 0 -154 45t-83 121v-376h-20v1000h20v-416q23 76 83 121t154 45z" unicode="þ"/>
<glyph glyph-name="ydieresis" horiz-adv-x="540" unicode="ÿ" d="M219 -136q-23 -49 -44.5 -71.5t-60.5 -22.5q-32 0 -51 9l3 18q18 -9 45 -9q32 0 50.5 19t37.5 60l63 136l-243 517h23l232 -494l228 494h23zM356 691q-9 0 -15.5 6.5t-6.5 15.5t6.5 15.5t15.5 6.5t15.5 -6.5t6.5 -15.5t-6.5 -15.5t-15.5 -6.5zM187 691q-9 0 -15.5 6.5 t-6.5 15.5t6.5 15.5t15.5 6.5t15.5 -6.5t6.5 -15.5t-6.5 -15.5t-15.5 -6.5z"/>
<glyph glyph-name="Amacron" horiz-adv-x="701" unicode="Ā" d="M557 251l-206 464l-207 -464h413zM566 231h-431l-103 -231h-25l332 740h23l332 -740h-25zM488 885h-274v18h274v-18z"/>
<glyph glyph-name="amacron" horiz-adv-x="536" unicode="ā" d="M211 8q83 0 151.5 64.5t68.5 170.5q-86 24 -180 24q-84 0 -135 -36.5t-51 -96.5q0 -57 40 -91.5t106 -34.5zM252 530q90 0 144.5 -55.5t54.5 -146.5v-328h-20v151q-24 -74 -85.5 -117.5t-138.5 -43.5q-74 0 -119 39.5t-45 103.5q0 68 56.5 110t149.5 42q94 0 182 -24v60 q0 86 -49.5 138.5t-131.5 52.5q-100 0 -161 -72l-12 15q62 75 175 75zM402 665h-274v18h274v-18z"/>
<glyph glyph-name="Abreve" horiz-adv-x="701" unicode="Ă" d="M557 251l-206 464l-207 -464h413zM566 231h-431l-103 -231h-25l332 740h23l332 -740h-25zM351 830q-64 0 -103.5 41t-39.5 109h22q0 -59 33 -95.5t88 -36.5t88 36.5t33 95.5h22q0 -68 -39.5 -109t-103.5 -41z"/>
<glyph glyph-name="abreve" horiz-adv-x="536" unicode="ă" d="M211 8q83 0 151.5 64.5t68.5 170.5q-86 24 -180 24q-84 0 -135 -36.5t-51 -96.5q0 -57 40 -91.5t106 -34.5zM252 530q90 0 144.5 -55.5t54.5 -146.5v-328h-20v151q-24 -74 -85.5 -117.5t-138.5 -43.5q-74 0 -119 39.5t-45 103.5q0 68 56.5 110t149.5 42q94 0 182 -24v60 q0 86 -49.5 138.5t-131.5 52.5q-100 0 -161 -72l-12 15q62 75 175 75zM265 610q-64 0 -103.5 41t-39.5 109h22q0 -59 33 -95.5t88 -36.5t88 36.5t33 95.5h22q0 -68 -39.5 -109t-103.5 -41z"/>
<glyph glyph-name="Aogonek" horiz-adv-x="701" unicode="Ą" d="M557 251l-206 464l-207 -464h413zM589 -211q56 0 83 47l17 -12q-33 -54 -100 -54q-47 0 -73.5 27t-26.5 73q0 62 47 101t126 44l-96 216h-431l-103 -231h-25l332 740h23l332 -740h-13q-76 0 -122 -35.5t-46 -93.5q0 -37 20 -59.5t56 -22.5z"/>
<glyph glyph-name="aogonek" horiz-adv-x="536" unicode="ą" d="M211 8q83 0 151.5 64.5t68.5 170.5q-86 24 -180 24q-84 0 -135 -36.5t-51 -96.5q0 -57 40 -91.5t106 -34.5zM459 -176q-33 -54 -100 -54q-47 0 -73.5 27t-26.5 73q0 62 47 101t125 44v136q-24 -74 -85.5 -117.5t-138.5 -43.5q-74 0 -119 39.5t-45 103.5q0 68 56.5 110 t149.5 42q94 0 182 -24v60q0 86 -49.5 138.5t-131.5 52.5q-100 0 -161 -72l-12 15q62 75 175 75q90 0 144.5 -55.5t54.5 -146.5v-328q-76 0 -122 -35.5t-46 -93.5q0 -37 20 -59.5t56 -22.5q56 0 83 47z"/>
<glyph glyph-name="Cacute" horiz-adv-x="749" unicode="Ć" d="M673 614q-107 116 -250 116q-152 0 -245 -98.5t-93 -259.5q0 -163 91.5 -262.5t240.5 -99.5q86 0 157 37.5t116 99.5l17 -16q-48 -65 -123 -103t-166 -38q-161 0 -259.5 104.5t-98.5 276.5q0 170 99 274.5t260 104.5q157 0 269 -121zM395 840l126 140h32l-136 -140h-22z "/>
<glyph glyph-name="cacute" horiz-adv-x="526" unicode="ć" d="M459 461q-65 51 -150 51q-104 0 -168 -69.5t-64 -182.5t64.5 -182.5t169.5 -69.5q98 0 163 64l13 -15q-69 -67 -180 -67q-113 0 -182.5 74.5t-69.5 196.5q0 121 70.5 195t185.5 74q94 0 161 -54zM289 620l126 140h32l-136 -140h-22z"/>
<glyph glyph-name="Cdotaccent" horiz-adv-x="749" unicode="Ċ" d="M673 614q-107 116 -250 116q-152 0 -245 -98.5t-93 -259.5q0 -163 91.5 -262.5t240.5 -99.5q86 0 157 37.5t116 99.5l17 -16q-48 -65 -123 -103t-166 -38q-161 0 -259.5 104.5t-98.5 276.5q0 170 99 274.5t260 104.5q157 0 269 -121zM409 911q-9 0 -15.5 6.5t-6.5 15.5 t6.5 15.5t15.5 6.5t15.5 -6.5t6.5 -15.5t-6.5 -15.5t-15.5 -6.5z"/>
<glyph glyph-name="cdotaccent" horiz-adv-x="526" unicode="ċ" d="M459 461q-65 51 -150 51q-104 0 -168 -69.5t-64 -182.5t64.5 -182.5t169.5 -69.5q98 0 163 64l13 -15q-69 -67 -180 -67q-113 0 -182.5 74.5t-69.5 196.5q0 121 70.5 195t185.5 74q94 0 161 -54zM303 691q-9 0 -15.5 6.5t-6.5 15.5t6.5 15.5t15.5 6.5t15.5 -6.5 t6.5 -15.5t-6.5 -15.5t-15.5 -6.5z"/>
<glyph glyph-name="Ccaron" horiz-adv-x="749" unicode="Č" d="M707 131q-48 -65 -123 -103t-166 -38q-161 0 -259.5 104.5t-98.5 276.5q0 170 99 274.5t260 104.5q157 0 269 -121l-15 -15q-107 116 -250 116q-152 0 -245 -98.5t-93 -259.5q0 -163 91.5 -262.5t240.5 -99.5q86 0 157 37.5t116 99.5zM395 840l-128 140h24l118 -125 l118 125h24l-128 -140h-28z"/>
<glyph glyph-name="ccaron" horiz-adv-x="526" unicode="č" d="M487 57q-69 -67 -180 -67q-113 0 -182.5 74.5t-69.5 196.5q0 121 70.5 195t185.5 74q94 0 161 -54l-13 -15q-65 51 -150 51q-104 0 -168 -69.5t-64 -182.5t64.5 -182.5t169.5 -69.5q98 0 163 64zM289 620l-128 140h24l118 -125l118 125h24l-128 -140h-28z"/>
<glyph glyph-name="Dcaron" horiz-adv-x="745" unicode="Ď" d="M320 20q153 0 246.5 95.5t93.5 251.5q0 159 -93.5 256t-246.5 97h-185v-700h185zM330 740q160 0 257.5 -102.5t97.5 -270.5q0 -165 -97.5 -266t-257.5 -101h-218v740h218zM291 840l-128 140h24l118 -125l118 125h24l-128 -140h-28z"/>
<glyph glyph-name="dcaron" horiz-adv-x="659" unicode="ď" d="M310 8q104 0 168 69.5t64 182.5t-64 182.5t-168 69.5q-105 0 -169 -69.5t-64 -183.5q0 -113 64 -182t169 -69zM700 780l-72 -187h-18l68 187h22zM542 780h20v-780h-20v156q-23 -76 -83 -121t-154 -45q-112 0 -181 74t-69 195q0 122 68.5 196.5t181.5 74.5q94 0 154 -45 t83 -121v416z"/>
<glyph glyph-name="Dcroat" horiz-adv-x="745" unicode="Đ" d="M320 20q153 0 246.5 95.5t93.5 251.5q0 159 -93.5 256t-246.5 97h-185v-339h230v-18h-230v-343h185zM330 740q160 0 257.5 -102.5t97.5 -270.5q0 -165 -97.5 -266t-257.5 -101h-218v363h-91v18h91v359h218z"/>
<glyph glyph-name="dcroat" d="M310 8q104 0 168 69.5t64 182.5t-64 182.5t-168 69.5q-105 0 -169 -69.5t-64 -183.5q0 -113 64 -182t169 -69zM654 646h-92v-646h-20v156q-23 -76 -83 -121t-154 -45q-112 0 -181 74t-69 195q0 122 68.5 196.5t181.5 74.5q94 0 154 -45t83 -121v282h-232v18h232v116h20 v-116h92v-18z" unicode="đ"/>
<glyph glyph-name="Emacron" horiz-adv-x="604" unicode="Ē" d="M540 20v-20h-428v740h418v-20h-395v-331h375v-20h-375v-349h405zM458 885h-274v18h274v-18z"/>
<glyph glyph-name="emacron" horiz-adv-x="574" unicode="ē" d="M291 512q-95 0 -153 -66.5t-60 -176.5h425q-1 109 -59 176t-153 67zM525 251h-447q4 -110 62 -176.5t151 -66.5q123 0 204 111l14 -13q-80 -116 -218 -116q-106 0 -170.5 75.5t-64.5 198.5q0 120 64.5 193t170.5 73q105 0 169.5 -73t64.5 -191v-15zM428 665h-274v18h274 v-18z"/>
<glyph glyph-name="Edotaccent" horiz-adv-x="604" unicode="Ė" d="M540 20v-20h-428v740h418v-20h-395v-331h375v-20h-375v-349h405zM321 911q-9 0 -15.5 6.5t-6.5 15.5t6.5 15.5t15.5 6.5t15.5 -6.5t6.5 -15.5t-6.5 -15.5t-15.5 -6.5z"/>
<glyph glyph-name="edotaccent" horiz-adv-x="574" unicode="ė" d="M291 512q-95 0 -153 -66.5t-60 -176.5h425q-1 109 -59 176t-153 67zM525 251h-447q4 -110 62 -176.5t151 -66.5q123 0 204 111l14 -13q-80 -116 -218 -116q-106 0 -170.5 75.5t-64.5 198.5q0 120 64.5 193t170.5 73q105 0 169.5 -73t64.5 -191v-15zM291 691 q-9 0 -15.5 6.5t-6.5 15.5t6.5 15.5t15.5 6.5t15.5 -6.5t6.5 -15.5t-6.5 -15.5t-15.5 -6.5z"/>
<glyph glyph-name="Eogonek" horiz-adv-x="604" unicode="Ę" d="M548 -176q-33 -54 -100 -54q-47 0 -73.5 27t-26.5 73q0 45 25.5 78.5t71.5 51.5h-333v740h418v-20h-395v-331h375v-20h-375v-349h405v-20q-76 0 -122 -35.5t-46 -93.5q0 -37 20 -59.5t56 -22.5q56 0 83 47z"/>
<glyph glyph-name="eogonek" horiz-adv-x="574" unicode="ę" d="M291 512q-95 0 -153 -66.5t-60 -176.5h425q-1 109 -59 176t-153 67zM525 251h-447q4 -110 62 -176.5t151 -66.5q123 0 204 111l14 -13q-31 -43 -75 -75q-63 -46 -99 -85.5t-36 -83.5q0 -32 20.5 -52.5t55.5 -20.5q56 0 83 47l17 -12q-33 -54 -101 -54q-46 0 -72.5 25 t-26.5 66q0 70 89 139q-33 -10 -73 -10q-106 0 -170.5 75.5t-64.5 198.5q0 120 64.5 193t170.5 73q105 0 169.5 -73t64.5 -191v-15z"/>
<glyph glyph-name="Ecaron" horiz-adv-x="604" unicode="Ě" d="M540 20v-20h-428v740h418v-20h-395v-331h375v-20h-375v-349h405zM307 840l-128 140h24l118 -125l118 125h24l-128 -140h-28z"/>
<glyph glyph-name="ecaron" horiz-adv-x="574" unicode="ě" d="M291 512q-95 0 -153 -66.5t-60 -176.5h425q-1 109 -59 176t-153 67zM525 251h-447q4 -110 62 -176.5t151 -66.5q123 0 204 111l14 -13q-80 -116 -218 -116q-106 0 -170.5 75.5t-64.5 198.5q0 120 64.5 193t170.5 73q105 0 169.5 -73t64.5 -191v-15zM277 620l-128 140h24 l118 -125l118 125h24l-128 -140h-28z"/>
<glyph glyph-name="Gbreve" horiz-adv-x="783" unicode="Ğ" d="M744 370q-1 -176 -91 -278t-245 -102q-156 0 -251.5 104.5t-95.5 275.5t95.5 275.5t251.5 104.5q72 0 126 -16t109 -56l-15 -16q-90 68 -220 68q-145 0 -233.5 -99t-88.5 -261t89 -261t234 -99q139 0 223 94t87 249h-270v20h295v-3zM408 830q-64 0 -103.5 41t-39.5 109 h22q0 -59 33 -95.5t88 -36.5t88 36.5t33 95.5h22q0 -68 -39.5 -109t-103.5 -41z"/>
<glyph glyph-name="gbreve" d="M311 8q104 0 168 69.5t64 182.5t-64 182.5t-168 69.5q-105 0 -169 -69t-64 -182q0 -114 64 -183.5t169 -69.5zM563 520v-492q0 -116 -73.5 -187t-193.5 -71q-138 0 -226 70l5 18q95 -70 220 -70q112 0 180 67.5t68 177.5v123q-23 -76 -83 -121t-154 -45 q-113 0 -181.5 74.5t-68.5 196.5q0 121 69 195t181 74q94 0 154 -45t83 -121v156h20zM322 610q-64 0 -103.5 41t-39.5 109h22q0 -59 33 -95.5t88 -36.5t88 36.5t33 95.5h22q0 -68 -39.5 -109t-103.5 -41z" unicode="ğ"/>
<glyph glyph-name="Gdotaccent" horiz-adv-x="783" unicode="Ġ" d="M744 370q-1 -176 -91 -278t-245 -102q-156 0 -251.5 104.5t-95.5 275.5t95.5 275.5t251.5 104.5q72 0 126 -16t109 -56l-15 -16q-90 68 -220 68q-145 0 -233.5 -99t-88.5 -261t89 -261t234 -99q139 0 223 94t87 249h-270v20h295v-3zM408 911q-9 0 -15.5 6.5t-6.5 15.5 t6.5 15.5t15.5 6.5t15.5 -6.5t6.5 -15.5t-6.5 -15.5t-15.5 -6.5z"/>
<glyph glyph-name="gdotaccent" d="M311 8q104 0 168 69.5t64 182.5t-64 182.5t-168 69.5q-105 0 -169 -69t-64 -182q0 -114 64 -183.5t169 -69.5zM563 520v-492q0 -116 -73.5 -187t-193.5 -71q-138 0 -226 70l5 18q95 -70 220 -70q112 0 180 67.5t68 177.5v123q-23 -76 -83 -121t-154 -45 q-113 0 -181.5 74.5t-68.5 196.5q0 121 69 195t181 74q94 0 154 -45t83 -121v156h20zM322 691q-9 0 -15.5 6.5t-6.5 15.5t6.5 15.5t15.5 6.5t15.5 -6.5t6.5 -15.5t-6.5 -15.5t-15.5 -6.5z" unicode="ġ"/>
<glyph glyph-name="Gcommaaccent" horiz-adv-x="783" unicode="Ģ" d="M404 -52h22l-65 -168h-18zM744 370q-1 -176 -91 -278t-245 -102q-156 0 -251.5 104.5t-95.5 275.5t95.5 275.5t251.5 104.5q72 0 126 -16t109 -56l-15 -16q-90 68 -220 68q-145 0 -233.5 -99t-88.5 -261t89 -261t234 -99q139 0 223 94t87 249h-270v20h295v-3z"/>
<glyph glyph-name="gcommaaccent" d="M311 8q104 0 168 69.5t64 182.5t-64 182.5t-168 69.5q-105 0 -169 -69t-64 -182q0 -114 64 -183.5t169 -69.5zM563 520v-492q0 -116 -73.5 -187t-193.5 -71q-138 0 -226 70l5 18q95 -70 220 -70q112 0 180 67.5t68 177.5v123q-23 -76 -83 -121t-154 -45 q-113 0 -181.5 74.5t-68.5 196.5q0 121 69 195t181 74q94 0 154 -45t83 -121v156h20zM319 593h-22l72 187h18z" unicode="ģ"/>
<glyph glyph-name="Hbar" horiz-adv-x="777" unicode="Ħ" d="M642 566h-507v-181h507v181zM760 566h-95v-566h-23v365h-507v-365h-23v566h-96v18h96v156h23v-156h507v156h23v-156h95v-18z"/>
<glyph glyph-name="hbar" horiz-adv-x="621" unicode="ħ" d="M317 530q98 0 158.5 -55t60.5 -146v-329h-20v321q0 86 -55.5 138.5t-146.5 52.5t-146.5 -52.5t-55.5 -138.5v-321h-20v646h-92v18h92v116h20v-116h232v-18h-232v-244q43 128 205 128z"/>
<glyph glyph-name="Imacron" horiz-adv-x="247" unicode="Ī" d="M135 0h-23v740h23v-740zM261 903v-18h-274v18h274z"/>
<glyph glyph-name="imacron" horiz-adv-x="208" unicode="ī" d="M114 520v-520h-20v520h20zM241 683v-18h-274v18h274z"/>
<glyph glyph-name="Iogonek" horiz-adv-x="247" unicode="Į" d="M183 -176q-33 -54 -100 -54q-47 0 -73.5 27t-26.5 73q0 60 35.5 99t93.5 46v725h23v-740q-58 0 -93 -35.5t-35 -93.5q0 -37 20 -59.5t56 -22.5q56 0 83 47z"/>
<glyph glyph-name="iogonek" horiz-adv-x="212" unicode="į" d="M166 -176q-33 -54 -100 -54q-47 0 -73.5 27t-26.5 73q0 61 36 100t96 45v505h20v-520q-58 0 -93 -35.5t-35 -93.5q0 -37 20 -59.5t56 -22.5q56 0 83 47zM108 691q-9 0 -15.5 6.5t-6.5 15.5t6.5 15.5t15.5 6.5t15.5 -6.5t6.5 -15.5t-6.5 -15.5t-15.5 -6.5z"/>
<glyph glyph-name="Idotaccent" horiz-adv-x="247" unicode="İ" d="M135 0h-23v740h23v-740zM124 911q-9 0 -15.5 6.5t-6.5 15.5t6.5 15.5t15.5 6.5t15.5 -6.5t6.5 -15.5t-6.5 -15.5t-15.5 -6.5z"/>
<glyph glyph-name="dotlessi" horiz-adv-x="208" unicode="ı" d="M114 520v-520h-20v520h20z"/>
<glyph glyph-name="Kcommaaccent" horiz-adv-x="655" unicode="Ķ" d="M352 -52h22l-65 -168h-18zM639 0h-30l-284 370h-190v-370h-23v740h23v-350h191l276 350h30l-284 -361z"/>
<glyph glyph-name="kcommaaccent" horiz-adv-x="540" unicode="ķ" d="M275 -52h22l-65 -168h-18zM529 0h-27l-233 264h-157v-264h-20v780h20v-498h156l223 238h26l-231 -247z"/>
<glyph glyph-name="Lacute" horiz-adv-x="517" unicode="Ĺ" d="M503 20v-20h-391v740h23v-720h368zM132 840h-22l126 140h32z"/>
<glyph glyph-name="lacute" horiz-adv-x="212" unicode="ĺ" d="M96 780h20v-780h-20v780zM92 880l126 140h32l-136 -140h-22z"/>
<glyph glyph-name="Lcommaaccent" horiz-adv-x="517" unicode="Ļ" d="M284 -52h22l-65 -168h-18zM503 20v-20h-391v740h23v-720h368z"/>
<glyph glyph-name="lcommaaccent" horiz-adv-x="212" unicode="ļ" d="M129 -52l-65 -168h-18l61 168h22zM96 780h20v-780h-20v780z"/>
<glyph glyph-name="Lcaron" horiz-adv-x="501" unicode="Ľ" d="M359 553h-18l68 187h22zM503 20v-20h-391v740h23v-720h368z"/>
<glyph glyph-name="lcaron" horiz-adv-x="213" unicode="ľ" d="M254 780l-72 -187h-18l68 187h22zM96 780h20v-780h-20v780z"/>
<glyph glyph-name="Lslash" horiz-adv-x="517" unicode="Ł" d="M503 20v-20h-391v384l-90 -64v22l90 64v334h23v-320l113 78v-22l-113 -78v-378h368z"/>
<glyph glyph-name="lslash" horiz-adv-x="212" unicode="ł" d="M218 476l-102 -70v-406h-20v394l-104 -74v22l104 74v364h20v-352l102 70v-22z"/>
<glyph glyph-name="Nacute" horiz-adv-x="817" unicode="Ń" d="M705 740v-740h-17l-553 696v-696h-23v740h17l553 -696v696h23zM394 840l126 140h32l-136 -140h-22z"/>
<glyph glyph-name="nacute" horiz-adv-x="621" unicode="ń" d="M317 530q98 0 158.5 -55t60.5 -146v-329h-20v321q0 86 -55.5 138.5t-146.5 52.5t-146.5 -52.5t-55.5 -138.5v-321h-20v520h20v-118q43 128 205 128zM322 620h-22l126 140h32z"/>
<glyph glyph-name="Ncommaaccent" horiz-adv-x="817" unicode="Ņ" d="M432 -52l-65 -168h-18l61 168h22zM705 740v-740h-17l-553 696v-696h-23v740h17l553 -696v696h23z"/>
<glyph glyph-name="ncommaaccent" horiz-adv-x="621" unicode="ņ" d="M315 -52h22l-65 -168h-18zM317 530q98 0 158.5 -55t60.5 -146v-329h-20v321q0 86 -55.5 138.5t-146.5 52.5t-146.5 -52.5t-55.5 -138.5v-321h-20v520h20v-118q43 128 205 128z"/>
<glyph glyph-name="Ncaron" horiz-adv-x="817" unicode="Ň" d="M705 740v-740h-17l-553 696v-696h-23v740h17l553 -696v696h23zM394 840l-128 140h24l118 -125l118 125h24l-128 -140h-28z"/>
<glyph glyph-name="ncaron" horiz-adv-x="621" unicode="ň" d="M317 530q98 0 158.5 -55t60.5 -146v-329h-20v321q0 86 -55.5 138.5t-146.5 52.5t-146.5 -52.5t-55.5 -138.5v-321h-20v520h20v-118q43 128 205 128zM300 620l-128 140h24l118 -125l118 125h24l-128 -140h-28z"/>
<glyph glyph-name="Eng" horiz-adv-x="817" unicode="Ŋ" d="M705 740v-829q0 -65 -39.5 -103t-109.5 -38q-83 0 -125 48l7 17q46 -45 118 -45q59 0 92.5 34.5t33.5 92.5v91l-547 688v-696h-23v740h17l553 -696v696h23z"/>
<glyph glyph-name="eng" horiz-adv-x="621" unicode="ŋ" d="M317 530q98 0 158.5 -55t60.5 -146v-418q0 -64 -36 -102.5t-95 -38.5q-47 0 -78 15l3 18q32 -15 75 -15q50 0 80.5 34.5t30.5 91.5v407q0 86 -55.5 138.5t-146.5 52.5t-146.5 -52.5t-55.5 -138.5v-321h-20v520h20v-118q43 128 205 128z"/>
<glyph glyph-name="Omacron" horiz-adv-x="829" unicode="Ō" d="M415 10q148 0 238.5 99t90.5 261t-90.5 261t-238.5 99q-149 0 -239.5 -99t-90.5 -261t90.5 -261t239.5 -99zM415 -10q-160 0 -257.5 104.5t-97.5 275.5t97.5 275.5t257.5 104.5q159 0 256.5 -104.5t97.5 -275.5t-97.5 -275.5t-256.5 -104.5zM552 903v-18h-274v18h274z "/>
<glyph glyph-name="omacron" horiz-adv-x="619" unicode="ō" d="M310 8q104 0 168 69.5t64 182.5t-64 182.5t-168 69.5q-105 0 -169 -69.5t-64 -182.5t64 -182.5t169 -69.5zM310 -10q-115 0 -185 74t-70 196t70 196t185 74q114 0 184 -74.5t70 -195.5t-70 -195.5t-184 -74.5zM447 683v-18h-274v18h274z"/>
<glyph glyph-name="Ohungarumlaut" horiz-adv-x="829" unicode="Ő" d="M415 10q148 0 238.5 99t90.5 261t-90.5 261t-238.5 99q-149 0 -239.5 -99t-90.5 -261t90.5 -261t239.5 -99zM415 -10q-160 0 -257.5 104.5t-97.5 275.5t97.5 275.5t257.5 104.5q159 0 256.5 -104.5t97.5 -275.5t-97.5 -275.5t-256.5 -104.5zM453 840l106 140h32 l-116 -140h-22zM343 840l106 140h32l-116 -140h-22z"/>
<glyph glyph-name="ohungarumlaut" horiz-adv-x="619" unicode="ő" d="M310 8q104 0 168 69.5t64 182.5t-64 182.5t-168 69.5q-105 0 -169 -69.5t-64 -182.5t64 -182.5t169 -69.5zM310 -10q-115 0 -185 74t-70 196t70 196t185 74q114 0 184 -74.5t70 -195.5t-70 -195.5t-184 -74.5zM348 620l106 140h32l-116 -140h-22zM238 620l106 140h32 l-116 -140h-22z"/>
<glyph glyph-name="OE" horiz-adv-x="1238" unicode="Œ" d="M415 10q148 0 238.5 99t90.5 261t-90.5 261t-238.5 99q-149 0 -239.5 -99t-90.5 -261t90.5 -261t239.5 -99zM1174 20v-20h-428v230q-35 -112 -122.5 -176t-208.5 -64q-160 0 -257.5 104.5t-97.5 275.5t97.5 275.5t257.5 104.5q121 0 208.5 -64t122.5 -176v230h418v-20 h-395v-331h375v-20h-375v-349h405z"/>
<glyph glyph-name="oe" horiz-adv-x="1060" unicode="œ" d="M777 512q-95 0 -153 -66.5t-60 -176.5h425q-1 109 -59 176t-153 67zM310 8q104 0 168 69.5t64 182.5t-64 182.5t-168 69.5q-105 0 -169 -69.5t-64 -182.5t64 -182.5t169 -69.5zM1011 251h-447q4 -110 62 -176.5t151 -66.5q123 0 204 111l14 -13q-80 -116 -218 -116 q-87 0 -147 55t-77 149q-18 -94 -83 -149t-160 -55q-115 0 -185 74t-70 196t70 196t185 74q95 0 159.5 -54t82.5 -147q17 93 77 147t148 54q105 0 169.5 -73t64.5 -191v-15z"/>
<glyph glyph-name="Racute" horiz-adv-x="672" unicode="Ŕ" d="M357 346q95 0 153.5 51.5t58.5 135.5q0 85 -60.5 136t-158.5 51h-215v-374h222zM612 0l-221 327q-10 -1 -31 -1h-225v-326h-23v740h243q108 0 173.5 -56.5t65.5 -150.5q0 -79 -47.5 -133.5t-129.5 -68.5l223 -331h-28zM329 840h-22l126 140h32z"/>
<glyph glyph-name="racute" horiz-adv-x="339" unicode="ŕ" d="M112 403q41 127 220 127l-3 -18q-105 0 -161 -51t-56 -140v-321h-20v520h20v-117zM204 620h-22l126 140h32z"/>
<glyph glyph-name="Rcommaaccent" horiz-adv-x="672" unicode="Ŗ" d="M342 -52h22l-65 -168h-18zM357 346q95 0 153.5 51.5t58.5 135.5q0 85 -60.5 136t-158.5 51h-215v-374h222zM612 0l-221 327q-10 -1 -31 -1h-225v-326h-23v740h243q108 0 173.5 -56.5t65.5 -150.5q0 -79 -47.5 -133.5t-129.5 -68.5l223 -331h-28z"/>
<glyph glyph-name="rcommaaccent" horiz-adv-x="339" unicode="ŗ" d="M110 -52h22l-65 -168h-18zM112 403q41 127 220 127l-3 -18q-105 0 -161 -51t-56 -140v-321h-20v520h20v-117z"/>
<glyph glyph-name="Rcaron" horiz-adv-x="672" unicode="Ř" d="M357 346q95 0 153.5 51.5t58.5 135.5q0 85 -60.5 136t-158.5 51h-215v-374h222zM612 0l-221 327q-10 -1 -31 -1h-225v-326h-23v740h243q108 0 173.5 -56.5t65.5 -150.5q0 -79 -47.5 -133.5t-129.5 -68.5l223 -331h-28zM307 840l-128 140h24l118 -125l118 125h24 l-128 -140h-28z"/>
<glyph glyph-name="rcaron" horiz-adv-x="339" unicode="ř" d="M112 403q41 127 220 127l-3 -18q-105 0 -161 -51t-56 -140v-321h-20v520h20v-117zM182 620l-128 140h24l118 -125l118 125h24l-128 -140h-28z"/>
<glyph glyph-name="Sacute" horiz-adv-x="557" unicode="Ś" d="M475 177q0 72 -50.5 114t-149.5 75l-51 17q-35 13 -60 25.5t-50 33.5t-37.5 51.5t-12.5 70.5q0 84 59 135t156 51q127 0 196 -85l-14 -17q-68 82 -184 82q-85 0 -136.5 -45t-51.5 -119q0 -68 39 -102.5t112 -60.5l53 -18q35 -12 57.5 -21t54 -27t50 -38t32 -51t13.5 -69 q0 -85 -63.5 -137t-166.5 -52q-142 0 -203 81l12 19q67 -80 188 -80q94 0 151 46t57 121zM265 840l126 140h32l-136 -140h-22z"/>
<glyph glyph-name="sacute" horiz-adv-x="423" unicode="ś" d="M349 127q0 82 -114 121l-60 20q-59 20 -89 48.5t-30 80.5q0 60 41.5 96.5t109.5 36.5q84 0 147 -42l-10 -17q-56 41 -135 41q-59 0 -95 -31t-36 -82q0 -44 26 -68.5t77 -42.5l60 -20q130 -45 130 -139q0 -63 -44 -101t-119 -38q-103 0 -149 49l11 15q49 -46 137 -46 q64 0 103 33t39 86zM193 620l126 140h32l-136 -140h-22z"/>
<glyph glyph-name="Scedilla" horiz-adv-x="557" unicode="Ş" d="M500 179q0 -84 -62 -135.5t-163 -53.5l-44 -67q15 3 36 3q47 0 75.5 -21t28.5 -55q0 -36 -30.5 -58t-80.5 -22q-63 0 -92 31l9 17q27 -28 81 -28q40 0 64.5 16.5t24.5 43.5q0 26 -24 42t-63 16q-29 0 -53 -9l-6 12l52 79q-130 7 -186 81l12 19q67 -80 188 -80 q94 0 151 46t57 121q0 72 -50.5 114t-149.5 75l-51 17q-35 13 -60 25.5t-50 33.5t-37.5 51.5t-12.5 70.5q0 84 59 135t156 51q127 0 196 -85l-14 -17q-68 82 -184 82q-85 0 -136.5 -45t-51.5 -119q0 -68 39 -102.5t112 -60.5l53 -18q35 -12 57.5 -21t54 -27t50 -38t32 -51 t13.5 -69z"/>
<glyph glyph-name="scedilla" horiz-adv-x="423" unicode="ş" d="M371 129q0 -62 -42.5 -100t-115.5 -39l-44 -67q15 3 36 3q47 0 75.5 -21t28.5 -55q0 -36 -30.5 -58t-80.5 -22q-63 0 -92 31l9 17q27 -28 81 -28q40 0 64.5 16.5t24.5 43.5q0 26 -24 42t-63 16q-29 0 -53 -9l-6 12l52 79q-91 5 -132 49l11 15q49 -46 137 -46q64 0 103 33 t39 86q0 82 -114 121l-60 20q-59 20 -89 48.5t-30 80.5q0 60 41.5 96.5t109.5 36.5q84 0 147 -42l-10 -17q-56 41 -135 41q-59 0 -95 -31t-36 -82q0 -44 26 -68.5t77 -42.5l60 -20q130 -45 130 -139z"/>
<glyph glyph-name="Scaron" horiz-adv-x="557" unicode="Š" d="M293 385q35 -12 57.5 -21t54 -27t50 -38t32 -51t13.5 -69q0 -85 -63.5 -137t-166.5 -52q-142 0 -203 81l12 19q67 -80 188 -80q94 0 151 46t57 121q0 72 -50.5 114t-149.5 75l-51 17q-35 13 -60 25.5t-50 33.5t-37.5 51.5t-12.5 70.5q0 84 59 135t156 51q127 0 196 -85 l-14 -17q-68 82 -184 82q-85 0 -136.5 -45t-51.5 -119q0 -68 39 -102.5t112 -60.5zM265 840l-128 140h24l118 -125l118 125h24l-128 -140h-28z"/>
<glyph glyph-name="scaron" horiz-adv-x="423" unicode="š" d="M241 268q130 -45 130 -139q0 -63 -44 -101t-119 -38q-103 0 -149 49l11 15q49 -46 137 -46q64 0 103 33t39 86q0 82 -114 121l-60 20q-59 20 -89 48.5t-30 80.5q0 60 41.5 96.5t109.5 36.5q84 0 147 -42l-10 -17q-56 41 -135 41q-59 0 -95 -31t-36 -82q0 -44 26 -68.5 t77 -42.5zM193 620l-128 140h24l118 -125l118 125h24l-128 -140h-28z"/>
<glyph glyph-name="uni0162" horiz-adv-x="545" unicode="Ţ" d="M284 0l-51 -77q15 3 36 3q47 0 75.5 -21t28.5 -55q0 -36 -30.5 -58t-80.5 -22q-63 0 -92 31l9 17q27 -28 81 -28q40 0 64.5 16.5t24.5 43.5q0 26 -24 42t-63 16q-29 0 -53 -9l-6 12l58 89v720h-249v20h521v-20h-249v-720z"/>
<glyph glyph-name="uni0163" horiz-adv-x="359" unicode="ţ" d="M236 -10q-17 0 -32 3l-47 -70q15 3 36 3q47 0 75.5 -21t28.5 -55q0 -36 -30.5 -58t-80.5 -22q-63 0 -92 31l9 17q27 -28 81 -28q40 0 64.5 16.5t24.5 43.5q0 26 -24 42t-63 16q-29 0 -53 -9l-6 12l58 88q-35 14 -54.5 45t-19.5 73v385h-95v18h95v153h20v-153h217v-18 h-217v-382q0 -50 30 -81t79 -31q63 0 116 20v-18q-44 -20 -120 -20z"/>
<glyph glyph-name="Tcaron" horiz-adv-x="545" unicode="Ť" d="M533 720h-249v-720h-23v720h-249v20h521v-20zM258 840l-128 140h24l118 -125l118 125h24l-128 -140h-28z"/>
<glyph glyph-name="tcaron" horiz-adv-x="359" unicode="ť" d="M240 8q63 0 116 20v-18q-44 -20 -120 -20q-56 0 -90.5 35t-34.5 92v385h-95v18h95v153h20v-153h217v-18h-217v-382q0 -50 30 -81t79 -31zM243 593h-18l68 187h22z"/>
<glyph glyph-name="Tbar" horiz-adv-x="545" unicode="Ŧ" d="M284 720v-350h165v-18h-165v-352h-23v352h-156v18h156v350h-249v20h521v-20h-249z"/>
<glyph glyph-name="tbar" horiz-adv-x="369" unicode="ŧ" d="M248 8q63 0 116 20v-18q-44 -20 -120 -20q-56 0 -90.5 35t-34.5 92v153h-92v18h92v214h-95v18h95v153h20v-153h217v-18h-217v-214h209v-18h-209v-150q0 -50 30 -81t79 -31z"/>
<glyph glyph-name="Umacron" horiz-adv-x="780" unicode="Ū" d="M678 740v-489q0 -118 -79 -189.5t-209 -71.5t-209 71.5t-79 189.5v489h23v-488q0 -109 73 -175.5t192 -66.5t192 66.5t73 175.5v488h23zM527 903v-18h-274v18h274z"/>
<glyph glyph-name="umacron" horiz-adv-x="613" unicode="ū" d="M521 520v-520h-20v118q-42 -128 -201 -128q-96 0 -155.5 55.5t-59.5 145.5v329h20v-321q0 -86 54.5 -138.5t143.5 -52.5t143.5 52.5t54.5 138.5v321h20zM440 665h-274v18h274v-18z"/>
<glyph glyph-name="Uring" horiz-adv-x="780" unicode="Ů" d="M678 740v-489q0 -118 -79 -189.5t-209 -71.5t-209 71.5t-79 189.5v489h23v-488q0 -109 73 -175.5t192 -66.5t192 66.5t73 175.5v488h23zM390 821q37 0 59 23.5t22 62.5t-22 62.5t-59 23.5t-59 -23.5t-22 -62.5t22 -62.5t59 -23.5zM390 804q-46 0 -74 28.5t-28 74.5 t28 74.5t74 28.5t74 -28.5t28 -74.5t-28 -74.5t-74 -28.5z"/>
<glyph glyph-name="uring" horiz-adv-x="613" unicode="ů" d="M521 520v-520h-20v118q-42 -128 -201 -128q-96 0 -155.5 55.5t-59.5 145.5v329h20v-321q0 -86 54.5 -138.5t143.5 -52.5t143.5 52.5t54.5 138.5v321h20zM303 773q-37 0 -59 -23.5t-22 -62.5t22 -62.5t59 -23.5t59 23.5t22 62.5t-22 62.5t-59 23.5zM303 584 q-46 0 -74 28.5t-28 74.5t28 74.5t74 28.5t74 -28.5t28 -74.5t-28 -74.5t-74 -28.5z"/>
<glyph glyph-name="Uhungarumlaut" horiz-adv-x="780" unicode="Ű" d="M678 740v-489q0 -118 -79 -189.5t-209 -71.5t-209 71.5t-79 189.5v489h23v-488q0 -109 73 -175.5t192 -66.5t192 66.5t73 175.5v488h23zM428 840l106 140h32l-116 -140h-22zM318 840l106 140h32l-116 -140h-22z"/>
<glyph glyph-name="uhungarumlaut" horiz-adv-x="613" unicode="ű" d="M521 520v-520h-20v118q-42 -128 -201 -128q-96 0 -155.5 55.5t-59.5 145.5v329h20v-321q0 -86 54.5 -138.5t143.5 -52.5t143.5 52.5t54.5 138.5v321h20zM341 620l106 140h32l-116 -140h-22zM253 620h-22l106 140h32z"/>
<glyph glyph-name="Uogonek" horiz-adv-x="780" unicode="Ų" d="M678 740v-489q0 -137 -113 -215q-141 -97 -141 -174q0 -32 20.5 -52.5t55.5 -20.5q56 0 83 47l17 -12q-33 -54 -101 -54q-46 0 -72.5 25t-26.5 66q0 73 96 144q-48 -15 -106 -15q-130 0 -209 71.5t-79 189.5v489h23v-488q0 -109 73 -175.5t192 -66.5t192 66.5t73 175.5 v488h23z"/>
<glyph glyph-name="uogonek" horiz-adv-x="613" unicode="ų" d="M529 -176q-33 -54 -100 -54q-47 0 -73.5 27t-26.5 73q0 62 47 101t125 44v103q-42 -128 -201 -128q-96 0 -155.5 55.5t-59.5 145.5v329h20v-321q0 -86 54.5 -138.5t143.5 -52.5t143.5 52.5t54.5 138.5v321h20v-520q-76 0 -122 -35.5t-46 -93.5q0 -37 20 -59.5t56 -22.5 q56 0 83 47z"/>
<glyph glyph-name="Wcircumflex" horiz-adv-x="1117" unicode="Ŵ" d="M1103 740l-282 -740h-23l-239 703l-240 -703h-23l-282 740h25l269 -709l238 709h25l239 -709l268 709h25zM441 840h-24l128 140h28l128 -140h-24l-118 125z"/>
<glyph glyph-name="wcircumflex" horiz-adv-x="947" unicode="ŵ" d="M928 520l-222 -520h-22l-210 493l-211 -493h-22l-222 520h23l210 -495l210 495h23l210 -495l210 495h23zM355 620h-24l128 140h28l128 -140h-24l-118 125z"/>
<glyph glyph-name="Ycircumflex" horiz-adv-x="627" unicode="Ŷ" d="M607 740l-282 -418v-322h-23v322l-282 418h28l266 -396l265 396h28zM197 840h-24l128 140h28l128 -140h-24l-118 125z"/>
<glyph glyph-name="ycircumflex" horiz-adv-x="540" unicode="ŷ" d="M525 520l-306 -656q-23 -49 -44.5 -71.5t-60.5 -22.5q-32 0 -51 9l3 18q18 -9 45 -9q32 0 50.5 19t37.5 60l63 136l-243 517h23l232 -494l228 494h23zM154 620h-24l128 140h28l128 -140h-24l-118 125z"/>
<glyph glyph-name="Ydieresis" horiz-adv-x="627" unicode="Ÿ" d="M607 740l-282 -418v-322h-23v322l-282 418h28l266 -396l265 396h28zM399 911q-9 0 -15.5 6.5t-6.5 15.5t6.5 15.5t15.5 6.5t15.5 -6.5t6.5 -15.5t-6.5 -15.5t-15.5 -6.5zM230 911q-9 0 -15.5 6.5t-6.5 15.5t6.5 15.5t15.5 6.5t15.5 -6.5t6.5 -15.5t-6.5 -15.5t-15.5 -6.5 z"/>
<glyph glyph-name="Zacute" horiz-adv-x="596" unicode="Ź" d="M563 20v-20h-529v17l489 703h-483v20h513v-17l-489 -703h499zM304 840h-22l126 140h32z"/>
<glyph glyph-name="zacute" horiz-adv-x="483" unicode="ź" d="M450 18v-18h-413v15l371 487h-366v18h393v-15l-370 -487h385zM224 620l126 140h32l-136 -140h-22z"/>
<glyph glyph-name="Zdotaccent" horiz-adv-x="596" unicode="Ż" d="M563 20v-20h-529v17l489 703h-483v20h513v-17l-489 -703h499zM296 911q-9 0 -15.5 6.5t-6.5 15.5t6.5 15.5t15.5 6.5t15.5 -6.5t6.5 -15.5t-6.5 -15.5t-15.5 -6.5z"/>
<glyph glyph-name="zdotaccent" horiz-adv-x="483" unicode="ż" d="M450 18v-18h-413v15l371 487h-366v18h393v-15l-370 -487h385zM238 691q-9 0 -15.5 6.5t-6.5 15.5t6.5 15.5t15.5 6.5t15.5 -6.5t6.5 -15.5t-6.5 -15.5t-15.5 -6.5z"/>
<glyph glyph-name="Zcaron" horiz-adv-x="596" unicode="Ž" d="M563 20v-20h-529v17l489 703h-483v20h513v-17l-489 -703h499zM282 840l-128 140h24l118 -125l118 125h24l-128 -140h-28z"/>
<glyph glyph-name="zcaron" horiz-adv-x="483" unicode="ž" d="M450 18v-18h-413v15l371 487h-366v18h393v-15l-370 -487h385zM224 620l-128 140h24l118 -125l118 125h24l-128 -140h-28z"/>
<glyph glyph-name="florin" horiz-adv-x="454" unicode="ƒ" d="M357 730q-52 0 -92.5 -34.5t-51.5 -95.5l-43 -246h225v-20h-228l-76 -434h-23l75 434h-89v20h93l43 248q12 71 58 109.5t117 38.5q37 0 67 -12l-4 -19q-30 11 -71 11z"/>
<glyph glyph-name="Scommaaccent" horiz-adv-x="557" unicode="Ș" d="M293 -52l-65 -168h-18l61 168h22zM475 177q0 72 -50.5 114t-149.5 75l-51 17q-35 13 -60 25.5t-50 33.5t-37.5 51.5t-12.5 70.5q0 84 59 135t156 51q127 0 196 -85l-14 -17q-68 82 -184 82q-85 0 -136.5 -45t-51.5 -119q0 -68 39 -102.5t112 -60.5l53 -18 q35 -12 57.5 -21t54 -27t50 -38t32 -51t13.5 -69q0 -85 -63.5 -137t-166.5 -52q-142 0 -203 81l12 19q67 -80 188 -80q94 0 151 46t57 121z"/>
<glyph glyph-name="scommaaccent" horiz-adv-x="423" unicode="ș" d="M231 -52l-65 -168h-18l61 168h22zM349 127q0 82 -114 121l-60 20q-59 20 -89 48.5t-30 80.5q0 60 41.5 96.5t109.5 36.5q84 0 147 -42l-10 -17q-56 41 -135 41q-59 0 -95 -31t-36 -82q0 -44 26 -68.5t77 -42.5l60 -20q130 -45 130 -139q0 -63 -44 -101t-119 -38 q-103 0 -149 49l11 15q49 -46 137 -46q64 0 103 33t39 86z"/>
<glyph glyph-name="uni021A" horiz-adv-x="545" unicode="Ț" d="M273 -52h22l-65 -168h-18zM533 720h-249v-720h-23v720h-249v20h521v-20z"/>
<glyph glyph-name="uni021B" horiz-adv-x="359" unicode="ț" d="M197 -52h22l-65 -168h-18zM240 8q63 0 116 20v-18q-44 -20 -120 -20q-56 0 -90.5 35t-34.5 92v385h-95v18h95v153h20v-153h217v-18h-217v-382q0 -50 30 -81t79 -31z"/>
<glyph glyph-name="circumflex" horiz-adv-x="600" unicode="ˆ" d="M310 620l-118 125l-118 -125h-24l128 140h28l128 -140h-24z"/>
<glyph glyph-name="caron" horiz-adv-x="600" unicode="ˇ" d="M334 760l-128 -140h-28l-128 140h24l118 -125l118 125h24z"/>
<glyph glyph-name="breve" horiz-adv-x="600" unicode="˘" d="M336 760q0 -68 -39.5 -109t-103.5 -41t-103.5 41t-39.5 109h22q0 -59 33 -95.5t88 -36.5t88 36.5t33 95.5h22z"/>
<glyph glyph-name="dotaccent" horiz-adv-x="600" unicode="˙" d="M101 691q-9 0 -15.5 6.5t-6.5 15.5t6.5 15.5t15.5 6.5t15.5 -6.5t6.5 -15.5t-6.5 -15.5t-15.5 -6.5z"/>
<glyph glyph-name="ring" horiz-adv-x="600" unicode="˚" d="M172 601q37 0 59 23.5t22 62.5t-22 62.5t-59 23.5t-59 -23.5t-22 -62.5t22 -62.5t59 -23.5zM172 584q-46 0 -74 28.5t-28 74.5t28 74.5t74 28.5t74 -28.5t28 -74.5t-28 -74.5t-74 -28.5z"/>
<glyph glyph-name="ogonek" horiz-adv-x="600" unicode="˛" d="M233 0q-76 0 -122 -35.5t-46 -93.5q0 -37 20 -59.5t56 -22.5q56 0 83 47l17 -12q-33 -54 -100 -54q-47 0 -73.5 27t-26.5 73q0 66 53 106t139 40v-16z"/>
<glyph glyph-name="tilde" horiz-adv-x="600" unicode="˜" d="M87 644h-20q0 43 25 69.5t62 26.5q29 0 56 -21t52.5 -42t51.5 -21q27 0 46 20.5t19 53.5h20q0 -43 -25 -69.5t-62 -26.5q-29 0 -56 21t-52.5 42t-51.5 21q-27 0 -46 -20.5t-19 -53.5z"/>
<glyph glyph-name="hungarumlaut" horiz-adv-x="600" unicode="˝" d="M263 620l106 140h32l-116 -140h-22zM153 620l106 140h32l-116 -140h-22z"/>
<glyph glyph-name="gravecomb" horiz-adv-x="0" unicode="̀" d="M-299 760h32l126 -140h-22z"/>
<glyph glyph-name="acutecomb" horiz-adv-x="0" unicode="́" d="M-168 620l126 140h32l-136 -140h-22z"/>
<glyph glyph-name="uni0302" horiz-adv-x="0" unicode="̂" d="M-74 620l-118 125l-118 -125h-24l128 140h28l128 -140h-24z"/>
<glyph glyph-name="tildecomb" horiz-adv-x="0" unicode="̃" d="M-380 644h-20q0 43 25 69.5t62 26.5q29 0 56 -21t52.5 -42t51.5 -21q27 0 46 20.5t19 53.5h20q0 -43 -25 -69.5t-62 -26.5q-29 0 -56 21t-52.5 42t-51.5 21q-27 0 -46 -20.5t-19 -53.5z"/>
<glyph glyph-name="uni0304" horiz-adv-x="0" unicode="̄" d="M-80 683v-18h-274v18h274z"/>
<glyph glyph-name="uni0306" horiz-adv-x="0" unicode="̆" d="M-50 760q0 -68 -39.5 -109t-103.5 -41t-103.5 41t-39.5 109h22q0 -59 33 -95.5t88 -36.5t88 36.5t33 95.5h22z"/>
<glyph glyph-name="uni0307" horiz-adv-x="0" unicode="̇" d="M-101 691q-9 0 -15.5 6.5t-6.5 15.5t6.5 15.5t15.5 6.5t15.5 -6.5t6.5 -15.5t-6.5 -15.5t-15.5 -6.5z"/>
<glyph glyph-name="uni0308" horiz-adv-x="0" unicode="̈" d="M-101 691q-9 0 -15.5 6.5t-6.5 15.5t6.5 15.5t15.5 6.5t15.5 -6.5t6.5 -15.5t-6.5 -15.5t-15.5 -6.5zM-270 691q-9 0 -15.5 6.5t-6.5 15.5t6.5 15.5t15.5 6.5t15.5 -6.5t6.5 -15.5t-6.5 -15.5t-15.5 -6.5z"/>
<glyph glyph-name="uni030A" horiz-adv-x="0" unicode="̊" d="M-172 601q37 0 59 23.5t22 62.5t-22 62.5t-59 23.5t-59 -23.5t-22 -62.5t22 -62.5t59 -23.5zM-172 584q-46 0 -74 28.5t-28 74.5t28 74.5t74 28.5t74 -28.5t28 -74.5t-28 -74.5t-74 -28.5z"/>
<glyph glyph-name="uni030B" horiz-adv-x="0" unicode="̋" d="M-186 620l106 140h32l-116 -140h-22zM-296 620l106 140h32l-116 -140h-22z"/>
<glyph glyph-name="uni030C" horiz-adv-x="0" unicode="̌" d="M-50 760l-128 -140h-28l-128 140h24l118 -125l118 125h24z"/>
<glyph glyph-name="uni0312" horiz-adv-x="0" unicode="̒" d="M-95 593l72 187h18l-68 -187h-22z"/>
<glyph glyph-name="uni0326" horiz-adv-x="0" unicode="̦" d="M-12 -52l-65 -168h-18l61 168h22z"/>
<glyph glyph-name="uni0327" horiz-adv-x="0" unicode="̧" d="M-130 -74q47 0 75.5 -21t28.5 -55q0 -36 -30.5 -58t-80.5 -22q-63 0 -92 31l9 17q27 -28 81 -28q40 0 64.5 16.5t24.5 43.5q0 26 -24 42t-63 16q-29 0 -53 -9l-6 12l58 89h23l-51 -77q15 3 36 3z"/>
<glyph glyph-name="uni0328" horiz-adv-x="0" unicode="̨" d="M-20 0q-76 0 -122 -35.5t-46 -93.5q0 -37 20 -59.5t56 -22.5q56 0 83 47l17 -12q-33 -54 -100 -54q-47 0 -73.5 27t-26.5 73q0 66 53 106t139 40v-16z"/>
<glyph glyph-name="uni0335" horiz-adv-x="0" unicode="̵" d="M-156 294v-18h-344v18h344z"/>
<glyph glyph-name="uni0336" horiz-adv-x="0" unicode="̶" d="M-100 294v-18h-744v18h744z"/>
<glyph glyph-name="uni0337" horiz-adv-x="0" unicode="̷" d="M-167 528v-22l-113 -78v2l-113 -80v22l113 80v-2z"/>
<glyph glyph-name="uni0338" horiz-adv-x="0" unicode="̸" d="M-450 -10l-18 12l439 748l18 -12z"/>
<glyph glyph-name="uni0394" horiz-adv-x="753" unicode="Δ" d="M686 20l-309 695l-310 -695h619zM720 0h-687l332 740h23z"/>
<glyph glyph-name="uni03A9" horiz-adv-x="759" unicode="Ω" d="M483 20h214v-20h-237v161q100 23 157.5 97t57.5 183q0 130 -81.5 209.5t-213.5 79.5q-133 0 -214 -79.5t-81 -209.5q0 -109 57.5 -183t157.5 -97v-161h-237v20h214v126q-101 28 -159 105.5t-58 189.5q0 139 88 224t232 85q143 0 231 -85t88 -224q0 -112 -57.5 -189.5 t-158.5 -105.5v-126z"/>
<glyph glyph-name="uni03BC" horiz-adv-x="620" unicode="μ" d="M528 520v-520h-20v117q-42 -127 -198 -127t-198 127v-337h-20v740h20v-321q0 -86 54.5 -138.5t143.5 -52.5t143.5 52.5t54.5 138.5v321h20z"/>
<glyph glyph-name="pi" horiz-adv-x="673" unicode="π" d="M482 502v-412q0 -37 19 -59.5t50 -22.5q42 0 76 20v-18q-29 -20 -80 -20q-38 0 -61.5 26.5t-23.5 70.5v415h-271v-502h-20v502h-148v18h605v-18h-146z"/>
<glyph glyph-name="Wgrave" horiz-adv-x="1117" unicode="Ẁ" d="M1103 740l-282 -740h-23l-239 703l-240 -703h-23l-282 740h25l269 -709l238 709h25l239 -709l268 709h25zM551 840l-136 140h32l126 -140h-22z"/>
<glyph glyph-name="wgrave" horiz-adv-x="947" unicode="ẁ" d="M928 520l-222 -520h-22l-210 493l-211 -493h-22l-222 520h23l210 -495l210 495h23l210 -495l210 495h23zM465 620l-136 140h32l126 -140h-22z"/>
<glyph glyph-name="Wacute" horiz-adv-x="1117" unicode="Ẃ" d="M1103 740l-282 -740h-23l-239 703l-240 -703h-23l-282 740h25l269 -709l238 709h25l239 -709l268 709h25zM567 840h-22l126 140h32z"/>
<glyph glyph-name="wacute" horiz-adv-x="947" unicode="ẃ" d="M928 520l-222 -520h-22l-210 493l-211 -493h-22l-222 520h23l210 -495l210 495h23l210 -495l210 495h23zM481 620h-22l126 140h32z"/>
<glyph glyph-name="Wdieresis" horiz-adv-x="1117" unicode="Ẅ" d="M1103 740l-282 -740h-23l-239 703l-240 -703h-23l-282 740h25l269 -709l238 709h25l239 -709l268 709h25zM643 911q-9 0 -15.5 6.5t-6.5 15.5t6.5 15.5t15.5 6.5t15.5 -6.5t6.5 -15.5t-6.5 -15.5t-15.5 -6.5zM474 911q-9 0 -15.5 6.5t-6.5 15.5t6.5 15.5t15.5 6.5 t15.5 -6.5t6.5 -15.5t-6.5 -15.5t-15.5 -6.5z"/>
<glyph glyph-name="wdieresis" horiz-adv-x="947" unicode="ẅ" d="M928 520l-222 -520h-22l-210 493l-211 -493h-22l-222 520h23l210 -495l210 495h23l210 -495l210 495h23zM557 691q-9 0 -15.5 6.5t-6.5 15.5t6.5 15.5t15.5 6.5t15.5 -6.5t6.5 -15.5t-6.5 -15.5t-15.5 -6.5zM388 691q-9 0 -15.5 6.5t-6.5 15.5t6.5 15.5t15.5 6.5 t15.5 -6.5t6.5 -15.5t-6.5 -15.5t-15.5 -6.5z"/>
<glyph glyph-name="uni1E9E" horiz-adv-x="651" unicode="ẞ" d="M408 388q85 -16 135 -69t50 -129q0 -90 -67 -145t-176 -55q-58 0 -106 22l3 20q44 -22 102 -22q98 0 158.5 50.5t60.5 132.5q0 83 -63 133.5t-166 50.5v20q86 0 139 46t53 121t-55.5 120.5t-146.5 45.5t-146.5 -45.5t-55.5 -120.5v-564h-23v567q0 82 62 132.5t163 50.5 q102 0 164.5 -50.5t62.5 -132.5q0 -68 -39.5 -115t-108.5 -64z"/>
<glyph glyph-name="Ygrave" horiz-adv-x="627" unicode="Ỳ" d="M607 740l-282 -418v-322h-23v322l-282 418h28l266 -396l265 396h28zM307 840l-136 140h32l126 -140h-22z"/>
<glyph glyph-name="ygrave" horiz-adv-x="540" unicode="ỳ" d="M219 -136q-23 -49 -44.5 -71.5t-60.5 -22.5q-32 0 -51 9l3 18q18 -9 45 -9q32 0 50.5 19t37.5 60l63 136l-243 517h23l232 -494l228 494h23zM128 760h32l126 -140h-22z"/>
<glyph glyph-name="endash" horiz-adv-x="530" unicode="–" d="M452 294v-18h-374v18h374z"/>
<glyph glyph-name="emdash" horiz-adv-x="839" unicode="—" d="M761 294v-18h-683v18h683z"/>
<glyph glyph-name="quoteleft" horiz-adv-x="191" unicode="‘" d="M57 553l72 187h18l-68 -187h-22z"/>
<glyph glyph-name="quoteright" horiz-adv-x="191" unicode="’" d="M148 740l-72 -187h-18l68 187h22z"/>
<glyph glyph-name="quotesinglbase" horiz-adv-x="178" unicode="‚" d="M106 43l-72 -187h-18l68 187h22z"/>
<glyph glyph-name="quotedblleft" horiz-adv-x="294" unicode="“" d="M160 552l72 187h18l-68 -187h-22zM60 552l72 187h18l-68 -187h-22z"/>
<glyph glyph-name="quotedblright" horiz-adv-x="291" unicode="”" d="M248 741l-72 -187h-18l68 187h22zM148 741l-72 -187h-18l68 187h22z"/>
<glyph glyph-name="quotedblbase" horiz-adv-x="278" unicode="„" d="M206 43l-72 -187h-18l68 187h22zM106 43l-72 -187h-18l68 187h22z"/>
<glyph glyph-name="dagger" horiz-adv-x="499" unicode="†" d="M458 500h-197v-720h-23v720h-197v20h197v260h23v-260h197v-20z"/>
<glyph glyph-name="daggerdbl" horiz-adv-x="499" unicode="‡" d="M261 500v-180h197v-20h-197v-520h-23v520h-197v20h197v180h-197v20h197v260h23v-260h197v-20h-197z"/>
<glyph glyph-name="bullet" horiz-adv-x="336" unicode="•" d="M168 259q-30 0 -48.5 18.5t-18.5 49.5q0 30 18.5 48.5t48.5 18.5t48.5 -18.5t18.5 -48.5q0 -31 -18.5 -49.5t-48.5 -18.5z"/>
<glyph glyph-name="ellipsis" horiz-adv-x="510" unicode="…" d="M415 -10q-11 0 -18.5 8t-7.5 18t7.5 18t18.5 8t18.5 -8t7.5 -18t-7.5 -18t-18.5 -8zM255 -10q-11 0 -18.5 8t-7.5 18t7.5 18t18.5 8t18.5 -8t7.5 -18t-7.5 -18t-18.5 -8zM95 -10q-11 0 -18.5 8t-7.5 18t7.5 18t18.5 8t18.5 -8t7.5 -18t-7.5 -18t-18.5 -8z"/>
<glyph glyph-name="perthousand" horiz-adv-x="1044" unicode="‰" d="M861 8q56 0 90.5 39.5t34.5 103.5t-34.5 103.5t-90.5 39.5q-57 0 -91.5 -39t-34.5 -104t34.5 -104t91.5 -39zM506 8q56 0 90.5 39.5t34.5 103.5t-34.5 103.5t-90.5 39.5q-57 0 -91.5 -39t-34.5 -104t34.5 -104t91.5 -39zM861 -10q-67 0 -108 44t-41 117t41 117t108 44 t107.5 -44t40.5 -117t-40.5 -117t-107.5 -44zM506 -10q-67 0 -108 44t-41 117t41 117t108 44t107.5 -44t40.5 -117t-40.5 -117t-107.5 -44zM188 446q56 0 90.5 39.5t34.5 103.5t-34.5 103.5t-90.5 39.5q-57 0 -91.5 -39t-34.5 -104t34.5 -104t91.5 -39zM138 -10l-18 12 l439 748l18 -12zM188 428q-67 0 -108 44t-41 117t41 117t108 44t107.5 -44t40.5 -117t-40.5 -117t-107.5 -44z"/>
<glyph glyph-name="guilsinglleft" horiz-adv-x="302" unicode="‹" d="M76 270l170 -220h-22l-173 220l173 220h22z"/>
<glyph glyph-name="guilsinglright" horiz-adv-x="302" unicode="›" d="M251 270l-173 -220h-22l170 220l-170 220h22z"/>
<glyph glyph-name="fraction" horiz-adv-x="175" unicode="⁄" d="M-123 -10l-18 12l439 748l18 -12z"/>
<glyph glyph-name="uni2070" horiz-adv-x="420" unicode="⁰" d="M210 410q64 0 103 57t39 151t-39 151t-103 57t-103 -57t-39 -151t39 -151t103 -57zM210 390q-74 0 -120 62.5t-46 165.5t46 165.5t120 62.5q75 0 120.5 -62.5t45.5 -165.5t-45.5 -165.5t-120.5 -62.5z"/>
<glyph glyph-name="uni2074" horiz-adv-x="366" unicode="⁴" d="M249 517v288l-206 -288h206zM248 498h-228v19l230 323h21v-322h70v-20h-70v-102h-23v102z"/>
<glyph glyph-name="uni2075" horiz-adv-x="346" unicode="⁵" d="M157 390q-82 0 -125 43l7 18q40 -41 116 -41q59 0 94 31t35 83q0 50 -32 81t-84 31q-45 0 -93 -15l-16 3l30 216h200v-20h-179l-26 -177q47 13 88 13q61 0 99 -36.5t38 -95.5q0 -60 -42 -97t-110 -37z"/>
<glyph glyph-name="uni2076" horiz-adv-x="340" unicode="⁶" d="M172 410q51 0 82 32t31 84q0 53 -31 85.5t-82 32.5t-82.5 -32.5t-31.5 -85.5q0 -52 31.5 -84t82.5 -32zM175 663q60 0 97 -38t37 -99t-37.5 -98.5t-99.5 -37.5t-100 37.5t-38 98.5q0 47 27 88l149 226h27l-131 -194q31 17 69 17z"/>
<glyph glyph-name="uni2077" horiz-adv-x="305" unicode="⁷" d="M287 840l-163 -444h-25l157 424h-239v20h270z"/>
<glyph glyph-name="uni2078" horiz-adv-x="363" unicode="⁸" d="M182 410q51 0 82 28t31 74q0 47 -31 75.5t-82 28.5t-82.5 -28.5t-31.5 -75.5q0 -46 31.5 -74t82.5 -28zM80 731q0 -43 28 -69t74 -26q45 0 73 26t28 69t-28 69t-73 26q-46 0 -74 -26t-28 -69zM229 626q42 -11 66 -41.5t24 -73.5q0 -54 -38 -87.5t-99 -33.5q-62 0 -100 33 t-38 88q0 43 24 73.5t66 41.5q-36 11 -57 39t-21 67q0 51 34.5 82.5t91.5 31.5q56 0 90.5 -31t34.5 -82q0 -39 -21 -67.5t-57 -39.5z"/>
<glyph glyph-name="uni2079" horiz-adv-x="340" unicode="⁹" d="M167 592q51 0 82.5 32.5t31.5 85.5q0 52 -31.5 84t-82.5 32t-82 -32t-31 -84q0 -53 31 -85.5t82 -32.5zM167 846q62 0 100 -37.5t38 -98.5q0 -47 -27 -88l-149 -226h-27l131 194q-31 -17 -69 -17q-60 0 -97 38t-37 99t37.5 98.5t99.5 37.5z"/>
<glyph glyph-name="uni2080" horiz-adv-x="420" unicode="₀" d="M210 -86q64 0 103 57t39 151t-39 151t-103 57t-103 -57t-39 -151t39 -151t103 -57zM210 -106q-74 0 -120 62.5t-46 165.5t46 165.5t120 62.5q75 0 120.5 -62.5t45.5 -165.5t-45.5 -165.5t-120.5 -62.5z"/>
<glyph glyph-name="uni2081" horiz-adv-x="247" unicode="₁" d="M14 238l143 106h18v-444h-23v412l-125 -91z"/>
<glyph glyph-name="uni2082" horiz-adv-x="342" unicode="₂" d="M303 -80v-20h-267v16l132 142q3 3 16.5 17.5t18 19.5t16.5 19t17.5 22t14 22t12.5 25t7 24.5t3 26.5q0 45 -28 70.5t-76 25.5t-77 -27.5t-29 -72.5l-23 2q0 53 35.5 85.5t93.5 32.5q57 0 92.5 -31t35.5 -83q0 -22 -8.5 -46.5t-15.5 -39t-29.5 -41.5t-28 -32.5 t-32.5 -34.5l-115 -123z"/>
<glyph glyph-name="uni2083" horiz-adv-x="343" unicode="₃" d="M164 148q64 0 102.5 -34t38.5 -90q0 -59 -40 -94.5t-107 -35.5q-87 0 -125 53l10 18q36 -51 112 -51q57 0 91.5 30t34.5 80q0 47 -34 76t-90 29q-41 0 -73 -15l-7 12l184 198h-213v20h246v-15l-174 -185q19 4 44 4z"/>
<glyph glyph-name="uni2084" horiz-adv-x="366" unicode="₄" d="M249 21v288l-206 -288h206zM248 2h-228v19l230 323h21v-322h70v-20h-70v-102h-23v102z"/>
<glyph glyph-name="uni2085" horiz-adv-x="346" unicode="₅" d="M157 -106q-82 0 -125 43l7 18q40 -41 116 -41q59 0 94 31t35 83q0 50 -32 81t-84 31q-45 0 -93 -15l-16 3l30 216h200v-20h-179l-26 -177q47 13 88 13q61 0 99 -36.5t38 -95.5q0 -60 -42 -97t-110 -37z"/>
<glyph glyph-name="uni2086" horiz-adv-x="340" unicode="₆" d="M172 -86q51 0 82 32t31 84q0 53 -31 85.5t-82 32.5t-82.5 -32.5t-31.5 -85.5q0 -52 31.5 -84t82.5 -32zM175 167q60 0 97 -38t37 -99t-37.5 -98.5t-99.5 -37.5t-100 37.5t-38 98.5q0 47 27 88l149 226h27l-131 -194q31 17 69 17z"/>
<glyph glyph-name="uni2087" horiz-adv-x="305" unicode="₇" d="M287 344l-163 -444h-25l157 424h-239v20h270z"/>
<glyph glyph-name="uni2088" horiz-adv-x="363" unicode="₈" d="M182 -86q51 0 82 28t31 74q0 47 -31 75.5t-82 28.5t-82.5 -28.5t-31.5 -75.5q0 -46 31.5 -74t82.5 -28zM80 235q0 -43 28 -69t74 -26q45 0 73 26t28 69t-28 69t-73 26q-46 0 -74 -26t-28 -69zM229 130q42 -11 66 -41.5t24 -73.5q0 -54 -38 -87.5t-99 -33.5q-62 0 -100 33 t-38 88q0 43 24 73.5t66 41.5q-36 11 -57 39t-21 67q0 51 34.5 82.5t91.5 31.5q56 0 90.5 -31t34.5 -82q0 -39 -21 -67.5t-57 -39.5z"/>
<glyph glyph-name="uni2089" horiz-adv-x="340" unicode="₉" d="M167 96q51 0 82.5 32.5t31.5 85.5q0 52 -31.5 84t-82.5 32t-82 -32t-31 -84q0 -53 31 -85.5t82 -32.5zM167 350q62 0 100 -37.5t38 -98.5q0 -47 -27 -88l-149 -226h-27l131 194q-31 -17 -69 -17q-60 0 -97 38t-37 99t37.5 98.5t99.5 37.5z"/>
<glyph glyph-name="Euro" horiz-adv-x="792" unicode="€" d="M741 131q-48 -65 -123 -103t-166 -38q-142 0 -236.5 82.5t-115.5 222.5h-58v20h55q-3 27 -3 56v13h-52v20h53q10 157 107.5 251.5t250.5 94.5q157 0 269 -121l-15 -15q-107 116 -250 116q-144 0 -235.5 -89t-101.5 -237h313v-20h-314v-12q0 -30 3 -57h311v-20h-308 q21 -131 108.5 -208t217.5 -77q86 0 157 37.5t116 99.5z"/>
<glyph glyph-name="uni20B9" horiz-adv-x="655" unicode="₹" d="M608 720h-233q63 -23 99 -74.5t39 -122.5h90v-20h-90q-3 -78 -44 -132.5t-110 -74.5l200 -296h-28l-196 291q-27 -5 -52 -5h-201v20h194q93 0 150.5 54t61.5 143h-406v20h406q-4 89 -64 143t-155 54h-187v20h526v-20z"/>
<glyph glyph-name="uni20BD" horiz-adv-x="598" unicode="₽" d="M132 360h195q94 0 151.5 49.5t57.5 130.5t-57.5 130.5t-151.5 49.5h-195v-360zM132 271h288v-20h-288v-251h-23v251h-50v20h50v69h-50v20h50v380h224q103 0 165.5 -55t62.5 -144q0 -91 -61.5 -146t-162.5 -55h-205v-69z"/>
<glyph glyph-name="trademark" horiz-adv-x="704" unicode="™" d="M602 494l-14 244l-117 -244h-21l-117 246l-14 -246h-21l17 286h19l127 -267l126 267h19l17 -286h-21zM255 762h-98v-268h-21v268h-97v18h216v-18z"/>
<glyph glyph-name="oneeighth" horiz-adv-x="785" unicode="⅛" d="M604 14q51 0 82 28t31 74q0 47 -31 75.5t-82 28.5t-82.5 -28.5t-31.5 -75.5q0 -46 31.5 -74t82.5 -28zM502 335q0 -43 28 -69t74 -26q45 0 73 26t28 69t-28 69t-73 26q-46 0 -74 -26t-28 -69zM651 230q42 -11 66 -41.5t24 -73.5q0 -54 -38 -87.5t-99 -33.5q-62 0 -100 33 t-38 88q0 43 24 73.5t66 41.5q-36 11 -57 39t-21 67q0 51 34.5 82.5t91.5 31.5q56 0 90.5 -31t34.5 -82q0 -39 -21 -67.5t-57 -39.5zM152 708l-125 -91l-13 17l143 106h18v-444h-23v412zM563 738l-439 -748l-18 12l439 748z"/>
<glyph glyph-name="threeeighths" horiz-adv-x="881" unicode="⅜" d="M700 14q51 0 82 28t31 74q0 47 -31 75.5t-82 28.5t-82.5 -28.5t-31.5 -75.5q0 -46 31.5 -74t82.5 -28zM598 335q0 -43 28 -69t74 -26q45 0 73 26t28 69t-28 69t-73 26q-46 0 -74 -26t-28 -69zM747 230q42 -11 66 -41.5t24 -73.5q0 -54 -38 -87.5t-99 -33.5q-62 0 -100 33 t-38 88q0 43 24 73.5t66 41.5q-36 11 -57 39t-21 67q0 51 34.5 82.5t91.5 31.5q56 0 90.5 -31t34.5 -82q0 -39 -21 -67.5t-57 -39.5zM305 420q0 -59 -40 -94.5t-107 -35.5q-87 0 -125 53l10 18q36 -51 112 -51q57 0 91.5 30t34.5 80q0 47 -34 76t-90 29q-41 0 -73 -15l-7 12 l184 198h-213v20h246v-15l-174 -185q19 4 44 4q64 0 102.5 -34t38.5 -90zM659 738l-439 -748l-18 12l439 748z"/>
<glyph glyph-name="fiveeighths" horiz-adv-x="884" unicode="⅝" d="M703 14q51 0 82 28t31 74q0 47 -31 75.5t-82 28.5t-82.5 -28.5t-31.5 -75.5q0 -46 31.5 -74t82.5 -28zM601 335q0 -43 28 -69t74 -26q45 0 73 26t28 69t-28 69t-73 26q-46 0 -74 -26t-28 -69zM750 230q42 -11 66 -41.5t24 -73.5q0 -54 -38 -87.5t-99 -33.5q-62 0 -100 33 t-38 88q0 43 24 73.5t66 41.5q-36 11 -57 39t-21 67q0 51 34.5 82.5t91.5 31.5q56 0 90.5 -31t34.5 -82q0 -39 -21 -67.5t-57 -39.5zM309 424q0 -60 -42 -97t-110 -37q-82 0 -125 43l7 18q40 -41 116 -41q59 0 94 31t35 83q0 50 -32 81t-84 31q-45 0 -93 -15l-16 3l30 216 h200v-20h-179l-26 -177q47 13 88 13q61 0 99 -36.5t38 -95.5zM662 738l-439 -748l-18 12l439 748z"/>
<glyph glyph-name="seveneighths" horiz-adv-x="812" unicode="⅞" d="M631 14q51 0 82 28t31 74q0 47 -31 75.5t-82 28.5t-82.5 -28.5t-31.5 -75.5q0 -46 31.5 -74t82.5 -28zM529 335q0 -43 28 -69t74 -26q45 0 73 26t28 69t-28 69t-73 26q-46 0 -74 -26t-28 -69zM678 230q42 -11 66 -41.5t24 -73.5q0 -54 -38 -87.5t-99 -33.5q-62 0 -100 33 t-38 88q0 43 24 73.5t66 41.5q-36 11 -57 39t-21 67q0 51 34.5 82.5t91.5 31.5q56 0 90.5 -31t34.5 -82q0 -39 -21 -67.5t-57 -39.5zM287 740l-163 -444h-25l157 424h-239v20h270zM590 738l-439 -748l-18 12l439 748z"/>
<glyph glyph-name="partialdiff" horiz-adv-x="607" unicode="∂" d="M241 10q127 0 204.5 99.5t77.5 262.5v6q-209 -2 -335.5 -61.5t-126.5 -156.5q0 -68 49.5 -109t130.5 -41zM296 750q113 0 182.5 -104.5t69.5 -274.5q0 -172 -84.5 -276.5t-223.5 -104.5q-92 0 -148 47.5t-56 125.5q0 104 133.5 168.5t353.5 66.5q-6 151 -69 241.5 t-162 90.5q-118 0 -207 -116l-15 15q95 121 226 121z"/>
<glyph glyph-name="emptyset" d="M327 88q104 0 168 69.5t64 182.5q0 105 -57 175l-337 -364q63 -63 162 -63zM94 340q0 -105 57 -175l337 365q-64 62 -161 62q-105 0 -169 -69.5t-64 -182.5zM516 530q65 -75 65 -190q0 -121 -70 -195.5t-184 -74.5q-107 0 -176 66l-61 -66l-16 12l63 68q-65 75 -65 190 q0 121 70 195.5t185 74.5q106 0 175 -66l61 66l16 -12z" unicode="∅"/>
<glyph glyph-name="product" horiz-adv-x="720" unicode="∏" d="M608 -220h-23v980h-450v-980h-23v1000h496v-1000z"/>
<glyph glyph-name="summation" horiz-adv-x="590" unicode="∑" d="M549 -220h-516v15l343 488l-335 482v15h498v-20h-469l334 -477l-342 -483h487v-20z"/>
<glyph glyph-name="minus" horiz-adv-x="558" unicode="−" d="M477 353v-18h-396v18h396z"/>
<glyph glyph-name="radical" horiz-adv-x="744" unicode="√" d="M276 -220h-22l-242 520h23l230 -495l453 975h23z"/>
<glyph glyph-name="infinity" horiz-adv-x="705" unicode="∞" d="M490 136q56 0 90.5 39.5t34.5 103.5t-34.5 103.5t-90.5 39.5q-57 0 -91.5 -39t-34.5 -104t34.5 -104t91.5 -39zM216 136q56 0 90.5 39.5t34.5 103.5t-34.5 103.5t-90.5 39.5q-57 0 -91.5 -39t-34.5 -104t34.5 -104t91.5 -39zM491 440q66 0 106.5 -44t40.5 -117 t-40.5 -117t-106.5 -44q-51 0 -87.5 27t-50.5 74q-15 -47 -51.5 -74t-86.5 -27q-67 0 -107.5 44t-40.5 117t40.5 117t107.5 44q50 0 86.5 -27t51.5 -74q14 47 50.5 74t87.5 27z"/>
<glyph glyph-name="integral" horiz-adv-x="449" unicode="∫" d="M342 790q70 0 105 -38l-7 -17q-40 35 -98 35q-49 0 -77.5 -29.5t-28.5 -77.5v-772q0 -55 -34 -88t-95 -33q-70 0 -105 38l7 17q40 -35 98 -35q49 0 77.5 29.5t28.5 77.5v772q0 55 34 88t95 33z"/>
<glyph glyph-name="approxequal" horiz-adv-x="556" unicode="≈" d="M103 154h-20q0 43 30.5 69.5t76.5 26.5q33 0 63.5 -21t59 -42t57.5 -21q36 0 60.5 20.5t24.5 53.5h20q0 -43 -30.5 -69.5t-76.5 -26.5q-33 0 -63.5 21t-59 42t-57.5 21q-36 0 -60.5 -20.5t-24.5 -53.5zM103 354h-20q0 43 30.5 69.5t76.5 26.5q33 0 63.5 -21t59 -42 t57.5 -21q36 0 60.5 20.5t24.5 53.5h20q0 -43 -30.5 -69.5t-76.5 -26.5q-33 0 -63.5 21t-59 42t-57.5 21q-36 0 -60.5 -20.5t-24.5 -53.5z"/>
<glyph glyph-name="notequal" horiz-adv-x="558" unicode="≠" d="M320 455l-61 -222h218v-18h-223l-30 -110h-21l30 110h-152v18h157l61 222h-218v18h223l30 110h21l-30 -110h152v-18h-157z"/>
<glyph glyph-name="lessequal" horiz-adv-x="549" unicode="≤" d="M87 128h375v-18h-375v18zM462 539l-346 -159l346 -159v-21l-375 175v10l375 175v-21z"/>
<glyph glyph-name="greaterequal" horiz-adv-x="549" unicode="≥" d="M87 128h375v-18h-375v18zM462 385v-10l-375 -175v21l346 159l-346 159v21z"/>
<glyph glyph-name="lozenge" horiz-adv-x="514" unicode="◊" d="M443 310l-186 289l-186 -289l186 -289zM467 310l-203 -310h-14l-203 310l203 310h14z"/>
<glyph glyph-name="A.ss01" d="M656 301v187q0 109 -73 175.5t-192 66.5t-192 -66.5t-73 -175.5v-187h530zM391 750q130 0 209 -71.5t79 -189.5v-489h-23v281h-530v-281h-23v489q0 118 79 189.5t209 71.5z" horiz-adv-x="782"/>
<glyph glyph-name="Aacute.ss01" d="M656 301v187q0 109 -73 175.5t-192 66.5t-192 -66.5t-73 -175.5v-187h530zM391 750q130 0 209 -71.5t79 -189.5v-489h-23v281h-530v-281h-23v489q0 118 79 189.5t209 71.5zM399 840h-22l126 140h32z" horiz-adv-x="782"/>
<glyph glyph-name="Abreve.ss01" d="M656 301v187q0 109 -73 175.5t-192 66.5t-192 -66.5t-73 -175.5v-187h530zM391 750q130 0 209 -71.5t79 -189.5v-489h-23v281h-530v-281h-23v489q0 118 79 189.5t209 71.5zM391 830q-64 0 -103.5 41t-39.5 109h22q0 -59 33 -95.5t88 -36.5t88 36.5t33 95.5h22 q0 -68 -39.5 -109t-103.5 -41z" horiz-adv-x="782"/>
<glyph glyph-name="Acircumflex.ss01" d="M656 301v187q0 109 -73 175.5t-192 66.5t-192 -66.5t-73 -175.5v-187h530zM391 750q130 0 209 -71.5t79 -189.5v-489h-23v281h-530v-281h-23v489q0 118 79 189.5t209 71.5zM273 840h-24l128 140h28l128 -140h-24l-118 125z" horiz-adv-x="782"/>
<glyph glyph-name="Adieresis.ss01" d="M656 301v187q0 109 -73 175.5t-192 66.5t-192 -66.5t-73 -175.5v-187h530zM391 750q130 0 209 -71.5t79 -189.5v-489h-23v281h-530v-281h-23v489q0 118 79 189.5t209 71.5zM475 911q-9 0 -15.5 6.5t-6.5 15.5t6.5 15.5t15.5 6.5t15.5 -6.5t6.5 -15.5t-6.5 -15.5 t-15.5 -6.5zM306 911q-9 0 -15.5 6.5t-6.5 15.5t6.5 15.5t15.5 6.5t15.5 -6.5t6.5 -15.5t-6.5 -15.5t-15.5 -6.5z" horiz-adv-x="782"/>
<glyph glyph-name="Agrave.ss01" d="M656 301v187q0 109 -73 175.5t-192 66.5t-192 -66.5t-73 -175.5v-187h530zM391 750q130 0 209 -71.5t79 -189.5v-489h-23v281h-530v-281h-23v489q0 118 79 189.5t209 71.5zM383 840l-136 140h32l126 -140h-22z" horiz-adv-x="782"/>
<glyph glyph-name="Amacron.ss01" d="M656 301v187q0 109 -73 175.5t-192 66.5t-192 -66.5t-73 -175.5v-187h530zM391 750q130 0 209 -71.5t79 -189.5v-489h-23v281h-530v-281h-23v489q0 118 79 189.5t209 71.5zM528 885h-274v18h274v-18z" horiz-adv-x="782"/>
<glyph glyph-name="Aogonek.ss01" d="M656 301v187q0 109 -73 175.5t-192 66.5t-192 -66.5t-73 -175.5v-187h530zM687 -176q-33 -54 -100 -54q-47 0 -73.5 27t-26.5 73q0 62 46 101t123 44v266h-530v-281h-23v489q0 118 79 189.5t209 71.5t209 -71.5t79 -189.5v-489q-76 0 -122 -35.5t-46 -93.5 q0 -37 20 -59.5t56 -22.5q56 0 83 47z" horiz-adv-x="782"/>
<glyph glyph-name="Aring.ss01" d="M656 301v187q0 109 -73 175.5t-192 66.5t-192 -66.5t-73 -175.5v-187h530zM391 750q130 0 209 -71.5t79 -189.5v-489h-23v281h-530v-281h-23v489q0 118 79 189.5t209 71.5zM391 993q-37 0 -59 -23.5t-22 -62.5t22 -62.5t59 -23.5t59 23.5t22 62.5t-22 62.5t-59 23.5z M391 804q-46 0 -74 28.5t-28 74.5t28 74.5t74 28.5t74 -28.5t28 -74.5t-28 -74.5t-74 -28.5z" horiz-adv-x="782"/>
<glyph glyph-name="Atilde.ss01" d="M656 301v187q0 109 -73 175.5t-192 66.5t-192 -66.5t-73 -175.5v-187h530zM391 750q130 0 209 -71.5t79 -189.5v-489h-23v281h-530v-281h-23v489q0 118 79 189.5t209 71.5zM309 938q-27 0 -46 -20.5t-19 -53.5h-20q0 43 25 69.5t62 26.5q29 0 56 -21t52.5 -42t51.5 -21 q27 0 46 20.5t19 53.5h20q0 -43 -25 -69.5t-62 -26.5q-29 0 -56 21t-52.5 42t-51.5 21z" horiz-adv-x="782"/>
<glyph glyph-name="AE.ss01" d="M439 301v419q-142 0 -228.5 -80.5t-86.5 -211.5v-127h315zM817 20v-20h-378v281h-315v-281h-23v429q0 140 93 225.5t245 85.5h368v-20h-345v-331h325v-20h-325v-349h355z" horiz-adv-x="880"/>
<glyph glyph-name="J.ss01" d="M444 191q0 -91 -55.5 -146t-147.5 -55q-127 0 -196 99l12 17q67 -96 184 -96q81 0 130.5 50t49.5 132v528h-368v20h391v-549z" horiz-adv-x="548"/>
<glyph glyph-name="C.ss02" d="M637 651q-90 79 -222 79q-149 0 -239.5 -99t-90.5 -261t90.5 -261t239.5 -99q132 0 222 79v-25q-93 -74 -222 -74q-160 0 -257.5 104.5t-97.5 275.5t97.5 275.5t257.5 104.5q129 0 222 -74v-25z" horiz-adv-x="686"/>
<glyph glyph-name="Cacute.ss02" d="M637 651q-90 79 -222 79q-149 0 -239.5 -99t-90.5 -261t90.5 -261t239.5 -99q132 0 222 79v-25q-93 -74 -222 -74q-160 0 -257.5 104.5t-97.5 275.5t97.5 275.5t257.5 104.5q129 0 222 -74v-25zM395 840l126 140h32l-136 -140h-22z" horiz-adv-x="686"/>
<glyph glyph-name="Ccaron.ss02" d="M415 730q-149 0 -239.5 -99t-90.5 -261t90.5 -261t239.5 -99q132 0 222 79v-25q-93 -74 -222 -74q-160 0 -257.5 104.5t-97.5 275.5t97.5 275.5t257.5 104.5q129 0 222 -74v-25q-90 79 -222 79zM395 840l-128 140h24l118 -125l118 125h24l-128 -140h-28z" horiz-adv-x="686"/>
<glyph glyph-name="Ccedilla.ss02" d="M415 730q-149 0 -239.5 -99t-90.5 -261t90.5 -261t239.5 -99q132 0 222 79v-25q-93 -74 -222 -74h-2l-44 -67q15 3 36 3q47 0 75.5 -21t28.5 -55q0 -36 -30.5 -58t-80.5 -22q-63 0 -92 31l9 17q27 -28 81 -28q40 0 64.5 16.5t24.5 43.5q0 26 -24 42t-63 16q-29 0 -53 -9 l-6 12l52 80q-150 8 -240.5 111.5t-90.5 267.5q0 171 97.5 275.5t257.5 104.5q129 0 222 -74v-25q-90 79 -222 79z" horiz-adv-x="686"/>
<glyph glyph-name="Cdotaccent.ss02" d="M637 651q-90 79 -222 79q-149 0 -239.5 -99t-90.5 -261t90.5 -261t239.5 -99q132 0 222 79v-25q-93 -74 -222 -74q-160 0 -257.5 104.5t-97.5 275.5t97.5 275.5t257.5 104.5q129 0 222 -74v-25zM409 911q-9 0 -15.5 6.5t-6.5 15.5t6.5 15.5t15.5 6.5t15.5 -6.5t6.5 -15.5 t-6.5 -15.5t-15.5 -6.5z" horiz-adv-x="686"/>
<glyph glyph-name="Z.ss02" d="M517 20v-20h-485l441 720h-435v20h473l-441 -720h447z" horiz-adv-x="549"/>
<glyph glyph-name="Zacute.ss02" d="M517 20v-20h-485l441 720h-435v20h473l-441 -720h447zM283 840h-22l126 140h32z" horiz-adv-x="549"/>
<glyph glyph-name="Zcaron.ss02" d="M517 20v-20h-485l441 720h-435v20h473l-441 -720h447zM261 840l-128 140h24l118 -125l118 125h24l-128 -140h-28z" horiz-adv-x="549"/>
<glyph glyph-name="Zdotaccent.ss02" d="M517 20v-20h-485l441 720h-435v20h473l-441 -720h447zM275 911q-9 0 -15.5 6.5t-6.5 15.5t6.5 15.5t15.5 6.5t15.5 -6.5t6.5 -15.5t-6.5 -15.5t-15.5 -6.5z" horiz-adv-x="549"/>
<glyph glyph-name="i.loclTRK" d="M114 520v-520h-20v520h20zM104 691q-9 0 -15.5 6.5t-6.5 15.5t6.5 15.5t15.5 6.5t15.5 -6.5t6.5 -15.5t-6.5 -15.5t-15.5 -6.5z" horiz-adv-x="208"/>
<glyph glyph-name="a.ss01" d="M310 8q104 0 168 69.5t64 182.5t-64 182.5t-168 69.5q-105 0 -169 -69.5t-64 -183.5q0 -113 64 -182t169 -69zM562 520v-520h-20v156q-23 -76 -83 -121t-154 -45q-112 0 -181 74t-69 195q0 122 68.5 196.5t181.5 74.5q94 0 154 -45t83 -121v156h20z"/>
<glyph glyph-name="aacute.ss01" d="M310 8q104 0 168 69.5t64 182.5t-64 182.5t-168 69.5q-105 0 -169 -69.5t-64 -183.5q0 -113 64 -182t169 -69zM562 520v-520h-20v156q-23 -76 -83 -121t-154 -45q-112 0 -181 74t-69 195q0 122 68.5 196.5t181.5 74.5q94 0 154 -45t83 -121v156h20zM327 620h-22l126 140 h32z"/>
<glyph glyph-name="abreve.ss01" d="M310 8q104 0 168 69.5t64 182.5t-64 182.5t-168 69.5q-105 0 -169 -69.5t-64 -183.5q0 -113 64 -182t169 -69zM562 520v-520h-20v156q-23 -76 -83 -121t-154 -45q-112 0 -181 74t-69 195q0 122 68.5 196.5t181.5 74.5q94 0 154 -45t83 -121v156h20zM319 610 q-64 0 -103.5 41t-39.5 109h22q0 -59 33 -95.5t88 -36.5t88 36.5t33 95.5h22q0 -68 -39.5 -109t-103.5 -41z"/>
<glyph glyph-name="acircumflex.ss01" d="M310 8q104 0 168 69.5t64 182.5t-64 182.5t-168 69.5q-105 0 -169 -69.5t-64 -183.5q0 -113 64 -182t169 -69zM562 520v-520h-20v156q-23 -76 -83 -121t-154 -45q-112 0 -181 74t-69 195q0 122 68.5 196.5t181.5 74.5q94 0 154 -45t83 -121v156h20zM201 620h-24l128 140 h28l128 -140h-24l-118 125z"/>
<glyph glyph-name="adieresis.ss01" d="M310 8q104 0 168 69.5t64 182.5t-64 182.5t-168 69.5q-105 0 -169 -69.5t-64 -183.5q0 -113 64 -182t169 -69zM562 520v-520h-20v156q-23 -76 -83 -121t-154 -45q-112 0 -181 74t-69 195q0 122 68.5 196.5t181.5 74.5q94 0 154 -45t83 -121v156h20zM403 691 q-9 0 -15.5 6.5t-6.5 15.5t6.5 15.5t15.5 6.5t15.5 -6.5t6.5 -15.5t-6.5 -15.5t-15.5 -6.5zM234 691q-9 0 -15.5 6.5t-6.5 15.5t6.5 15.5t15.5 6.5t15.5 -6.5t6.5 -15.5t-6.5 -15.5t-15.5 -6.5z"/>
<glyph glyph-name="agrave.ss01" d="M310 8q104 0 168 69.5t64 182.5t-64 182.5t-168 69.5q-105 0 -169 -69.5t-64 -183.5q0 -113 64 -182t169 -69zM562 520v-520h-20v156q-23 -76 -83 -121t-154 -45q-112 0 -181 74t-69 195q0 122 68.5 196.5t181.5 74.5q94 0 154 -45t83 -121v156h20zM311 620l-136 140h32 l126 -140h-22z"/>
<glyph glyph-name="amacron.ss01" d="M310 8q104 0 168 69.5t64 182.5t-64 182.5t-168 69.5q-105 0 -169 -69.5t-64 -183.5q0 -113 64 -182t169 -69zM562 520v-520h-20v156q-23 -76 -83 -121t-154 -45q-112 0 -181 74t-69 195q0 122 68.5 196.5t181.5 74.5q94 0 154 -45t83 -121v156h20zM456 665h-274v18h274 v-18z"/>
<glyph glyph-name="aogonek.ss01" d="M310 8q104 0 168 69.5t64 182.5t-64 182.5t-168 69.5q-105 0 -169 -69.5t-64 -183.5q0 -113 64 -182t169 -69zM570 -176q-33 -54 -100 -54q-47 0 -73.5 27t-26.5 73q0 62 47 101t125 44v141q-23 -76 -83 -121t-154 -45q-112 0 -181 74t-69 195q0 122 68.5 196.5 t181.5 74.5q94 0 154 -45t83 -121v156h20v-520q-76 0 -122 -35.5t-46 -93.5q0 -37 20 -59.5t56 -22.5q56 0 83 47z"/>
<glyph glyph-name="aring.ss01" d="M310 8q104 0 168 69.5t64 182.5t-64 182.5t-168 69.5q-105 0 -169 -69.5t-64 -183.5q0 -113 64 -182t169 -69zM562 520v-520h-20v156q-23 -76 -83 -121t-154 -45q-112 0 -181 74t-69 195q0 122 68.5 196.5t181.5 74.5q94 0 154 -45t83 -121v156h20zM319 773 q-37 0 -59 -23.5t-22 -62.5t22 -62.5t59 -23.5t59 23.5t22 62.5t-22 62.5t-59 23.5zM319 584q-46 0 -74 28.5t-28 74.5t28 74.5t74 28.5t74 -28.5t28 -74.5t-28 -74.5t-74 -28.5z"/>
<glyph glyph-name="atilde.ss01" d="M310 8q104 0 168 69.5t64 182.5t-64 182.5t-168 69.5q-105 0 -169 -69.5t-64 -183.5q0 -113 64 -182t169 -69zM562 520v-520h-20v156q-23 -76 -83 -121t-154 -45q-112 0 -181 74t-69 195q0 122 68.5 196.5t181.5 74.5q94 0 154 -45t83 -121v156h20zM237 718 q-27 0 -46 -20.5t-19 -53.5h-20q0 43 25 69.5t62 26.5q29 0 56 -21t52.5 -42t51.5 -21q27 0 46 20.5t19 53.5h20q0 -43 -25 -69.5t-62 -26.5q-29 0 -56 21t-52.5 42t-51.5 21z"/>
<glyph glyph-name="f.ss01" d="M229 772q-53 0 -85 -32t-32 -84v-136h210v-18h-210v-502h-20v659q0 59 37.5 95t99.5 36q59 0 98 -20l-3 -18q-37 20 -95 20z" horiz-adv-x="330"/>
<glyph glyph-name="j.ss01" d="M94 520h20v-740h-20v740zM103 691q-9 0 -15.5 6.5t-6.5 15.5t6.5 15.5t15.5 6.5t15.5 -6.5t6.5 -15.5t-6.5 -15.5t-15.5 -6.5z" horiz-adv-x="208"/>
<glyph glyph-name="t.ss01" d="M216 8q63 0 116 20v-18q-44 -20 -120 -20q-56 0 -90.5 35t-34.5 92v556h20v-153h217v-18h-217v-382q0 -50 30 -81t79 -31z" horiz-adv-x="335"/>
<glyph glyph-name="tbar.ss01" d="M216 8q63 0 116 20v-18q-44 -20 -120 -20q-56 0 -90.5 35t-34.5 92v556h20v-153h217v-18h-217v-214h209v-18h-209v-150q0 -50 30 -81t79 -31z" horiz-adv-x="337"/>
<glyph glyph-name="tcaron.ss01" d="M216 8q63 0 116 20v-18q-44 -20 -120 -20q-56 0 -90.5 35t-34.5 92v556h20v-153h217v-18h-217v-382q0 -50 30 -81t79 -31zM219 593h-18l68 187h22z" horiz-adv-x="335"/>
<glyph glyph-name="uni0163.ss01" d="M212 -10q-17 0 -32 3l-47 -70q15 3 36 3q47 0 75.5 -21t28.5 -55q0 -36 -30.5 -58t-80.5 -22q-63 0 -92 31l9 17q27 -28 81 -28q40 0 64.5 16.5t24.5 43.5q0 26 -24 42t-63 16q-29 0 -53 -9l-6 12l58 88q-35 14 -54.5 45t-19.5 73v556h20v-153h217v-18h-217v-382 q0 -50 30 -81t79 -31q63 0 116 20v-18q-44 -20 -120 -20z" horiz-adv-x="335"/>
<glyph glyph-name="uni021B.ss01" d="M173 -52h22l-65 -168h-18zM216 8q63 0 116 20v-18q-44 -20 -120 -20q-56 0 -90.5 35t-34.5 92v556h20v-153h217v-18h-217v-382q0 -50 30 -81t79 -31z" horiz-adv-x="335"/>
<glyph glyph-name="u.ss01" d="M501 520h20v-329q0 -91 -60 -146t-158 -55t-158 55t-60 146v329h20v-321q0 -86 54.5 -138.5t143.5 -52.5t143.5 52.5t54.5 138.5v321z" horiz-adv-x="606"/>
<glyph glyph-name="uacute.ss01" d="M501 520h20v-329q0 -91 -60 -146t-158 -55t-158 55t-60 146v329h20v-321q0 -86 54.5 -138.5t143.5 -52.5t143.5 52.5t54.5 138.5v321zM289 620l126 140h32l-136 -140h-22z" horiz-adv-x="606"/>
<glyph glyph-name="ucircumflex.ss01" d="M521 520v-329q0 -91 -60 -146t-158 -55t-158 55t-60 146v329h20v-321q0 -86 54.5 -138.5t143.5 -52.5t143.5 52.5t54.5 138.5v321h20zM185 620h-24l128 140h28l128 -140h-24l-118 125z" horiz-adv-x="606"/>
<glyph glyph-name="udieresis.ss01" d="M501 520h20v-329q0 -91 -60 -146t-158 -55t-158 55t-60 146v329h20v-321q0 -86 54.5 -138.5t143.5 -52.5t143.5 52.5t54.5 138.5v321zM387 691q-9 0 -15.5 6.5t-6.5 15.5t6.5 15.5t15.5 6.5t15.5 -6.5t6.5 -15.5t-6.5 -15.5t-15.5 -6.5zM218 691q-9 0 -15.5 6.5 t-6.5 15.5t6.5 15.5t15.5 6.5t15.5 -6.5t6.5 -15.5t-6.5 -15.5t-15.5 -6.5z" horiz-adv-x="606"/>
<glyph glyph-name="ugrave.ss01" d="M501 520h20v-329q0 -91 -60 -146t-158 -55t-158 55t-60 146v329h20v-321q0 -86 54.5 -138.5t143.5 -52.5t143.5 52.5t54.5 138.5v321zM159 760h32l126 -140h-22z" horiz-adv-x="606"/>
<glyph glyph-name="uhungarumlaut.ss01" d="M501 520h20v-329q0 -91 -60 -146t-158 -55t-158 55t-60 146v329h20v-321q0 -86 54.5 -138.5t143.5 -52.5t143.5 52.5t54.5 138.5v321zM341 620l106 140h32l-116 -140h-22zM231 620l106 140h32l-116 -140h-22z" horiz-adv-x="606"/>
<glyph glyph-name="umacron.ss01" d="M501 520h20v-329q0 -91 -60 -146t-158 -55t-158 55t-60 146v329h20v-321q0 -86 54.5 -138.5t143.5 -52.5t143.5 52.5t54.5 138.5v321zM440 683v-18h-274v18h274z" horiz-adv-x="606"/>
<glyph glyph-name="uogonek.ss01" d="M439 27q-130 -90 -130 -165q0 -32 20.5 -52.5t55.5 -20.5q56 0 83 47l17 -12q-33 -54 -101 -54q-46 0 -72.5 25t-26.5 66q0 70 87 137q-34 -8 -69 -8q-98 0 -158 55t-60 146v329h20v-321q0 -86 54.5 -138.5t143.5 -52.5t143.5 52.5t54.5 138.5v321h20v-329 q0 -107 -82 -164z" horiz-adv-x="606"/>
<glyph glyph-name="uring.ss01" d="M501 520h20v-329q0 -91 -60 -146t-158 -55t-158 55t-60 146v329h20v-321q0 -86 54.5 -138.5t143.5 -52.5t143.5 52.5t54.5 138.5v321zM303 601q37 0 59 23.5t22 62.5t-22 62.5t-59 23.5t-59 -23.5t-22 -62.5t22 -62.5t59 -23.5zM303 584q-46 0 -74 28.5t-28 74.5t28 74.5 t74 28.5t74 -28.5t28 -74.5t-28 -74.5t-74 -28.5z" horiz-adv-x="606"/>
<glyph glyph-name="y.ss01" d="M521 520v-492q0 -116 -63 -187t-167 -71q-129 0 -211 70l5 18q87 -70 205 -70q95 0 153 67.5t58 177.5v85q-42 -128 -201 -128q-96 0 -155.5 55.5t-59.5 145.5v329h20v-321q0 -86 54.5 -138.5t143.5 -52.5t143.5 52.5t54.5 138.5v321h20z" horiz-adv-x="613"/>
<glyph glyph-name="yacute.ss01" d="M521 520v-492q0 -116 -63 -187t-167 -71q-129 0 -211 70l5 18q87 -70 205 -70q95 0 153 67.5t58 177.5v85q-42 -128 -201 -128q-96 0 -155.5 55.5t-59.5 145.5v329h20v-321q0 -86 54.5 -138.5t143.5 -52.5t143.5 52.5t54.5 138.5v321h20zM306 620h-22l126 140h32z" horiz-adv-x="613"/>
<glyph glyph-name="ycircumflex.ss01" d="M521 520v-492q0 -116 -63 -187t-167 -71q-129 0 -211 70l5 18q87 -70 205 -70q95 0 153 67.5t58 177.5v85q-42 -128 -201 -128q-96 0 -155.5 55.5t-59.5 145.5v329h20v-321q0 -86 54.5 -138.5t143.5 -52.5t143.5 52.5t54.5 138.5v321h20zM180 620h-24l128 140h28 l128 -140h-24l-118 125z" horiz-adv-x="613"/>
<glyph glyph-name="ydieresis.ss01" d="M521 520v-492q0 -116 -63 -187t-167 -71q-129 0 -211 70l5 18q87 -70 205 -70q95 0 153 67.5t58 177.5v85q-42 -128 -201 -128q-96 0 -155.5 55.5t-59.5 145.5v329h20v-321q0 -86 54.5 -138.5t143.5 -52.5t143.5 52.5t54.5 138.5v321h20zM382 691q-9 0 -15.5 6.5 t-6.5 15.5t6.5 15.5t15.5 6.5t15.5 -6.5t6.5 -15.5t-6.5 -15.5t-15.5 -6.5zM213 691q-9 0 -15.5 6.5t-6.5 15.5t6.5 15.5t15.5 6.5t15.5 -6.5t6.5 -15.5t-6.5 -15.5t-15.5 -6.5z" horiz-adv-x="613"/>
<glyph glyph-name="ygrave.ss01" d="M521 520v-492q0 -116 -63 -187t-167 -71q-129 0 -211 70l5 18q87 -70 205 -70q95 0 153 67.5t58 177.5v85q-42 -128 -201 -128q-96 0 -155.5 55.5t-59.5 145.5v329h20v-321q0 -86 54.5 -138.5t143.5 -52.5t143.5 52.5t54.5 138.5v321h20zM290 620l-136 140h32l126 -140 h-22z" horiz-adv-x="613"/>
<glyph glyph-name="a.ss02" d="M210 8q83 0 151.5 64.5t68.5 170.5q-86 24 -180 24q-84 0 -135 -36.5t-51 -96.5q0 -57 40 -91.5t106 -34.5zM450 520v-520h-20v151q-24 -74 -85.5 -117.5t-138.5 -43.5q-74 0 -119 39.5t-45 103.5q0 68 56.5 110t149.5 42q94 0 182 -24v241h-354v18h374z" horiz-adv-x="542"/>
<glyph glyph-name="aacute.ss02" d="M210 8q83 0 151.5 64.5t68.5 170.5q-86 24 -180 24q-84 0 -135 -36.5t-51 -96.5q0 -57 40 -91.5t106 -34.5zM450 520v-520h-20v151q-24 -74 -85.5 -117.5t-138.5 -43.5q-74 0 -119 39.5t-45 103.5q0 68 56.5 110t149.5 42q94 0 182 -24v241h-354v18h374zM272 620h-22 l126 140h32z" horiz-adv-x="542"/>
<glyph glyph-name="abreve.ss02" d="M210 8q83 0 151.5 64.5t68.5 170.5q-86 24 -180 24q-84 0 -135 -36.5t-51 -96.5q0 -57 40 -91.5t106 -34.5zM450 520v-520h-20v151q-24 -74 -85.5 -117.5t-138.5 -43.5q-74 0 -119 39.5t-45 103.5q0 68 56.5 110t149.5 42q94 0 182 -24v241h-354v18h374zM264 610 q-64 0 -103.5 41t-39.5 109h22q0 -59 33 -95.5t88 -36.5t88 36.5t33 95.5h22q0 -68 -39.5 -109t-103.5 -41z" horiz-adv-x="542"/>
<glyph glyph-name="acircumflex.ss02" d="M210 8q83 0 151.5 64.5t68.5 170.5q-86 24 -180 24q-84 0 -135 -36.5t-51 -96.5q0 -57 40 -91.5t106 -34.5zM450 520v-520h-20v151q-24 -74 -85.5 -117.5t-138.5 -43.5q-74 0 -119 39.5t-45 103.5q0 68 56.5 110t149.5 42q94 0 182 -24v241h-354v18h374zM146 620h-24 l128 140h28l128 -140h-24l-118 125z" horiz-adv-x="542"/>
<glyph glyph-name="adieresis.ss02" d="M210 8q83 0 151.5 64.5t68.5 170.5q-86 24 -180 24q-84 0 -135 -36.5t-51 -96.5q0 -57 40 -91.5t106 -34.5zM450 520v-520h-20v151q-24 -74 -85.5 -117.5t-138.5 -43.5q-74 0 -119 39.5t-45 103.5q0 68 56.5 110t149.5 42q94 0 182 -24v241h-354v18h374zM348 691 q-9 0 -15.5 6.5t-6.5 15.5t6.5 15.5t15.5 6.5t15.5 -6.5t6.5 -15.5t-6.5 -15.5t-15.5 -6.5zM179 691q-9 0 -15.5 6.5t-6.5 15.5t6.5 15.5t15.5 6.5t15.5 -6.5t6.5 -15.5t-6.5 -15.5t-15.5 -6.5z" horiz-adv-x="542"/>
<glyph glyph-name="agrave.ss02" d="M210 8q83 0 151.5 64.5t68.5 170.5q-86 24 -180 24q-84 0 -135 -36.5t-51 -96.5q0 -57 40 -91.5t106 -34.5zM450 520v-520h-20v151q-24 -74 -85.5 -117.5t-138.5 -43.5q-74 0 -119 39.5t-45 103.5q0 68 56.5 110t149.5 42q94 0 182 -24v241h-354v18h374zM256 620 l-136 140h32l126 -140h-22z" horiz-adv-x="542"/>
<glyph glyph-name="amacron.ss02" d="M210 8q83 0 151.5 64.5t68.5 170.5q-86 24 -180 24q-84 0 -135 -36.5t-51 -96.5q0 -57 40 -91.5t106 -34.5zM450 520v-520h-20v151q-24 -74 -85.5 -117.5t-138.5 -43.5q-74 0 -119 39.5t-45 103.5q0 68 56.5 110t149.5 42q94 0 182 -24v241h-354v18h374zM401 665h-274v18 h274v-18z" horiz-adv-x="542"/>
<glyph glyph-name="aogonek.ss02" d="M210 8q83 0 151.5 64.5t68.5 170.5q-86 24 -180 24q-84 0 -135 -36.5t-51 -96.5q0 -57 40 -91.5t106 -34.5zM458 -176q-33 -54 -100 -54q-47 0 -73.5 27t-26.5 73q0 62 47 101t125 44v136q-24 -74 -85.5 -117.5t-138.5 -43.5q-74 0 -119 39.5t-45 103.5q0 68 56.5 110 t149.5 42q94 0 182 -24v241h-354v18h374v-520q-76 0 -122 -35.5t-46 -93.5q0 -37 20 -59.5t56 -22.5q56 0 83 47z" horiz-adv-x="542"/>
<glyph glyph-name="aring.ss02" d="M210 8q83 0 151.5 64.5t68.5 170.5q-86 24 -180 24q-84 0 -135 -36.5t-51 -96.5q0 -57 40 -91.5t106 -34.5zM450 520v-520h-20v151q-24 -74 -85.5 -117.5t-138.5 -43.5q-74 0 -119 39.5t-45 103.5q0 68 56.5 110t149.5 42q94 0 182 -24v241h-354v18h374zM264 773 q-37 0 -59 -23.5t-22 -62.5t22 -62.5t59 -23.5t59 23.5t22 62.5t-22 62.5t-59 23.5zM264 584q-46 0 -74 28.5t-28 74.5t28 74.5t74 28.5t74 -28.5t28 -74.5t-28 -74.5t-74 -28.5z" horiz-adv-x="542"/>
<glyph glyph-name="atilde.ss02" d="M210 8q83 0 151.5 64.5t68.5 170.5q-86 24 -180 24q-84 0 -135 -36.5t-51 -96.5q0 -57 40 -91.5t106 -34.5zM450 520v-520h-20v151q-24 -74 -85.5 -117.5t-138.5 -43.5q-74 0 -119 39.5t-45 103.5q0 68 56.5 110t149.5 42q94 0 182 -24v241h-354v18h374zM182 718 q-27 0 -46 -20.5t-19 -53.5h-20q0 43 25 69.5t62 26.5q29 0 56 -21t52.5 -42t51.5 -21q27 0 46 20.5t19 53.5h20q0 -43 -25 -69.5t-62 -26.5q-29 0 -56 21t-52.5 42t-51.5 21z" horiz-adv-x="542"/>
<glyph glyph-name="c.ss02" d="M427 461q-53 51 -127 51q-100 0 -161.5 -69.5t-61.5 -182.5t61.5 -182.5t161.5 -69.5q74 0 127 51v-23q-56 -46 -127 -46q-110 0 -177.5 74t-67.5 196t67.5 196t177.5 74q71 0 127 -46v-23z" horiz-adv-x="477"/>
<glyph glyph-name="cacute.ss02" d="M427 461q-53 51 -127 51q-100 0 -161.5 -69.5t-61.5 -182.5t61.5 -182.5t161.5 -69.5q74 0 127 51v-23q-56 -46 -127 -46q-110 0 -177.5 74t-67.5 196t67.5 196t177.5 74q71 0 127 -46v-23zM279 620l126 140h32l-136 -140h-22z" horiz-adv-x="477"/>
<glyph glyph-name="ccaron.ss02" d="M55 260q0 122 67.5 196t177.5 74q71 0 127 -46v-23q-53 51 -127 51q-100 0 -161.5 -69.5t-61.5 -182.5t61.5 -182.5t161.5 -69.5q74 0 127 51v-23q-56 -46 -127 -46q-110 0 -177.5 74t-67.5 196zM279 620l-128 140h24l118 -125l118 125h24l-128 -140h-28z" horiz-adv-x="477"/>
<glyph glyph-name="ccedilla.ss02" d="M300 512q-100 0 -161.5 -69.5t-61.5 -182.5t61.5 -182.5t161.5 -69.5q74 0 127 51v-23q-56 -46 -127 -46h-4l-44 -67q15 3 36 3q47 0 75.5 -21t28.5 -55q0 -36 -30.5 -58t-80.5 -22q-63 0 -92 31l9 17q27 -28 81 -28q40 0 64.5 16.5t24.5 43.5q0 26 -24 42t-63 16 q-29 0 -53 -9l-6 12l52 80q-99 9 -159 82t-60 187q0 122 67.5 196t177.5 74q71 0 127 -46v-23q-53 51 -127 51z" horiz-adv-x="477"/>
<glyph glyph-name="cdotaccent.ss02" d="M427 461q-53 51 -127 51q-100 0 -161.5 -69.5t-61.5 -182.5t61.5 -182.5t161.5 -69.5q74 0 127 51v-23q-56 -46 -127 -46q-110 0 -177.5 74t-67.5 196t67.5 196t177.5 74q71 0 127 -46v-23zM293 691q-9 0 -15.5 6.5t-6.5 15.5t6.5 15.5t15.5 6.5t15.5 -6.5t6.5 -15.5 t-6.5 -15.5t-15.5 -6.5z" horiz-adv-x="477"/>
<glyph glyph-name="f.ss02" d="M133 762v-242h210v-18h-210v-502h-20v502h-95v18h95v260h234v-18h-214z" horiz-adv-x="351"/>
<glyph glyph-name="g.ss02" d="M311 8q104 0 168 69.5t64 182.5t-64 182.5t-168 69.5q-105 0 -169 -69t-64 -182q0 -114 64 -183.5t169 -69.5zM563 520v-740h-490v18h470v358q-23 -76 -83 -121t-154 -45q-113 0 -181.5 74.5t-68.5 196.5q0 121 69 195t181 74q94 0 154 -45t83 -121v156h20z"/>
<glyph glyph-name="gbreve.ss02" d="M311 8q104 0 168 69.5t64 182.5t-64 182.5t-168 69.5q-105 0 -169 -69t-64 -182q0 -114 64 -183.5t169 -69.5zM563 520v-740h-490v18h470v358q-23 -76 -83 -121t-154 -45q-113 0 -181.5 74.5t-68.5 196.5q0 121 69 195t181 74q94 0 154 -45t83 -121v156h20zM322 610 q-64 0 -103.5 41t-39.5 109h22q0 -59 33 -95.5t88 -36.5t88 36.5t33 95.5h22q0 -68 -39.5 -109t-103.5 -41z"/>
<glyph glyph-name="gcommaaccent.ss02" d="M311 8q104 0 168 69.5t64 182.5t-64 182.5t-168 69.5q-105 0 -169 -69t-64 -182q0 -114 64 -183.5t169 -69.5zM563 520v-740h-490v18h470v358q-23 -76 -83 -121t-154 -45q-113 0 -181.5 74.5t-68.5 196.5q0 121 69 195t181 74q94 0 154 -45t83 -121v156h20zM319 593h-22 l72 187h18z"/>
<glyph glyph-name="gdotaccent.ss02" d="M311 8q104 0 168 69.5t64 182.5t-64 182.5t-168 69.5q-105 0 -169 -69t-64 -182q0 -114 64 -183.5t169 -69.5zM563 520v-740h-490v18h470v358q-23 -76 -83 -121t-154 -45q-113 0 -181.5 74.5t-68.5 196.5q0 121 69 195t181 74q94 0 154 -45t83 -121v156h20zM322 691 q-9 0 -15.5 6.5t-6.5 15.5t6.5 15.5t15.5 6.5t15.5 -6.5t6.5 -15.5t-6.5 -15.5t-15.5 -6.5z"/>
<glyph glyph-name="j.ss02" d="M94 520h20v-740h-20v740zM103 691q-9 0 -15.5 6.5t-6.5 15.5t6.5 15.5t15.5 6.5t15.5 -6.5t6.5 -15.5t-6.5 -15.5t-15.5 -6.5z" horiz-adv-x="208"/>
<glyph glyph-name="l.ss02" d="M96 780h20v-762h120v-18h-140v780z" horiz-adv-x="239"/>
<glyph glyph-name="lacute.ss02" d="M96 780h20v-762h120v-18h-140v780zM92 880l126 140h32l-136 -140h-22z" horiz-adv-x="239"/>
<glyph glyph-name="lcaron.ss02" d="M254 780l-72 -187h-18l68 187h22zM96 780h20v-762h120v-18h-140v780z" horiz-adv-x="239"/>
<glyph glyph-name="lcommaaccent.ss02" d="M179 -52l-65 -168h-18l61 168h22zM96 780h20v-762h120v-18h-140v780z" horiz-adv-x="239"/>
<glyph glyph-name="lslash.ss02" d="M236 18v-18h-140v394l-104 -74v22l104 74v364h20v-352l102 70v-22l-102 -70v-388h120z" horiz-adv-x="239"/>
<glyph glyph-name="t.ss02" d="M322 502h-146v-502h-20v502h-146v18h146v153h20v-153h146v-18z" horiz-adv-x="311"/>
<glyph glyph-name="tbar.ss02" d="M200 502v-233h126v-18h-126v-251h-20v251h-126v18h126v233h-146v18h146v153h20v-153h146v-18h-146z" horiz-adv-x="354"/>
<glyph glyph-name="tcaron.ss02" d="M176 520h146v-18h-146v-502h-20v502h-146v18h146v153h20v-153zM288 593h-18l68 187h22z" horiz-adv-x="311"/>
<glyph glyph-name="uni0163.ss02" d="M176 0l-52 -78q16 4 39 4q47 0 75.5 -21t28.5 -55q0 -36 -30.5 -58t-80.5 -22q-63 0 -92 31l9 17q27 -28 81 -28q40 0 64.5 16.5t24.5 43.5q0 26 -24 42t-63 16q-29 0 -53 -9l-6 12l59 89v502h-146v18h146v153h20v-153h146v-18h-146v-502z" horiz-adv-x="311"/>
<glyph glyph-name="uni021B.ss02" d="M167 -52h22l-65 -168h-18zM322 520v-18h-146v-502h-20v502h-146v18h146v153h20v-153h146z" horiz-adv-x="311"/>
<glyph glyph-name="u.ss02" d="M501 520h20v-329q0 -91 -60 -146t-158 -55t-158 55t-60 146v329h20v-321q0 -86 54.5 -138.5t143.5 -52.5t143.5 52.5t54.5 138.5v321z" horiz-adv-x="606"/>
<glyph glyph-name="uacute.ss02" d="M501 520h20v-329q0 -91 -60 -146t-158 -55t-158 55t-60 146v329h20v-321q0 -86 54.5 -138.5t143.5 -52.5t143.5 52.5t54.5 138.5v321zM289 620l126 140h32l-136 -140h-22z" horiz-adv-x="606"/>
<glyph glyph-name="ucircumflex.ss02" d="M521 520v-329q0 -91 -60 -146t-158 -55t-158 55t-60 146v329h20v-321q0 -86 54.5 -138.5t143.5 -52.5t143.5 52.5t54.5 138.5v321h20zM185 620h-24l128 140h28l128 -140h-24l-118 125z" horiz-adv-x="606"/>
<glyph glyph-name="udieresis.ss02" d="M501 520h20v-329q0 -91 -60 -146t-158 -55t-158 55t-60 146v329h20v-321q0 -86 54.5 -138.5t143.5 -52.5t143.5 52.5t54.5 138.5v321zM387 691q-9 0 -15.5 6.5t-6.5 15.5t6.5 15.5t15.5 6.5t15.5 -6.5t6.5 -15.5t-6.5 -15.5t-15.5 -6.5zM218 691q-9 0 -15.5 6.5 t-6.5 15.5t6.5 15.5t15.5 6.5t15.5 -6.5t6.5 -15.5t-6.5 -15.5t-15.5 -6.5z" horiz-adv-x="606"/>
<glyph glyph-name="ugrave.ss02" d="M501 520h20v-329q0 -91 -60 -146t-158 -55t-158 55t-60 146v329h20v-321q0 -86 54.5 -138.5t143.5 -52.5t143.5 52.5t54.5 138.5v321zM159 760h32l126 -140h-22z" horiz-adv-x="606"/>
<glyph glyph-name="uhungarumlaut.ss02" d="M501 520h20v-329q0 -91 -60 -146t-158 -55t-158 55t-60 146v329h20v-321q0 -86 54.5 -138.5t143.5 -52.5t143.5 52.5t54.5 138.5v321zM341 620l106 140h32l-116 -140h-22zM231 620l106 140h32l-116 -140h-22z" horiz-adv-x="606"/>
<glyph glyph-name="umacron.ss02" d="M501 520h20v-329q0 -91 -60 -146t-158 -55t-158 55t-60 146v329h20v-321q0 -86 54.5 -138.5t143.5 -52.5t143.5 52.5t54.5 138.5v321zM440 683v-18h-274v18h274z" horiz-adv-x="606"/>
<glyph glyph-name="uogonek.ss02" d="M439 27q-130 -90 -130 -165q0 -32 20.5 -52.5t55.5 -20.5q56 0 83 47l17 -12q-33 -54 -101 -54q-46 0 -72.5 25t-26.5 66q0 70 87 137q-34 -8 -69 -8q-98 0 -158 55t-60 146v329h20v-321q0 -86 54.5 -138.5t143.5 -52.5t143.5 52.5t54.5 138.5v321h20v-329 q0 -107 -82 -164z" horiz-adv-x="606"/>
<glyph glyph-name="uring.ss02" d="M501 520h20v-329q0 -91 -60 -146t-158 -55t-158 55t-60 146v329h20v-321q0 -86 54.5 -138.5t143.5 -52.5t143.5 52.5t54.5 138.5v321zM303 601q37 0 59 23.5t22 62.5t-22 62.5t-59 23.5t-59 -23.5t-22 -62.5t22 -62.5t59 -23.5zM303 584q-46 0 -74 28.5t-28 74.5t28 74.5 t74 28.5t74 -28.5t28 -74.5t-28 -74.5t-74 -28.5z" horiz-adv-x="606"/>
<glyph glyph-name="y.ss02" d="M521 520v-740h-431v18h411v320q-42 -128 -201 -128q-96 0 -155.5 55.5t-59.5 145.5v329h20v-321q0 -86 54.5 -138.5t143.5 -52.5t143.5 52.5t54.5 138.5v321h20z" horiz-adv-x="613"/>
<glyph glyph-name="yacute.ss02" d="M521 520v-740h-431v18h411v320q-42 -128 -201 -128q-96 0 -155.5 55.5t-59.5 145.5v329h20v-321q0 -86 54.5 -138.5t143.5 -52.5t143.5 52.5t54.5 138.5v321h20zM311 620h-22l126 140h32z" horiz-adv-x="613"/>
<glyph glyph-name="ycircumflex.ss02" d="M521 520v-740h-431v18h411v320q-42 -128 -201 -128q-96 0 -155.5 55.5t-59.5 145.5v329h20v-321q0 -86 54.5 -138.5t143.5 -52.5t143.5 52.5t54.5 138.5v321h20zM185 620h-24l128 140h28l128 -140h-24l-118 125z" horiz-adv-x="613"/>
<glyph glyph-name="ydieresis.ss02" d="M521 520v-740h-431v18h411v320q-42 -128 -201 -128q-96 0 -155.5 55.5t-59.5 145.5v329h20v-321q0 -86 54.5 -138.5t143.5 -52.5t143.5 52.5t54.5 138.5v321h20zM387 691q-9 0 -15.5 6.5t-6.5 15.5t6.5 15.5t15.5 6.5t15.5 -6.5t6.5 -15.5t-6.5 -15.5t-15.5 -6.5z M218 691q-9 0 -15.5 6.5t-6.5 15.5t6.5 15.5t15.5 6.5t15.5 -6.5t6.5 -15.5t-6.5 -15.5t-15.5 -6.5z" horiz-adv-x="613"/>
<glyph glyph-name="ygrave.ss02" d="M521 520v-740h-431v18h411v320q-42 -128 -201 -128q-96 0 -155.5 55.5t-59.5 145.5v329h20v-321q0 -86 54.5 -138.5t143.5 -52.5t143.5 52.5t54.5 138.5v321h20zM295 620l-136 140h32l126 -140h-22z" horiz-adv-x="613"/>
<glyph glyph-name="z.ss02" d="M437 18v-18h-402l359 502h-355v18h393l-359 -502h364z" horiz-adv-x="472"/>
<glyph glyph-name="zacute.ss02" d="M437 18v-18h-402l359 502h-355v18h393l-359 -502h364zM222 620l126 140h32l-136 -140h-22z" horiz-adv-x="472"/>
<glyph glyph-name="zcaron.ss02" d="M437 18v-18h-402l359 502h-355v18h393l-359 -502h364zM222 620l-128 140h24l118 -125l118 125h24l-128 -140h-28z" horiz-adv-x="472"/>
<glyph glyph-name="zdotaccent.ss02" d="M437 18v-18h-402l359 502h-355v18h393l-359 -502h364zM236 691q-9 0 -15.5 6.5t-6.5 15.5t6.5 15.5t15.5 6.5t15.5 -6.5t6.5 -15.5t-6.5 -15.5t-15.5 -6.5z" horiz-adv-x="472"/>
<glyph glyph-name="fi.ss01" d="M444 520v-520h-20v520h20zM433 691q-9 0 -15.5 6.5t-6.5 15.5t6.5 15.5t15.5 6.5t15.5 -6.5t6.5 -15.5t-6.5 -15.5t-15.5 -6.5zM229 772q-53 0 -85 -32t-32 -84v-136h210v-18h-210v-502h-20v659q0 59 37.5 95t99.5 36q59 0 98 -20l-3 -18q-37 20 -95 20z" horiz-adv-x="538"/>
<glyph glyph-name="fl.ss01" d="M426 780h20v-780h-20v780zM229 772q-53 0 -85 -32t-32 -84v-136h210v-18h-210v-502h-20v659q0 59 37.5 95t99.5 36q59 0 98 -20l-3 -18q-37 20 -95 20z" horiz-adv-x="542"/>
<glyph glyph-name="fi.ss02" d="M465 520v-520h-20v520h20zM454 691q-9 0 -15.5 6.5t-6.5 15.5t6.5 15.5t15.5 6.5t15.5 -6.5t6.5 -15.5t-6.5 -15.5t-15.5 -6.5zM133 762v-242h210v-18h-210v-502h-20v502h-95v18h95v260h234v-18h-214z" horiz-adv-x="559"/>
<glyph glyph-name="fl.ss02" d="M447 780h20v-762h120v-18h-140v780zM133 762v-242h210v-18h-210v-502h-20v502h-95v18h95v260h234v-18h-214z" horiz-adv-x="590"/>
<glyph glyph-name="zero.lf" d="M336 10q111 0 179 99t68 261t-68 261t-179 99q-112 0 -180 -99t-68 -261t68 -261t180 -99zM336 -10q-122 0 -197 104.5t-75 275.5t75 275.5t197 104.5t196.5 -104.5t74.5 -275.5t-74.5 -275.5t-196.5 -104.5z" horiz-adv-x="671"/>
<glyph glyph-name="one.lf" d="M18 565l237 175h18v-740h-23v706l-218 -160z" horiz-adv-x="385"/>
<glyph glyph-name="two.lf" d="M487 20v-20h-437v16l220 236q6 6 28.5 30.5t31.5 34t29.5 34t30 38.5t24 38t21 43t12 43t5.5 47q0 79 -50.5 124.5t-134.5 45.5q-85 0 -136 -48t-51 -127l-24 1q0 87 58 140.5t153 53.5q94 0 151.5 -51t57.5 -137q0 -22 -3 -43t-12.5 -43.5t-15.5 -38t-23 -39.5 t-23.5 -34.5t-29.5 -36.5t-27.5 -31.5t-30.5 -33t-27 -28.5l-200 -214h403z" horiz-adv-x="541"/>
<glyph glyph-name="three.lf" d="M260 408q106 0 170.5 -56.5t64.5 -148.5q0 -96 -66 -154.5t-175 -58.5q-144 0 -205 91l11 18q61 -89 192 -89q98 0 158 53t60 140q0 83 -59.5 134t-157.5 51q-72 0 -125 -26l-6 13l324 345h-374v20h407v-16l-306 -327q39 11 87 11z" horiz-adv-x="549"/>
<glyph glyph-name="four.lf" d="M410 194v509l-362 -509h362zM409 174h-385v22l385 544h23v-546h120v-20h-120v-174h-23v174z" horiz-adv-x="583"/>
<glyph glyph-name="five.lf" d="M252 -10q-137 0 -206 72l7 19q68 -71 197 -71q100 0 161.5 55t61.5 144t-56.5 144t-148.5 55q-76 0 -162 -24l-17 3l51 353h326v-20h-304l-47 -315q80 23 157 23q102 0 164 -60.5t62 -158.5t-68 -158.5t-178 -60.5z" horiz-adv-x="551"/>
<glyph glyph-name="six.lf" d="M274 10q90 0 145 56.5t55 149.5t-55 150t-145 57t-145 -57t-55 -150t55 -149.5t145 -56.5zM276 443q100 0 161.5 -62.5t61.5 -164.5t-62 -164t-163 -62t-163 62t-62 163q0 79 39 137l255 388h28l-222 -335q53 38 127 38z" horiz-adv-x="540"/>
<glyph glyph-name="seven.lf" d="M463 740l-276 -740h-26l270 720h-411v20h443z" horiz-adv-x="483"/>
<glyph glyph-name="eight.lf" d="M289 10q90 0 145 49.5t55 131.5t-55 132t-145 50t-145 -50t-55 -132t55 -131.5t145 -49.5zM109 561q0 -76 49.5 -122t130.5 -46t130.5 46t49.5 122t-49.5 122.5t-130.5 46.5t-130.5 -46.5t-49.5 -122.5zM357 384q73 -17 115 -68.5t42 -125.5q0 -90 -62 -145t-163 -55 t-163 55t-62 144q0 74 42.5 125.5t114.5 68.5q-64 17 -100.5 64.5t-36.5 114.5q0 85 56.5 136.5t148.5 51.5t148.5 -51.5t56.5 -135.5q0 -68 -36.5 -115t-100.5 -64z" horiz-adv-x="578"/>
<glyph glyph-name="nine.lf" d="M266 317q90 0 145 57t55 150t-55 149.5t-145 56.5t-145 -56.5t-55 -149.5t55 -150t145 -57zM266 750q101 0 163 -62t62 -163q0 -79 -39 -137l-255 -388h-28l222 335q-53 -38 -127 -38q-100 0 -161.5 62.5t-61.5 164.5t62 164t163 62z" horiz-adv-x="540"/>
<glyph glyph-name="zero.osf" d="M354 8q120 0 193.5 83t73.5 219t-73.5 219t-193.5 83q-121 0 -194.5 -83t-73.5 -219t73.5 -219t194.5 -83zM354 -10q-130 0 -210 88t-80 232t80 232t210 88t209.5 -88t79.5 -232t-79.5 -232t-209.5 -88z" horiz-adv-x="707"/>
<glyph glyph-name="one.osf" d="M27 488l179 132h15v-620h-20v591l-163 -119z" horiz-adv-x="331"/>
<glyph glyph-name="two.osf" d="M496 18v-18h-437v16l235 180q34 26 56 45t52.5 52t46 70t15.5 77q0 77 -51.5 124.5t-136.5 47.5t-137.5 -48.5t-52.5 -128.5l-21 1q0 87 58 140.5t153 53.5q94 0 151.5 -51.5t57.5 -136.5q0 -43 -16.5 -83t-49.5 -75.5t-56 -55.5t-62 -50l-209 -160h404z" horiz-adv-x="554"/>
<glyph glyph-name="three.osf" d="M270 298q104 0 168 -55t64 -145q0 -94 -65.5 -151t-172.5 -57q-144 0 -205 91l10 17q61 -90 193 -90q98 0 158 52t60 138q0 82 -60 132t-157 50q-70 0 -125 -28l-6 13l328 337h-378v18h407v-16l-306 -317q38 11 87 11z" horiz-adv-x="564"/>
<glyph glyph-name="four.osf" d="M412 18v569l-368 -569h368zM411 0h-388v21l385 599h23v-602h120v-18h-120v-110h-20v110z" horiz-adv-x="577"/>
<glyph glyph-name="five.osf" d="M252 -110q-137 0 -206 72l6 17q68 -71 198 -71q100 0 161.5 54t61.5 142q0 87 -56.5 140.5t-148.5 53.5q-76 0 -162 -24l-17 3l51 343h326v-18h-307l-47 -309q81 23 160 23q100 0 161.5 -58.5t61.5 -153.5q0 -96 -67.5 -155t-175.5 -59z" horiz-adv-x="557"/>
<glyph glyph-name="six.osf" d="M272 10q90 0 145 56.5t55 149.5t-55 150t-145 57t-145 -57t-55 -150t55 -149.5t145 -56.5zM274 443q99 0 159.5 -62.5t60.5 -164.5t-61 -164t-161 -62t-161 62t-61 163q0 80 40 140l254 385h25l-223 -336q55 39 128 39z" horiz-adv-x="536"/>
<glyph glyph-name="seven.osf" d="M485 620l-268 -722l-20 6l259 698h-414v18h443z" horiz-adv-x="520"/>
<glyph glyph-name="eight.osf" d="M286 10q90 0 145 49.5t55 131.5t-55 132t-145 50t-145 -50t-55 -132t55 -131.5t145 -49.5zM106 561q0 -76 49.5 -122t130.5 -46t130.5 46t49.5 122t-49.5 122.5t-130.5 46.5t-130.5 -46.5t-49.5 -122.5zM353 384q72 -17 113.5 -68.5t41.5 -125.5q0 -90 -61 -145t-161 -55 t-161 55t-61 144q0 74 41.5 125.5t113.5 68.5q-63 17 -99 64.5t-36 114.5q0 85 55.5 136.5t146.5 51.5t146.5 -51.5t55.5 -135.5q0 -68 -36 -115t-99 -64z" horiz-adv-x="572"/>
<glyph glyph-name="nine.osf" d="M264 197q90 0 145 57t55 150t-55 149.5t-145 56.5t-145 -56.5t-55 -149.5t55 -150t145 -57zM264 630q100 0 161 -62t61 -163q0 -80 -40 -140l-242 -367l-21 6l207 313q-54 -40 -128 -40q-99 0 -159.5 62.5t-60.5 164.5t61 164t161 62z" horiz-adv-x="540"/>
<glyph glyph-name="one.ss02" d="M16 740h175v-740h-23v720h-152v20z" horiz-adv-x="303"/>
<glyph glyph-name="one.lf.ss02" d="M16 740h175v-740h-23v720h-152v20z" horiz-adv-x="303"/>
<glyph glyph-name="one.osf.ss02" d="M40 620h163v-620h-20v602h-143v18z" horiz-adv-x="313"/>
<glyph glyph-name="one.tf.ss02" d="M521 20v-20h-415v20h235v700h-182v20h205v-720h157z" horiz-adv-x="615"/>
<glyph glyph-name="one.tosf.ss02" d="M525 18v-18h-415v18h238v584h-173v18h193v-602h157z" horiz-adv-x="615"/>
<glyph glyph-name="zero.tf" d="M308 10q89 0 143 99t54 261t-54 261t-143 99t-143.5 -99t-54.5 -261t54.5 -261t143.5 -99zM308 -10q-100 0 -161 104.5t-61 275.5t61 275.5t161 104.5t160.5 -104.5t60.5 -275.5t-60.5 -275.5t-160.5 -104.5z" horiz-adv-x="615"/>
<glyph glyph-name="one.tf" d="M533 20v-20h-415v20h235v686l-218 -160l-14 19l237 175h18v-720h157z" horiz-adv-x="615"/>
<glyph glyph-name="two.tf" d="M524 20v-20h-437v16l220 236q6 6 28.5 30.5t31.5 34t29.5 34t30 38.5t24 38t21 43t12 43t5.5 47q0 79 -50.5 124.5t-134.5 45.5q-85 0 -136 -48t-51 -127l-24 1q0 87 58 140.5t153 53.5q94 0 151.5 -51t57.5 -137q0 -22 -3 -43t-12.5 -43.5t-15.5 -38t-23 -39.5 t-23.5 -34.5t-29.5 -36.5t-27.5 -31.5t-30.5 -33t-27 -28.5l-200 -214h403z" horiz-adv-x="615"/>
<glyph glyph-name="three.tf" d="M293 408q106 0 170.5 -56.5t64.5 -148.5q0 -96 -66 -154.5t-175 -58.5q-144 0 -205 91l11 18q61 -89 192 -89q98 0 158 53t60 140q0 83 -59.5 134t-157.5 51q-72 0 -125 -26l-6 13l324 345h-374v20h407v-16l-306 -327q39 11 87 11z" horiz-adv-x="615"/>
<glyph glyph-name="four.tf" d="M420 193v510l-351 -510h351zM419 174h-374v22l374 544h23v-547h120v-19h-120v-174h-23v174z" horiz-adv-x="615"/>
<glyph glyph-name="five.tf" d="M284 -10q-137 0 -206 72l7 19q68 -71 197 -71q100 0 161.5 55t61.5 144t-56.5 144t-148.5 55q-76 0 -162 -24l-17 3l51 353h326v-20h-304l-47 -315q80 23 157 23q102 0 164 -60.5t62 -158.5t-68 -158.5t-178 -60.5z" horiz-adv-x="615"/>
<glyph glyph-name="six.tf" d="M311 10q90 0 145 56.5t55 149.5t-55 150t-145 57t-145 -57t-55 -150t55 -149.5t145 -56.5zM313 443q100 0 161.5 -62.5t61.5 -164.5t-62 -164t-163 -62t-163 62t-62 163q0 79 39 137l255 388h28l-222 -335q53 38 127 38z" horiz-adv-x="615"/>
<glyph glyph-name="seven.tf" d="M529 740l-276 -740h-26l270 720h-411v20h443z" horiz-adv-x="615"/>
<glyph glyph-name="eight.tf" d="M307 10q90 0 145 49.5t55 131.5t-55 132t-145 50t-145 -50t-55 -132t55 -131.5t145 -49.5zM127 561q0 -76 49.5 -122t130.5 -46t130.5 46t49.5 122t-49.5 122.5t-130.5 46.5t-130.5 -46.5t-49.5 -122.5zM375 384q73 -17 115 -68.5t42 -125.5q0 -90 -62 -145t-163 -55 t-163 55t-62 144q0 74 42.5 125.5t114.5 68.5q-64 17 -100.5 64.5t-36.5 114.5q0 85 56.5 136.5t148.5 51.5t148.5 -51.5t56.5 -135.5q0 -68 -36.5 -115t-100.5 -64z" horiz-adv-x="615"/>
<glyph glyph-name="nine.tf" d="M303 317q90 0 145 57t55 150t-55 149.5t-145 56.5t-145 -56.5t-55 -149.5t55 -150t145 -57zM303 750q101 0 163 -62t62 -163q0 -79 -39 -137l-255 -388h-28l222 335q-53 -38 -127 -38q-100 0 -161.5 62.5t-61.5 164.5t62 164t163 62z" horiz-adv-x="540"/>
<glyph glyph-name="zero.tosf" d="M308 8q89 0 143 83t54 219t-54 219t-143 83t-143.5 -83t-54.5 -219t54.5 -219t143.5 -83zM308 -10q-99 0 -159.5 88t-60.5 232t60.5 232t159.5 88q98 0 158.5 -88t60.5 -232t-60.5 -232t-158.5 -88z" horiz-adv-x="615"/>
<glyph glyph-name="one.tosf" d="M526 18v-18h-415v18h217v573l-163 -119l-11 16l179 132h15v-602h178z" horiz-adv-x="615"/>
<glyph glyph-name="two.tosf" d="M526 18v-18h-437v16l235 180q34 26 56 45t52.5 52t46 70t15.5 77q0 77 -51.5 124.5t-136.5 47.5t-137.5 -48.5t-52.5 -128.5l-21 1q0 87 58 140.5t153 53.5q94 0 151.5 -51.5t57.5 -136.5q0 -43 -16.5 -83t-49.5 -75.5t-56 -55.5t-62 -50l-209 -160h404z" horiz-adv-x="615"/>
<glyph glyph-name="three.tosf" d="M295 298q104 0 168 -55t64 -145q0 -94 -65.5 -151t-172.5 -57q-144 0 -205 91l10 17q61 -90 193 -90q98 0 158 52t60 138q0 82 -60 132t-157 50q-70 0 -125 -28l-6 13l328 337h-378v18h407v-16l-306 -317q38 11 87 11z" horiz-adv-x="615"/>
<glyph glyph-name="four.tosf" d="M426 18v569l-357 -569h357zM425 0h-377v21l374 599h23v-602h120v-18h-120v-110h-20v110z" horiz-adv-x="615"/>
<glyph glyph-name="five.tosf" d="M281 -110q-137 0 -206 72l6 17q68 -71 198 -71q100 0 161.5 54t61.5 142q0 87 -56.5 140.5t-148.5 53.5q-77 0 -162 -24l-17 3l51 343h326v-18h-307l-47 -309q81 23 160 23q100 0 161.5 -58.5t61.5 -153.5q0 -96 -67.5 -155t-175.5 -59z" horiz-adv-x="615"/>
<glyph glyph-name="six.tosf" d="M312 10q90 0 145 56.5t55 149.5t-55 150t-145 57t-145 -57t-55 -150t55 -149.5t145 -56.5zM314 443q99 0 159.5 -62.5t60.5 -164.5t-61 -164t-161 -62t-161 62t-61 163q0 80 40 140l254 385h25l-223 -336q55 39 128 39z" horiz-adv-x="615"/>
<glyph glyph-name="seven.tosf" d="M533 620l-268 -722l-20 6l259 698h-414v18h443z" horiz-adv-x="615"/>
<glyph glyph-name="eight.tosf" d="M307 10q90 0 145 49.5t55 131.5t-55 132t-145 50t-145 -50t-55 -132t55 -131.5t145 -49.5zM127 561q0 -76 49.5 -122t130.5 -46t130.5 46t49.5 122t-49.5 122.5t-130.5 46.5t-130.5 -46.5t-49.5 -122.5zM374 384q72 -17 113.5 -68.5t41.5 -125.5q0 -90 -61 -145t-161 -55 t-161 55t-61 144q0 74 41.5 125.5t113.5 68.5q-63 17 -99 64.5t-36 114.5q0 85 55.5 136.5t146.5 51.5t146.5 -51.5t55.5 -135.5q0 -68 -36 -115t-99 -64z" horiz-adv-x="615"/>
<glyph glyph-name="nine.tosf" d="M302 197q90 0 145 57t55 150t-55 149.5t-145 56.5t-145 -56.5t-55 -149.5t55 -150t145 -57zM302 630q100 0 161 -62t61 -163q0 -80 -40 -140l-242 -367l-21 6l207 313q-54 -40 -128 -40q-99 0 -159.5 62.5t-60.5 164.5t61 164t161 62z" horiz-adv-x="615"/>
<glyph glyph-name="zero.dnom" d="M210 14q64 0 103 57t39 151t-39 151t-103 57t-103 -57t-39 -151t39 -151t103 -57zM210 -6q-74 0 -120 62.5t-46 165.5t46 165.5t120 62.5q75 0 120.5 -62.5t45.5 -165.5t-45.5 -165.5t-120.5 -62.5z" horiz-adv-x="420"/>
<glyph glyph-name="one.dnom" d="M14 338l143 106h18v-444h-23v412l-125 -91z" horiz-adv-x="247"/>
<glyph glyph-name="two.dnom" d="M303 20v-20h-267v16l132 142q3 3 16.5 17.5t18 19.5t16.5 19t17.5 22t14 22t12.5 25t7 24.5t3 26.5q0 45 -28 70.5t-76 25.5t-77 -27.5t-29 -72.5l-23 2q0 53 35.5 85.5t93.5 32.5q57 0 92.5 -31t35.5 -83q0 -22 -8.5 -46.5t-15.5 -39t-29.5 -41.5t-28 -32.5t-32.5 -34.5 l-115 -123z" horiz-adv-x="342"/>
<glyph glyph-name="three.dnom" d="M164 248q64 0 102.5 -34t38.5 -90q0 -59 -40 -94.5t-107 -35.5q-87 0 -125 53l10 18q36 -51 112 -51q57 0 91.5 30t34.5 80q0 47 -34 76t-90 29q-41 0 -73 -15l-7 12l184 198h-213v20h246v-15l-174 -185q19 4 44 4z" horiz-adv-x="343"/>
<glyph glyph-name="four.dnom" d="M249 121v288l-206 -288h206zM248 102h-228v19l230 323h21v-322h70v-20h-70v-102h-23v102z" horiz-adv-x="366"/>
<glyph glyph-name="five.dnom" d="M157 -6q-82 0 -125 43l7 18q40 -41 116 -41q59 0 94 31t35 83q0 50 -32 81t-84 31q-45 0 -93 -15l-16 3l30 216h200v-20h-179l-26 -177q47 13 88 13q61 0 99 -36.5t38 -95.5q0 -60 -42 -97t-110 -37z" horiz-adv-x="346"/>
<glyph glyph-name="six.dnom" d="M172 14q51 0 82 32t31 84q0 53 -31 85.5t-82 32.5t-82.5 -32.5t-31.5 -85.5q0 -52 31.5 -84t82.5 -32zM175 267q60 0 97 -38t37 -99t-37.5 -98.5t-99.5 -37.5t-100 37.5t-38 98.5q0 47 27 88l149 226h27l-131 -194q31 17 69 17z" horiz-adv-x="340"/>
<glyph glyph-name="seven.dnom" d="M287 444l-163 -444h-25l157 424h-239v20h270z" horiz-adv-x="305"/>
<glyph glyph-name="eight.dnom" d="M182 14q51 0 82 28t31 74q0 47 -31 75.5t-82 28.5t-82.5 -28.5t-31.5 -75.5q0 -46 31.5 -74t82.5 -28zM80 335q0 -43 28 -69t74 -26q45 0 73 26t28 69t-28 69t-73 26q-46 0 -74 -26t-28 -69zM229 230q42 -11 66 -41.5t24 -73.5q0 -54 -38 -87.5t-99 -33.5q-62 0 -100 33 t-38 88q0 43 24 73.5t66 41.5q-36 11 -57 39t-21 67q0 51 34.5 82.5t91.5 31.5q56 0 90.5 -31t34.5 -82q0 -39 -21 -67.5t-57 -39.5z" horiz-adv-x="363"/>
<glyph glyph-name="nine.dnom" d="M167 196q51 0 82.5 32.5t31.5 85.5q0 52 -31.5 84t-82.5 32t-82 -32t-31 -84q0 -53 31 -85.5t82 -32.5zM167 450q62 0 100 -37.5t38 -98.5q0 -47 -27 -88l-149 -226h-27l131 194q-31 -17 -69 -17q-60 0 -97 38t-37 99t37.5 98.5t99.5 37.5z" horiz-adv-x="340"/>
<glyph glyph-name="zero.numr" d="M210 310q64 0 103 57t39 151t-39 151t-103 57t-103 -57t-39 -151t39 -151t103 -57zM210 290q-74 0 -120 62.5t-46 165.5t46 165.5t120 62.5q75 0 120.5 -62.5t45.5 -165.5t-45.5 -165.5t-120.5 -62.5z" horiz-adv-x="420"/>
<glyph glyph-name="one.numr" d="M14 634l143 106h18v-444h-23v412l-125 -91z" horiz-adv-x="247"/>
<glyph glyph-name="two.numr" d="M303 316v-20h-267v16l132 142q3 3 16.5 17.5t18 19.5t16.5 19t17.5 22t14 22t12.5 25t7 24.5t3 26.5q0 45 -28 70.5t-76 25.5t-77 -27.5t-29 -72.5l-23 2q0 53 35.5 85.5t93.5 32.5q57 0 92.5 -31t35.5 -83q0 -22 -8.5 -46.5t-15.5 -39t-29.5 -41.5t-28 -32.5 t-32.5 -34.5l-115 -123z" horiz-adv-x="342"/>
<glyph glyph-name="three.numr" d="M164 544q64 0 102.5 -34t38.5 -90q0 -59 -40 -94.5t-107 -35.5q-87 0 -125 53l10 18q36 -51 112 -51q57 0 91.5 30t34.5 80q0 47 -34 76t-90 29q-41 0 -73 -15l-7 12l184 198h-213v20h246v-15l-174 -185q19 4 44 4z" horiz-adv-x="343"/>
<glyph glyph-name="four.numr" d="M249 417v288l-206 -288h206zM248 398h-228v19l230 323h21v-322h70v-20h-70v-102h-23v102z" horiz-adv-x="366"/>
<glyph glyph-name="five.numr" d="M157 290q-82 0 -125 43l7 18q40 -41 116 -41q59 0 94 31t35 83q0 50 -32 81t-84 31q-45 0 -93 -15l-16 3l30 216h200v-20h-179l-26 -177q47 13 88 13q61 0 99 -36.5t38 -95.5q0 -60 -42 -97t-110 -37z" horiz-adv-x="346"/>
<glyph glyph-name="six.numr" d="M172 310q51 0 82 32t31 84q0 53 -31 85.5t-82 32.5t-82.5 -32.5t-31.5 -85.5q0 -52 31.5 -84t82.5 -32zM175 563q60 0 97 -38t37 -99t-37.5 -98.5t-99.5 -37.5t-100 37.5t-38 98.5q0 47 27 88l149 226h27l-131 -194q31 17 69 17z" horiz-adv-x="340"/>
<glyph glyph-name="seven.numr" d="M287 740l-163 -444h-25l157 424h-239v20h270z" horiz-adv-x="305"/>
<glyph glyph-name="eight.numr" d="M182 310q51 0 82 28t31 74q0 47 -31 75.5t-82 28.5t-82.5 -28.5t-31.5 -75.5q0 -46 31.5 -74t82.5 -28zM80 631q0 -43 28 -69t74 -26q45 0 73 26t28 69t-28 69t-73 26q-46 0 -74 -26t-28 -69zM229 526q42 -11 66 -41.5t24 -73.5q0 -54 -38 -87.5t-99 -33.5q-62 0 -100 33 t-38 88q0 43 24 73.5t66 41.5q-36 11 -57 39t-21 67q0 51 34.5 82.5t91.5 31.5q56 0 90.5 -31t34.5 -82q0 -39 -21 -67.5t-57 -39.5z" horiz-adv-x="363"/>
<glyph glyph-name="nine.numr" d="M167 492q51 0 82.5 32.5t31.5 85.5q0 52 -31.5 84t-82.5 32t-82 -32t-31 -84q0 -53 31 -85.5t82 -32.5zM167 746q62 0 100 -37.5t38 -98.5q0 -47 -27 -88l-149 -226h-27l131 194q-31 -17 -69 -17q-60 0 -97 38t-37 99t37.5 98.5t99.5 37.5z" horiz-adv-x="340"/>
<glyph glyph-name="onehalf.ss02" d="M678 20v-20h-267v16l132 142q3 3 16.5 17.5t18 19.5t16.5 19t17.5 22t14 22t12.5 25t7 24.5t3 26.5q0 45 -28 70.5t-76 25.5t-77 -27.5t-29 -72.5l-23 2q0 53 35.5 85.5t93.5 32.5q57 0 92.5 -31t35.5 -83q0 -22 -8.5 -46.5t-15.5 -39t-29.5 -41.5t-28 -32.5t-32.5 -34.5 l-115 -123zM17 740h111v-444h-23v424h-88v20zM77 -10l-18 12l439 748l18 -12z" horiz-adv-x="717"/>
<glyph glyph-name="onequarter.ss02" d="M587 121v288l-206 -288h206zM586 102h-228v19l230 323h21v-322h70v-20h-70v-102h-23v102zM17 740h111v-444h-23v424h-88v20zM77 -10l-18 12l439 748l18 -12z" horiz-adv-x="704"/>
<glyph glyph-name="oneeighth.ss02" d="M557 14q51 0 82 28t31 74q0 47 -31 75.5t-82 28.5t-82.5 -28.5t-31.5 -75.5q0 -46 31.5 -74t82.5 -28zM455 335q0 -43 28 -69t74 -26q45 0 73 26t28 69t-28 69t-73 26q-46 0 -74 -26t-28 -69zM604 230q42 -11 66 -41.5t24 -73.5q0 -54 -38 -87.5t-99 -33.5q-62 0 -100 33 t-38 88q0 43 24 73.5t66 41.5q-36 11 -57 39t-21 67q0 51 34.5 82.5t91.5 31.5q56 0 90.5 -31t34.5 -82q0 -39 -21 -67.5t-57 -39.5zM105 720h-88v20h111v-444h-23v424zM516 738l-439 -748l-18 12l439 748z" horiz-adv-x="738"/>
<glyph glyph-name="one.dnom.ss02" d="M17 444h111v-444h-23v424h-88v20z" horiz-adv-x="200"/>
<glyph glyph-name="one.numr.ss02" d="M17 740h111v-444h-23v424h-88v20z" horiz-adv-x="200"/>
<glyph glyph-name="uni2081.ss02" d="M17 344h111v-444h-23v424h-88v20z" horiz-adv-x="200"/>
<glyph glyph-name="uni00B9.ss02" d="M11 840h111v-444h-23v424h-88v20z" horiz-adv-x="200"/>
<glyph glyph-name="exclamdown.case" d="M110 0l2 619h20l2 -619h-24zM144 728q0 -9 -6.5 -15.5t-15.5 -6.5t-15.5 6.5t-6.5 15.5t6.5 15.5t15.5 6.5t15.5 -6.5t6.5 -15.5z" horiz-adv-x="244"/>
<glyph glyph-name="questiondown.case" d="M270 619q0 -57 -8.5 -104t-19 -75t-31 -55.5t-32.5 -39t-36 -31.5q-27 -22 -40.5 -35.5t-25.5 -41t-12 -62.5q0 -74 51 -119.5t135 -45.5q82 0 133 45.5t53 119.5l23 -1q-2 -83 -60 -133.5t-149 -50.5q-95 0 -153 50t-58 132q0 40 13.5 72t28 47.5t44.5 40.5 q30 26 45.5 42.5t37 50.5t31.5 82t10 112h20zM260 750q9 0 15.5 -6.5t6.5 -15.5t-6.5 -15.5t-15.5 -6.5t-15.5 6.5t-6.5 15.5t6.5 15.5t15.5 6.5z" horiz-adv-x="495"/>
<glyph glyph-name="slash.case" d="M73 0h-21l201 740h21z" horiz-adv-x="327"/>
<glyph glyph-name="braceleft.case" d="M163 522q0 -58 -20 -100t-52 -52q32 -10 52 -52t20 -100v-135q0 -51 25.5 -82t66.5 -31q45 0 93 12v-20q-44 -12 -90 -12q-53 0 -85.5 36t-32.5 95v135q0 64 -24.5 104t-64.5 40h-10v20h10q40 0 64.5 40t24.5 104v135q0 59 32.5 95t85.5 36q46 0 90 -12v-20 q-48 12 -93 12q-41 0 -66.5 -31t-25.5 -82v-135z" horiz-adv-x="387"/>
<glyph glyph-name="braceright.case" d="M224 657q0 51 -25.5 82t-66.5 31q-45 0 -93 -12v20q43 12 90 12q53 0 85.5 -36t32.5 -95v-135q0 -64 24.5 -104t64.5 -40h10v-20h-10q-40 0 -64.5 -40t-24.5 -104v-135q0 -59 -32.5 -95t-85.5 -36q-47 0 -90 12v20q48 -12 93 -12q41 0 66.5 31t25.5 82v135q0 58 20 100 t52 52q-32 10 -52 52t-20 100v135z" horiz-adv-x="387"/>
<glyph glyph-name="bracketleft.case" d="M112 780h195v-18h-175v-784h175v-18h-195v820z" horiz-adv-x="344"/>
<glyph glyph-name="bracketright.case" d="M37 -40v18h175v784h-175v18h195v-820h-195z" horiz-adv-x="344"/>
<glyph glyph-name="parenleft.case" d="M228 780q-52 -72 -97 -183.5t-45 -226.5t45 -226.5t97 -183.5h-18q-148 195 -148 410t148 410h18z" horiz-adv-x="268"/>
<glyph glyph-name="parenright.case" d="M58 780q148 -195 148 -410t-148 -410h-18q52 72 97 183.5t45 226.5t-45 226.5t-97 183.5h18z" horiz-adv-x="268"/>
<glyph glyph-name="logo" d="M846 -3q-7 -7 -17 -7q-20 0 -20 23v324l-339 -340q-7 -7 -17 -7q-20 0 -20 23v324l-340 -340q-7 -7 -17 -7q-17 0 -17 18q0 10 5 15l342 341h-324q-23 0 -23 19q0 7 7 16l340 342h-327q-20 0 -20 19v1q0 19 20 19h370q23 0 23 -20q0 -10 -8 -17l-341 -340h330q8 0 14 -6 t6 -14v-327l339 338q7 8 17 8q18 0 18 -22v-324l340 338q6 8 16 8q7 0 12 -5.5t5 -13.5q0 -9 -6 -14z" horiz-adv-x="1274"/>
</font>
</defs>
</svg>
