<?xml version="1.0" encoding="UTF-8" standalone="no"?>
<!DOCTYPE svg  PUBLIC '-//W3C//DTD SVG 1.1//EN'  'http://www.w3.org/Graphics/SVG/1.1/DTD/svg11.dtd'>
<svg xmlns="http://www.w3.org/2000/svg">
<defs>
<font id="TRIALBwModelica-Regular" horiz-adv-x="666">
<font-face underline-position="-100" font-weight="500" descent="-200" panose-1="0 0 6 0 0 0 0 0 0 0" units-per-em="1000" unicode-range="U+000D-FB02" bbox="-858 -230 1235 1020" x-height="529" underline-thickness="50" font-family="TRIALBwModelica" ascent="800" cap-height="740"/>
<missing-glyph d="M861 -3q-7 -7 -17 -7q-20 0 -20 23v324l-339 -340q-7 -7 -17 -7q-20 0 -20 23v324l-340 -340q-7 -7 -17 -7q-17 0 -17 18q0 10 5 15l342 341h-324q-23 0 -23 19q0 7 7 16l340 342h-327q-20 0 -20 19v1q0 19 20 19h370q23 0 23 -20q0 -10 -8 -17l-341 -340h330q8 0 14 -6 t6 -14v-327l339 338q7 8 17 8q18 0 18 -22v-324l340 338q6 8 16 8q7 0 12 -5.5t5 -13.5q0 -9 -6 -14z" horiz-adv-x="1274"/>
<glyph glyph-name="fi" horiz-adv-x="614" unicode="fi" d="M459 529h72v-529h-72v529zM495 662q-21 0 -35 14t-14 34q0 21 14 35t35 14q20 0 34 -14t14 -35q0 -20 -14 -34t-34 -14zM113 642q0 67 42.5 107.5t110.5 40.5q67 0 108 -21l-6 -57q-33 16 -82 16q-45 0 -73 -27t-28 -70v-102h180v-60h-180v-469h-72v469h-92v60h92v113z "/>
<glyph glyph-name="fl" horiz-adv-x="617" unicode="fl" d="M532 780v-780h-72v780h72zM113 642q0 67 42.5 107.5t110.5 40.5q67 0 108 -21l-6 -57q-33 16 -82 16q-45 0 -73 -27t-28 -70v-102h180v-60h-180v-469h-72v469h-92v60h92v113z"/>
<glyph glyph-name=".notdef" d="M861 -3q-7 -7 -17 -7q-20 0 -20 23v324l-339 -340q-7 -7 -17 -7q-20 0 -20 23v324l-340 -340q-7 -7 -17 -7q-17 0 -17 18q0 10 5 15l342 341h-324q-23 0 -23 19q0 7 7 16l340 342h-327q-20 0 -20 19v1q0 19 20 19h370q23 0 23 -20q0 -10 -8 -17l-341 -340h330q8 0 14 -6 t6 -14v-327l339 338q7 8 17 8q18 0 18 -22v-324l340 338q6 8 16 8q7 0 12 -5.5t5 -13.5q0 -9 -6 -14z" horiz-adv-x="1274"/>
<glyph glyph-name=".null" horiz-adv-x="0"/>
<glyph glyph-name="nonmarkingreturn" horiz-adv-x="333"/>
<glyph glyph-name="CR" horiz-adv-x="227" unicode=""/>
<glyph glyph-name="space" horiz-adv-x="265" unicode=" "/>
<glyph glyph-name="exclam" horiz-adv-x="259" unicode="!" d="M130 -10q-21 0 -35 14t-14 35q0 20 14 34t35 14q20 0 34 -14t14 -34q0 -21 -14 -35t-34 -14zM161 164h-63l-7 576h77z"/>
<glyph glyph-name="quotedbl" horiz-adv-x="338" unicode='&quot;' d="M210 564l-2 216h63l-2 -216h-59zM69 564l-2 216h62l-2 -216h-58z"/>
<glyph glyph-name="numbersign" horiz-adv-x="686" unicode="#" d="M460 443h-192l-44 -189h192zM516 443l-44 -189h123l-12 -51h-123l-47 -203h-56l47 203h-192l-47 -203h-55l47 203h-122l13 51h120l44 189h-121l11 51h122l48 206h55l-47 -206h192l47 206h56l-48 -206h123l-12 -51h-122z"/>
<glyph glyph-name="dollar" horiz-adv-x="570" unicode="$" d="M301 54q68 6 107.5 41t39.5 90q0 51 -35 84.5t-112 61.5v-277zM261 424v262q-60 -6 -96 -41t-36 -87q0 -54 32.5 -82t94.5 -50zM524 193q0 -87 -61 -142t-162 -60v-33h-40v32q-132 7 -203 86l31 54q70 -73 172 -76v289l-31 10q-85 28 -131 71t-46 123q0 86 56.5 140.5 t151.5 61.5v31h40v-30q119 -6 195 -85l-35 -53q-67 70 -160 74v-273l13 -5q43 -14 75 -29.5t65.5 -40.5t51.5 -61.5t18 -83.5z"/>
<glyph glyph-name="percent" horiz-adv-x="770" unicode="%" d="M567 39q46 0 74.5 32t28.5 84t-28 84t-75 32t-75.5 -32t-28.5 -84t29 -84t75 -32zM567 -10q-74 0 -120 45.5t-46 119.5q0 75 46 120.5t120 45.5q75 0 120.5 -45.5t45.5 -120.5q0 -74 -45.5 -119.5t-120.5 -45.5zM203 469q46 0 74.5 32t28.5 84t-28.5 84t-74.5 32 q-47 0 -75.5 -31.5t-28.5 -84.5t28.5 -84.5t75.5 -31.5zM191 -10l-42 26l430 734l42 -26zM203 419q-75 0 -121 45.5t-46 120.5q0 74 46 119.5t121 45.5q74 0 119.5 -45.5t45.5 -119.5q0 -75 -45.5 -120.5t-119.5 -45.5z"/>
<glyph glyph-name="ampersand" horiz-adv-x="779" unicode="&amp;" d="M295 52q68 0 116 35t48 100v181h-146q-83 0 -133.5 -43.5t-50.5 -114.5t45.5 -114.5t120.5 -43.5zM166 557q0 -59 40.5 -95t106.5 -36h146v131q0 59 -40.5 95t-105.5 36q-66 0 -106.5 -36t-40.5 -95zM624 52q56 0 106 19v-59q-51 -22 -128 -22q-48 0 -82.5 23t-49.5 63 q-64 -86 -193 -86q-100 0 -162 57.5t-62 151.5q0 72 41.5 124.5t114.5 75.5q-56 21 -87 64.5t-31 102.5q0 83 61 133.5t161 50.5q98 0 158 -51t60 -135v-138h191v-58h-191v-218q0 -43 26 -70.5t67 -27.5z"/>
<glyph glyph-name="quotesingle" horiz-adv-x="197" unicode="&apos;" d="M69 564l-2 216h62l-2 -216h-58z"/>
<glyph glyph-name="parenleft" horiz-adv-x="292" unicode="(" d="M266 780q-25 -44 -40 -74.5t-42 -96.5t-41.5 -145t-14.5 -164t14.5 -164t41.5 -145t42 -96.5t40 -74.5h-66q-148 230 -148 480t148 480h66z"/>
<glyph glyph-name="parenright" horiz-adv-x="292" unicode=")" d="M92 780q148 -230 148 -480t-148 -480h-66q25 44 40 74.5t42 96.5t41.5 145t14.5 164t-14.5 164t-41.5 145t-42 96.5t-40 74.5h66z"/>
<glyph glyph-name="asterisk" horiz-adv-x="391" unicode="*" d="M233 591l66 -87l-42 -31l-62 90l-61 -90l-42 31l67 87l-106 31l17 49l102 -36l-2 105h51l-2 -105l102 36l17 -49z"/>
<glyph glyph-name="plus" horiz-adv-x="531" unicode="+" d="M481 317h-180v-179h-72v179h-179v60h179v179h72v-179h180v-60z"/>
<glyph glyph-name="comma" horiz-adv-x="231" unicode="," d="M167 81l-81 -226h-73l68 226h86z"/>
<glyph glyph-name="hyphen" horiz-adv-x="436" unicode="-" d="M364 314v-54h-293v54h293z"/>
<glyph glyph-name="period" horiz-adv-x="227" unicode="." d="M113 -10q-22 0 -38 16t-16 38t16 38t38 16q23 0 39 -16t16 -38t-16.5 -38t-38.5 -16z"/>
<glyph glyph-name="slash" horiz-adv-x="398" unicode="/" d="M116 -100h-73l239 880h73z"/>
<glyph glyph-name="zero" horiz-adv-x="689" unicode="0" d="M345 53q94 0 151.5 87.5t57.5 229.5t-57.5 229.5t-151.5 87.5t-152 -87t-58 -230t58 -230t152 -87zM345 -10q-130 0 -209 104.5t-79 275.5t79 275.5t209 104.5t209 -104.5t79 -275.5t-79 -275.5t-209 -104.5z"/>
<glyph glyph-name="one" horiz-adv-x="413" unicode="1" d="M13 562l241 178h59v-740h-76v640l-185 -134z"/>
<glyph glyph-name="two" horiz-adv-x="564" unicode="2" d="M513 63v-63h-467v49l224 241q1 1 18.5 19.5t21 22.5t19.5 22t21.5 25.5t19 25t18.5 28t14 27.5t13 30.5t7 29.5t3 31q0 63 -39.5 99.5t-105.5 36.5q-67 0 -108 -40.5t-41 -106.5l-78 6q0 92 62 148t164 56q101 0 162.5 -52.5t61.5 -140.5q0 -43 -14 -83.5t-46 -84.5 t-54.5 -70t-68.5 -74l-172 -183z"/>
<glyph glyph-name="three" horiz-adv-x="564" unicode="3" d="M279 426q106 0 171 -58.5t65 -153.5q0 -101 -71 -162.5t-189 -61.5q-146 0 -214 83l30 56q59 -76 176 -76q86 0 137.5 44t51.5 116q0 70 -50.5 112t-133.5 42q-64 0 -114 -25l-20 39l269 296h-318v63h420v-48l-252 -268q28 2 42 2z"/>
<glyph glyph-name="four" horiz-adv-x="610" unicode="4" d="M391 222l1 409l-295 -409h294zM389 160h-366v56l380 524h63v-517h111v-63h-111v-160h-77v160z"/>
<glyph glyph-name="five" horiz-adv-x="569" unicode="5" d="M251 -10q-141 0 -214 69l23 56q66 -62 184 -62q89 0 143.5 46.5t54.5 123.5q0 71 -46 115.5t-121 44.5q-72 0 -138 -30l-52 8l51 379h351v-63h-283l-38 -248q59 17 123 17q103 0 167.5 -60.5t64.5 -158.5q0 -106 -75 -171.5t-195 -65.5z"/>
<glyph glyph-name="six" horiz-adv-x="562" unicode="6" d="M285 53q73 0 117 46t44 121q0 76 -44 122t-117 46t-117 -46t-44 -122q0 -75 44 -121t117 -46zM299 447q99 0 162.5 -62.5t63.5 -163.5q0 -104 -66 -167.5t-174 -63.5t-174 63t-66 166q0 92 57 174l235 347h86l-213 -305q39 12 89 12z"/>
<glyph glyph-name="seven" horiz-adv-x="508" unicode="7" d="M490 740l-264 -740h-81l245 677h-369v63h469z"/>
<glyph glyph-name="eight" horiz-adv-x="594" unicode="8" d="M297 53q73 0 117 41t44 108t-44 108t-117 41t-117 -41t-44 -108t44 -108t117 -41zM156 550q0 -61 38.5 -98t102.5 -37t102.5 37t38.5 98q0 62 -38.5 99.5t-102.5 37.5t-102.5 -37.5t-38.5 -99.5zM401 384q64 -22 100 -71t36 -115q0 -94 -66 -151t-174 -57t-174 57 t-66 149q0 67 36.5 116t100.5 72q-55 22 -86 66.5t-31 104.5q0 88 60.5 141.5t159.5 53.5t159.5 -53.5t60.5 -140.5q0 -60 -30.5 -104.5t-85.5 -67.5z"/>
<glyph glyph-name="nine" horiz-adv-x="562" unicode="9" d="M116 520q0 -76 44 -122t117 -46t117 46t44 122q0 75 -44 121t-117 46t-117 -46t-44 -121zM277 750q108 0 174 -63t66 -166q0 -92 -57 -174l-235 -347h-86l213 305q-39 -12 -89 -12q-99 0 -162.5 62.5t-63.5 163.5q0 104 66 167.5t174 63.5z"/>
<glyph glyph-name="colon" horiz-adv-x="246" unicode=":" d="M123 -10q-22 0 -38 16t-16 38t16 38t38 16q23 0 38.5 -16t15.5 -38t-16 -38t-38 -16zM123 430q-22 0 -38 16.5t-16 38.5t16 38t38 16t38 -16t16 -38q0 -23 -16 -39t-38 -16z"/>
<glyph glyph-name="semicolon" horiz-adv-x="292" unicode=";" d="M206 81l-81 -226h-73l69 226h85zM151 430q-22 0 -38 16t-16 39q0 22 16 38t38 16t38 -16t16 -38q0 -23 -16 -39t-38 -16z"/>
<glyph glyph-name="less" horiz-adv-x="527" unicode="&lt;" d="M455 513l-328 -163l328 -163v-69l-417 210v44l417 210v-69z"/>
<glyph glyph-name="equal" horiz-adv-x="579" unicode="=" d="M505 261v-60h-431v60h431zM505 493v-61h-431v61h431z"/>
<glyph glyph-name="greater" horiz-adv-x="527" unicode="&gt;" d="M489 372v-44l-417 -210v69l328 163l-328 163v69z"/>
<glyph glyph-name="question" horiz-adv-x="520" unicode="?" d="M250 -10q-20 0 -34 14t-14 35q0 20 14 34t34 14q21 0 35 -14t14 -34q0 -21 -14 -35t-35 -14zM219 164q0 61 9.5 107.5t30 79t35 48.5t41.5 40q24 20 35.5 32t22 34.5t10.5 49.5q0 59 -40.5 95.5t-107.5 36.5q-65 0 -106 -36.5t-43 -95.5l-72 4q4 86 64.5 138.5 t156.5 52.5q103 0 165 -52t62 -137q0 -39 -14 -70.5t-29 -47t-45 -40.5q-27 -24 -41 -38.5t-33.5 -43.5t-28.5 -67.5t-9 -89.5h-63z"/>
<glyph glyph-name="at" horiz-adv-x="1069" unicode="@" d="M521 102q65 0 105 43.5t40 114.5t-40 115t-105 44t-105 -44t-40 -115t40 -114.5t105 -43.5zM738 473v-276q0 -42 21.5 -68t57.5 -26q55 0 88.5 59t33.5 154q0 169 -109 271.5t-285 102.5q-190 0 -304 -119t-114 -313q0 -193 113 -309.5t305 -116.5q143 0 271 38l22 -57 q-134 -43 -293 -43q-227 0 -360 133.5t-133 355.5q0 223 134.5 358t358.5 135q209 0 338 -118t129 -312q0 -125 -53.5 -203t-140.5 -78q-52 0 -88 28t-49 77q-48 -107 -173 -107q-93 0 -150.5 61t-57.5 159q0 100 57.5 161t148.5 61q112 0 160 -92l2 84h70z"/>
<glyph glyph-name="A" horiz-adv-x="726" unicode="A" d="M532 257l-168 391l-169 -391h337zM559 193h-391l-84 -193h-81l324 740h72l324 -740h-81z"/>
<glyph glyph-name="B" horiz-adv-x="683" unicode="B" d="M386 63q75 0 121 39.5t46 103.5t-46 103t-121 39h-209v-285h209zM177 412h183q72 0 115.5 36.5t43.5 95.5q0 60 -44.5 96.5t-118.5 36.5h-179v-265zM481 388q70 -17 110.5 -65.5t40.5 -116.5q0 -93 -63.5 -149.5t-169.5 -56.5h-298v740h281q97 0 156.5 -51.5t59.5 -135.5 q0 -58 -31 -100.5t-86 -64.5z"/>
<glyph glyph-name="C" horiz-adv-x="758" unicode="C" d="M657 581q-92 106 -228 106q-134 0 -215.5 -86.5t-81.5 -228.5q0 -143 81 -231t214 -88q158 0 247 129l52 -48q-50 -68 -127.5 -106t-172.5 -38q-168 0 -271 105t-103 277q0 170 103 274t271 104q169 0 279 -120z"/>
<glyph glyph-name="D" horiz-adv-x="764" unicode="D" d="M346 63q129 0 207.5 84t78.5 221q0 139 -78.5 224t-207.5 85h-169v-614h169zM352 740q162 0 260.5 -102t98.5 -270q0 -165 -98.5 -266.5t-260.5 -101.5h-251v740h251z"/>
<glyph glyph-name="E" horiz-adv-x="625" unicode="E" d="M566 63v-63h-465v740h456v-63h-380v-268h355v-63h-355v-283h389z"/>
<glyph glyph-name="F" horiz-adv-x="555" unicode="F" d="M177 677v-288h305v-63h-305v-326h-76v740h418v-63h-342z"/>
<glyph glyph-name="G" horiz-adv-x="798" unicode="G" d="M765 393v-23q-1 -174 -95 -277t-254 -103q-163 0 -263 104.5t-100 275.5t99.5 275.5t263.5 104.5q146 0 247 -76l-50 -49q-76 62 -197 62q-127 0 -205 -87t-78 -230t78 -230t206 -87q118 0 190 75.5t78 200.5h-235v64h315z"/>
<glyph glyph-name="H" horiz-adv-x="817" unicode="H" d="M716 740v-740h-76v344h-463v-344h-76v740h76v-332h463v332h76z"/>
<glyph glyph-name="I" horiz-adv-x="278" unicode="I" d="M177 0h-76v740h76v-740z"/>
<glyph glyph-name="J" horiz-adv-x="408" unicode="J" d="M30 95q41 -42 101 -42q49 0 77.5 29t28.5 77v581h75v-596q0 -70 -45.5 -112t-123.5 -42q-89 0 -134 53z"/>
<glyph glyph-name="K" horiz-adv-x="678" unicode="K" d="M313 347h-136v-347h-76v740h76v-329h135l257 329h93l-284 -361l294 -379h-93z"/>
<glyph glyph-name="L" horiz-adv-x="541" unicode="L" d="M527 63v-63h-426v740h76v-677h350z"/>
<glyph glyph-name="M" horiz-adv-x="988" unicode="M" d="M831 0l-32 599l-267 -599h-76l-267 599l-33 -599h-75l44 746h71l298 -672l298 672h71l44 -746h-76z"/>
<glyph glyph-name="N" horiz-adv-x="840" unicode="N" d="M740 740v-740h-50l-514 608l1 -608h-76v740h49l514 -608l-1 608h77z"/>
<glyph glyph-name="O" horiz-adv-x="844" unicode="O" d="M423 53q130 0 210 87.5t80 229.5t-80 229.5t-210 87.5q-131 0 -211 -87t-80 -230t80 -230t211 -87zM423 -10q-167 0 -269 104.5t-102 275.5t102 275.5t269 104.5q166 0 267.5 -104.5t101.5 -275.5t-101.5 -275.5t-267.5 -104.5z"/>
<glyph glyph-name="P" horiz-adv-x="646" unicode="P" d="M360 347q79 0 126 45.5t47 119.5t-47.5 119.5t-125.5 45.5h-183v-330h183zM370 740q109 0 175.5 -62t66.5 -163q0 -104 -66.5 -167.5t-175.5 -63.5h-193v-284h-76v740h269z"/>
<glyph glyph-name="Q" horiz-adv-x="845" unicode="Q" d="M423 53q119 0 197 75l-98 126h87l56 -71q48 79 48 187q0 142 -80 229.5t-210 87.5q-131 0 -211 -87t-80 -230t80 -230t211 -87zM720 0l-55 71q-98 -81 -242 -81q-167 0 -269 104.5t-102 275.5t102 275.5t269 104.5q166 0 267.5 -104.5t101.5 -275.5q0 -148 -78 -248 l95 -122h-89z"/>
<glyph glyph-name="R" horiz-adv-x="698" unicode="R" d="M364 365q80 0 129.5 43t49.5 113q0 71 -49 113.5t-130 42.5h-187v-312h187zM584 0l-197 302h-210v-302h-76v740h273q112 0 180 -60t68 -159q0 -76 -42 -130t-116 -76l210 -315h-90z"/>
<glyph glyph-name="S" horiz-adv-x="580" unicode="S" d="M450 185q0 58 -42.5 92t-127.5 62l-45 15q-84 27 -130.5 70t-46.5 123q0 91 64 147t168 56q128 0 211 -85l-35 -53q-73 75 -176 75q-69 0 -111 -35.5t-42 -93.5q0 -56 34.5 -84t101.5 -51l45 -15q44 -15 75 -30t65.5 -40t52.5 -61.5t18 -83.5q0 -91 -67.5 -147 t-177.5 -56q-145 0 -221 86l30 54q74 -77 186 -77q79 0 125 36t46 96z"/>
<glyph glyph-name="T" horiz-adv-x="579" unicode="T" d="M566 677h-238v-677h-76v677h-239v63h553v-63z"/>
<glyph glyph-name="U" horiz-adv-x="792" unicode="U" d="M700 740v-476q0 -124 -83.5 -199t-220.5 -75t-220.5 75t-83.5 199v476h76v-473q0 -96 62.5 -155t165.5 -59t165.5 59t62.5 155v473h76z"/>
<glyph glyph-name="V" horiz-adv-x="728" unicode="V" d="M400 0h-72l-325 740h82l279 -649l279 649h81z"/>
<glyph glyph-name="W" horiz-adv-x="1144" unicode="W" d="M1135 740l-274 -740h-72l-217 634l-217 -634h-71l-275 740h81l233 -638l213 638h73l213 -638l232 638h81z"/>
<glyph glyph-name="X" horiz-adv-x="642" unicode="X" d="M550 0l-229 325l-228 -325h-88l272 382l-249 358h87l206 -300l205 300h88l-250 -358l273 -382h-87z"/>
<glyph glyph-name="Y" horiz-adv-x="656" unicode="Y" d="M640 740l-274 -440v-300h-76v300l-274 440h83l230 -372l228 372h83z"/>
<glyph glyph-name="Z" horiz-adv-x="628" unicode="Z" d="M594 63v-63h-559v49l447 628h-441v63h543v-48l-447 -629h457z"/>
<glyph glyph-name="bracketleft" horiz-adv-x="356" unicode="[" d="M95 780h234v-62h-160v-836h160v-62h-234v960z"/>
<glyph glyph-name="backslash" horiz-adv-x="398" unicode="\" d="M116 780l239 -880h-73l-239 880h73z"/>
<glyph glyph-name="bracketright" horiz-adv-x="356" unicode="]" d="M27 -180v62h160v836h-160v62h234v-960h-234z"/>
<glyph glyph-name="asciicircum" horiz-adv-x="482" unicode="^" d="M357 324l-116 232l-116 -232h-73l153 305h72l153 -305h-73z"/>
<glyph glyph-name="underscore" horiz-adv-x="526" unicode="_" d="M501 0v-54h-476v54h476z"/>
<glyph glyph-name="grave" horiz-adv-x="600" unicode="`" d="M-3 769h89l131 -150h-65z"/>
<glyph glyph-name="a" horiz-adv-x="554" unicode="a" d="M231 44q68 0 122 52.5t54 138.5q-71 18 -145 18q-67 0 -108.5 -29.5t-41.5 -77.5q0 -47 32 -74.5t87 -27.5zM266 539q97 0 155 -56.5t58 -149.5v-333h-70l-1 112q-27 -57 -80 -89.5t-117 -32.5q-78 0 -126 42t-48 112q0 72 59.5 116.5t156.5 44.5q75 0 154 -19v38 q0 72 -42.5 114.5t-115.5 42.5q-88 0 -145 -59l-33 44q75 73 195 73z"/>
<glyph glyph-name="b" d="M348 52q88 0 141.5 58t53.5 153q0 96 -53.5 154.5t-141.5 58.5q-87 0 -140.5 -58.5t-53.5 -153.5t53.5 -153.5t140.5 -58.5zM365 539q112 0 182.5 -76.5t70.5 -199.5q0 -122 -70.5 -197.5t-182.5 -75.5q-153 0 -212 125l-1 -115h-70v780h72v-366q59 125 211 125z" unicode="b"/>
<glyph glyph-name="c" horiz-adv-x="536" unicode="c" d="M449 431q-55 45 -130 45q-89 0 -142.5 -58t-53.5 -154q0 -95 54 -153.5t143 -58.5q88 0 144 57l42 -49q-73 -70 -191 -70q-120 0 -194 75.5t-74 199.5q0 123 75 198.5t197 75.5q98 0 171 -58z"/>
<glyph glyph-name="d" d="M318 52q87 0 140.5 58.5t53.5 153.5t-53.5 153.5t-140.5 58.5q-88 0 -141.5 -58.5t-53.5 -154.5q0 -95 53.5 -153t141.5 -58zM584 780v-780h-70l-2 115q-59 -125 -211 -125q-112 0 -183 75.5t-71 197.5q0 123 71 199.5t183 76.5q152 0 211 -125v366h72z" unicode="d"/>
<glyph glyph-name="e" horiz-adv-x="591" unicode="e" d="M299 481q-76 0 -122.5 -51.5t-52.5 -140.5h349q-5 89 -51.5 140.5t-122.5 51.5zM548 271q0 -21 -1 -33h-422q6 -88 52 -139t124 -51q104 0 171 90l55 -31q-79 -117 -226 -117q-113 0 -183 75.5t-70 199.5q0 123 69 198.5t182 75.5q112 0 180.5 -73.5t68.5 -194.5z"/>
<glyph glyph-name="f" horiz-adv-x="376" unicode="f" d="M286 728q-45 0 -73 -27t-28 -70v-102h180v-60h-180v-469h-72v469h-92v60h92v113q0 67 42.5 107.5t110.5 40.5q67 0 108 -21l-6 -57q-33 16 -82 16z"/>
<glyph glyph-name="g" d="M319 52q87 0 140.5 58.5t53.5 153.5q0 96 -53.5 154t-140.5 58q-88 0 -141.5 -58t-53.5 -153q0 -96 53.5 -154.5t141.5 -58.5zM585 529v-491q0 -121 -79.5 -194.5t-210.5 -73.5q-143 0 -233 69l16 58q90 -65 214 -65q100 0 160.5 57.5t60.5 152.5v72q-60 -124 -211 -124 q-112 0 -183 76t-71 200q0 122 71 197.5t183 75.5q152 0 211 -125l2 115h70z" unicode="g"/>
<glyph glyph-name="h" horiz-adv-x="636" unicode="h" d="M344 539q98 0 157.5 -56.5t59.5 -149.5v-333h-72v319q0 71 -46 114t-121 43q-76 0 -122 -43t-46 -114v-319h-72v780h72v-340q54 99 190 99z"/>
<glyph glyph-name="i" horiz-adv-x="238" unicode="i" d="M155 529v-529h-72v529h72zM119 662q-21 0 -35 14t-14 34q0 21 14 35t35 14q20 0 34 -14t14 -35q0 -20 -14 -34t-34 -14z"/>
<glyph glyph-name="j" horiz-adv-x="245" unicode="j" d="M-71 -156q28 -12 66 -12q42 0 68.5 29.5t26.5 78.5v589h72v-605q0 -70 -41 -112t-108 -42q-55 0 -90 16zM125 662q-21 0 -35 14t-14 34q0 21 14 35t35 14q20 0 34 -14t14 -35q0 -20 -14 -34t-34 -14z"/>
<glyph glyph-name="k" horiz-adv-x="570" unicode="k" d="M261 248h-107v-248h-72v780h72v-472h108l202 221h91l-234 -251l246 -278h-92z"/>
<glyph glyph-name="l" horiz-adv-x="241" unicode="l" d="M84 780h72v-780h-72v780z"/>
<glyph glyph-name="m" horiz-adv-x="973" unicode="m" d="M689 539q94 0 151 -56.5t57 -149.5v-333h-72v319q0 71 -41 114t-109 43t-109 -43t-41 -114v-319h-72v319q0 71 -41 114t-108 43q-68 0 -109 -43t-41 -114v-319h-72v529h70l1 -85q51 95 173 95q62 0 108.5 -28.5t70.5 -79.5q52 108 184 108z"/>
<glyph glyph-name="n" horiz-adv-x="636" unicode="n" d="M344 539q98 0 157.5 -56.5t59.5 -149.5v-333h-72v319q0 71 -46 114t-121 43q-76 0 -122 -43t-46 -114v-319h-72v529h70l1 -90q54 100 191 100z"/>
<glyph glyph-name="o" horiz-adv-x="634" unicode="o" d="M318 52q87 0 140 58.5t53 153.5q0 96 -53 154t-140 58q-88 0 -141.5 -58t-53.5 -154q0 -95 53.5 -153.5t141.5 -58.5zM318 -10q-122 0 -196.5 75.5t-74.5 198.5q0 124 74.5 199.5t196.5 75.5q121 0 195 -75.5t74 -199.5q0 -123 -74 -198.5t-195 -75.5z"/>
<glyph glyph-name="p" d="M348 52q88 0 141.5 58.5t53.5 154.5q0 95 -53.5 153t-141.5 58q-87 0 -140.5 -58t-53.5 -154q0 -95 53.5 -153.5t140.5 -58.5zM365 539q112 0 182.5 -75.5t70.5 -197.5q0 -124 -70.5 -200t-182.5 -76q-151 0 -211 124v-334h-72v749h70l1 -115q59 125 212 125z" unicode="p"/>
<glyph glyph-name="q" d="M318 52q87 0 140.5 58.5t53.5 153.5q0 96 -53.5 154t-140.5 58q-88 0 -141.5 -58t-53.5 -153q0 -96 53.5 -154.5t141.5 -58.5zM584 529v-749h-72v334q-60 -124 -211 -124q-112 0 -183 76t-71 200q0 122 71 197.5t183 75.5q152 0 211 -125l2 115h70z" unicode="q"/>
<glyph glyph-name="r" horiz-adv-x="370" unicode="r" d="M153 439q55 100 210 100l-6 -66q-96 0 -149.5 -44.5t-53.5 -121.5v-307h-72v529h70z"/>
<glyph glyph-name="s" horiz-adv-x="450" unicode="s" d="M329 137q0 63 -98 95l-51 17q-64 21 -96.5 51t-32.5 85q0 70 47.5 112t124.5 42q98 0 166 -48l-31 -49q-56 39 -130 39q-46 0 -74.5 -23t-28.5 -62q0 -34 22.5 -53t65.5 -34l51 -17q64 -21 101.5 -55t37.5 -94q0 -69 -49.5 -111t-133.5 -42q-110 0 -168 56l30 45 q54 -43 138 -43q49 0 79 24.5t30 64.5z"/>
<glyph glyph-name="t" horiz-adv-x="392" unicode="t" d="M274 52q56 0 106 19v-59q-51 -22 -128 -22q-64 0 -103.5 40.5t-39.5 105.5v333h-92v60h92v155h72v-155h191v-60h-191v-319q0 -43 26 -70.5t67 -27.5z"/>
<glyph glyph-name="u" horiz-adv-x="623" unicode="u" d="M541 529v-529h-69l-2 88q-52 -98 -185 -98q-94 0 -152 56.5t-58 148.5v334h72v-320q0 -71 44 -114t117 -43t117 43t44 114v320h72z"/>
<glyph glyph-name="v" horiz-adv-x="568" unicode="v" d="M321 0h-73l-236 529h79l193 -446l193 446h79z"/>
<glyph glyph-name="w" horiz-adv-x="953" unicode="w" d="M939 529l-216 -529h-73l-174 450l-173 -450h-73l-216 529h79l177 -446l175 446h63l174 -446l177 446h80z"/>
<glyph glyph-name="x" horiz-adv-x="544" unicode="x" d="M444 0l-172 222l-171 -222h-88l215 271l-203 258h87l160 -210l160 210h87l-202 -258l215 -271h-88z"/>
<glyph glyph-name="y" horiz-adv-x="568" unicode="y" d="M275 -103q-28 -65 -59 -96t-86 -31q-38 0 -64 12l8 59q18 -9 45 -9q31 0 49 18t36 57l47 100l-237 522h79l196 -443l190 443h79z"/>
<glyph glyph-name="z" horiz-adv-x="511" unicode="z" d="M477 60v-60h-439v48l325 421h-320v60h421v-48l-324 -421h337z"/>
<glyph glyph-name="braceleft" horiz-adv-x="391" unicode="{" d="M199 439q0 -53 -21.5 -91t-55.5 -48q35 -10 56 -48t21 -90v-189q0 -45 23.5 -72.5t61.5 -27.5q42 0 79 10v-61q-48 -12 -101 -12q-62 0 -100.5 39.5t-38.5 104.5v199q0 52 -22.5 83.5t-59.5 31.5h-8v64h8q37 0 59.5 31.5t22.5 83.5v199q0 65 38.5 104.5t100.5 39.5 q53 0 101 -12v-61q-37 10 -79 10q-38 0 -61.5 -27.5t-23.5 -72.5v-188z"/>
<glyph glyph-name="bar" horiz-adv-x="267" unicode="|" d="M171 780v-1000h-76v1000h76z"/>
<glyph glyph-name="braceright" horiz-adv-x="391" unicode="}" d="M191 627q0 45 -23 72.5t-61 27.5q-42 0 -79 -10v61q47 12 101 12q62 0 100 -39.5t38 -104.5v-199q0 -52 23 -83.5t60 -31.5h8v-64h-8q-37 0 -60 -31.5t-23 -83.5v-199q0 -65 -38 -104.5t-100 -39.5q-54 0 -101 12v61q37 -10 79 -10q38 0 61 27.5t23 72.5v189 q0 52 21.5 90t56.5 48q-35 10 -56.5 48.5t-21.5 90.5v188z"/>
<glyph glyph-name="asciitilde" horiz-adv-x="576" unicode="~" d="M120 243h-44q0 53 33.5 85t85.5 32q42 0 101 -35.5t88 -35.5q32 0 53 16.5t21 44.5h44q0 -54 -33 -85.5t-86 -31.5q-41 0 -100 36t-89 36q-32 0 -53 -17t-21 -45z"/>
<glyph glyph-name="uni00A0" horiz-adv-x="265" unicode=" "/>
<glyph glyph-name="exclamdown" horiz-adv-x="244" unicode="¡" d="M84 -220l7 585h63l7 -585h-77zM122 539q21 0 35 -14t14 -35q0 -20 -14 -34t-35 -14q-20 0 -34 14t-14 34q0 21 14 35t34 14z"/>
<glyph glyph-name="cent" horiz-adv-x="564" unicode="¢" d="M132 314q0 -89 47.5 -146t127.5 -65v422q-79 -7 -127 -64t-48 -147zM516 110q-64 -63 -169 -69v-41h-40v40q-113 6 -181.5 81t-68.5 194q0 118 68.5 192t181.5 81v41h40v-41q86 -4 153 -57l-42 -50q-48 40 -111 44v-422q76 5 127 56z"/>
<glyph glyph-name="sterling" horiz-adv-x="587" unicode="£" d="M527 61v-61h-473v60h63v256h-53v61h53v186q0 84 55.5 135.5t146.5 51.5t146.5 -52t55.5 -136l-74 -6q0 59 -35 95t-93 36q-56 0 -91 -36t-35 -94v-180h296v-61h-296v-255h334z"/>
<glyph glyph-name="currency" horiz-adv-x="609" unicode="¤" d="M305 178q66 0 113.5 48.5t47.5 117.5q0 68 -47.5 116.5t-113.5 48.5q-67 0 -114.5 -48.5t-47.5 -116.5q0 -69 47.5 -117.5t114.5 -48.5zM527 344q0 -73 -44 -133l57 -57l-45 -45l-58 58q-58 -44 -132 -44t-133 43l-57 -58l-46 45l58 57q-45 59 -45 134q0 74 45 133 l-58 57l46 45l57 -58q59 43 133 43t132 -44l58 58l45 -45l-57 -57q44 -60 44 -132z"/>
<glyph glyph-name="yen" horiz-adv-x="684" unicode="¥" d="M404 339h147v-50h-171v-60h171v-50h-171v-179h-76v179h-170v50h170v60h-170v50h146l-250 401h83l230 -372l228 372h83z"/>
<glyph glyph-name="brokenbar" horiz-adv-x="263" unicode="¦" d="M170 180v-400h-76v400h76zM170 780v-400h-76v400h76z"/>
<glyph glyph-name="section" horiz-adv-x="585" unicode="§" d="M320 183q64 -21 102 -42q33 33 33 84q0 60 -44 95t-130 63l-45 15q-43 14 -67 27q-35 -37 -35 -87q0 -31 10.5 -53.5t32.5 -38.5t42.5 -25.5t54.5 -21.5zM478 100q52 -52 52 -127q0 -91 -67 -147t-177 -56q-147 0 -221 86l30 54q73 -77 185 -77q79 0 125 36t46 96 q0 58 -42.5 92t-127.5 62l-45 15q-84 27 -130.5 70t-46.5 123q0 81 52 135q-52 47 -52 125q0 91 64 147t169 56q128 0 211 -85l-36 -53q-72 75 -176 75q-69 0 -110.5 -35.5t-41.5 -93.5q0 -39 20.5 -66.5t45.5 -40.5t69 -28l46 -15q44 -15 75 -30t65 -40t52 -61.5t18 -83.5 q0 -79 -52 -133z"/>
<glyph glyph-name="dieresis" horiz-adv-x="600" unicode="¨" d="M319 662q-21 0 -35 14t-14 34q0 21 14 35t35 14q20 0 34 -14t14 -35q0 -20 -14 -34t-34 -14zM115 662q-20 0 -34 14t-14 34q0 21 14 35t34 14q21 0 35 -14t14 -35q0 -20 -14 -34t-35 -14z"/>
<glyph glyph-name="copyright" horiz-adv-x="854" unicode="©" d="M555 475q-47 56 -121 56q-69 0 -111.5 -45t-42.5 -118q0 -75 42.5 -120t111.5 -45q84 0 130 69l37 -34q-58 -80 -168 -80q-94 0 -151.5 58t-57.5 152t57.5 151t151.5 57q95 0 156 -66zM427 29q146 0 235 93.5t89 247.5t-89 248t-235 94t-235 -94t-89 -248t89 -247.5 t235 -93.5zM427 -10q-169 0 -271 104.5t-102 275.5t102 275.5t271 104.5q168 0 270.5 -104.5t102.5 -275.5t-102.5 -275.5t-270.5 -104.5z"/>
<glyph glyph-name="ordfeminine" horiz-adv-x="395" unicode="ª" d="M172 456q39 0 70 30t31 80q-47 10 -83 10q-39 0 -62.5 -17t-23.5 -45q0 -26 18.5 -42t49.5 -16zM192 750q59 0 94.5 -34t35.5 -90v-200h-48l-1 63q-35 -69 -115 -69q-47 0 -76.5 25.5t-29.5 67.5q0 44 36.5 71t95.5 27q43 0 89 -11v20q0 42 -25 66t-67 24q-53 0 -86 -34 l-23 31q48 43 120 43z"/>
<glyph glyph-name="guillemotleft" horiz-adv-x="575" unicode="«" d="M355 270l172 -224h-77l-176 224l176 224h77zM125 270l172 -224h-77l-176 224l176 224h77z"/>
<glyph glyph-name="logicalnot" horiz-adv-x="582" unicode="¬" d="M506 217h-72v151h-358v60h430v-211z"/>
<glyph glyph-name="uni00AD" horiz-adv-x="436" unicode="­" d="M364 314v-54h-293v54h293z"/>
<glyph glyph-name="registered" horiz-adv-x="416" unicode="®" d="M174 638h35q15 0 24.5 8t9.5 21t-9 21.5t-23 8.5h-37v-59zM269 667q0 -34 -32 -45l44 -67h-29l-40 62h-38v-62h-26v163h66q25 0 40 -14t15 -37zM208 501q58 0 94 37.5t36 98.5t-36 98t-94 37t-94 -37t-36 -98t36 -98.5t94 -37.5zM208 790q68 0 110 -42t42 -111 t-42 -111.5t-110 -42.5t-110 42.5t-42 111.5t42 111t110 42z"/>
<glyph glyph-name="macron" horiz-adv-x="600" unicode="¯" d="M373 704v-57h-310v57h310z"/>
<glyph glyph-name="degree" horiz-adv-x="355" unicode="°" d="M178 592q35 0 56 21.5t21 57.5q0 35 -21 56.5t-56 21.5t-56.5 -21.5t-21.5 -56.5q0 -36 21.5 -57.5t56.5 -21.5zM178 551q-58 0 -93.5 33t-35.5 87q0 53 35.5 86t93.5 33t93 -33t35 -86q0 -54 -35 -87t-93 -33z"/>
<glyph glyph-name="plusminus" horiz-adv-x="582" unicode="±" d="M82 137h419v-61h-419v61zM501 445v-60h-174v-179h-72v179h-173v60h173v178h72v-178h174z"/>
<glyph glyph-name="uni00B2" horiz-adv-x="353" unicode="²" d="M317 439v-43h-284v34l134 145q1 2 10.5 11.5l12.5 12.5t11.5 13t12.5 15t11 14.5t10.5 16t9 16t7.5 17.5t4 17t2 18q0 35 -22.5 56t-59.5 21q-39 0 -62.5 -23.5t-23.5 -61.5l-52 5q0 56 37.5 89.5t99.5 33.5q61 0 98.5 -32t37.5 -85q0 -33 -17.5 -68t-37 -57.5 t-54.5 -59.5l-100 -106z"/>
<glyph glyph-name="uni00B3" horiz-adv-x="350" unicode="³" d="M174 654q64 0 102.5 -35.5t38.5 -92.5q0 -62 -42.5 -99t-114.5 -37q-89 0 -130 49l20 38q36 -44 104 -44q50 0 79.5 25.5t29.5 67.5q0 40 -29 64t-76 24q-38 0 -67 -15l-15 26l155 172h-184v43h254v-33l-145 -154q8 1 20 1z"/>
<glyph glyph-name="acute" horiz-adv-x="600" unicode="´" d="M126 619l130 150h89l-155 -150h-64z"/>
<glyph glyph-name="paragraph" horiz-adv-x="565" unicode="¶" d="M458 -220h-59v905h-108v-905h-58v633h-66q-61 0 -97.5 45.5t-36.5 119.5q0 73 42 117.5t110 44.5h273v-960z"/>
<glyph glyph-name="periodcentered" horiz-adv-x="242" unicode="·" d="M121 234q-22 0 -38.5 16t-16.5 38t16 38t39 16q22 0 38 -16t16 -38t-16 -38t-38 -16z"/>
<glyph glyph-name="cedilla" horiz-adv-x="600" unicode="¸" d="M130 -68q47 0 75.5 -21.5t28.5 -56.5q0 -38 -32 -61t-85 -23q-65 0 -96 28l16 30q26 -23 75 -23q37 0 58 13t21 35t-20.5 34.5t-54.5 12.5q-25 0 -49 -8l-11 21l53 87h41l-44 -69q7 1 24 1z"/>
<glyph glyph-name="uni00B9" horiz-adv-x="261" unicode="¹" d="M10 732l146 108h40v-444h-52v376l-107 -77z"/>
<glyph glyph-name="ordmasculine" horiz-adv-x="427" unicode="º" d="M215 463q50 0 80.5 33.5t30.5 88.5t-30.5 88.5t-80.5 33.5q-51 0 -82 -33.5t-31 -88.5t31 -88.5t82 -33.5zM215 420q-74 0 -119.5 45.5t-45.5 119.5t45.5 119.5t119.5 45.5q73 0 118 -45.5t45 -119.5t-45 -119.5t-118 -45.5z"/>
<glyph glyph-name="guillemotright" horiz-adv-x="575" unicode="»" d="M531 270l-176 -224h-77l172 224l-172 224h77zM301 270l-176 -224h-77l172 224l-172 224h77z"/>
<glyph glyph-name="onequarter" horiz-adv-x="798" unicode="¼" d="M656 136v233l-169 -233h169zM654 94h-217v38l227 312h42v-306h66v-44h-66v-94h-52v94zM10 632l146 108h40v-444h-52v376l-107 -77zM165 -10l-42 26l430 734l42 -26z"/>
<glyph glyph-name="onehalf" horiz-adv-x="810" unicode="½" d="M774 43v-43h-284v34l134 145q1 2 10.5 11.5l12.5 12.5t11.5 13t12.5 15t11 14.5t10.5 16t9 16t7.5 17.5t4 17t2 18q0 35 -22.5 56t-59.5 21q-39 0 -62.5 -23.5t-23.5 -61.5l-52 5q0 56 37.5 89.5t99.5 33.5q61 0 98.5 -32t37.5 -85q0 -33 -17.5 -68t-37 -57.5 t-54.5 -59.5l-100 -106zM10 632l146 108h40v-444h-52v376l-107 -77zM165 -10l-42 26l430 734l42 -26z"/>
<glyph glyph-name="threequarters" horiz-adv-x="887" unicode="¾" d="M746 369l-169 -233h169v233zM862 138v-44h-66v-94h-52v94h-217v38l227 312h42v-306h66zM315 426q0 -62 -42.5 -99t-114.5 -37q-89 0 -130 49l20 38q36 -44 104 -44q50 0 79.5 25.5t29.5 67.5q0 40 -29 64t-76 24q-38 0 -67 -15l-15 26l155 172h-184v43h254v-33l-145 -154 q6 1 20 1q64 0 102.5 -35.5t38.5 -92.5zM684 724l-430 -734l-42 26l430 734z"/>
<glyph glyph-name="questiondown" horiz-adv-x="513" unicode="¿" d="M298 365q0 -63 -9.5 -111t-30.5 -81.5t-35.5 -50t-41.5 -40.5q-24 -21 -35 -32.5t-21.5 -34t-10.5 -50.5q0 -59 40 -95.5t107 -36.5q64 0 105.5 36.5t44.5 95.5l71 -4q-3 -86 -63.5 -138.5t-157.5 -52.5q-102 0 -164.5 52t-62.5 137q0 39 14 70.5t29 47t45 40.5 q27 24 41.5 39.5t33.5 45.5t28 70t9 93h64zM266 539q21 0 34.5 -14t13.5 -35q0 -20 -13.5 -34t-34.5 -14q-20 0 -34 14t-14 34q0 21 14 35t34 14z"/>
<glyph glyph-name="Agrave" horiz-adv-x="726" unicode="À" d="M532 257l-168 391l-169 -391h337zM559 193h-391l-84 -193h-81l324 740h72l324 -740h-81zM345 830l-155 150h89l131 -150h-65z"/>
<glyph glyph-name="Aacute" horiz-adv-x="726" unicode="Á" d="M532 257l-168 391l-169 -391h337zM559 193h-391l-84 -193h-81l324 740h72l324 -740h-81zM382 830h-64l130 150h89z"/>
<glyph glyph-name="Acircumflex" horiz-adv-x="726" unicode="Â" d="M532 257l-168 391l-169 -391h337zM559 193h-391l-84 -193h-81l324 740h72l324 -740h-81zM267 830h-70l130 150h73l130 -150h-70l-96 109z"/>
<glyph glyph-name="Atilde" horiz-adv-x="726" unicode="Ã" d="M532 257l-168 391l-169 -391h337zM559 193h-391l-84 -193h-81l324 740h72l324 -740h-81zM283 910q-24 0 -39 -17t-15 -45h-45q0 53 28 85.5t71 32.5q36 0 85.5 -36t74.5 -36q24 0 39.5 16.5t15.5 45.5h44q0 -54 -27.5 -86t-71.5 -32q-35 0 -85 36t-75 36z"/>
<glyph glyph-name="Adieresis" horiz-adv-x="726" unicode="Ä" d="M532 257l-168 391l-169 -391h337zM559 193h-391l-84 -193h-81l324 740h72l324 -740h-81zM466 873q-21 0 -35 14t-14 34q0 21 14 35t35 14q20 0 34 -14t14 -35q0 -20 -14 -34t-34 -14zM262 873q-20 0 -34 14t-14 34q0 21 14 35t34 14q21 0 35 -14t14 -35q0 -20 -14 -34 t-35 -14z"/>
<glyph glyph-name="Aring" horiz-adv-x="726" unicode="Å" d="M532 257l-168 391l-169 -391h337zM559 193h-391l-84 -193h-81l324 740h72l324 -740h-81zM363 968q-29 0 -47 -18.5t-18 -49.5t18 -49.5t47 -18.5t47 18.5t18 49.5t-18 49.5t-47 18.5zM363 795q-49 0 -79 29t-30 76t30 76t79 29t79 -29t30 -76t-30 -76t-79 -29z"/>
<glyph glyph-name="AE" horiz-adv-x="1068" unicode="Æ" d="M547 257l-105 383l-220 -383h325zM1010 63v-63h-393l-53 193h-378l-111 -193h-86l438 740h573v-63h-491l75 -268h391v-63h-373l79 -283h329z"/>
<glyph glyph-name="Ccedilla" horiz-adv-x="758" unicode="Ç" d="M726 134q-50 -67 -125.5 -105t-168.5 -39l-39 -60q16 2 25 2q47 0 75.5 -21.5t28.5 -56.5q0 -38 -32 -61t-85 -23q-65 0 -96 28l16 30q26 -23 75 -23q37 0 58 13t21 35t-20.5 34.5t-54.5 12.5q-25 0 -49 -8l-11 21l48 78q-154 11 -247 115t-93 266q0 170 103 274t271 104 q169 0 279 -120l-48 -49q-92 106 -228 106q-134 0 -215.5 -86.5t-81.5 -228.5q0 -143 81 -231t214 -88q158 0 247 129z"/>
<glyph glyph-name="Egrave" horiz-adv-x="625" unicode="È" d="M566 63v-63h-465v740h456v-63h-380v-268h355v-63h-355v-283h389zM310 830l-155 150h89l131 -150h-65z"/>
<glyph glyph-name="Eacute" horiz-adv-x="625" unicode="É" d="M566 63v-63h-465v740h456v-63h-380v-268h355v-63h-355v-283h389zM348 830h-64l130 150h89z"/>
<glyph glyph-name="Ecircumflex" horiz-adv-x="625" unicode="Ê" d="M566 63v-63h-465v740h456v-63h-380v-268h355v-63h-355v-283h389zM232 830h-70l130 150h73l130 -150h-70l-96 109z"/>
<glyph glyph-name="Edieresis" horiz-adv-x="625" unicode="Ë" d="M566 63v-63h-465v740h456v-63h-380v-268h355v-63h-355v-283h389zM431 873q-21 0 -35 14t-14 34q0 21 14 35t35 14q20 0 34 -14t14 -35q0 -20 -14 -34t-34 -14zM227 873q-20 0 -34 14t-14 34q0 21 14 35t34 14q21 0 35 -14t14 -35q0 -20 -14 -34t-35 -14z"/>
<glyph glyph-name="Igrave" horiz-adv-x="278" unicode="Ì" d="M177 0h-76v740h76v-740zM-35 980h89l131 -150h-65z"/>
<glyph glyph-name="Iacute" horiz-adv-x="278" unicode="Í" d="M177 0h-76v740h76v-740zM94 830l130 150h89l-155 -150h-64z"/>
<glyph glyph-name="Icircumflex" horiz-adv-x="278" unicode="Î" d="M101 740h76v-740h-76v740zM305 830h-70l-96 109l-97 -109h-70l130 150h73z"/>
<glyph glyph-name="Idieresis" horiz-adv-x="278" unicode="Ï" d="M177 0h-76v740h76v-740zM241 873q-21 0 -35 14t-14 34q0 21 14 35t35 14q20 0 34 -14t14 -35q0 -20 -14 -34t-34 -14zM37 873q-20 0 -34 14t-14 34q0 21 14 35t34 14q21 0 35 -14t14 -35q0 -20 -14 -34t-35 -14z"/>
<glyph glyph-name="Eth" horiz-adv-x="764" unicode="Ð" d="M346 63q129 0 207.5 84t78.5 221q0 139 -78.5 224t-207.5 85h-169v-278h201v-54h-201v-282h169zM352 740q162 0 260.5 -102t98.5 -270q0 -165 -98.5 -266.5t-260.5 -101.5h-251v345h-85v54h85v341h251z"/>
<glyph glyph-name="Ntilde" horiz-adv-x="840" unicode="Ñ" d="M740 740v-740h-50l-514 608l1 -608h-76v740h49l514 -608l-1 608h77zM285 848h-45q0 53 28 85.5t71 32.5q36 0 85.5 -36t74.5 -36q24 0 39.5 16.5t15.5 45.5h44q0 -54 -27.5 -86t-71.5 -32q-35 0 -85 36t-75 36q-24 0 -39 -17t-15 -45z"/>
<glyph glyph-name="Ograve" horiz-adv-x="844" unicode="Ò" d="M423 53q130 0 210 87.5t80 229.5t-80 229.5t-210 87.5q-131 0 -211 -87t-80 -230t80 -230t211 -87zM423 -10q-167 0 -269 104.5t-102 275.5t102 275.5t269 104.5q166 0 267.5 -104.5t101.5 -275.5t-101.5 -275.5t-267.5 -104.5zM249 980h89l131 -150h-65z"/>
<glyph glyph-name="Oacute" horiz-adv-x="844" unicode="Ó" d="M423 53q130 0 210 87.5t80 229.5t-80 229.5t-210 87.5q-131 0 -211 -87t-80 -230t80 -230t211 -87zM423 -10q-167 0 -269 104.5t-102 275.5t102 275.5t269 104.5q166 0 267.5 -104.5t101.5 -275.5t-101.5 -275.5t-267.5 -104.5zM377 830l130 150h89l-155 -150h-64z"/>
<glyph glyph-name="Ocircumflex" horiz-adv-x="844" unicode="Ô" d="M423 53q130 0 210 87.5t80 229.5t-80 229.5t-210 87.5q-131 0 -211 -87t-80 -230t80 -230t211 -87zM423 750q166 0 267.5 -104.5t101.5 -275.5t-101.5 -275.5t-267.5 -104.5q-167 0 -269 104.5t-102 275.5t102 275.5t269 104.5zM326 830h-70l130 150h73l130 -150h-70 l-96 109z"/>
<glyph glyph-name="Otilde" horiz-adv-x="844" unicode="Õ" d="M423 53q130 0 210 87.5t80 229.5t-80 229.5t-210 87.5q-131 0 -211 -87t-80 -230t80 -230t211 -87zM423 -10q-167 0 -269 104.5t-102 275.5t102 275.5t269 104.5q166 0 267.5 -104.5t101.5 -275.5t-101.5 -275.5t-267.5 -104.5zM288 848h-45q0 53 28 85.5t71 32.5 q36 0 85.5 -36t74.5 -36q24 0 39.5 16.5t15.5 45.5h44q0 -54 -27.5 -86t-71.5 -32q-35 0 -85 36t-75 36q-24 0 -39 -17t-15 -45z"/>
<glyph glyph-name="Odieresis" horiz-adv-x="844" unicode="Ö" d="M423 53q130 0 210 87.5t80 229.5t-80 229.5t-210 87.5q-131 0 -211 -87t-80 -230t80 -230t211 -87zM423 -10q-167 0 -269 104.5t-102 275.5t102 275.5t269 104.5q166 0 267.5 -104.5t101.5 -275.5t-101.5 -275.5t-267.5 -104.5zM525 873q-21 0 -35 14t-14 34q0 21 14 35 t35 14q20 0 34 -14t14 -35q0 -20 -14 -34t-34 -14zM321 873q-20 0 -34 14t-14 34q0 21 14 35t34 14q21 0 35 -14t14 -35q0 -20 -14 -34t-35 -14z"/>
<glyph glyph-name="multiply" horiz-adv-x="503" unicode="×" d="M296 346l141 -141l-44 -45l-142 141l-141 -141l-45 45l142 141l-142 142l44 45l142 -142l142 142l45 -45z"/>
<glyph glyph-name="Oslash" horiz-adv-x="849" unicode="Ø" d="M425 53q130 0 210 87t80 230q0 128 -66 213l-420 -458q78 -72 196 -72zM134 370q0 -126 65 -213l420 459q-77 71 -194 71q-131 0 -211 -87t-80 -230zM700 638q94 -103 94 -268q0 -171 -101.5 -275.5t-267.5 -104.5q-147 0 -244 82l-75 -82l-33 30l76 83q-94 103 -94 267 q0 171 101.5 275.5t268.5 104.5q146 0 243 -82l74 82l33 -30z"/>
<glyph glyph-name="Ugrave" horiz-adv-x="792" unicode="Ù" d="M700 740v-476q0 -124 -83.5 -199t-220.5 -75t-220.5 75t-83.5 199v476h76v-473q0 -96 62.5 -155t165.5 -59t165.5 59t62.5 155v473h76zM222 980h89l131 -150h-65z"/>
<glyph glyph-name="Uacute" horiz-adv-x="792" unicode="Ú" d="M700 740v-476q0 -124 -83.5 -199t-220.5 -75t-220.5 75t-83.5 199v476h76v-473q0 -96 62.5 -155t165.5 -59t165.5 59t62.5 155v473h76zM351 830l130 150h89l-155 -150h-64z"/>
<glyph glyph-name="Ucircumflex" horiz-adv-x="792" unicode="Û" d="M700 740v-476q0 -124 -83.5 -199t-220.5 -75t-220.5 75t-83.5 199v476h76v-473q0 -96 62.5 -155t165.5 -59t165.5 59t62.5 155v473h76zM299 830h-70l130 150h73l130 -150h-70l-96 109z"/>
<glyph glyph-name="Udieresis" horiz-adv-x="792" unicode="Ü" d="M700 740v-476q0 -124 -83.5 -199t-220.5 -75t-220.5 75t-83.5 199v476h76v-473q0 -96 62.5 -155t165.5 -59t165.5 59t62.5 155v473h76zM498 873q-21 0 -35 14t-14 34q0 21 14 35t35 14q20 0 34 -14t14 -35q0 -20 -14 -34t-34 -14zM294 873q-20 0 -34 14t-14 34 q0 21 14 35t34 14q21 0 35 -14t14 -35q0 -20 -14 -34t-35 -14z"/>
<glyph glyph-name="Yacute" horiz-adv-x="656" unicode="Ý" d="M640 740l-274 -440v-300h-76v300l-274 440h83l230 -372l228 372h83zM348 830h-64l130 150h89z"/>
<glyph glyph-name="Thorn" horiz-adv-x="648" unicode="Þ" d="M360 211q79 0 126 45.5t47 119.5t-47.5 119t-125.5 45h-183v-329h183zM370 604q109 0 175.5 -62.5t66.5 -163.5q0 -103 -66.5 -166.5t-175.5 -63.5h-193v-148h-76v740h76v-136h193z"/>
<glyph glyph-name="germandbls" horiz-adv-x="606" unicode="ß" d="M402 419q74 -23 116 -77t42 -129q0 -100 -67 -161.5t-177 -61.5q-47 0 -79 12l7 60q30 -10 61 -10q81 0 130 46t49 122t-50.5 122t-133.5 46v58q66 0 106.5 39t40.5 102q0 64 -40.5 102.5t-106.5 38.5t-106 -38.5t-40 -101.5v-588h-72v596q0 87 60 140.5t158 53.5 q100 0 161 -53.5t61 -140.5q0 -62 -31.5 -108t-88.5 -69z"/>
<glyph glyph-name="agrave" horiz-adv-x="554" unicode="à" d="M231 44q68 0 122 52.5t54 138.5q-71 18 -145 18q-67 0 -108.5 -29.5t-41.5 -77.5q0 -47 32 -74.5t87 -27.5zM266 539q97 0 155 -56.5t58 -149.5v-333h-70l-1 112q-27 -57 -80 -89.5t-117 -32.5q-78 0 -126 42t-48 112q0 72 59.5 116.5t156.5 44.5q75 0 154 -19v38 q0 72 -42.5 114.5t-115.5 42.5q-88 0 -145 -59l-33 44q75 73 195 73zM259 619l-155 150h89l131 -150h-65z"/>
<glyph glyph-name="aacute" horiz-adv-x="554" unicode="á" d="M231 44q68 0 122 52.5t54 138.5q-71 18 -145 18q-67 0 -108.5 -29.5t-41.5 -77.5q0 -47 32 -74.5t87 -27.5zM266 539q97 0 155 -56.5t58 -149.5v-333h-70l-1 112q-27 -57 -80 -89.5t-117 -32.5q-78 0 -126 42t-48 112q0 72 59.5 116.5t156.5 44.5q75 0 154 -19v38 q0 72 -42.5 114.5t-115.5 42.5q-88 0 -145 -59l-33 44q75 73 195 73zM296 619h-64l130 150h89z"/>
<glyph glyph-name="acircumflex" horiz-adv-x="554" unicode="â" d="M231 44q68 0 122 52.5t54 138.5q-71 18 -145 18q-67 0 -108.5 -29.5t-41.5 -77.5q0 -47 32 -74.5t87 -27.5zM266 539q97 0 155 -56.5t58 -149.5v-333h-70l-1 112q-27 -57 -80 -89.5t-117 -32.5q-78 0 -126 42t-48 112q0 72 59.5 116.5t156.5 44.5q75 0 154 -19v38 q0 72 -42.5 114.5t-115.5 42.5q-88 0 -145 -59l-33 44q75 73 195 73zM181 619h-70l130 150h73l130 -150h-70l-96 109z"/>
<glyph glyph-name="atilde" horiz-adv-x="554" unicode="ã" d="M231 44q68 0 122 52.5t54 138.5q-71 18 -145 18q-67 0 -108.5 -29.5t-41.5 -77.5q0 -47 32 -74.5t87 -27.5zM266 539q97 0 155 -56.5t58 -149.5v-333h-70l-1 112q-27 -57 -80 -89.5t-117 -32.5q-78 0 -126 42t-48 112q0 72 59.5 116.5t156.5 44.5q75 0 154 -19v38 q0 72 -42.5 114.5t-115.5 42.5q-88 0 -145 -59l-33 44q75 73 195 73zM197 699q-24 0 -39 -17t-15 -45h-45q0 53 28 85.5t71 32.5q36 0 85.5 -36t74.5 -36q24 0 39.5 16.5t15.5 45.5h44q0 -54 -27.5 -86t-71.5 -32q-35 0 -85 36t-75 36z"/>
<glyph glyph-name="adieresis" horiz-adv-x="554" unicode="ä" d="M231 44q68 0 122 52.5t54 138.5q-71 18 -145 18q-67 0 -108.5 -29.5t-41.5 -77.5q0 -47 32 -74.5t87 -27.5zM266 539q97 0 155 -56.5t58 -149.5v-333h-70l-1 112q-27 -57 -80 -89.5t-117 -32.5q-78 0 -126 42t-48 112q0 72 59.5 116.5t156.5 44.5q75 0 154 -19v38 q0 72 -42.5 114.5t-115.5 42.5q-88 0 -145 -59l-33 44q75 73 195 73zM380 662q-21 0 -35 14t-14 34q0 21 14 35t35 14q20 0 34 -14t14 -35q0 -20 -14 -34t-34 -14zM176 662q-20 0 -34 14t-14 34q0 21 14 35t34 14q21 0 35 -14t14 -35q0 -20 -14 -34t-35 -14z"/>
<glyph glyph-name="aring" horiz-adv-x="554" unicode="å" d="M231 44q68 0 122 52.5t54 138.5q-71 18 -145 18q-67 0 -108.5 -29.5t-41.5 -77.5q0 -47 32 -74.5t87 -27.5zM266 539q97 0 155 -56.5t58 -149.5v-333h-70l-1 112q-27 -57 -80 -89.5t-117 -32.5q-78 0 -126 42t-48 112q0 72 59.5 116.5t156.5 44.5q75 0 154 -19v38 q0 72 -42.5 114.5t-115.5 42.5q-88 0 -145 -59l-33 44q75 73 195 73zM277 757q-29 0 -47 -18.5t-18 -49.5t18 -49.5t47 -18.5t47 18.5t18 49.5t-18 49.5t-47 18.5zM277 584q-49 0 -79 29t-30 76t30 76t79 29t79 -29t30 -76t-30 -76t-79 -29z"/>
<glyph glyph-name="ae" horiz-adv-x="945" unicode="æ" d="M231 44q68 0 122 52.5t54 138.5q-71 18 -145 18q-67 0 -108.5 -29.5t-41.5 -77.5q0 -47 32 -74.5t87 -27.5zM653 481q-76 0 -122.5 -52t-52.5 -140h349q-5 89 -51.5 140.5t-122.5 51.5zM902 271q0 -22 -1 -33h-422q6 -88 52 -139t124 -51q104 0 171 90l55 -31 q-79 -117 -221 -117q-75 0 -132 36t-87 100q-27 -64 -87 -100t-134 -36q-83 0 -133 42t-50 112q0 72 59.5 116.5t156.5 44.5q75 0 154 -19v38q0 72 -42.5 114.5t-115.5 42.5q-88 0 -145 -59l-33 44q73 73 191 73q67 0 116.5 -31t73.5 -84q32 54 85 84.5t120 30.5 q110 0 177.5 -73.5t67.5 -194.5z"/>
<glyph glyph-name="ccedilla" horiz-adv-x="536" unicode="ç" d="M309 -68q47 0 75.5 -21.5t28.5 -56.5q0 -38 -32 -61t-85 -23q-65 0 -96 28l16 30q26 -23 75 -23q37 0 58 13t21 35t-20.5 34.5t-54.5 12.5q-25 0 -49 -8l-11 21l48 79q-108 10 -172 84t-64 189q0 123 75 198.5t197 75.5q98 0 171 -58l-41 -50q-55 45 -130 45 q-89 0 -142.5 -58t-53.5 -154q0 -95 54 -153.5t143 -58.5q88 0 144 57l42 -49q-68 -67 -183 -70l-39 -60q16 2 25 2z"/>
<glyph glyph-name="egrave" horiz-adv-x="591" unicode="è" d="M299 481q-76 0 -122.5 -51.5t-52.5 -140.5h349q-5 89 -51.5 140.5t-122.5 51.5zM548 271q0 -21 -1 -33h-422q6 -88 52 -139t124 -51q104 0 171 90l55 -31q-79 -117 -226 -117q-113 0 -183 75.5t-70 199.5q0 123 69 198.5t182 75.5q112 0 180.5 -73.5t68.5 -194.5z M279 619l-155 150h89l131 -150h-65z"/>
<glyph glyph-name="eacute" horiz-adv-x="591" unicode="é" d="M299 481q-76 0 -122.5 -51.5t-52.5 -140.5h349q-5 89 -51.5 140.5t-122.5 51.5zM548 271q0 -21 -1 -33h-422q6 -88 52 -139t124 -51q104 0 171 90l55 -31q-79 -117 -226 -117q-113 0 -183 75.5t-70 199.5q0 123 69 198.5t182 75.5q112 0 180.5 -73.5t68.5 -194.5z M317 619h-64l130 150h89z"/>
<glyph glyph-name="ecircumflex" horiz-adv-x="591" unicode="ê" d="M299 481q-76 0 -122.5 -51.5t-52.5 -140.5h349q-5 89 -51.5 140.5t-122.5 51.5zM548 271q0 -21 -1 -33h-422q6 -88 52 -139t124 -51q104 0 171 90l55 -31q-79 -117 -226 -117q-113 0 -183 75.5t-70 199.5q0 123 69 198.5t182 75.5q112 0 180.5 -73.5t68.5 -194.5z M202 619h-70l130 150h73l130 -150h-70l-96 109z"/>
<glyph glyph-name="edieresis" horiz-adv-x="591" unicode="ë" d="M299 481q-76 0 -122.5 -51.5t-52.5 -140.5h349q-5 89 -51.5 140.5t-122.5 51.5zM548 271q0 -21 -1 -33h-422q6 -88 52 -139t124 -51q104 0 171 90l55 -31q-79 -117 -226 -117q-113 0 -183 75.5t-70 199.5q0 123 69 198.5t182 75.5q112 0 180.5 -73.5t68.5 -194.5z M400 662q-21 0 -35 14t-14 34q0 21 14 35t35 14q20 0 34 -14t14 -35q0 -20 -14 -34t-34 -14zM196 662q-20 0 -34 14t-14 34q0 21 14 35t34 14q21 0 35 -14t14 -35q0 -20 -14 -34t-35 -14z"/>
<glyph glyph-name="igrave" horiz-adv-x="238" unicode="ì" d="M155 529v-529h-72v529h72zM-55 769h89l131 -150h-65z"/>
<glyph glyph-name="iacute" horiz-adv-x="238" unicode="í" d="M155 529v-529h-72v529h72zM74 619l130 150h89l-155 -150h-64z"/>
<glyph glyph-name="icircumflex" horiz-adv-x="238" unicode="î" d="M83 529h72v-529h-72v529zM285 619h-70l-96 109l-97 -109h-70l130 150h73z"/>
<glyph glyph-name="idieresis" horiz-adv-x="238" unicode="ï" d="M155 529v-529h-72v529h72zM221 662q-21 0 -35 14t-14 34q0 21 14 35t35 14q20 0 34 -14t14 -35q0 -20 -14 -34t-34 -14zM17 662q-20 0 -34 14t-14 34q0 21 14 35t34 14q21 0 35 -14t14 -35q0 -20 -14 -34t-35 -14z"/>
<glyph glyph-name="eth" horiz-adv-x="638" unicode="ð" d="M318 52q87 0 140.5 58.5t53.5 153.5q0 96 -53.5 154t-140.5 58q-88 0 -141.5 -58t-53.5 -154q0 -95 53.5 -153.5t141.5 -58.5zM358 706q229 -178 229 -415q0 -137 -74 -219t-195 -82q-122 0 -196 75.5t-74 199.5q0 120 71 194.5t182 74.5q98 0 161 -55q-56 104 -164 188 l-80 -53l-42 29l81 54q-36 25 -88 53l60 40q47 -26 87 -54l80 54l42 -31z"/>
<glyph glyph-name="ntilde" horiz-adv-x="636" unicode="ñ" d="M344 539q98 0 157.5 -56.5t59.5 -149.5v-333h-72v319q0 71 -46 114t-121 43q-76 0 -122 -43t-46 -114v-319h-72v529h70l1 -90q54 100 191 100zM241 699q-24 0 -39 -17t-15 -45h-45q0 53 28 85.5t71 32.5q36 0 85.5 -36t74.5 -36q24 0 39.5 16.5t15.5 45.5h44 q0 -54 -27.5 -86t-71.5 -32q-35 0 -85 36t-75 36z"/>
<glyph glyph-name="ograve" horiz-adv-x="634" unicode="ò" d="M318 52q87 0 140 58.5t53 153.5q0 96 -53 154t-140 58q-88 0 -141.5 -58t-53.5 -154q0 -95 53.5 -153.5t141.5 -58.5zM318 -10q-122 0 -196.5 75.5t-74.5 198.5q0 124 74.5 199.5t196.5 75.5q121 0 195 -75.5t74 -199.5q0 -123 -74 -198.5t-195 -75.5zM144 769h89 l131 -150h-65z"/>
<glyph glyph-name="oacute" horiz-adv-x="634" unicode="ó" d="M318 52q87 0 140 58.5t53 153.5q0 96 -53 154t-140 58q-88 0 -141.5 -58t-53.5 -154q0 -95 53.5 -153.5t141.5 -58.5zM318 -10q-122 0 -196.5 75.5t-74.5 198.5q0 124 74.5 199.5t196.5 75.5q121 0 195 -75.5t74 -199.5q0 -123 -74 -198.5t-195 -75.5zM272 619l130 150 h89l-155 -150h-64z"/>
<glyph glyph-name="ocircumflex" horiz-adv-x="634" unicode="ô" d="M318 52q87 0 140 58.5t53 153.5q0 96 -53 154t-140 58q-88 0 -141.5 -58t-53.5 -154q0 -95 53.5 -153.5t141.5 -58.5zM318 539q121 0 195 -75.5t74 -199.5q0 -123 -74 -198.5t-195 -75.5q-122 0 -196.5 75.5t-74.5 198.5q0 124 74.5 199.5t196.5 75.5zM221 619h-70 l130 150h73l130 -150h-70l-96 109z"/>
<glyph glyph-name="otilde" horiz-adv-x="634" unicode="õ" d="M318 52q87 0 140 58.5t53 153.5q0 96 -53 154t-140 58q-88 0 -141.5 -58t-53.5 -154q0 -95 53.5 -153.5t141.5 -58.5zM318 -10q-122 0 -196.5 75.5t-74.5 198.5q0 124 74.5 199.5t196.5 75.5q121 0 195 -75.5t74 -199.5q0 -123 -74 -198.5t-195 -75.5zM183 637h-45 q0 53 28 85.5t71 32.5q36 0 85.5 -36t74.5 -36q24 0 39.5 16.5t15.5 45.5h44q0 -54 -27.5 -86t-71.5 -32q-35 0 -85 36t-75 36q-24 0 -39 -17t-15 -45z"/>
<glyph glyph-name="odieresis" horiz-adv-x="634" unicode="ö" d="M318 52q87 0 140 58.5t53 153.5q0 96 -53 154t-140 58q-88 0 -141.5 -58t-53.5 -154q0 -95 53.5 -153.5t141.5 -58.5zM318 -10q-122 0 -196.5 75.5t-74.5 198.5q0 124 74.5 199.5t196.5 75.5q121 0 195 -75.5t74 -199.5q0 -123 -74 -198.5t-195 -75.5zM420 662 q-21 0 -35 14t-14 34q0 21 14 35t35 14q20 0 34 -14t14 -35q0 -20 -14 -34t-34 -14zM216 662q-20 0 -34 14t-14 34q0 21 14 35t34 14q21 0 35 -14t14 -35q0 -20 -14 -34t-35 -14z"/>
<glyph glyph-name="divide" horiz-adv-x="566" unicode="÷" d="M283 142q-20 0 -34 14t-14 34q0 21 14 34.5t34 13.5q21 0 35 -13.5t14 -34.5q0 -20 -14 -34t-35 -14zM498 377v-60h-430v60h430zM283 456q-20 0 -34 14t-14 34q0 21 14 34.5t34 13.5q21 0 35 -13.5t14 -34.5q0 -20 -14 -34t-35 -14z"/>
<glyph glyph-name="oslash" horiz-adv-x="637" unicode="ø" d="M319 52q87 0 140.5 58.5t53.5 153.5q0 80 -40 138l-280 -306q52 -44 126 -44zM124 264q0 -81 40 -137l280 306q-51 43 -125 43q-88 0 -141.5 -58t-53.5 -154zM521 455q67 -73 67 -191q0 -123 -74 -198.5t-195 -75.5q-101 0 -173 55l-50 -55l-33 26l53 57q-67 75 -67 191 q0 124 74.5 199.5t195.5 75.5q101 0 172 -55l50 55l33 -26z"/>
<glyph glyph-name="ugrave" horiz-adv-x="623" unicode="ù" d="M541 529v-529h-69l-2 88q-52 -98 -185 -98q-94 0 -152 56.5t-58 148.5v334h72v-320q0 -71 44 -114t117 -43t117 43t44 114v320h72zM289 619l-155 150h89l131 -150h-65z"/>
<glyph glyph-name="uacute" horiz-adv-x="623" unicode="ú" d="M541 529v-529h-69l-2 88q-52 -98 -185 -98q-94 0 -152 56.5t-58 148.5v334h72v-320q0 -71 44 -114t117 -43t117 43t44 114v320h72zM327 619h-64l130 150h89z"/>
<glyph glyph-name="ucircumflex" horiz-adv-x="623" unicode="û" d="M541 529v-529h-69l-2 88q-52 -98 -185 -98q-94 0 -152 56.5t-58 148.5v334h72v-320q0 -71 44 -114t117 -43t117 43t44 114v320h72zM211 619h-70l130 150h73l130 -150h-70l-96 109z"/>
<glyph glyph-name="udieresis" horiz-adv-x="623" unicode="ü" d="M541 529v-529h-69l-2 88q-52 -98 -185 -98q-94 0 -152 56.5t-58 148.5v334h72v-320q0 -71 44 -114t117 -43t117 43t44 114v320h72zM410 662q-21 0 -35 14t-14 34q0 21 14 35t35 14q20 0 34 -14t14 -35q0 -20 -14 -34t-34 -14zM206 662q-20 0 -34 14t-14 34q0 21 14 35 t34 14q21 0 35 -14t14 -35q0 -20 -14 -34t-35 -14z"/>
<glyph glyph-name="yacute" horiz-adv-x="568" unicode="ý" d="M275 -103q-28 -65 -59 -96t-86 -31q-38 0 -64 12l8 59q18 -9 45 -9q31 0 49 18t36 57l47 100l-237 522h79l196 -443l190 443h79zM241 619l130 150h89l-155 -150h-64z"/>
<glyph glyph-name="thorn" d="M348 52q88 0 141.5 58.5t53.5 154.5q0 95 -53.5 153t-141.5 58q-87 0 -140.5 -58t-53.5 -154q0 -95 53.5 -153.5t140.5 -58.5zM365 539q112 0 182.5 -75.5t70.5 -197.5q0 -124 -70.5 -200t-182.5 -76q-151 0 -211 124v-334h-72v1000h72v-365q60 124 211 124z" unicode="þ"/>
<glyph glyph-name="ydieresis" horiz-adv-x="568" unicode="ÿ" d="M275 -103q-28 -65 -59 -96t-86 -31q-38 0 -64 12l8 59q18 -9 45 -9q31 0 49 18t36 57l47 100l-237 522h79l196 -443l190 443h79zM389 662q-21 0 -35 14t-14 34q0 21 14 35t35 14q20 0 34 -14t14 -35q0 -20 -14 -34t-34 -14zM185 662q-20 0 -34 14t-14 34q0 21 14 35 t34 14q21 0 35 -14t14 -35q0 -20 -14 -34t-35 -14z"/>
<glyph glyph-name="Amacron" horiz-adv-x="726" unicode="Ā" d="M532 257l-168 391l-169 -391h337zM559 193h-391l-84 -193h-81l324 740h72l324 -740h-81zM519 858h-310v57h310v-57z"/>
<glyph glyph-name="amacron" horiz-adv-x="554" unicode="ā" d="M231 44q68 0 122 52.5t54 138.5q-71 18 -145 18q-67 0 -108.5 -29.5t-41.5 -77.5q0 -47 32 -74.5t87 -27.5zM266 539q97 0 155 -56.5t58 -149.5v-333h-70l-1 112q-27 -57 -80 -89.5t-117 -32.5q-78 0 -126 42t-48 112q0 72 59.5 116.5t156.5 44.5q75 0 154 -19v38 q0 72 -42.5 114.5t-115.5 42.5q-88 0 -145 -59l-33 44q75 73 195 73zM433 647h-310v57h310v-57z"/>
<glyph glyph-name="Abreve" horiz-adv-x="726" unicode="Ă" d="M532 257l-168 391l-169 -391h337zM559 193h-391l-84 -193h-81l324 740h72l324 -740h-81zM364 821q-73 0 -117 43.5t-44 115.5h59q0 -51 28 -82.5t74 -31.5t74 31.5t28 82.5h58q0 -72 -44 -115.5t-116 -43.5z"/>
<glyph glyph-name="abreve" horiz-adv-x="554" unicode="ă" d="M231 44q68 0 122 52.5t54 138.5q-71 18 -145 18q-67 0 -108.5 -29.5t-41.5 -77.5q0 -47 32 -74.5t87 -27.5zM266 539q97 0 155 -56.5t58 -149.5v-333h-70l-1 112q-27 -57 -80 -89.5t-117 -32.5q-78 0 -126 42t-48 112q0 72 59.5 116.5t156.5 44.5q75 0 154 -19v38 q0 72 -42.5 114.5t-115.5 42.5q-88 0 -145 -59l-33 44q75 73 195 73zM278 610q-73 0 -117 43.5t-44 115.5h59q0 -51 28 -82.5t74 -31.5t74 31.5t28 82.5h58q0 -72 -44 -115.5t-116 -43.5z"/>
<glyph glyph-name="Aogonek" horiz-adv-x="726" unicode="Ą" d="M532 257l-168 391l-169 -391h337zM599 -196q45 0 74 41l29 -22q-38 -53 -106 -53q-49 0 -77.5 28t-28.5 75q0 55 38.5 93.5t105.5 51.5l-75 175h-391l-84 -193h-81l324 740h72l324 -740h-24q-74 0 -120 -35t-46 -90q0 -33 18 -52t48 -19z"/>
<glyph glyph-name="aogonek" horiz-adv-x="554" unicode="ą" d="M231 44q68 0 122 52.5t54 138.5q-71 18 -145 18q-67 0 -108.5 -29.5t-41.5 -77.5q0 -47 32 -74.5t87 -27.5zM473 0q-74 0 -120 -35t-46 -90q0 -33 18 -52t48 -19q45 0 74 41l29 -22q-38 -53 -106 -53q-49 0 -77.5 28t-28.5 75q0 55 39 93.5t106 51.5l-1 94 q-27 -57 -80 -89.5t-117 -32.5q-78 0 -126 42t-48 112q0 72 59.5 116.5t156.5 44.5q75 0 154 -19v38q0 72 -42.5 114.5t-115.5 42.5q-88 0 -145 -59l-33 44q75 73 195 73q97 0 155 -56.5t58 -149.5v-333h-6z"/>
<glyph glyph-name="Cacute" horiz-adv-x="758" unicode="Ć" d="M657 581q-92 106 -228 106q-134 0 -215.5 -86.5t-81.5 -228.5q0 -143 81 -231t214 -88q158 0 247 129l52 -48q-50 -68 -127.5 -106t-172.5 -38q-168 0 -271 105t-103 277q0 170 103 274t271 104q169 0 279 -120zM371 830l130 150h89l-155 -150h-64z"/>
<glyph glyph-name="cacute" horiz-adv-x="536" unicode="ć" d="M449 431q-55 45 -130 45q-89 0 -142.5 -58t-53.5 -154q0 -95 54 -153.5t143 -58.5q88 0 144 57l42 -49q-73 -70 -191 -70q-120 0 -194 75.5t-74 199.5q0 123 75 198.5t197 75.5q98 0 171 -58zM263 619l130 150h89l-155 -150h-64z"/>
<glyph glyph-name="Cdotaccent" horiz-adv-x="758" unicode="Ċ" d="M657 581q-92 106 -228 106q-134 0 -215.5 -86.5t-81.5 -228.5q0 -143 81 -231t214 -88q158 0 247 129l52 -48q-50 -68 -127.5 -106t-172.5 -38q-168 0 -271 105t-103 277q0 170 103 274t271 104q169 0 279 -120zM416 873q-20 0 -34 14t-14 34q0 21 14 35t34 14 q21 0 35 -14t14 -35q0 -20 -14 -34t-35 -14z"/>
<glyph glyph-name="cdotaccent" horiz-adv-x="536" unicode="ċ" d="M449 431q-55 45 -130 45q-89 0 -142.5 -58t-53.5 -154q0 -95 54 -153.5t143 -58.5q88 0 144 57l42 -49q-73 -70 -191 -70q-120 0 -194 75.5t-74 199.5q0 123 75 198.5t197 75.5q98 0 171 -58zM308 662q-20 0 -34 14t-14 34q0 21 14 35t34 14q21 0 35 -14t14 -35 q0 -20 -14 -34t-35 -14z"/>
<glyph glyph-name="Ccaron" horiz-adv-x="758" unicode="Č" d="M726 134q-50 -68 -127.5 -106t-172.5 -38q-168 0 -271 105t-103 277q0 170 103 274t271 104q169 0 279 -120l-48 -49q-92 106 -228 106q-134 0 -215.5 -86.5t-81.5 -228.5q0 -143 81 -231t214 -88q158 0 247 129zM380 830l-130 150h70l97 -109l96 109h70l-130 -150h-73z "/>
<glyph glyph-name="ccaron" horiz-adv-x="536" unicode="č" d="M506 60q-73 -70 -191 -70q-120 0 -194 75.5t-74 199.5q0 123 75 198.5t197 75.5q98 0 171 -58l-41 -50q-55 45 -130 45q-89 0 -142.5 -58t-53.5 -154q0 -95 54 -153.5t143 -58.5q88 0 144 57zM272 619l-130 150h70l97 -109l96 109h70l-130 -150h-73z"/>
<glyph glyph-name="Dcaron" horiz-adv-x="764" unicode="Ď" d="M346 63q129 0 207.5 84t78.5 221q0 139 -78.5 224t-207.5 85h-169v-614h169zM352 740q162 0 260.5 -102t98.5 -270q0 -165 -98.5 -266.5t-260.5 -101.5h-251v740h251zM283 830l-130 150h70l97 -109l96 109h70l-130 -150h-73z"/>
<glyph glyph-name="dcaron" horiz-adv-x="676" unicode="ď" d="M318 52q87 0 140.5 58.5t53.5 153.5t-53.5 153.5t-140.5 58.5q-88 0 -141.5 -58.5t-53.5 -154.5q0 -95 53.5 -153t141.5 -58zM758 780l-70 -187h-56l59 187h67zM512 780h72v-780h-70l-2 115q-59 -125 -211 -125q-112 0 -183 75.5t-71 197.5q0 123 71 199.5t183 76.5 q152 0 211 -125v366z"/>
<glyph glyph-name="Dcroat" horiz-adv-x="764" unicode="Đ" d="M346 63q129 0 207.5 84t78.5 221q0 139 -78.5 224t-207.5 85h-169v-278h201v-54h-201v-282h169zM352 740q162 0 260.5 -102t98.5 -270q0 -165 -98.5 -266.5t-260.5 -101.5h-251v345h-85v54h85v341h251z"/>
<glyph glyph-name="dcroat" d="M318 52q87 0 140.5 58.5t53.5 153.5t-53.5 153.5t-140.5 58.5q-88 0 -141.5 -58.5t-53.5 -154.5q0 -95 53.5 -153t141.5 -58zM669 628h-85v-628h-70l-2 115q-59 -125 -211 -125q-112 0 -183 75.5t-71 197.5q0 123 71 199.5t183 76.5q152 0 211 -125v214h-205v54h205v98 h72v-98h85v-54z" unicode="đ"/>
<glyph glyph-name="Emacron" horiz-adv-x="625" unicode="Ē" d="M566 63v-63h-465v740h456v-63h-380v-268h355v-63h-355v-283h389zM484 858h-310v57h310v-57z"/>
<glyph glyph-name="emacron" horiz-adv-x="591" unicode="ē" d="M299 481q-76 0 -122.5 -51.5t-52.5 -140.5h349q-5 89 -51.5 140.5t-122.5 51.5zM548 271q0 -21 -1 -33h-422q6 -88 52 -139t124 -51q104 0 171 90l55 -31q-79 -117 -226 -117q-113 0 -183 75.5t-70 199.5q0 123 69 198.5t182 75.5q112 0 180.5 -73.5t68.5 -194.5z M454 647h-310v57h310v-57z"/>
<glyph glyph-name="Edotaccent" horiz-adv-x="625" unicode="Ė" d="M566 63v-63h-465v740h456v-63h-380v-268h355v-63h-355v-283h389zM329 873q-20 0 -34 14t-14 34q0 21 14 35t34 14q21 0 35 -14t14 -35q0 -20 -14 -34t-35 -14z"/>
<glyph glyph-name="edotaccent" horiz-adv-x="591" unicode="ė" d="M299 481q-76 0 -122.5 -51.5t-52.5 -140.5h349q-5 89 -51.5 140.5t-122.5 51.5zM548 271q0 -21 -1 -33h-422q6 -88 52 -139t124 -51q104 0 171 90l55 -31q-79 -117 -226 -117q-113 0 -183 75.5t-70 199.5q0 123 69 198.5t182 75.5q112 0 180.5 -73.5t68.5 -194.5z M298 662q-20 0 -34 14t-14 34q0 21 14 35t34 14q21 0 35 -14t14 -35q0 -20 -14 -34t-35 -14z"/>
<glyph glyph-name="Eogonek" horiz-adv-x="625" unicode="Ę" d="M570 -177q-38 -53 -106 -53q-49 0 -77.5 28t-28.5 75q0 85 87 127h-344v740h456v-63h-380v-268h355v-63h-355v-283h389v-63q-74 0 -119.5 -35t-45.5 -90q0 -33 18 -52t48 -19q45 0 74 41z"/>
<glyph glyph-name="eogonek" horiz-adv-x="591" unicode="ę" d="M299 481q-76 0 -122.5 -51.5t-52.5 -140.5h349q-5 89 -51.5 140.5t-122.5 51.5zM548 271q0 -21 -1 -33h-422q6 -88 52 -139t124 -51q104 0 171 90l55 -31q-30 -44 -78 -76q-128 -85 -128 -160q0 -31 19 -49t50 -18q47 0 76 41l30 -22q-40 -53 -108 -53q-50 0 -79.5 27 t-29.5 71q0 66 74 126q-23 -4 -52 -4q-113 0 -183 75.5t-70 199.5q0 123 69 198.5t182 75.5q112 0 180.5 -73.5t68.5 -194.5z"/>
<glyph glyph-name="Ecaron" horiz-adv-x="625" unicode="Ě" d="M566 63v-63h-465v740h456v-63h-380v-268h355v-63h-355v-283h389zM292 830l-130 150h70l97 -109l96 109h70l-130 -150h-73z"/>
<glyph glyph-name="ecaron" horiz-adv-x="591" unicode="ě" d="M299 481q-76 0 -122.5 -51.5t-52.5 -140.5h349q-5 89 -51.5 140.5t-122.5 51.5zM548 271q0 -21 -1 -33h-422q6 -88 52 -139t124 -51q104 0 171 90l55 -31q-79 -117 -226 -117q-113 0 -183 75.5t-70 199.5q0 123 69 198.5t182 75.5q112 0 180.5 -73.5t68.5 -194.5z M262 619l-130 150h70l97 -109l96 109h70l-130 -150h-73z"/>
<glyph glyph-name="Gbreve" horiz-adv-x="798" unicode="Ğ" d="M765 393v-23q-1 -174 -95 -277t-254 -103q-163 0 -263 104.5t-100 275.5t99.5 275.5t263.5 104.5q146 0 247 -76l-50 -49q-76 62 -197 62q-127 0 -205 -87t-78 -230t78 -230t206 -87q118 0 190 75.5t78 200.5h-235v64h315zM416 821q-73 0 -117 43.5t-44 115.5h59 q0 -51 28 -82.5t74 -31.5t74 31.5t28 82.5h58q0 -72 -44 -115.5t-116 -43.5z"/>
<glyph glyph-name="gbreve" d="M319 52q87 0 140.5 58.5t53.5 153.5q0 96 -53.5 154t-140.5 58q-88 0 -141.5 -58t-53.5 -153q0 -96 53.5 -154.5t141.5 -58.5zM585 529v-491q0 -121 -79.5 -194.5t-210.5 -73.5q-143 0 -233 69l16 58q90 -65 214 -65q100 0 160.5 57.5t60.5 152.5v72q-60 -124 -211 -124 q-112 0 -183 76t-71 200q0 122 71 197.5t183 75.5q152 0 211 -125l2 115h70zM329 610q-73 0 -117 43.5t-44 115.5h59q0 -51 28 -82.5t74 -31.5t74 31.5t28 82.5h58q0 -72 -44 -115.5t-116 -43.5z" unicode="ğ"/>
<glyph glyph-name="Gdotaccent" horiz-adv-x="798" unicode="Ġ" d="M765 393v-23q-1 -174 -95 -277t-254 -103q-163 0 -263 104.5t-100 275.5t99.5 275.5t263.5 104.5q146 0 247 -76l-50 -49q-76 62 -197 62q-127 0 -205 -87t-78 -230t78 -230t206 -87q118 0 190 75.5t78 200.5h-235v64h315zM415 873q-20 0 -34 14t-14 34q0 21 14 35t34 14 q21 0 35 -14t14 -35q0 -20 -14 -34t-35 -14z"/>
<glyph glyph-name="gdotaccent" d="M319 52q87 0 140.5 58.5t53.5 153.5q0 96 -53.5 154t-140.5 58q-88 0 -141.5 -58t-53.5 -153q0 -96 53.5 -154.5t141.5 -58.5zM585 529v-491q0 -121 -79.5 -194.5t-210.5 -73.5q-143 0 -233 69l16 58q90 -65 214 -65q100 0 160.5 57.5t60.5 152.5v72q-60 -124 -211 -124 q-112 0 -183 76t-71 200q0 122 71 197.5t183 75.5q152 0 211 -125l2 115h70zM328 662q-20 0 -34 14t-14 34q0 21 14 35t34 14q21 0 35 -14t14 -35q0 -20 -14 -34t-35 -14z" unicode="ġ"/>
<glyph glyph-name="Gcommaaccent" horiz-adv-x="798" unicode="Ģ" d="M382 -52h67l-64 -168h-56zM765 393v-23q-1 -174 -95 -277t-254 -103q-163 0 -263 104.5t-100 275.5t99.5 275.5t263.5 104.5q146 0 247 -76l-50 -49q-76 62 -197 62q-127 0 -205 -87t-78 -230t78 -230t206 -87q118 0 190 75.5t78 200.5h-235v64h315z"/>
<glyph glyph-name="gcommaaccent" d="M319 52q87 0 140.5 58.5t53.5 153.5q0 96 -53.5 154t-140.5 58q-88 0 -141.5 -58t-53.5 -153q0 -96 53.5 -154.5t141.5 -58.5zM585 529v-491q0 -121 -79.5 -194.5t-210.5 -73.5q-143 0 -233 69l16 58q90 -65 214 -65q100 0 160.5 57.5t60.5 152.5v72q-60 -124 -211 -124 q-112 0 -183 76t-71 200q0 122 71 197.5t183 75.5q152 0 211 -125l2 115h70zM349 593h-67l70 187h56z" unicode="ģ"/>
<glyph glyph-name="Hbar" horiz-adv-x="817" unicode="Ħ" d="M640 555h-463v-147h463v147zM798 555h-82v-555h-76v344h-463v-344h-76v555h-83v54h83v131h76v-131h463v131h76v-131h82v-54z"/>
<glyph glyph-name="hbar" horiz-adv-x="636" unicode="ħ" d="M344 539q98 0 157.5 -56.5t59.5 -149.5v-333h-72v319q0 71 -46 114t-121 43q-76 0 -122 -43t-46 -114v-319h-72v628h-85v54h85v98h72v-98h205v-54h-205v-188q54 99 190 99z"/>
<glyph glyph-name="Imacron" horiz-adv-x="278" unicode="Ī" d="M177 0h-76v740h76v-740zM294 915v-57h-310v57h310z"/>
<glyph glyph-name="imacron" horiz-adv-x="238" unicode="ī" d="M155 529v-529h-72v529h72zM274 704v-57h-310v57h310z"/>
<glyph glyph-name="Iogonek" horiz-adv-x="278" unicode="Į" d="M221 -177q-40 -53 -106 -53q-49 0 -77.5 28t-28.5 75q0 48 24.5 84t67.5 53v730h76v-740q-56 0 -91 -35t-35 -90q0 -33 18 -52t48 -19q46 0 75 41z"/>
<glyph glyph-name="iogonek" horiz-adv-x="241" unicode="į" d="M202 -177q-40 -53 -107 -53q-48 0 -76.5 28t-28.5 75q0 50 25.5 86t70.5 53v517h72v-529q-56 0 -91 -35t-35 -90q0 -33 18 -52t48 -19q46 0 75 41zM122 662q-20 0 -34 14t-14 34q0 21 14 35t34 14q21 0 34.5 -14t13.5 -35q0 -20 -13.5 -34t-34.5 -14z"/>
<glyph glyph-name="Idotaccent" horiz-adv-x="278" unicode="İ" d="M177 0h-76v740h76v-740zM139 873q-20 0 -34 14t-14 34q0 21 14 35t34 14q21 0 35 -14t14 -35q0 -20 -14 -34t-35 -14z"/>
<glyph glyph-name="dotlessi" horiz-adv-x="238" unicode="ı" d="M155 529v-529h-72v529h72z"/>
<glyph glyph-name="Kcommaaccent" horiz-adv-x="678" unicode="Ķ" d="M334 -52h67l-64 -168h-56zM672 0h-93l-266 347h-136v-347h-76v740h76v-329h135l257 329h93l-284 -361z"/>
<glyph glyph-name="kcommaaccent" horiz-adv-x="570" unicode="ķ" d="M266 -52h67l-64 -168h-56zM567 0h-92l-214 248h-107v-248h-72v780h72v-472h108l202 221h91l-234 -251z"/>
<glyph glyph-name="Lacute" horiz-adv-x="541" unicode="Ĺ" d="M527 63v-63h-426v740h76v-677h350zM158 830h-64l130 150h89z"/>
<glyph glyph-name="lacute" horiz-adv-x="241" unicode="ĺ" d="M84 780h72v-780h-72v780zM75 870l130 150h89l-155 -150h-64z"/>
<glyph glyph-name="Lcommaaccent" horiz-adv-x="541" unicode="Ļ" d="M263 -52h67l-64 -168h-56zM527 63v-63h-426v740h76v-677h350z"/>
<glyph glyph-name="lcommaaccent" horiz-adv-x="241" unicode="ļ" d="M160 -52l-64 -168h-56l53 168h67zM84 780h72v-780h-72v780z"/>
<glyph glyph-name="Lcaron" horiz-adv-x="531" unicode="Ľ" d="M407 541h-65l62 199h76zM527 63v-63h-426v740h76v-677h350z"/>
<glyph glyph-name="lcaron" horiz-adv-x="249" unicode="ľ" d="M331 780l-70 -187h-57l59 187h68zM84 780h72v-780h-72v780z"/>
<glyph glyph-name="Lslash" horiz-adv-x="541" unicode="Ł" d="M527 63v-63h-426v338l-75 -53v58l75 53v344h76v-299l109 76v-59l-109 -76v-319h350z"/>
<glyph glyph-name="lslash" horiz-adv-x="241" unicode="ł" d="M250 458l-94 -65v-393h-72v352l-94 -67v58l94 67v370h72v-329l94 66v-59z"/>
<glyph glyph-name="Nacute" horiz-adv-x="840" unicode="Ń" d="M740 740v-740h-50l-514 608l1 -608h-76v740h49l514 -608l-1 608h77zM374 830l130 150h89l-155 -150h-64z"/>
<glyph glyph-name="nacute" horiz-adv-x="636" unicode="ń" d="M344 539q98 0 157.5 -56.5t59.5 -149.5v-333h-72v319q0 71 -46 114t-121 43q-76 0 -122 -43t-46 -114v-319h-72v529h70l1 -90q54 100 191 100zM341 619h-64l130 150h89z"/>
<glyph glyph-name="Ncommaaccent" horiz-adv-x="840" unicode="Ņ" d="M460 -52l-64 -168h-56l53 168h67zM740 740v-740h-50l-514 608l1 -608h-76v740h49l514 -608l-1 608h77z"/>
<glyph glyph-name="ncommaaccent" horiz-adv-x="636" unicode="ņ" d="M294 -52h67l-64 -168h-56zM344 539q98 0 157.5 -56.5t59.5 -149.5v-333h-72v319q0 71 -46 114t-121 43q-76 0 -122 -43t-46 -114v-319h-72v529h70l1 -90q54 100 191 100z"/>
<glyph glyph-name="Ncaron" horiz-adv-x="840" unicode="Ň" d="M740 740v-740h-50l-514 608l1 -608h-76v740h49l514 -608l-1 608h77zM383 830l-130 150h70l97 -109l96 109h70l-130 -150h-73z"/>
<glyph glyph-name="ncaron" horiz-adv-x="636" unicode="ň" d="M344 539q98 0 157.5 -56.5t59.5 -149.5v-333h-72v319q0 71 -46 114t-121 43q-76 0 -122 -43t-46 -114v-319h-72v529h70l1 -90q54 100 191 100zM285 619l-130 150h70l97 -109l96 109h70l-130 -150h-73z"/>
<glyph glyph-name="Eng" horiz-adv-x="840" unicode="Ŋ" d="M740 740v-816q0 -70 -46.5 -112t-123.5 -42q-88 0 -135 53l21 51q41 -41 101 -41q49 0 77.5 29t28.5 77v93l-487 576l1 -608h-76v740h49l514 -608l-1 608h77z"/>
<glyph glyph-name="eng" horiz-adv-x="636" unicode="ŋ" d="M344 539q98 0 157.5 -56.5t59.5 -149.5v-409q0 -69 -41 -111.5t-107 -42.5q-55 0 -91 16l7 57q30 -11 65 -11q43 0 69 29.5t26 78.5v379q0 71 -46 114t-121 43q-76 0 -122 -43t-46 -114v-319h-72v529h70l1 -90q54 100 191 100z"/>
<glyph glyph-name="Omacron" horiz-adv-x="844" unicode="Ō" d="M423 53q130 0 210 87.5t80 229.5t-80 229.5t-210 87.5q-131 0 -211 -87t-80 -230t80 -230t211 -87zM423 -10q-167 0 -269 104.5t-102 275.5t102 275.5t269 104.5q166 0 267.5 -104.5t101.5 -275.5t-101.5 -275.5t-267.5 -104.5zM578 915v-57h-310v57h310z"/>
<glyph glyph-name="omacron" horiz-adv-x="634" unicode="ō" d="M318 52q87 0 140 58.5t53 153.5q0 96 -53 154t-140 58q-88 0 -141.5 -58t-53.5 -154q0 -95 53.5 -153.5t141.5 -58.5zM318 -10q-122 0 -196.5 75.5t-74.5 198.5q0 124 74.5 199.5t196.5 75.5q121 0 195 -75.5t74 -199.5q0 -123 -74 -198.5t-195 -75.5zM473 704v-57h-310 v57h310z"/>
<glyph glyph-name="Ohungarumlaut" horiz-adv-x="844" unicode="Ő" d="M423 53q130 0 210 87.5t80 229.5t-80 229.5t-210 87.5q-131 0 -211 -87t-80 -230t80 -230t211 -87zM423 -10q-167 0 -269 104.5t-102 275.5t102 275.5t269 104.5q166 0 267.5 -104.5t101.5 -275.5t-101.5 -275.5t-267.5 -104.5zM458 830l106 150h89l-131 -150h-64z M309 830l106 150h89l-131 -150h-64z"/>
<glyph glyph-name="ohungarumlaut" horiz-adv-x="634" unicode="ő" d="M318 52q87 0 140 58.5t53 153.5q0 96 -53 154t-140 58q-88 0 -141.5 -58t-53.5 -154q0 -95 53.5 -153.5t141.5 -58.5zM318 -10q-122 0 -196.5 75.5t-74.5 198.5q0 124 74.5 199.5t196.5 75.5q121 0 195 -75.5t74 -199.5q0 -123 -74 -198.5t-195 -75.5zM353 619l106 150 h89l-131 -150h-64zM204 619l106 150h89l-131 -150h-64z"/>
<glyph glyph-name="OE" horiz-adv-x="1240" unicode="Œ" d="M423 53q130 0 210 87t80 230t-80 230t-210 87q-131 0 -211 -87t-80 -230t80 -230t211 -87zM1181 63v-63h-465v143q-47 -73 -123.5 -113t-173.5 -40q-165 0 -265.5 104.5t-100.5 275.5t100.5 275.5t265.5 104.5q97 0 173.5 -40t123.5 -113v143h456v-63h-380v-268h355v-63 h-355v-283h389z"/>
<glyph glyph-name="oe" horiz-adv-x="1055" unicode="œ" d="M318 52q87 0 140.5 58.5t53.5 153.5q0 96 -53.5 154t-140.5 58q-88 0 -141.5 -58t-53.5 -154q0 -95 53.5 -153.5t141.5 -58.5zM762 481q-76 0 -122.5 -52t-51.5 -140h349q-5 89 -52 140.5t-123 51.5zM1012 271q0 -9 -2 -33h-422q7 -88 53 -139t123 -51q103 0 172 90 l54 -31q-77 -117 -221 -117q-77 0 -135 40.5t-85 111.5q-30 -71 -91.5 -111.5t-143.5 -40.5q-120 0 -193 75.5t-73 198.5q0 124 73 199.5t193 75.5q82 0 143.5 -40t91.5 -111q27 71 84 111t133 40q110 0 178 -73.5t68 -194.5z"/>
<glyph glyph-name="Racute" horiz-adv-x="698" unicode="Ŕ" d="M364 365q80 0 129.5 43t49.5 113q0 71 -49 113.5t-130 42.5h-187v-312h187zM584 0l-197 302h-210v-302h-76v740h273q112 0 180 -60t68 -159q0 -76 -42 -130t-116 -76l210 -315h-90zM348 830h-64l130 150h89z"/>
<glyph glyph-name="racute" horiz-adv-x="370" unicode="ŕ" d="M153 439q55 100 210 100l-6 -66q-96 0 -149.5 -44.5t-53.5 -121.5v-307h-72v529h70zM227 619h-64l130 150h89z"/>
<glyph glyph-name="Rcommaaccent" horiz-adv-x="698" unicode="Ŗ" d="M329 -52h67l-64 -168h-56zM364 365q80 0 129.5 43t49.5 113q0 71 -49 113.5t-130 42.5h-187v-312h187zM674 0h-90l-197 302h-210v-302h-76v740h273q112 0 180 -60t68 -159q0 -76 -42 -130t-116 -76z"/>
<glyph glyph-name="rcommaaccent" horiz-adv-x="370" unicode="ŗ" d="M109 -52h67l-64 -168h-56zM153 439q55 100 210 100l-6 -66q-96 0 -149.5 -44.5t-53.5 -121.5v-307h-72v529h70z"/>
<glyph glyph-name="Rcaron" horiz-adv-x="698" unicode="Ř" d="M364 365q80 0 129.5 43t49.5 113q0 71 -49 113.5t-130 42.5h-187v-312h187zM584 0l-197 302h-210v-302h-76v740h273q112 0 180 -60t68 -159q0 -76 -42 -130t-116 -76l210 -315h-90zM292 830l-130 150h70l97 -109l96 109h70l-130 -150h-73z"/>
<glyph glyph-name="rcaron" horiz-adv-x="370" unicode="ř" d="M153 439q55 100 210 100l-6 -66q-96 0 -149.5 -44.5t-53.5 -121.5v-307h-72v529h70zM172 619l-130 150h70l97 -109l96 109h70l-130 -150h-73z"/>
<glyph glyph-name="Sacute" horiz-adv-x="580" unicode="Ś" d="M450 185q0 58 -42.5 92t-127.5 62l-45 15q-84 27 -130.5 70t-46.5 123q0 91 64 147t168 56q128 0 211 -85l-35 -53q-73 75 -176 75q-69 0 -111 -35.5t-42 -93.5q0 -56 34.5 -84t101.5 -51l45 -15q44 -15 75 -30t65.5 -40t52.5 -61.5t18 -83.5q0 -91 -67.5 -147 t-177.5 -56q-145 0 -221 86l30 54q74 -77 186 -77q79 0 125 36t46 96zM245 830l130 150h89l-155 -150h-64z"/>
<glyph glyph-name="sacute" horiz-adv-x="450" unicode="ś" d="M329 137q0 63 -98 95l-51 17q-64 21 -96.5 51t-32.5 85q0 70 47.5 112t124.5 42q98 0 166 -48l-31 -49q-56 39 -130 39q-46 0 -74.5 -23t-28.5 -62q0 -34 22.5 -53t65.5 -34l51 -17q64 -21 101.5 -55t37.5 -94q0 -69 -49.5 -111t-133.5 -42q-110 0 -168 56l30 45 q54 -43 138 -43q49 0 79 24.5t30 64.5zM178 619l130 150h89l-155 -150h-64z"/>
<glyph glyph-name="Scedilla" horiz-adv-x="580" unicode="Ş" d="M529 193q0 -88 -62.5 -143t-166.5 -60l-39 -60q16 2 25 2q47 0 75.5 -21.5t28.5 -56.5q0 -38 -32 -61t-85 -23q-65 0 -96 28l16 30q26 -23 75 -23q37 0 58 13t21 35t-20.5 34.5t-54.5 12.5q-25 0 -49 -8l-11 21l47 78q-128 8 -196 85l30 54q74 -77 186 -77q79 0 125 36 t46 96q0 58 -42.5 92t-127.5 62l-45 15q-84 27 -130.5 70t-46.5 123q0 91 64 147t168 56q128 0 211 -85l-35 -53q-73 75 -176 75q-69 0 -111 -35.5t-42 -93.5q0 -56 34.5 -84t101.5 -51l45 -15q44 -15 75 -30t65.5 -40t52.5 -61.5t18 -83.5z"/>
<glyph glyph-name="scedilla" horiz-adv-x="450" unicode="ş" d="M403 143q0 -65 -45.5 -107t-121.5 -46l-39 -60q16 2 25 2q47 0 75.5 -21.5t28.5 -56.5q0 -38 -32 -61t-85 -23q-65 0 -96 28l16 30q26 -23 75 -23q37 0 58 13t21 35t-20.5 34.5t-54.5 12.5q-25 0 -49 -8l-11 21l47 78q-95 7 -143 55l30 45q54 -43 138 -43q49 0 79 24.5 t30 64.5q0 63 -98 95l-51 17q-64 21 -96.5 51t-32.5 85q0 70 47.5 112t124.5 42q98 0 166 -48l-31 -49q-56 39 -130 39q-46 0 -74.5 -23t-28.5 -62q0 -34 22.5 -53t65.5 -34l51 -17q64 -21 101.5 -55t37.5 -94z"/>
<glyph glyph-name="Scaron" horiz-adv-x="580" unicode="Š" d="M318 408q44 -15 75 -30t65.5 -40t52.5 -61.5t18 -83.5q0 -91 -67.5 -147t-177.5 -56q-145 0 -221 86l30 54q74 -77 186 -77q79 0 125 36t46 96q0 58 -42.5 92t-127.5 62l-45 15q-84 27 -130.5 70t-46.5 123q0 91 64 147t168 56q128 0 211 -85l-35 -53q-73 75 -176 75 q-69 0 -111 -35.5t-42 -93.5q0 -56 34.5 -84t101.5 -51zM253 830l-130 150h70l97 -109l96 109h70l-130 -150h-73z"/>
<glyph glyph-name="scaron" horiz-adv-x="450" unicode="š" d="M264 292q64 -21 101.5 -55t37.5 -94q0 -69 -49.5 -111t-133.5 -42q-110 0 -168 56l30 45q54 -43 138 -43q49 0 79 24.5t30 64.5q0 63 -98 95l-51 17q-64 21 -96.5 51t-32.5 85q0 70 47.5 112t124.5 42q98 0 166 -48l-31 -49q-56 39 -130 39q-46 0 -74.5 -23t-28.5 -62 q0 -34 22.5 -53t65.5 -34zM186 619l-130 150h70l97 -109l96 109h70l-130 -150h-73z"/>
<glyph glyph-name="uni0162" horiz-adv-x="579" unicode="Ţ" d="M311 0l-45 -70q16 2 25 2q47 0 75.5 -21.5t28.5 -56.5q0 -38 -32 -61t-85 -23q-65 0 -96 28l16 30q26 -23 75 -23q37 0 58 13t21 35t-20.5 34.5t-54.5 12.5q-25 0 -49 -8l-11 21l53 87h-18v677h-239v63h553v-63h-238v-677h-17z"/>
<glyph glyph-name="uni0163" horiz-adv-x="392" unicode="ţ" d="M252 -10q-13 0 -20 1l-39 -61q16 2 25 2q47 0 75.5 -21.5t28.5 -56.5q0 -38 -32 -61t-85 -23q-65 0 -96 28l16 30q26 -23 75 -23q37 0 58 13t21 35t-20.5 34.5t-54.5 12.5q-25 0 -49 -8l-11 21l53 86q-41 15 -64.5 51t-23.5 86v333h-92v60h92v155h72v-155h191v-60h-191 v-319q0 -43 26 -70.5t67 -27.5q56 0 106 19v-59q-51 -22 -128 -22z"/>
<glyph glyph-name="Tcaron" horiz-adv-x="579" unicode="Ť" d="M566 677h-238v-677h-76v677h-239v63h553v-63zM252 830l-130 150h70l97 -109l96 109h70l-130 -150h-73z"/>
<glyph glyph-name="tcaron" horiz-adv-x="392" unicode="ť" d="M181 150q0 -43 26 -70.5t67 -27.5q56 0 106 19v-59q-51 -22 -128 -22q-64 0 -103.5 40.5t-39.5 105.5v333h-92v60h92v155h72v-155h191v-60h-191v-319zM318 593h-57l59 187h68z"/>
<glyph glyph-name="Tbar" horiz-adv-x="579" unicode="Ŧ" d="M328 677v-289h146v-54h-146v-334h-76v334h-140v54h140v289h-239v63h553v-63h-238z"/>
<glyph glyph-name="tbar" horiz-adv-x="400" unicode="ŧ" d="M281 52q55 0 106 19v-59q-53 -22 -128 -22q-64 0 -103.5 40.5t-39.5 105.5v116h-90v53h90v164h-93v60h93v155h72v-155h191v-60h-191v-164h182v-53h-182v-102q0 -44 25.5 -71t67.5 -27z"/>
<glyph glyph-name="Umacron" horiz-adv-x="792" unicode="Ū" d="M700 740v-476q0 -124 -83.5 -199t-220.5 -75t-220.5 75t-83.5 199v476h76v-473q0 -96 62.5 -155t165.5 -59t165.5 59t62.5 155v473h76zM551 915v-57h-310v57h310z"/>
<glyph glyph-name="umacron" horiz-adv-x="623" unicode="ū" d="M541 529v-529h-69l-2 88q-52 -98 -185 -98q-94 0 -152 56.5t-58 148.5v334h72v-320q0 -71 44 -114t117 -43t117 43t44 114v320h72zM463 647h-310v57h310v-57z"/>
<glyph glyph-name="Uring" horiz-adv-x="792" unicode="Ů" d="M700 740v-476q0 -124 -83.5 -199t-220.5 -75t-220.5 75t-83.5 199v476h76v-473q0 -96 62.5 -155t165.5 -59t165.5 59t62.5 155v473h76zM396 832q29 0 47 18.5t18 49.5t-18 49.5t-47 18.5t-47 -18.5t-18 -49.5t18 -49.5t47 -18.5zM396 795q-49 0 -79 29t-30 76t30 76 t79 29t79 -29t30 -76t-30 -76t-79 -29z"/>
<glyph glyph-name="uring" horiz-adv-x="623" unicode="ů" d="M541 529v-529h-69l-2 88q-52 -98 -185 -98q-94 0 -152 56.5t-58 148.5v334h72v-320q0 -71 44 -114t117 -43t117 43t44 114v320h72zM308 757q-29 0 -47 -18.5t-18 -49.5t18 -49.5t47 -18.5t47 18.5t18 49.5t-18 49.5t-47 18.5zM308 584q-49 0 -79 29t-30 76t30 76t79 29 t79 -29t30 -76t-30 -76t-79 -29z"/>
<glyph glyph-name="Uhungarumlaut" horiz-adv-x="792" unicode="Ű" d="M700 740v-476q0 -124 -83.5 -199t-220.5 -75t-220.5 75t-83.5 199v476h76v-473q0 -96 62.5 -155t165.5 -59t165.5 59t62.5 155v473h76zM432 830l106 150h89l-131 -150h-64zM283 830l106 150h89l-131 -150h-64z"/>
<glyph glyph-name="uhungarumlaut" horiz-adv-x="623" unicode="ű" d="M541 529v-529h-69l-2 88q-52 -98 -185 -98q-94 0 -152 56.5t-58 148.5v334h72v-320q0 -71 44 -114t117 -43t117 43t44 114v320h72zM344 619l106 150h89l-131 -150h-64zM259 619h-64l106 150h89z"/>
<glyph glyph-name="Uogonek" horiz-adv-x="792" unicode="Ų" d="M700 740v-476q0 -152 -123 -228q-135 -82 -135 -165q0 -31 19.5 -49t50.5 -18q47 0 76 41l29 -22q-40 -53 -107 -53q-50 0 -80 27t-30 71q0 69 79 130q-42 -8 -83 -8q-137 0 -220.5 75t-83.5 199v476h76v-473q0 -96 62.5 -155t165.5 -59t165.5 59t62.5 155v473h76z"/>
<glyph glyph-name="uogonek" horiz-adv-x="623" unicode="ų" d="M535 0q-74 0 -120 -35t-46 -90q0 -33 18 -52t48 -19q45 0 74 41l29 -22q-38 -53 -106 -53q-49 0 -77.5 28t-28.5 75q0 55 39 93.5t106 51.5l-1 70q-52 -98 -185 -98q-94 0 -152 56.5t-58 148.5v334h72v-320q0 -71 44 -114t117 -43t117 43t44 114v320h72v-529h-6z"/>
<glyph glyph-name="Wcircumflex" horiz-adv-x="1144" unicode="Ŵ" d="M1135 740l-274 -740h-72l-217 634l-217 -634h-71l-275 740h81l233 -638l213 638h73l213 -638l232 638h81zM476 830h-70l130 150h73l130 -150h-70l-96 109z"/>
<glyph glyph-name="wcircumflex" horiz-adv-x="953" unicode="ŵ" d="M939 529l-216 -529h-73l-174 450l-173 -450h-73l-216 529h79l177 -446l175 446h63l174 -446l177 446h80zM379 619h-70l130 150h73l130 -150h-70l-96 109z"/>
<glyph glyph-name="Ycircumflex" horiz-adv-x="656" unicode="Ŷ" d="M640 740l-274 -440v-300h-76v300l-274 440h83l230 -372l228 372h83zM233 830h-70l130 150h73l130 -150h-70l-96 109z"/>
<glyph glyph-name="ycircumflex" horiz-adv-x="568" unicode="ŷ" d="M558 529l-283 -632q-28 -65 -59 -96t-86 -31q-38 0 -64 12l8 59q18 -9 45 -9q31 0 49 18t36 57l47 100l-237 522h79l196 -443l190 443h79zM190 619h-70l130 150h73l130 -150h-70l-96 109z"/>
<glyph glyph-name="Ydieresis" horiz-adv-x="656" unicode="Ÿ" d="M640 740l-274 -440v-300h-76v300l-274 440h83l230 -372l228 372h83zM431 873q-21 0 -35 14t-14 34q0 21 14 35t35 14q20 0 34 -14t14 -35q0 -20 -14 -34t-34 -14zM227 873q-20 0 -34 14t-14 34q0 21 14 35t34 14q21 0 35 -14t14 -35q0 -20 -14 -34t-35 -14z"/>
<glyph glyph-name="Zacute" horiz-adv-x="628" unicode="Ź" d="M594 63v-63h-559v49l447 628h-441v63h543v-48l-447 -629h457zM331 830h-64l130 150h89z"/>
<glyph glyph-name="zacute" horiz-adv-x="511" unicode="ź" d="M477 60v-60h-439v48l325 421h-320v60h421v-48l-324 -421h337zM208 619l130 150h89l-155 -150h-64z"/>
<glyph glyph-name="Zdotaccent" horiz-adv-x="628" unicode="Ż" d="M594 63v-63h-559v49l447 628h-441v63h543v-48l-447 -629h457zM312 873q-20 0 -34 14t-14 34q0 21 14 35t34 14q21 0 35 -14t14 -35q0 -20 -14 -34t-35 -14z"/>
<glyph glyph-name="zdotaccent" horiz-adv-x="511" unicode="ż" d="M477 60v-60h-439v48l325 421h-320v60h421v-48l-324 -421h337zM253 662q-20 0 -34 14t-14 34q0 21 14 35t34 14q21 0 35 -14t14 -35q0 -20 -14 -34t-35 -14z"/>
<glyph glyph-name="Zcaron" horiz-adv-x="628" unicode="Ž" d="M594 63v-63h-559v49l447 628h-441v63h543v-48l-447 -629h457zM275 830l-130 150h70l97 -109l96 109h70l-130 -150h-73z"/>
<glyph glyph-name="zcaron" horiz-adv-x="511" unicode="ž" d="M477 60v-60h-439v48l325 421h-320v60h421v-48l-324 -421h337zM216 619l-130 150h70l97 -109l96 109h70l-130 -150h-73z"/>
<glyph glyph-name="florin" horiz-adv-x="476" unicode="ƒ" d="M380 687q-47 0 -79.5 -29t-41.5 -81l-36 -202h196v-61h-207l-72 -414h-74l73 414h-86v61h96l39 222q13 73 63.5 113t125.5 40q46 0 79 -14l-9 -59q-29 10 -67 10z"/>
<glyph glyph-name="Scommaaccent" horiz-adv-x="580" unicode="Ș" d="M323 -52l-64 -168h-56l53 168h67zM450 185q0 58 -42.5 92t-127.5 62l-45 15q-84 27 -130.5 70t-46.5 123q0 91 64 147t168 56q128 0 211 -85l-35 -53q-73 75 -176 75q-69 0 -111 -35.5t-42 -93.5q0 -56 34.5 -84t101.5 -51l45 -15q44 -15 75 -30t65.5 -40t52.5 -61.5 t18 -83.5q0 -91 -67.5 -147t-177.5 -56q-145 0 -221 86l30 54q74 -77 186 -77q79 0 125 36t46 96z"/>
<glyph glyph-name="scommaaccent" horiz-adv-x="450" unicode="ș" d="M259 -52l-64 -168h-56l53 168h67zM329 137q0 63 -98 95l-51 17q-64 21 -96.5 51t-32.5 85q0 70 47.5 112t124.5 42q98 0 166 -48l-31 -49q-56 39 -130 39q-46 0 -74.5 -23t-28.5 -62q0 -34 22.5 -53t65.5 -34l51 -17q64 -21 101.5 -55t37.5 -94q0 -69 -49.5 -111 t-133.5 -42q-110 0 -168 56l30 45q54 -43 138 -43q49 0 79 24.5t30 64.5z"/>
<glyph glyph-name="uni021A" horiz-adv-x="579" unicode="Ț" d="M262 -52h67l-64 -168h-56zM566 677h-238v-677h-76v677h-239v63h553v-63z"/>
<glyph glyph-name="uni021B" horiz-adv-x="392" unicode="ț" d="M189 -52h67l-64 -168h-56zM274 52q56 0 106 19v-59q-51 -22 -128 -22q-64 0 -103.5 40.5t-39.5 105.5v333h-92v60h92v155h72v-155h191v-60h-191v-319q0 -43 26 -70.5t67 -27.5z"/>
<glyph glyph-name="circumflex" horiz-adv-x="600" unicode="ˆ" d="M306 619l-96 109l-97 -109h-70l130 150h73l130 -150h-70z"/>
<glyph glyph-name="caron" horiz-adv-x="600" unicode="ˇ" d="M376 769l-130 -150h-73l-130 150h70l97 -109l96 109h70z"/>
<glyph glyph-name="breve" horiz-adv-x="600" unicode="˘" d="M362 769q0 -72 -44 -115.5t-116 -43.5q-73 0 -117 43.5t-44 115.5h59q0 -51 28 -82.5t74 -31.5t74 31.5t28 82.5h58z"/>
<glyph glyph-name="dotaccent" horiz-adv-x="600" unicode="˙" d="M115 662q-20 0 -34 14t-14 34q0 21 14 35t34 14q21 0 35 -14t14 -35q0 -20 -14 -34t-35 -14z"/>
<glyph glyph-name="ring" horiz-adv-x="600" unicode="˚" d="M170 621q29 0 47 18.5t18 49.5t-18 49.5t-47 18.5t-47 -18.5t-18 -49.5t18 -49.5t47 -18.5zM170 584q-49 0 -79 29t-30 76t30 76t79 29t79 -29t30 -76t-30 -76t-79 -29z"/>
<glyph glyph-name="ogonek" horiz-adv-x="600" unicode="˛" d="M241 0q-74 0 -120 -35t-46 -90q0 -33 18 -52t48 -19q45 0 74 41l29 -22q-38 -53 -106 -53q-49 0 -77.5 28t-28.5 75q0 68 57.5 109.5t151.5 41.5v-24z"/>
<glyph glyph-name="tilde" horiz-adv-x="600" unicode="˜" d="M97 637h-45q0 53 28 85.5t71 32.5q36 0 85.5 -36t74.5 -36q24 0 39.5 16.5t15.5 45.5h44q0 -54 -27.5 -86t-71.5 -32q-35 0 -85 36t-75 36q-24 0 -39 -17t-15 -45z"/>
<glyph glyph-name="hungarumlaut" horiz-adv-x="600" unicode="˝" d="M288 619l106 150h89l-131 -150h-64zM139 619l106 150h89l-131 -150h-64z"/>
<glyph glyph-name="gravecomb" horiz-adv-x="0" unicode="̀" d="M-346 769h89l131 -150h-65z"/>
<glyph glyph-name="acutecomb" horiz-adv-x="0" unicode="́" d="M-217 619l130 150h89l-155 -150h-64z"/>
<glyph glyph-name="uni0302" horiz-adv-x="0" unicode="̂" d="M-113 619l-96 109l-97 -109h-70l130 150h73l130 -150h-70z"/>
<glyph glyph-name="tildecomb" horiz-adv-x="0" unicode="̃" d="M-366 637h-45q0 53 28 85.5t71 32.5q36 0 85.5 -36t74.5 -36q24 0 39.5 16.5t15.5 45.5h44q0 -54 -27.5 -86t-71.5 -32q-35 0 -85 36t-75 36q-24 0 -39 -17t-15 -45z"/>
<glyph glyph-name="uni0304" horiz-adv-x="0" unicode="̄" d="M-63 704v-57h-310v57h310z"/>
<glyph glyph-name="uni0306" horiz-adv-x="0" unicode="̆" d="M-41 769q0 -72 -44 -115.5t-116 -43.5q-73 0 -117 43.5t-44 115.5h59q0 -51 28 -82.5t74 -31.5t74 31.5t28 82.5h58z"/>
<glyph glyph-name="uni0307" horiz-adv-x="0" unicode="̇" d="M-116 662q-20 0 -34 14t-14 34q0 21 14 35t34 14q21 0 35 -14t14 -35q0 -20 -14 -34t-35 -14z"/>
<glyph glyph-name="uni0308" horiz-adv-x="0" unicode="̈" d="M-115 662q-21 0 -35 14t-14 34q0 21 14 35t35 14q20 0 34 -14t14 -35q0 -20 -14 -34t-34 -14zM-319 662q-20 0 -34 14t-14 34q0 21 14 35t34 14q21 0 35 -14t14 -35q0 -20 -14 -34t-35 -14z"/>
<glyph glyph-name="uni030A" horiz-adv-x="0" unicode="̊" d="M-170 621q29 0 47 18.5t18 49.5t-18 49.5t-47 18.5t-47 -18.5t-18 -49.5t18 -49.5t47 -18.5zM-170 584q-49 0 -79 29t-30 76t30 76t79 29t79 -29t30 -76t-30 -76t-79 -29z"/>
<glyph glyph-name="uni030B" horiz-adv-x="0" unicode="̋" d="M-216 619l106 150h89l-131 -150h-64zM-365 619l106 150h89l-131 -150h-64z"/>
<glyph glyph-name="uni030C" horiz-adv-x="0" unicode="̌" d="M-43 769l-130 -150h-73l-130 150h70l97 -109l96 109h70z"/>
<glyph glyph-name="uni0312" horiz-adv-x="0" unicode="̒" d="M-145 593l70 187h56l-59 -187h-67z"/>
<glyph glyph-name="uni0326" horiz-adv-x="0" unicode="̦" d="M-16 -52l-64 -168h-56l53 168h67z"/>
<glyph glyph-name="uni0327" horiz-adv-x="0" unicode="̧" d="M-128 -68q47 0 75.5 -21.5t28.5 -56.5q0 -38 -32 -61t-85 -23q-65 0 -96 28l16 30q26 -23 75 -23q37 0 58 13t21 35t-20.5 34.5t-54.5 12.5q-25 0 -49 -8l-11 21l53 87h41l-44 -69q7 1 24 1z"/>
<glyph glyph-name="uni0328" horiz-adv-x="0" unicode="̨" d="M-17 0q-74 0 -120 -35t-46 -90q0 -33 18 -52t48 -19q45 0 74 41l29 -22q-38 -53 -106 -53q-49 0 -77.5 28t-28.5 75q0 68 57.5 109.5t151.5 41.5v-24z"/>
<glyph glyph-name="uni0335" horiz-adv-x="0" unicode="̵" d="M-151 314v-54h-362v54h362z"/>
<glyph glyph-name="uni0336" horiz-adv-x="0" unicode="̶" d="M-78 314v-54h-780v54h780z"/>
<glyph glyph-name="uni0337" horiz-adv-x="0" unicode="̷" d="M-144 538v-59l-131 -91v9l-129 -91v58l129 91v-9z"/>
<glyph glyph-name="uni0338" horiz-adv-x="0" unicode="̸" d="M-450 -10l-42 26l430 734l42 -26z"/>
<glyph glyph-name="uni0394" horiz-adv-x="786" unicode="Δ" d="M645 63l-251 585l-253 -585h504zM754 0h-721l324 740h72z"/>
<glyph glyph-name="uni03A9" horiz-adv-x="778" unicode="Ω" d="M520 63h197v-63h-260v203q88 20 138.5 83t50.5 155q0 111 -71 178.5t-185 67.5q-116 0 -186 -67.5t-70 -178.5q0 -92 50.5 -155t138.5 -83v-203h-261v63h198v90q-96 33 -150.5 108.5t-54.5 179.5q0 139 92 224t243 85q150 0 242 -85t92 -224q0 -104 -54.5 -179.5 t-149.5 -108.5v-90z"/>
<glyph glyph-name="uni03BC" horiz-adv-x="630" unicode="μ" d="M548 529v-529h-70l-1 83q-47 -93 -162 -93q-114 0 -161 90v-300h-72v749h72v-320q0 -71 44 -114t117 -43t117 43t44 114v320h72z"/>
<glyph glyph-name="pi" horiz-adv-x="685" unicode="π" d="M516 469v-353q0 -29 15 -46.5t40 -17.5q36 0 68 19v-59q-35 -22 -90 -22q-47 0 -76 31t-29 81v367h-223v-469h-72v469h-123v60h613v-60h-123z"/>
<glyph glyph-name="Wgrave" horiz-adv-x="1144" unicode="Ẁ" d="M1135 740l-274 -740h-72l-217 634l-217 -634h-71l-275 740h81l233 -638l213 638h73l213 -638l232 638h81zM554 830l-155 150h89l131 -150h-65z"/>
<glyph glyph-name="wgrave" horiz-adv-x="953" unicode="ẁ" d="M939 529l-216 -529h-73l-174 450l-173 -450h-73l-216 529h79l177 -446l175 446h63l174 -446l177 446h80zM457 619l-155 150h89l131 -150h-65z"/>
<glyph glyph-name="Wacute" horiz-adv-x="1144" unicode="Ẃ" d="M1135 740l-274 -740h-72l-217 634l-217 -634h-71l-275 740h81l233 -638l213 638h73l213 -638l232 638h81zM591 830h-64l130 150h89z"/>
<glyph glyph-name="wacute" horiz-adv-x="953" unicode="ẃ" d="M939 529l-216 -529h-73l-174 450l-173 -450h-73l-216 529h79l177 -446l175 446h63l174 -446l177 446h80zM494 619h-64l130 150h89z"/>
<glyph glyph-name="Wdieresis" horiz-adv-x="1144" unicode="Ẅ" d="M1135 740l-274 -740h-72l-217 634l-217 -634h-71l-275 740h81l233 -638l213 638h73l213 -638l232 638h81zM675 873q-21 0 -35 14t-14 34q0 21 14 35t35 14q20 0 34 -14t14 -35q0 -20 -14 -34t-34 -14zM471 873q-20 0 -34 14t-14 34q0 21 14 35t34 14q21 0 35 -14t14 -35 q0 -20 -14 -34t-35 -14z"/>
<glyph glyph-name="wdieresis" horiz-adv-x="953" unicode="ẅ" d="M939 529l-216 -529h-73l-174 450l-173 -450h-73l-216 529h79l177 -446l175 446h63l174 -446l177 446h80zM578 662q-21 0 -35 14t-14 34q0 21 14 35t35 14q20 0 34 -14t14 -35q0 -20 -14 -34t-34 -14zM374 662q-20 0 -34 14t-14 34q0 21 14 35t34 14q21 0 35 -14t14 -35 q0 -20 -14 -34t-35 -14z"/>
<glyph glyph-name="uni1E9E" horiz-adv-x="670" unicode="ẞ" d="M458 389q76 -22 119 -72t43 -119q0 -94 -68 -151t-180 -57q-61 0 -106 19l7 62q40 -18 88 -18q80 0 129.5 42t49.5 110t-53 110.5t-140 42.5v59q70 0 113 37t43 98t-46 98t-120 37q-75 0 -121 -38t-46 -100v-549h-76v558q0 86 67 139t176 53q110 0 177.5 -51.5 t67.5 -136.5q0 -60 -33 -105t-91 -68z"/>
<glyph glyph-name="Ygrave" horiz-adv-x="656" unicode="Ỳ" d="M640 740l-274 -440v-300h-76v300l-274 440h83l230 -372l228 372h83zM310 830l-155 150h89l131 -150h-65z"/>
<glyph glyph-name="ygrave" horiz-adv-x="568" unicode="ỳ" d="M275 -103q-28 -65 -59 -96t-86 -31q-38 0 -64 12l8 59q18 -9 45 -9q31 0 49 18t36 57l47 100l-237 522h79l196 -443l190 443h79zM113 769h89l131 -150h-65z"/>
<glyph glyph-name="endash" horiz-adv-x="568" unicode="–" d="M497 314v-54h-426v54h426z"/>
<glyph glyph-name="emdash" horiz-adv-x="900" unicode="—" d="M829 314v-54h-758v54h758z"/>
<glyph glyph-name="quoteleft" horiz-adv-x="231" unicode="‘" d="M49 522l78 218h65l-67 -218h-76z"/>
<glyph glyph-name="quoteright" horiz-adv-x="229" unicode="’" d="M194 740l-78 -218h-64l66 218h76z"/>
<glyph glyph-name="quotesinglbase" horiz-adv-x="220" unicode="‚" d="M157 81l-78 -218h-65l67 218h76z"/>
<glyph glyph-name="quotedblleft" horiz-adv-x="384" unicode="“" d="M202 522l78 218h65l-67 -218h-76zM51 522l78 218h65l-67 -218h-76z"/>
<glyph glyph-name="quotedblright" horiz-adv-x="380" unicode="”" d="M345 740l-78 -218h-65l67 218h76zM194 740l-78 -218h-65l67 218h76z"/>
<glyph glyph-name="quotedblbase" horiz-adv-x="371" unicode="„" d="M308 81l-78 -218h-65l67 218h76zM157 81l-78 -218h-65l67 218h76z"/>
<glyph glyph-name="dagger" horiz-adv-x="530" unicode="†" d="M490 465h-187v-685h-76v685h-187v64h187v251h76v-251h187v-64z"/>
<glyph glyph-name="daggerdbl" horiz-adv-x="530" unicode="‡" d="M303 465v-145h187v-63h-187v-477h-76v477h-187v63h187v145h-187v64h187v251h76v-251h187v-64h-187z"/>
<glyph glyph-name="bullet" horiz-adv-x="363" unicode="•" d="M181 227q-41 0 -66 25t-25 66t25 66.5t66 25.5t66.5 -25.5t25.5 -66.5t-25.5 -66t-66.5 -25z"/>
<glyph glyph-name="ellipsis" horiz-adv-x="633" unicode="…" d="M520 -10q-22 0 -38 16t-16 38t16 38t38 16t38 -16t16 -38t-16 -38t-38 -16zM317 -10q-22 0 -38 16t-16 38t15.5 38t38.5 16q22 0 38 -16t16 -38t-16 -38t-38 -16zM113 -10q-22 0 -38 16t-16 38t16 38t38 16q23 0 39 -16t16 -38t-16.5 -38t-38.5 -16z"/>
<glyph glyph-name="perthousand" horiz-adv-x="1151" unicode="‰" d="M953 39q46 0 74 32t28 84t-28 84t-74 32q-47 0 -75.5 -31.5t-28.5 -84.5q0 -52 28.5 -84t75.5 -32zM567 39q46 0 74.5 32t28.5 84t-28 84t-75 32t-75.5 -32t-28.5 -84t29 -84t75 -32zM953 -10q-75 0 -121 45.5t-46 119.5q0 75 46 120.5t121 45.5q74 0 119.5 -45.5 t45.5 -120.5q0 -74 -45.5 -119.5t-119.5 -45.5zM567 -10q-74 0 -120 45.5t-46 119.5q0 75 46 120.5t120 45.5q75 0 120.5 -45.5t45.5 -120.5q0 -74 -45.5 -119.5t-120.5 -45.5zM203 469q46 0 74.5 32t28.5 84t-28.5 84t-74.5 32q-47 0 -75.5 -31.5t-28.5 -84.5t28.5 -84.5 t75.5 -31.5zM191 -10l-42 26l430 734l42 -26zM203 419q-75 0 -121 45.5t-46 120.5q0 74 46 119.5t121 45.5q74 0 119.5 -45.5t45.5 -119.5q0 -75 -45.5 -120.5t-119.5 -45.5z"/>
<glyph glyph-name="guilsinglleft" horiz-adv-x="345" unicode="‹" d="M125 270l172 -224h-77l-176 224l176 224h77z"/>
<glyph glyph-name="guilsinglright" horiz-adv-x="345" unicode="›" d="M302 270l-177 -224h-77l173 224l-173 224h77z"/>
<glyph glyph-name="fraction" horiz-adv-x="197" unicode="⁄" d="M-96 -10l-42 26l430 734l42 -26z"/>
<glyph glyph-name="uni2070" horiz-adv-x="428" unicode="⁰" d="M214 433q55 0 88 51t33 134t-33 134t-88 51q-54 0 -87.5 -51t-33.5 -134t33.5 -134t87.5 -51zM214 390q-78 0 -126.5 63t-48.5 165t48.5 165t126.5 63q79 0 127 -62.5t48 -165.5t-48 -165.5t-127 -62.5z"/>
<glyph glyph-name="uni2074" horiz-adv-x="378" unicode="⁴" d="M237 532v233l-169 -233h169zM235 490h-217v38l227 312h42v-306h66v-44h-66v-94h-52v94z"/>
<glyph glyph-name="uni2075" horiz-adv-x="354" unicode="⁵" d="M155 390q-83 0 -129 41l15 39q40 -37 109 -37q53 0 84.5 27t31.5 72q0 41 -26.5 66t-69.5 25q-39 0 -80 -19l-35 6l31 230h213v-43h-167l-21 -141q35 10 69 10q62 0 101 -36.5t39 -95.5q0 -64 -46 -104t-119 -40z"/>
<glyph glyph-name="uni2076" horiz-adv-x="350" unicode="⁶" d="M177 433q41 0 66.5 26.5t25.5 69.5t-25.5 69.5t-66.5 26.5t-66.5 -26.5t-25.5 -69.5t25.5 -69.5t66.5 -26.5zM187 665q59 0 97.5 -37.5t38.5 -98.5q0 -63 -40 -101t-106 -38q-65 0 -105.5 38t-40.5 100q0 54 37 109l138 203h59l-128 -181q22 6 50 6z"/>
<glyph glyph-name="uni2077" horiz-adv-x="315" unicode="⁷" d="M301 840l-157 -444h-55l144 401h-217v43h285z"/>
<glyph glyph-name="uni2078" horiz-adv-x="371" unicode="⁸" d="M186 433q41 0 66.5 23.5t25.5 61.5q0 39 -25.5 62.5t-66.5 23.5t-67 -23.5t-26 -62.5q0 -38 26 -61.5t67 -23.5zM186 803q-36 0 -58.5 -21.5t-22.5 -56.5t22.5 -56t58.5 -21t58 21t22 56q0 34 -22.5 56t-57.5 22zM251 626q80 -29 80 -111q0 -56 -40 -90.5t-105 -34.5 q-66 0 -106.5 34t-40.5 90q0 39 21.5 68.5t59.5 43.5q-69 29 -69 102q0 53 37 85.5t98 32.5q60 0 96.5 -32t36.5 -85q0 -75 -68 -103z"/>
<glyph glyph-name="uni2079" horiz-adv-x="350" unicode="⁹" d="M81 707q0 -43 25.5 -69.5t66.5 -26.5t66.5 26.5t25.5 69.5t-25.5 69.5t-66.5 26.5t-66.5 -26.5t-25.5 -69.5zM173 846q65 0 105.5 -38t40.5 -100q0 -54 -37 -109l-138 -203h-59l128 181q-23 -6 -50 -6q-59 0 -97.5 37.5t-38.5 98.5q0 63 40 101t106 38z"/>
<glyph glyph-name="uni2080" horiz-adv-x="428" unicode="₀" d="M214 -63q55 0 88 51t33 134t-33 134t-88 51q-54 0 -87.5 -51t-33.5 -134t33.5 -134t87.5 -51zM214 -106q-78 0 -126.5 63t-48.5 165t48.5 165t126.5 63q79 0 127 -62.5t48 -165.5t-48 -165.5t-127 -62.5z"/>
<glyph glyph-name="uni2081" horiz-adv-x="261" unicode="₁" d="M10 236l146 108h40v-444h-52v376l-107 -77z"/>
<glyph glyph-name="uni2082" horiz-adv-x="353" unicode="₂" d="M317 -57v-43h-284v34l134 145q1 2 10.5 11.5l12.5 12.5t11.5 13t12.5 15t11 14.5t10.5 16t9 16t7.5 17.5t4 17t2 18q0 35 -22.5 56t-59.5 21q-39 0 -62.5 -23.5t-23.5 -61.5l-52 5q0 56 37.5 89.5t99.5 33.5q61 0 98.5 -32t37.5 -85q0 -33 -17.5 -68t-37 -57.5 t-54.5 -59.5l-100 -106z"/>
<glyph glyph-name="uni2083" horiz-adv-x="350" unicode="₃" d="M174 158q64 0 102.5 -35.5t38.5 -92.5q0 -62 -42.5 -99t-114.5 -37q-89 0 -130 49l20 38q36 -44 104 -44q50 0 79.5 25.5t29.5 67.5q0 40 -29 64t-76 24q-38 0 -67 -15l-15 26l155 172h-184v43h254v-33l-145 -154q6 1 20 1z"/>
<glyph glyph-name="uni2084" horiz-adv-x="378" unicode="₄" d="M237 36v233l-169 -233h169zM235 -6h-217v38l227 312h42v-306h66v-44h-66v-94h-52v94z"/>
<glyph glyph-name="uni2085" horiz-adv-x="354" unicode="₅" d="M155 -106q-83 0 -129 41l15 39q40 -37 109 -37q53 0 84.5 27t31.5 72q0 41 -26.5 66t-69.5 25q-39 0 -80 -19l-35 6l31 230h213v-43h-167l-21 -141q35 10 69 10q62 0 101 -36.5t39 -95.5q0 -64 -46 -104t-119 -40z"/>
<glyph glyph-name="uni2086" horiz-adv-x="350" unicode="₆" d="M177 -63q41 0 66.5 26.5t25.5 69.5t-25.5 69.5t-66.5 26.5t-66.5 -26.5t-25.5 -69.5t25.5 -69.5t66.5 -26.5zM187 169q59 0 97.5 -37.5t38.5 -98.5q0 -63 -40 -101t-106 -38q-65 0 -105.5 38t-40.5 100q0 54 37 109l138 203h59l-128 -181q23 6 50 6z"/>
<glyph glyph-name="uni2087" horiz-adv-x="315" unicode="₇" d="M301 344l-157 -444h-55l144 401h-217v43h285z"/>
<glyph glyph-name="uni2088" horiz-adv-x="371" unicode="₈" d="M186 -63q41 0 66.5 23.5t25.5 61.5q0 39 -25.5 62.5t-66.5 23.5t-67 -23.5t-26 -62.5q0 -38 26 -61.5t67 -23.5zM186 307q-36 0 -58.5 -21.5t-22.5 -56.5t22.5 -56t58.5 -21t58 21t22 56q0 34 -22.5 56t-57.5 22zM251 130q80 -29 80 -111q0 -56 -40 -90.5t-105 -34.5 q-66 0 -106.5 34t-40.5 90q0 39 21.5 68.5t59.5 43.5q-69 29 -69 102q0 53 37 85.5t98 32.5q60 0 96.5 -32t36.5 -85q0 -75 -68 -103z"/>
<glyph glyph-name="uni2089" horiz-adv-x="350" unicode="₉" d="M81 211q0 -43 25.5 -69.5t66.5 -26.5t66.5 26.5t25.5 69.5t-25.5 69.5t-66.5 26.5t-66.5 -26.5t-25.5 -69.5zM173 350q65 0 105.5 -38t40.5 -100q0 -54 -37 -109l-138 -203h-59l128 181q-23 -6 -50 -6q-59 0 -97.5 37.5t-38.5 98.5q0 63 40 101t106 38z"/>
<glyph glyph-name="Euro" horiz-adv-x="816" unicode="€" d="M770 134q-107 -144 -300 -144q-142 0 -239 77t-124 208h-65v50h57q-2 30 -2 47v13h-55v50h59q19 144 118.5 229.5t250.5 85.5q169 0 279 -120l-47 -49q-94 106 -229 106q-117 0 -196 -68.5t-96 -183.5h278v-50h-283v-13q0 -17 2 -47h281v-50h-272q26 -103 101 -162.5 t183 -59.5q158 0 248 129z"/>
<glyph glyph-name="uni20B9" horiz-adv-x="645" unicode="₹" d="M599 690h-192q91 -53 102 -163h85v-50h-85q-6 -68 -41.5 -118.5t-93.5 -75.5l188 -283h-90l-172 264q-26 -2 -40 -2h-187v63h179q73 0 121.5 41.5t56.5 110.5h-357v50h357q-8 68 -56 109t-121 41h-180v63h526v-50z"/>
<glyph glyph-name="uni20BD" horiz-adv-x="637" unicode="₽" d="M187 382h163q78 0 125.5 40.5t47.5 106.5q0 67 -48 107.5t-125 40.5h-163v-295zM187 318v-59h257v-50h-257v-209h-76v209h-53v50h53v59h-53v51h53v371h249q109 0 175.5 -57t66.5 -151q0 -96 -66.5 -155t-175.5 -59h-173z"/>
<glyph glyph-name="trademark" horiz-adv-x="718" unicode="™" d="M600 494l-12 208l-95 -208h-37l-95 210l-12 -210h-45l19 286h42l110 -246l108 246h42l20 -286h-45zM268 743h-93v-249h-44v249h-93v37h230v-37z"/>
<glyph glyph-name="oneeighth" horiz-adv-x="828" unicode="⅛" d="M643 37q41 0 66.5 23.5t25.5 61.5q0 39 -25.5 62.5t-66.5 23.5t-67 -23.5t-26 -62.5q0 -38 26 -61.5t67 -23.5zM643 407q-36 0 -58.5 -21.5t-22.5 -56.5t22.5 -56t58.5 -21t58 21t22 56q0 34 -22.5 56t-57.5 22zM708 230q80 -29 80 -111q0 -56 -40 -90.5t-105 -34.5 q-66 0 -106.5 34t-40.5 90q0 39 21.5 68.5t59.5 43.5q-69 29 -69 102q0 53 37 85.5t98 32.5q60 0 96.5 -32t36.5 -85q0 -75 -68 -103zM144 672l-107 -77l-27 37l146 108h40v-444h-52v376zM595 724l-430 -734l-42 26l430 734z"/>
<glyph glyph-name="threeeighths" horiz-adv-x="917" unicode="⅜" d="M733 37q41 0 66.5 23.5t25.5 61.5q0 39 -25.5 62.5t-66.5 23.5t-67 -23.5t-26 -62.5q0 -38 26 -61.5t67 -23.5zM733 407q-36 0 -58.5 -21.5t-22.5 -56.5t22.5 -56t58.5 -21t58 21t22 56q0 34 -22.5 56t-57.5 22zM798 230q80 -29 80 -111q0 -56 -40 -90.5t-105 -34.5 q-66 0 -106.5 34t-40.5 90q0 39 21.5 68.5t59.5 43.5q-69 29 -69 102q0 53 37 85.5t98 32.5q60 0 96.5 -32t36.5 -85q0 -75 -68 -103zM315 426q0 -62 -42.5 -99t-114.5 -37q-89 0 -130 49l20 38q36 -44 104 -44q50 0 79.5 25.5t29.5 67.5q0 40 -29 64t-76 24q-38 0 -67 -15 l-15 26l155 172h-184v43h254v-33l-145 -154q6 1 20 1q64 0 102.5 -35.5t38.5 -92.5zM684 724l-430 -734l-42 26l430 734z"/>
<glyph glyph-name="fiveeighths" horiz-adv-x="921" unicode="⅝" d="M736 37q41 0 66.5 23.5t25.5 61.5q0 39 -25.5 62.5t-66.5 23.5t-67 -23.5t-26 -62.5q0 -38 26 -61.5t67 -23.5zM736 407q-36 0 -58.5 -21.5t-22.5 -56.5t22.5 -56t58.5 -21t58 21t22 56q0 34 -22.5 56t-57.5 22zM801 230q80 -29 80 -111q0 -56 -40 -90.5t-105 -34.5 q-66 0 -106.5 34t-40.5 90q0 39 21.5 68.5t59.5 43.5q-69 29 -69 102q0 53 37 85.5t98 32.5q60 0 96.5 -32t36.5 -85q0 -75 -68 -103zM320 434q0 -64 -46 -104t-119 -40q-83 0 -129 41l15 39q40 -37 109 -37q53 0 84.5 27t31.5 72q0 41 -26.5 66t-69.5 25q-39 0 -80 -19 l-35 6l31 230h213v-43h-167l-21 -141q35 10 69 10q62 0 101 -36.5t39 -95.5zM688 724l-430 -734l-42 26l430 734z"/>
<glyph glyph-name="seveneighths" horiz-adv-x="852" unicode="⅞" d="M667 37q41 0 66.5 23.5t25.5 61.5q0 39 -25.5 62.5t-66.5 23.5t-67 -23.5t-26 -62.5q0 -38 26 -61.5t67 -23.5zM667 407q-36 0 -58.5 -21.5t-22.5 -56.5t22.5 -56t58.5 -21t58 21t22 56q0 34 -22.5 56t-57.5 22zM732 230q80 -29 80 -111q0 -56 -40 -90.5t-105 -34.5 q-66 0 -106.5 34t-40.5 90q0 39 21.5 68.5t59.5 43.5q-69 29 -69 102q0 53 37 85.5t98 32.5q60 0 96.5 -32t36.5 -85q0 -75 -68 -103zM301 740l-157 -444h-55l144 401h-217v43h285zM619 724l-430 -734l-42 26l430 734z"/>
<glyph glyph-name="partialdiff" horiz-adv-x="641" unicode="∂" d="M261 53q110 0 178.5 85t70.5 224q-181 -2 -290.5 -52.5t-109.5 -132.5q0 -56 41.5 -90t109.5 -34zM307 750q127 0 205 -104t78 -274q0 -172 -90.5 -277t-237.5 -105q-103 0 -166 52t-63 138q0 107 130 173.5t345 71.5q-11 120 -65.5 191t-138.5 71q-113 0 -191 -106 l-48 49q97 120 242 120z"/>
<glyph glyph-name="emptyset" horiz-adv-x="667" unicode="∅" d="M333 134q88 0 141 58.5t53 153.5q0 83 -40 137l-280 -306q53 -43 126 -43zM138 346q0 -81 41 -138l280 306q-52 44 -126 44q-88 0 -141.5 -58.5t-53.5 -153.5zM536 537q67 -75 67 -191q0 -124 -74 -199.5t-195 -75.5q-102 0 -173 55l-50 -55l-34 26l53 57q-67 75 -67 192 q0 123 74.5 198.5t196.5 75.5q100 0 171 -55l50 55l34 -25z"/>
<glyph glyph-name="product" horiz-adv-x="727" unicode="∏" d="M626 -220h-76v937h-374v-937h-76v1000h526v-1000z"/>
<glyph glyph-name="summation" horiz-adv-x="624" unicode="∑" d="M584 -220h-551v48l321 455l-312 449v48h532v-63h-440l310 -434l-319 -440h459v-63z"/>
<glyph glyph-name="minus" horiz-adv-x="579" unicode="−" d="M505 377v-60h-431v60h431z"/>
<glyph glyph-name="radical" horiz-adv-x="764" unicode="√" d="M316 -220h-73l-235 529h79l193 -446l401 917h80z"/>
<glyph glyph-name="infinity" horiz-adv-x="718" unicode="∞" d="M494 163q47 0 75 32t28 84t-28 84t-75 32t-75.5 -32t-28.5 -84t28.5 -84t75.5 -32zM225 163q46 0 74.5 32t28.5 84t-28.5 84t-74.5 32q-47 0 -75.5 -31.5t-28.5 -84.5t28.5 -84.5t75.5 -31.5zM499 444q72 0 116.5 -45t44.5 -120t-44.5 -120t-116.5 -45q-100 0 -140 84 q-38 -84 -139 -84q-73 0 -117 45t-44 120t44 120t117 45q101 0 139 -84q40 84 140 84z"/>
<glyph glyph-name="integral" horiz-adv-x="453" unicode="∫" d="M337 790q75 0 115 -43l-20 -51q-36 31 -82 31q-39 0 -62.5 -23.5t-23.5 -62.5v-737q0 -61 -40 -97.5t-109 -36.5q-74 0 -114 43l20 51q36 -31 82 -31q39 0 62 23.5t23 62.5v737q0 61 40.5 97.5t108.5 36.5z"/>
<glyph glyph-name="approxequal" horiz-adv-x="575" unicode="≈" d="M119 143h-44q0 53 33.5 85t85.5 32q42 0 101 -35.5t88 -35.5q32 0 53 16.5t21 44.5h45q0 -54 -33.5 -85.5t-85.5 -31.5q-42 0 -101 36t-88 36q-32 0 -53.5 -17t-21.5 -45zM119 343h-44q0 53 33.5 85t85.5 32q42 0 101 -35.5t88 -35.5q32 0 53 16.5t21 44.5h45 q0 -54 -33.5 -85.5t-85.5 -31.5q-42 0 -101 36t-88 36q-32 0 -53.5 -17t-21.5 -45z"/>
<glyph glyph-name="notequal" horiz-adv-x="579" unicode="≠" d="M350 432l-47 -171h202v-60h-218l-31 -113h-73l31 113h-140v60h156l47 171h-203v61h219l31 113h73l-31 -113h139v-61h-155z"/>
<glyph glyph-name="lessequal" horiz-adv-x="574" unicode="≤" d="M494 136v-60h-418v60h418zM494 196l-418 183v45l418 184v-69l-317 -137l317 -138v-68z"/>
<glyph glyph-name="greaterequal" horiz-adv-x="573" unicode="≥" d="M498 136v-60h-419v60h419zM80 196v68l317 138l-317 137v69l417 -184v-45z"/>
<glyph glyph-name="lozenge" horiz-adv-x="561" unicode="◊" d="M442 314l-162 249l-161 -249l161 -249zM518 314l-205 -314h-65l-205 314l205 315h65z"/>
<glyph glyph-name="A.ss01" d="M625 315v158q0 96 -62.5 155t-165.5 59t-166 -59t-63 -155v-158h457zM397 750q137 0 220.5 -75t83.5 -199v-476h-76v252h-457v-252h-75v476q0 124 83.5 199t220.5 75z" horiz-adv-x="793"/>
<glyph glyph-name="Aacute.ss01" d="M625 315v158q0 96 -62.5 155t-165.5 59t-166 -59t-63 -155v-158h457zM397 750q137 0 220.5 -75t83.5 -199v-476h-76v252h-457v-252h-75v476q0 124 83.5 199t220.5 75zM415 830h-64l130 150h89z" horiz-adv-x="793"/>
<glyph glyph-name="Abreve.ss01" d="M625 315v158q0 96 -62.5 155t-165.5 59t-166 -59t-63 -155v-158h457zM397 750q137 0 220.5 -75t83.5 -199v-476h-76v252h-457v-252h-75v476q0 124 83.5 199t220.5 75zM397 821q-73 0 -117 43.5t-44 115.5h59q0 -51 28 -82.5t74 -31.5t74 31.5t28 82.5h58 q0 -72 -44 -115.5t-116 -43.5z" horiz-adv-x="793"/>
<glyph glyph-name="Acircumflex.ss01" d="M625 315v158q0 96 -62.5 155t-165.5 59t-166 -59t-63 -155v-158h457zM397 750q137 0 220.5 -75t83.5 -199v-476h-76v252h-457v-252h-75v476q0 124 83.5 199t220.5 75zM300 830h-70l130 150h73l130 -150h-70l-96 109z" horiz-adv-x="793"/>
<glyph glyph-name="Adieresis.ss01" d="M625 315v158q0 96 -62.5 155t-165.5 59t-166 -59t-63 -155v-158h457zM397 750q137 0 220.5 -75t83.5 -199v-476h-76v252h-457v-252h-75v476q0 124 83.5 199t220.5 75zM499 873q-21 0 -35 14t-14 34q0 21 14 35t35 14q20 0 34 -14t14 -35q0 -20 -14 -34t-34 -14zM295 873 q-20 0 -34 14t-14 34q0 21 14 35t34 14q21 0 35 -14t14 -35q0 -20 -14 -34t-35 -14z" horiz-adv-x="793"/>
<glyph glyph-name="Agrave.ss01" d="M625 315v158q0 96 -62.5 155t-165.5 59t-166 -59t-63 -155v-158h457zM397 750q137 0 220.5 -75t83.5 -199v-476h-76v252h-457v-252h-75v476q0 124 83.5 199t220.5 75zM378 830l-155 150h89l131 -150h-65z" horiz-adv-x="793"/>
<glyph glyph-name="Amacron.ss01" d="M625 315v158q0 96 -62.5 155t-165.5 59t-166 -59t-63 -155v-158h457zM397 750q137 0 220.5 -75t83.5 -199v-476h-76v252h-457v-252h-75v476q0 124 83.5 199t220.5 75zM552 858h-310v57h310v-57z" horiz-adv-x="793"/>
<glyph glyph-name="Aogonek.ss01" d="M625 315v158q0 96 -62.5 155t-165.5 59t-166 -59t-63 -155v-158h457zM695 0q-74 0 -120 -35t-46 -90q0 -33 18 -52t48 -19q45 0 74 41l29 -22q-38 -53 -106 -53q-49 0 -77.5 28t-28.5 75q0 54 37.5 92t101.5 52v235h-457v-252h-75v476q0 124 83.5 199t220.5 75t220.5 -75 t83.5 -199v-476h-6z" horiz-adv-x="793"/>
<glyph glyph-name="Aring.ss01" d="M625 315v158q0 96 -62.5 155t-165.5 59t-166 -59t-63 -155v-158h457zM397 750q137 0 220.5 -75t83.5 -199v-476h-76v252h-457v-252h-75v476q0 124 83.5 199t220.5 75zM397 968q-29 0 -47 -18.5t-18 -49.5t18 -49.5t47 -18.5t47 18.5t18 49.5t-18 49.5t-47 18.5zM397 795 q-49 0 -79 29t-30 76t30 76t79 29t79 -29t30 -76t-30 -76t-79 -29z" horiz-adv-x="793"/>
<glyph glyph-name="Atilde.ss01" d="M625 315v158q0 96 -62.5 155t-165.5 59t-166 -59t-63 -155v-158h457zM397 750q137 0 220.5 -75t83.5 -199v-476h-76v252h-457v-252h-75v476q0 124 83.5 199t220.5 75zM316 910q-24 0 -39 -17t-15 -45h-45q0 53 28 85.5t71 32.5q36 0 85.5 -36t74.5 -36q24 0 39.5 16.5 t15.5 45.5h44q0 -54 -27.5 -86t-71.5 -32q-35 0 -85 36t-75 36z" horiz-adv-x="793"/>
<glyph glyph-name="AE.ss01" d="M444 315v362q-125 0 -201.5 -72.5t-76.5 -191.5v-98h278zM859 63v-63h-415v252h-278v-252h-76v416q0 146 97.5 235t256.5 89h406v-63h-330v-268h305v-63h-305v-283h339z" horiz-adv-x="917"/>
<glyph glyph-name="J.ss01" d="M471 217q0 -103 -64 -165t-170 -62q-125 0 -204 92l38 52q62 -81 162 -81q73 0 118 46t45 121v457h-342v63h417v-523z" horiz-adv-x="565"/>
<glyph glyph-name="C.ss02" d="M626 616q-79 71 -203 71q-131 0 -211 -87t-80 -230t80 -230t211 -87q124 0 203 71v-72q-87 -62 -203 -62q-167 0 -269 104.5t-102 275.5t102 275.5t269 104.5q116 0 203 -62v-72z" horiz-adv-x="673"/>
<glyph glyph-name="Cacute.ss02" d="M626 616q-79 71 -203 71q-131 0 -211 -87t-80 -230t80 -230t211 -87q124 0 203 71v-72q-87 -62 -203 -62q-167 0 -269 104.5t-102 275.5t102 275.5t269 104.5q116 0 203 -62v-72zM371 830l130 150h89l-155 -150h-64z" horiz-adv-x="673"/>
<glyph glyph-name="Ccaron.ss02" d="M423 687q-131 0 -211 -87t-80 -230t80 -230t211 -87q124 0 203 71v-72q-87 -62 -203 -62q-167 0 -269 104.5t-102 275.5t102 275.5t269 104.5q116 0 203 -62v-72q-79 71 -203 71zM380 830l-130 150h70l97 -109l96 109h70l-130 -150h-73z" horiz-adv-x="673"/>
<glyph glyph-name="Ccedilla.ss02" d="M423 687q-131 0 -211 -87t-80 -230t80 -230t211 -87q124 0 203 71v-72q-82 -59 -194 -62l-39 -60q16 2 25 2q47 0 75.5 -21.5t28.5 -56.5q0 -38 -32 -61t-85 -23q-65 0 -96 28l16 30q26 -23 75 -23q37 0 58 13t21 35t-20.5 34.5t-54.5 12.5q-25 0 -49 -8l-11 21l48 78 q-154 11 -247 114t-93 265q0 171 102 275.5t269 104.5q116 0 203 -62v-72q-79 71 -203 71z" horiz-adv-x="673"/>
<glyph glyph-name="Cdotaccent.ss02" d="M626 616q-79 71 -203 71q-131 0 -211 -87t-80 -230t80 -230t211 -87q124 0 203 71v-72q-87 -62 -203 -62q-167 0 -269 104.5t-102 275.5t102 275.5t269 104.5q116 0 203 -62v-72zM416 873q-20 0 -34 14t-14 34q0 21 14 35t34 14q21 0 35 -14t14 -35q0 -20 -14 -34 t-35 -14z" horiz-adv-x="673"/>
<glyph glyph-name="Z.ss02" d="M545 63v-63h-515l391 677h-385v63h503l-390 -677h396z" horiz-adv-x="576"/>
<glyph glyph-name="Zacute.ss02" d="M545 63v-63h-515l391 677h-385v63h503l-390 -677h396zM307 830h-64l130 150h89z" horiz-adv-x="576"/>
<glyph glyph-name="Zcaron.ss02" d="M545 63v-63h-515l391 677h-385v63h503l-390 -677h396zM251 830l-130 150h70l97 -109l96 109h70l-130 -150h-73z" horiz-adv-x="576"/>
<glyph glyph-name="Zdotaccent.ss02" d="M545 63v-63h-515l391 677h-385v63h503l-390 -677h396zM288 873q-20 0 -34 14t-14 34q0 21 14 35t34 14q21 0 35 -14t14 -35q0 -20 -14 -34t-35 -14z" horiz-adv-x="576"/>
<glyph glyph-name="i.loclTRK" d="M155 529v-529h-72v529h72zM119 662q-20 0 -34 14t-14 34q0 21 14 35t34 14q21 0 35 -14t14 -35q0 -20 -14 -34t-35 -14z" horiz-adv-x="238"/>
<glyph glyph-name="a.ss01" d="M318 52q87 0 140.5 58.5t53.5 153.5t-53.5 153.5t-140.5 58.5q-88 0 -141.5 -58.5t-53.5 -154.5q0 -95 53.5 -153t141.5 -58zM584 529v-529h-70l-2 115q-59 -125 -211 -125q-112 0 -183 75.5t-71 197.5q0 123 71 199.5t183 76.5q151 0 211 -125l2 115h70z"/>
<glyph glyph-name="aacute.ss01" d="M318 52q87 0 140.5 58.5t53.5 153.5t-53.5 153.5t-140.5 58.5q-88 0 -141.5 -58.5t-53.5 -154.5q0 -95 53.5 -153t141.5 -58zM584 529v-529h-70l-2 115q-59 -125 -211 -125q-112 0 -183 75.5t-71 197.5q0 123 71 199.5t183 76.5q151 0 211 -125l2 115h70zM345 619h-64 l130 150h89z"/>
<glyph glyph-name="abreve.ss01" d="M318 52q87 0 140.5 58.5t53.5 153.5t-53.5 153.5t-140.5 58.5q-88 0 -141.5 -58.5t-53.5 -154.5q0 -95 53.5 -153t141.5 -58zM584 529v-529h-70l-2 115q-59 -125 -211 -125q-112 0 -183 75.5t-71 197.5q0 123 71 199.5t183 76.5q151 0 211 -125l2 115h70zM327 610 q-73 0 -117 43.5t-44 115.5h59q0 -51 28 -82.5t74 -31.5t74 31.5t28 82.5h58q0 -72 -44 -115.5t-116 -43.5z"/>
<glyph glyph-name="acircumflex.ss01" d="M318 52q87 0 140.5 58.5t53.5 153.5t-53.5 153.5t-140.5 58.5q-88 0 -141.5 -58.5t-53.5 -154.5q0 -95 53.5 -153t141.5 -58zM584 529v-529h-70l-2 115q-59 -125 -211 -125q-112 0 -183 75.5t-71 197.5q0 123 71 199.5t183 76.5q151 0 211 -125l2 115h70zM229 619h-70 l130 150h73l130 -150h-70l-96 109z"/>
<glyph glyph-name="adieresis.ss01" d="M318 52q87 0 140.5 58.5t53.5 153.5t-53.5 153.5t-140.5 58.5q-88 0 -141.5 -58.5t-53.5 -154.5q0 -95 53.5 -153t141.5 -58zM584 529v-529h-70l-2 115q-59 -125 -211 -125q-112 0 -183 75.5t-71 197.5q0 123 71 199.5t183 76.5q151 0 211 -125l2 115h70zM428 662 q-21 0 -35 14t-14 34q0 21 14 35t35 14q20 0 34 -14t14 -35q0 -20 -14 -34t-34 -14zM224 662q-20 0 -34 14t-14 34q0 21 14 35t34 14q21 0 35 -14t14 -35q0 -20 -14 -34t-35 -14z"/>
<glyph glyph-name="agrave.ss01" d="M318 52q87 0 140.5 58.5t53.5 153.5t-53.5 153.5t-140.5 58.5q-88 0 -141.5 -58.5t-53.5 -154.5q0 -95 53.5 -153t141.5 -58zM584 529v-529h-70l-2 115q-59 -125 -211 -125q-112 0 -183 75.5t-71 197.5q0 123 71 199.5t183 76.5q151 0 211 -125l2 115h70zM307 619 l-155 150h89l131 -150h-65z"/>
<glyph glyph-name="amacron.ss01" d="M318 52q87 0 140.5 58.5t53.5 153.5t-53.5 153.5t-140.5 58.5q-88 0 -141.5 -58.5t-53.5 -154.5q0 -95 53.5 -153t141.5 -58zM584 529v-529h-70l-2 115q-59 -125 -211 -125q-112 0 -183 75.5t-71 197.5q0 123 71 199.5t183 76.5q151 0 211 -125l2 115h70zM481 647h-310 v57h310v-57z"/>
<glyph glyph-name="aogonek.ss01" d="M318 52q87 0 140.5 58.5t53.5 153.5t-53.5 153.5t-140.5 58.5q-88 0 -141.5 -58.5t-53.5 -154.5q0 -95 53.5 -153t141.5 -58zM578 0q-74 0 -120 -35t-46 -90q0 -33 18 -52t48 -19q45 0 74 41l29 -22q-38 -53 -106 -53q-49 0 -77.5 28t-28.5 75q0 55 39 93.5t106 51.5 l-2 97q-59 -125 -211 -125q-112 0 -183 75.5t-71 197.5q0 123 71 199.5t183 76.5q151 0 211 -125l2 115h70v-529h-6z"/>
<glyph glyph-name="aring.ss01" d="M318 52q87 0 140.5 58.5t53.5 153.5t-53.5 153.5t-140.5 58.5q-88 0 -141.5 -58.5t-53.5 -154.5q0 -95 53.5 -153t141.5 -58zM584 529v-529h-70l-2 115q-59 -125 -211 -125q-112 0 -183 75.5t-71 197.5q0 123 71 199.5t183 76.5q151 0 211 -125l2 115h70zM326 757 q-29 0 -47 -18.5t-18 -49.5t18 -49.5t47 -18.5t47 18.5t18 49.5t-18 49.5t-47 18.5zM326 584q-49 0 -79 29t-30 76t30 76t79 29t79 -29t30 -76t-30 -76t-79 -29z"/>
<glyph glyph-name="atilde.ss01" d="M318 52q87 0 140.5 58.5t53.5 153.5t-53.5 153.5t-140.5 58.5q-88 0 -141.5 -58.5t-53.5 -154.5q0 -95 53.5 -153t141.5 -58zM584 529v-529h-70l-2 115q-59 -125 -211 -125q-112 0 -183 75.5t-71 197.5q0 123 71 199.5t183 76.5q151 0 211 -125l2 115h70zM245 699 q-24 0 -39 -17t-15 -45h-45q0 53 28 85.5t71 32.5q36 0 85.5 -36t74.5 -36q24 0 39.5 16.5t15.5 45.5h44q0 -54 -27.5 -86t-71.5 -32q-35 0 -85 36t-75 36z"/>
<glyph glyph-name="f.ss01" d="M255 728q-46 0 -73.5 -26.5t-27.5 -70.5v-102h179v-60h-179v-469h-72v642q0 67 42 107.5t111 40.5q67 0 108 -21l-6 -57q-35 16 -82 16z" horiz-adv-x="345"/>
<glyph glyph-name="j.ss01" d="M83 529h72v-749h-72v749zM118 662q-20 0 -34 14t-14 34q0 21 14 35t34 14q21 0 35 -14t14 -35q0 -20 -14 -34t-35 -14z" horiz-adv-x="238"/>
<glyph glyph-name="t.ss01" d="M242 52q55 0 106 19v-59q-53 -22 -128 -22q-64 0 -103.5 40.5t-39.5 105.5v548h72v-155h191v-60h-191v-319q0 -44 25.5 -71t67.5 -27z" horiz-adv-x="359"/>
<glyph glyph-name="tbar.ss01" d="M242 52q55 0 106 19v-59q-53 -22 -128 -22q-64 0 -103.5 40.5t-39.5 105.5v548h72v-155h191v-60h-191v-164h181v-53h-181v-102q0 -44 25.5 -71t67.5 -27z" horiz-adv-x="361"/>
<glyph glyph-name="tcaron.ss01" d="M149 150q0 -44 25.5 -71t67.5 -27q55 0 106 19v-59q-53 -22 -128 -22q-64 0 -103.5 40.5t-39.5 105.5v548h72v-155h191v-60h-191v-319zM285 593h-56l59 187h67z" horiz-adv-x="359"/>
<glyph glyph-name="uni0163.ss01" d="M220 -10q-13 0 -20 1l-39 -61q16 2 25 2q47 0 75.5 -21.5t28.5 -56.5q0 -38 -32 -61t-85 -23q-65 0 -96 28l16 30q26 -23 75 -23q37 0 58 13t21 35t-20.5 34.5t-54.5 12.5q-25 0 -49 -8l-11 21l53 86q-41 15 -64.5 51t-23.5 86v548h72v-155h191v-60h-191v-319 q0 -44 25.5 -71t67.5 -27q55 0 106 19v-59q-53 -22 -128 -22z" horiz-adv-x="359"/>
<glyph glyph-name="uni021B.ss01" d="M157 -52h67l-64 -168h-56zM242 52q55 0 106 19v-59q-53 -22 -128 -22q-64 0 -103.5 40.5t-39.5 105.5v548h72v-155h191v-60h-191v-319q0 -44 25.5 -71t67.5 -27z" horiz-adv-x="359"/>
<glyph glyph-name="u.ss01" d="M469 529h72v-335q0 -92 -64 -148t-169 -56t-169 58.5t-64 155.5v325h72v-320q0 -71 44 -114t117 -43t117 43t44 114v320z" horiz-adv-x="616"/>
<glyph glyph-name="uacute.ss01" d="M469 529h72v-335q0 -92 -64 -148t-169 -56t-169 58.5t-64 155.5v325h72v-320q0 -71 44 -114t117 -43t117 43t44 114v320zM262 619l130 150h89l-155 -150h-64z" horiz-adv-x="616"/>
<glyph glyph-name="ucircumflex.ss01" d="M541 529v-335q0 -92 -64 -148t-169 -56t-169 58.5t-64 155.5v325h72v-320q0 -71 44 -114t117 -43t117 43t44 114v320h72zM211 619h-70l130 150h73l130 -150h-70l-96 109z" horiz-adv-x="616"/>
<glyph glyph-name="udieresis.ss01" d="M469 529h72v-335q0 -92 -64 -148t-169 -56t-169 58.5t-64 155.5v325h72v-320q0 -71 44 -114t117 -43t117 43t44 114v320zM410 662q-21 0 -35 14t-14 34q0 21 14 35t35 14q20 0 34 -14t14 -35q0 -20 -14 -34t-34 -14zM206 662q-20 0 -34 14t-14 34q0 21 14 35t34 14 q21 0 35 -14t14 -35q0 -20 -14 -34t-35 -14z" horiz-adv-x="616"/>
<glyph glyph-name="ugrave.ss01" d="M469 529h72v-335q0 -92 -64 -148t-169 -56t-169 58.5t-64 155.5v325h72v-320q0 -71 44 -114t117 -43t117 43t44 114v320zM134 769h89l131 -150h-65z" horiz-adv-x="616"/>
<glyph glyph-name="uhungarumlaut.ss01" d="M469 529h72v-335q0 -92 -64 -148t-169 -56t-169 58.5t-64 155.5v325h72v-320q0 -71 44 -114t117 -43t117 43t44 114v320zM343 619l106 150h89l-131 -150h-64zM194 619l106 150h89l-131 -150h-64z" horiz-adv-x="616"/>
<glyph glyph-name="umacron.ss01" d="M469 529h72v-335q0 -92 -64 -148t-169 -56t-169 58.5t-64 155.5v325h72v-320q0 -71 44 -114t117 -43t117 43t44 114v320zM463 704v-57h-310v57h310z" horiz-adv-x="616"/>
<glyph glyph-name="uogonek.ss01" d="M455 30q-125 -83 -125 -159q0 -31 19 -49t50 -18q47 0 76 41l29 -22q-40 -53 -107 -53q-50 0 -80 27t-30 71q0 66 74 126q-23 -4 -53 -4q-105 0 -169 58.5t-64 155.5v325h72v-320q0 -71 44 -114t117 -43t117 43t44 114v320h72v-335q0 -107 -86 -164z" horiz-adv-x="616"/>
<glyph glyph-name="uring.ss01" d="M469 529h72v-335q0 -92 -64 -148t-169 -56t-169 58.5t-64 155.5v325h72v-320q0 -71 44 -114t117 -43t117 43t44 114v320zM308 621q29 0 47 18.5t18 49.5t-18 49.5t-47 18.5t-47 -18.5t-18 -49.5t18 -49.5t47 -18.5zM308 584q-49 0 -79 29t-30 76t30 76t79 29t79 -29 t30 -76t-30 -76t-79 -29z" horiz-adv-x="616"/>
<glyph glyph-name="y.ss01" d="M541 529v-491q0 -121 -71 -194.5t-187 -73.5q-131 0 -213 69l16 58q82 -65 194 -65q85 0 137 57.5t52 152.5v44q-54 -96 -184 -96q-94 0 -152 56.5t-58 148.5v334h72v-320q0 -71 44 -114t117 -43t117 43t44 114v320h72z" horiz-adv-x="623"/>
<glyph glyph-name="yacute.ss01" d="M541 529v-491q0 -121 -71 -194.5t-187 -73.5q-131 0 -213 69l16 58q82 -65 194 -65q85 0 137 57.5t52 152.5v44q-54 -96 -184 -96q-94 0 -152 56.5t-58 148.5v334h72v-320q0 -71 44 -114t117 -43t117 43t44 114v320h72zM322 619h-64l130 150h89z" horiz-adv-x="623"/>
<glyph glyph-name="ycircumflex.ss01" d="M541 529v-491q0 -121 -71 -194.5t-187 -73.5q-131 0 -213 69l16 58q82 -65 194 -65q85 0 137 57.5t52 152.5v44q-54 -96 -184 -96q-94 0 -152 56.5t-58 148.5v334h72v-320q0 -71 44 -114t117 -43t117 43t44 114v320h72zM206 619h-70l130 150h73l130 -150h-70l-96 109z " horiz-adv-x="623"/>
<glyph glyph-name="ydieresis.ss01" d="M541 529v-491q0 -121 -71 -194.5t-187 -73.5q-131 0 -213 69l16 58q82 -65 194 -65q85 0 137 57.5t52 152.5v44q-54 -96 -184 -96q-94 0 -152 56.5t-58 148.5v334h72v-320q0 -71 44 -114t117 -43t117 43t44 114v320h72zM405 662q-21 0 -35 14t-14 34q0 21 14 35t35 14 q20 0 34 -14t14 -35q0 -20 -14 -34t-34 -14zM201 662q-20 0 -34 14t-14 34q0 21 14 35t34 14q21 0 35 -14t14 -35q0 -20 -14 -34t-35 -14z" horiz-adv-x="623"/>
<glyph glyph-name="ygrave.ss01" d="M541 529v-491q0 -121 -71 -194.5t-187 -73.5q-131 0 -213 69l16 58q82 -65 194 -65q85 0 137 57.5t52 152.5v44q-54 -96 -184 -96q-94 0 -152 56.5t-58 148.5v334h72v-320q0 -71 44 -114t117 -43t117 43t44 114v320h72zM284 619l-155 150h89l131 -150h-65z" horiz-adv-x="623"/>
<glyph glyph-name="a.ss02" d="M231 44q68 0 122.5 52.5t54.5 138.5q-72 18 -145 18q-68 0 -109 -29.5t-41 -77.5q0 -47 31.5 -74.5t86.5 -27.5zM480 529v-529h-70l-2 112q-27 -57 -80 -89.5t-117 -32.5q-78 0 -126 42t-48 112q0 72 60 116.5t157 44.5q75 0 154 -19v185h-337v58h409z" horiz-adv-x="561"/>
<glyph glyph-name="aacute.ss02" d="M231 44q68 0 122.5 52.5t54.5 138.5q-72 18 -145 18q-68 0 -109 -29.5t-41 -77.5q0 -47 31.5 -74.5t86.5 -27.5zM480 529v-529h-70l-2 112q-27 -57 -80 -89.5t-117 -32.5q-78 0 -126 42t-48 112q0 72 60 116.5t157 44.5q75 0 154 -19v185h-337v58h409zM297 619h-64 l130 150h89z" horiz-adv-x="561"/>
<glyph glyph-name="abreve.ss02" d="M231 44q68 0 122.5 52.5t54.5 138.5q-72 18 -145 18q-68 0 -109 -29.5t-41 -77.5q0 -47 31.5 -74.5t86.5 -27.5zM480 529v-529h-70l-2 112q-27 -57 -80 -89.5t-117 -32.5q-78 0 -126 42t-48 112q0 72 60 116.5t157 44.5q75 0 154 -19v185h-337v58h409zM278 610 q-73 0 -117 43.5t-44 115.5h59q0 -51 28 -82.5t74 -31.5t74 31.5t28 82.5h58q0 -72 -44 -115.5t-116 -43.5z" horiz-adv-x="561"/>
<glyph glyph-name="acircumflex.ss02" d="M231 44q68 0 122.5 52.5t54.5 138.5q-72 18 -145 18q-68 0 -109 -29.5t-41 -77.5q0 -47 31.5 -74.5t86.5 -27.5zM480 529v-529h-70l-2 112q-27 -57 -80 -89.5t-117 -32.5q-78 0 -126 42t-48 112q0 72 60 116.5t157 44.5q75 0 154 -19v185h-337v58h409zM181 619h-70 l130 150h73l130 -150h-70l-96 109z" horiz-adv-x="561"/>
<glyph glyph-name="adieresis.ss02" d="M231 44q68 0 122.5 52.5t54.5 138.5q-72 18 -145 18q-68 0 -109 -29.5t-41 -77.5q0 -47 31.5 -74.5t86.5 -27.5zM480 529v-529h-70l-2 112q-27 -57 -80 -89.5t-117 -32.5q-78 0 -126 42t-48 112q0 72 60 116.5t157 44.5q75 0 154 -19v185h-337v58h409zM380 662 q-21 0 -35 14t-14 34q0 21 14 35t35 14q20 0 34 -14t14 -35q0 -20 -14 -34t-34 -14zM176 662q-20 0 -34 14t-14 34q0 21 14 35t34 14q21 0 35 -14t14 -35q0 -20 -14 -34t-35 -14z" horiz-adv-x="561"/>
<glyph glyph-name="agrave.ss02" d="M231 44q68 0 122.5 52.5t54.5 138.5q-72 18 -145 18q-68 0 -109 -29.5t-41 -77.5q0 -47 31.5 -74.5t86.5 -27.5zM480 529v-529h-70l-2 112q-27 -57 -80 -89.5t-117 -32.5q-78 0 -126 42t-48 112q0 72 60 116.5t157 44.5q75 0 154 -19v185h-337v58h409zM259 619l-155 150 h89l131 -150h-65z" horiz-adv-x="561"/>
<glyph glyph-name="amacron.ss02" d="M231 44q68 0 122.5 52.5t54.5 138.5q-72 18 -145 18q-68 0 -109 -29.5t-41 -77.5q0 -47 31.5 -74.5t86.5 -27.5zM480 529v-529h-70l-2 112q-27 -57 -80 -89.5t-117 -32.5q-78 0 -126 42t-48 112q0 72 60 116.5t157 44.5q75 0 154 -19v185h-337v58h409zM433 647h-310v57 h310v-57z" horiz-adv-x="561"/>
<glyph glyph-name="aogonek.ss02" d="M231 44q68 0 122.5 52.5t54.5 138.5q-72 18 -145 18q-68 0 -109 -29.5t-41 -77.5q0 -47 31.5 -74.5t86.5 -27.5zM474 0q-74 0 -120 -35t-46 -90q0 -33 18 -52t48 -19q45 0 74 41l29 -22q-38 -53 -106 -53q-49 0 -77.5 28t-28.5 75q0 55 38.5 93.5t105.5 51.5l-1 94 q-27 -57 -80 -89.5t-117 -32.5q-78 0 -126 42t-48 112q0 72 60 116.5t157 44.5q75 0 154 -19v185h-337v58h409v-529h-6z" horiz-adv-x="561"/>
<glyph glyph-name="aring.ss02" d="M231 44q68 0 122.5 52.5t54.5 138.5q-72 18 -145 18q-68 0 -109 -29.5t-41 -77.5q0 -47 31.5 -74.5t86.5 -27.5zM480 529v-529h-70l-2 112q-27 -57 -80 -89.5t-117 -32.5q-78 0 -126 42t-48 112q0 72 60 116.5t157 44.5q75 0 154 -19v185h-337v58h409zM278 757 q-29 0 -47 -18.5t-18 -49.5t18 -49.5t47 -18.5t47 18.5t18 49.5t-18 49.5t-47 18.5zM278 584q-49 0 -79 29t-30 76t30 76t79 29t79 -29t30 -76t-30 -76t-79 -29z" horiz-adv-x="561"/>
<glyph glyph-name="atilde.ss02" d="M231 44q68 0 122.5 52.5t54.5 138.5q-72 18 -145 18q-68 0 -109 -29.5t-41 -77.5q0 -47 31.5 -74.5t86.5 -27.5zM480 529v-529h-70l-2 112q-27 -57 -80 -89.5t-117 -32.5q-78 0 -126 42t-48 112q0 72 60 116.5t157 44.5q75 0 154 -19v185h-337v58h409zM197 699 q-24 0 -39 -17t-15 -45h-45q0 53 28 85.5t71 32.5q36 0 85.5 -36t74.5 -36q24 0 39.5 16.5t15.5 45.5h44q0 -54 -27.5 -86t-71.5 -32q-35 0 -85 36t-75 36z" horiz-adv-x="561"/>
<glyph glyph-name="c.ss02" d="M432 431q-45 45 -119 45q-86 0 -138 -58t-52 -154q0 -95 52.5 -153.5t137.5 -58.5q76 0 121 47v-69q-51 -40 -122 -40q-119 0 -192 75.5t-73 198.5q0 124 73 199.5t192 75.5q66 0 120 -39v-69z" horiz-adv-x="481"/>
<glyph glyph-name="cacute.ss02" d="M432 431q-45 45 -119 45q-86 0 -138 -58t-52 -154q0 -95 52.5 -153.5t137.5 -58.5q76 0 121 47v-69q-51 -40 -122 -40q-119 0 -192 75.5t-73 198.5q0 124 73 199.5t192 75.5q66 0 120 -39v-69zM257 619l130 150h89l-155 -150h-64z" horiz-adv-x="481"/>
<glyph glyph-name="ccaron.ss02" d="M123 264q0 -95 52.5 -153.5t137.5 -58.5q76 0 121 47v-69q-51 -40 -122 -40q-119 0 -192 75.5t-73 198.5q0 124 73 199.5t192 75.5q66 0 120 -39v-69q-45 45 -119 45q-86 0 -138 -58t-52 -154zM266 619l-130 150h70l97 -109l96 109h70l-130 -150h-73z" horiz-adv-x="481"/>
<glyph glyph-name="ccedilla.ss02" d="M434 30q-50 -38 -117 -40l-39 -60q16 2 25 2q47 0 75.5 -21.5t28.5 -56.5q0 -38 -32 -61t-85 -23q-65 0 -96 28l16 30q26 -23 75 -23q37 0 58 13t21 35t-20.5 34.5t-54.5 12.5q-25 0 -49 -8l-11 21l48 79q-105 11 -167.5 84.5t-62.5 187.5q0 124 73 199.5t192 75.5 q66 0 120 -39v-69q-45 45 -119 45q-86 0 -138 -58t-52 -154q0 -95 52.5 -153.5t137.5 -58.5q76 0 121 47v-69z" horiz-adv-x="481"/>
<glyph glyph-name="cdotaccent.ss02" d="M432 431q-45 45 -119 45q-86 0 -138 -58t-52 -154q0 -95 52.5 -153.5t137.5 -58.5q76 0 121 47v-69q-51 -40 -122 -40q-119 0 -192 75.5t-73 198.5q0 124 73 199.5t192 75.5q66 0 120 -39v-69zM302 662q-20 0 -34 14t-14 34q0 21 14 35t34 14q21 0 35 -14t14 -35 q0 -20 -14 -34t-35 -14z" horiz-adv-x="481"/>
<glyph glyph-name="f.ss02" d="M185 720v-191h180v-60h-180v-469h-72v469h-92v60h92v251h258v-60h-186z" horiz-adv-x="376"/>
<glyph glyph-name="g.ss02" d="M319 52q87 0 140.5 58.5t53.5 153.5q0 96 -53.5 154t-140.5 58q-88 0 -141.5 -58t-53.5 -153q0 -96 53.5 -154.5t141.5 -58.5zM585 529v-749h-514v60h442v274q-60 -124 -211 -124q-112 0 -183 76t-71 200q0 122 71 197.5t183 75.5q152 0 211 -125l2 115h70z"/>
<glyph glyph-name="gbreve.ss02" d="M319 52q87 0 140.5 58.5t53.5 153.5q0 96 -53.5 154t-140.5 58q-88 0 -141.5 -58t-53.5 -153q0 -96 53.5 -154.5t141.5 -58.5zM585 529v-749h-514v60h442v274q-60 -124 -211 -124q-112 0 -183 76t-71 200q0 122 71 197.5t183 75.5q152 0 211 -125l2 115h70zM329 610 q-73 0 -117 43.5t-44 115.5h59q0 -51 28 -82.5t74 -31.5t74 31.5t28 82.5h58q0 -72 -44 -115.5t-116 -43.5z"/>
<glyph glyph-name="gcommaaccent.ss02" d="M319 52q87 0 140.5 58.5t53.5 153.5q0 96 -53.5 154t-140.5 58q-88 0 -141.5 -58t-53.5 -153q0 -96 53.5 -154.5t141.5 -58.5zM585 529v-749h-514v60h442v274q-60 -124 -211 -124q-112 0 -183 76t-71 200q0 122 71 197.5t183 75.5q152 0 211 -125l2 115h70zM349 593h-67 l70 187h56z"/>
<glyph glyph-name="gdotaccent.ss02" d="M319 52q87 0 140.5 58.5t53.5 153.5q0 96 -53.5 154t-140.5 58q-88 0 -141.5 -58t-53.5 -153q0 -96 53.5 -154.5t141.5 -58.5zM585 529v-749h-514v60h442v274q-60 -124 -211 -124q-112 0 -183 76t-71 200q0 122 71 197.5t183 75.5q152 0 211 -125l2 115h70zM328 662 q-20 0 -34 14t-14 34q0 21 14 35t34 14q21 0 35 -14t14 -35q0 -20 -14 -34t-35 -14z"/>
<glyph glyph-name="j.ss02" d="M83 529h72v-749h-72v749zM118 662q-20 0 -34 14t-14 34q0 21 14 35t34 14q21 0 35 -14t14 -35q0 -20 -14 -34t-35 -14z" horiz-adv-x="238"/>
<glyph glyph-name="l.ss02" d="M84 780h72v-720h112v-60h-184v780z" horiz-adv-x="276"/>
<glyph glyph-name="lacute.ss02" d="M84 780h72v-720h112v-60h-184v780zM75 870l130 150h89l-155 -150h-64z" horiz-adv-x="276"/>
<glyph glyph-name="lcaron.ss02" d="M331 780l-70 -187h-57l59 187h68zM84 780h72v-720h112v-60h-184v780z" horiz-adv-x="283"/>
<glyph glyph-name="lcommaaccent.ss02" d="M210 -52l-64 -168h-56l53 168h67zM84 780h72v-720h112v-60h-184v780z" horiz-adv-x="276"/>
<glyph glyph-name="lslash.ss02" d="M268 60v-60h-184v352l-94 -67v58l94 67v370h72v-329l94 66v-59l-94 -65v-333h112z" horiz-adv-x="276"/>
<glyph glyph-name="t.ss02" d="M350 469h-132v-469h-72v469h-132v60h132v155h72v-155h132v-60z" horiz-adv-x="349"/>
<glyph glyph-name="tbar.ss02" d="M234 469v-178h116v-53h-116v-238h-72v238h-116v53h116v178h-131v60h131v155h72v-155h132v-60h-132z" horiz-adv-x="381"/>
<glyph glyph-name="tcaron.ss02" d="M218 529h132v-60h-132v-469h-72v469h-132v60h132v155h72v-155zM424 780l-70 -187h-56l59 187h67z" horiz-adv-x="349"/>
<glyph glyph-name="uni0163.ss02" d="M203 0l-45 -69q8 1 26 1q47 0 75.5 -21.5t28.5 -56.5q0 -38 -32 -61t-85 -23q-65 0 -96 28l16 30q26 -23 75 -23q37 0 58 13t21 35t-20.5 34.5t-54.5 12.5q-27 0 -49 -8l-11 21l53 87h-17v469h-132v60h132v155h72v-155h132v-60h-132v-469h-15z" horiz-adv-x="349"/>
<glyph glyph-name="uni021B.ss02" d="M155 -52h67l-64 -168h-56zM350 529v-60h-132v-469h-72v469h-132v60h132v155h72v-155h132z" horiz-adv-x="349"/>
<glyph glyph-name="u.ss02" d="M469 529h72v-335q0 -92 -64 -148t-169 -56t-169 58.5t-64 155.5v325h72v-320q0 -71 44 -114t117 -43t117 43t44 114v320z" horiz-adv-x="616"/>
<glyph glyph-name="uacute.ss02" d="M469 529h72v-335q0 -92 -64 -148t-169 -56t-169 58.5t-64 155.5v325h72v-320q0 -71 44 -114t117 -43t117 43t44 114v320zM262 619l130 150h89l-155 -150h-64z" horiz-adv-x="616"/>
<glyph glyph-name="ucircumflex.ss02" d="M541 529v-335q0 -92 -64 -148t-169 -56t-169 58.5t-64 155.5v325h72v-320q0 -71 44 -114t117 -43t117 43t44 114v320h72zM211 619h-70l130 150h73l130 -150h-70l-96 109z" horiz-adv-x="616"/>
<glyph glyph-name="udieresis.ss02" d="M469 529h72v-335q0 -92 -64 -148t-169 -56t-169 58.5t-64 155.5v325h72v-320q0 -71 44 -114t117 -43t117 43t44 114v320zM410 662q-21 0 -35 14t-14 34q0 21 14 35t35 14q20 0 34 -14t14 -35q0 -20 -14 -34t-34 -14zM206 662q-20 0 -34 14t-14 34q0 21 14 35t34 14 q21 0 35 -14t14 -35q0 -20 -14 -34t-35 -14z" horiz-adv-x="616"/>
<glyph glyph-name="ugrave.ss02" d="M469 529h72v-335q0 -92 -64 -148t-169 -56t-169 58.5t-64 155.5v325h72v-320q0 -71 44 -114t117 -43t117 43t44 114v320zM134 769h89l131 -150h-65z" horiz-adv-x="616"/>
<glyph glyph-name="uhungarumlaut.ss02" d="M469 529h72v-335q0 -92 -64 -148t-169 -56t-169 58.5t-64 155.5v325h72v-320q0 -71 44 -114t117 -43t117 43t44 114v320zM343 619l106 150h89l-131 -150h-64zM194 619l106 150h89l-131 -150h-64z" horiz-adv-x="616"/>
<glyph glyph-name="umacron.ss02" d="M469 529h72v-335q0 -92 -64 -148t-169 -56t-169 58.5t-64 155.5v325h72v-320q0 -71 44 -114t117 -43t117 43t44 114v320zM463 704v-57h-310v57h310z" horiz-adv-x="616"/>
<glyph glyph-name="uogonek.ss02" d="M455 30q-125 -83 -125 -159q0 -31 19 -49t50 -18q47 0 76 41l29 -22q-40 -53 -107 -53q-50 0 -80 27t-30 71q0 66 74 126q-23 -4 -53 -4q-105 0 -169 58.5t-64 155.5v325h72v-320q0 -71 44 -114t117 -43t117 43t44 114v320h72v-335q0 -107 -86 -164z" horiz-adv-x="616"/>
<glyph glyph-name="uring.ss02" d="M469 529h72v-335q0 -92 -64 -148t-169 -56t-169 58.5t-64 155.5v325h72v-320q0 -71 44 -114t117 -43t117 43t44 114v320zM308 621q29 0 47 18.5t18 49.5t-18 49.5t-47 18.5t-47 -18.5t-18 -49.5t18 -49.5t47 -18.5zM308 584q-49 0 -79 29t-30 76t30 76t79 29t79 -29 t30 -76t-30 -76t-79 -29z" horiz-adv-x="616"/>
<glyph glyph-name="y.ss02" d="M541 529v-749h-461v60h389v246q-54 -96 -184 -96q-94 0 -152 56.5t-58 148.5v334h72v-320q0 -71 44 -114t117 -43t117 43t44 114v320h72z" horiz-adv-x="623"/>
<glyph glyph-name="yacute.ss02" d="M541 529v-749h-461v60h389v246q-54 -96 -184 -96q-94 0 -152 56.5t-58 148.5v334h72v-320q0 -71 44 -114t117 -43t117 43t44 114v320h72zM327 619h-64l130 150h89z" horiz-adv-x="623"/>
<glyph glyph-name="ycircumflex.ss02" d="M541 529v-749h-461v60h389v246q-54 -96 -184 -96q-94 0 -152 56.5t-58 148.5v334h72v-320q0 -71 44 -114t117 -43t117 43t44 114v320h72zM211 619h-70l130 150h73l130 -150h-70l-96 109z" horiz-adv-x="623"/>
<glyph glyph-name="ydieresis.ss02" d="M541 529v-749h-461v60h389v246q-54 -96 -184 -96q-94 0 -152 56.5t-58 148.5v334h72v-320q0 -71 44 -114t117 -43t117 43t44 114v320h72zM410 662q-21 0 -35 14t-14 34q0 21 14 35t35 14q20 0 34 -14t14 -35q0 -20 -14 -34t-34 -14zM206 662q-20 0 -34 14t-14 34 q0 21 14 35t34 14q21 0 35 -14t14 -35q0 -20 -14 -34t-35 -14z" horiz-adv-x="623"/>
<glyph glyph-name="ygrave.ss02" d="M541 529v-749h-461v60h389v246q-54 -96 -184 -96q-94 0 -152 56.5t-58 148.5v334h72v-320q0 -71 44 -114t117 -43t117 43t44 114v320h72zM289 619l-155 150h89l131 -150h-65z" horiz-adv-x="623"/>
<glyph glyph-name="z.ss02" d="M464 60v-60h-431l311 469h-307v60h422l-312 -469h317z" horiz-adv-x="497"/>
<glyph glyph-name="zacute.ss02" d="M464 60v-60h-431l311 469h-307v60h422l-312 -469h317zM203 619l130 150h89l-155 -150h-64z" horiz-adv-x="497"/>
<glyph glyph-name="zcaron.ss02" d="M464 60v-60h-431l311 469h-307v60h422l-312 -469h317zM212 619l-130 150h70l97 -109l96 109h70l-130 -150h-73z" horiz-adv-x="497"/>
<glyph glyph-name="zdotaccent.ss02" d="M464 60v-60h-431l311 469h-307v60h422l-312 -469h317zM248 662q-20 0 -34 14t-14 34q0 21 14 35t34 14q21 0 35 -14t14 -35q0 -20 -14 -34t-35 -14z" horiz-adv-x="497"/>
<glyph glyph-name="fi.ss01" d="M500 529v-529h-72v529h72zM464 662q-21 0 -35 14t-14 34q0 21 14 35t35 14q20 0 34 -14t14 -35q0 -20 -14 -34t-34 -14zM255 728q-46 0 -73.5 -26.5t-27.5 -70.5v-102h179v-60h-179v-469h-72v642q0 67 42 107.5t111 40.5q67 0 108 -21l-6 -57q-35 16 -82 16z" horiz-adv-x="583"/>
<glyph glyph-name="fl.ss01" d="M429 780h72v-780h-72v780zM255 728q-46 0 -73.5 -26.5t-27.5 -70.5v-102h179v-60h-179v-469h-72v642q0 67 42 107.5t111 40.5q67 0 108 -21l-6 -57q-35 16 -82 16z" horiz-adv-x="586"/>
<glyph glyph-name="fi.ss02" d="M531 529v-529h-72v529h72zM495 662q-21 0 -35 14t-14 34q0 21 14 35t35 14q20 0 34 -14t14 -35q0 -20 -14 -34t-34 -14zM185 720v-191h180v-60h-180v-469h-72v469h-92v60h92v251h258v-60h-186z" horiz-adv-x="614"/>
<glyph glyph-name="fl.ss02" d="M460 780h72v-720h112v-60h-184v780zM185 720v-191h180v-60h-180v-469h-72v469h-92v60h92v251h258v-60h-186z" horiz-adv-x="652"/>
<glyph glyph-name="zero.lf" d="M345 53q94 0 151.5 87.5t57.5 229.5t-57.5 229.5t-151.5 87.5t-152 -87t-58 -230t58 -230t152 -87zM345 -10q-130 0 -209 104.5t-79 275.5t79 275.5t209 104.5t209 -104.5t79 -275.5t-79 -275.5t-209 -104.5z" horiz-adv-x="689"/>
<glyph glyph-name="one.lf" d="M13 562l241 178h59v-740h-76v640l-185 -134z" horiz-adv-x="413"/>
<glyph glyph-name="two.lf" d="M513 63v-63h-467v49l224 241q1 1 18.5 19.5t21 22.5t19.5 22t21.5 25.5t19 25t18.5 28t14 27.5t13 30.5t7 29.5t3 31q0 63 -39.5 99.5t-105.5 36.5q-67 0 -108 -40.5t-41 -106.5l-78 6q0 92 62 148t164 56q101 0 162.5 -52.5t61.5 -140.5q0 -43 -14 -83.5t-46 -84.5 t-54.5 -70t-68.5 -74l-172 -183z" horiz-adv-x="564"/>
<glyph glyph-name="three.lf" d="M279 426q106 0 171 -58.5t65 -153.5q0 -101 -71 -162.5t-189 -61.5q-146 0 -214 83l30 56q59 -76 176 -76q86 0 137.5 44t51.5 116q0 70 -50.5 112t-133.5 42q-64 0 -114 -25l-20 39l269 296h-318v63h420v-48l-252 -268q28 2 42 2z" horiz-adv-x="564"/>
<glyph glyph-name="four.lf" d="M391 222l1 409l-295 -409h294zM389 160h-366v56l380 524h63v-517h111v-63h-111v-160h-77v160z" horiz-adv-x="610"/>
<glyph glyph-name="five.lf" d="M251 -10q-141 0 -214 69l23 56q66 -62 184 -62q89 0 143.5 46.5t54.5 123.5q0 71 -46 115.5t-121 44.5q-72 0 -138 -30l-52 8l51 379h351v-63h-283l-38 -248q59 17 123 17q103 0 167.5 -60.5t64.5 -158.5q0 -106 -75 -171.5t-195 -65.5z" horiz-adv-x="569"/>
<glyph glyph-name="six.lf" d="M285 53q73 0 117 46t44 121q0 76 -44 122t-117 46t-117 -46t-44 -122q0 -75 44 -121t117 -46zM299 447q99 0 162.5 -62.5t63.5 -163.5q0 -104 -66 -167.5t-174 -63.5t-174 63t-66 166q0 92 57 174l235 347h86l-213 -305q39 12 89 12z" horiz-adv-x="562"/>
<glyph glyph-name="seven.lf" d="M490 740l-264 -740h-81l245 677h-369v63h469z" horiz-adv-x="508"/>
<glyph glyph-name="eight.lf" d="M297 53q73 0 117 41t44 108t-44 108t-117 41t-117 -41t-44 -108t44 -108t117 -41zM156 550q0 -61 38.5 -98t102.5 -37t102.5 37t38.5 98q0 62 -38.5 99.5t-102.5 37.5t-102.5 -37.5t-38.5 -99.5zM401 384q64 -22 100 -71t36 -115q0 -94 -66 -151t-174 -57t-174 57 t-66 149q0 67 36.5 116t100.5 72q-55 22 -86 66.5t-31 104.5q0 88 60.5 141.5t159.5 53.5t159.5 -53.5t60.5 -140.5q0 -60 -30.5 -104.5t-85.5 -67.5z" horiz-adv-x="594"/>
<glyph glyph-name="nine.lf" d="M116 520q0 -76 44 -122t117 -46t117 46t44 122q0 75 -44 121t-117 46t-117 -46t-44 -121zM277 750q108 0 174 -63t66 -166q0 -92 -57 -174l-235 -347h-86l213 305q-39 -12 -89 -12q-99 0 -162.5 62.5t-63.5 163.5q0 104 66 167.5t174 63.5z" horiz-adv-x="562"/>
<glyph glyph-name="zero.osf" d="M366 52q104 0 167.5 72t63.5 190t-63.5 190t-167.5 72t-168 -72t-64 -190t64 -190t168 -72zM366 -10q-139 0 -224 89.5t-85 234.5q0 146 85 235.5t224 89.5t224 -89.5t85 -235.5q0 -145 -85 -234.5t-224 -89.5z" horiz-adv-x="732"/>
<glyph glyph-name="one.osf" d="M20 486l193 143h55v-629h-72v532l-138 -99z" horiz-adv-x="366"/>
<glyph glyph-name="two.osf" d="M520 60v-60h-466v49l248 196q27 21 44.5 36.5t41.5 42t36.5 56t12.5 60.5q0 61 -41 98.5t-108 37.5q-69 0 -111.5 -40.5t-42.5 -106.5l-73 6q0 92 62 148t163 56t162.5 -53t61.5 -140q0 -43 -14.5 -80.5t-44 -70.5t-52.5 -53t-62 -50l-172 -132h355z" horiz-adv-x="576"/>
<glyph glyph-name="three.osf" d="M287 321q104 0 167.5 -58t63.5 -152q0 -100 -69.5 -160.5t-185.5 -60.5q-148 0 -214 83l29 56q59 -77 177 -77q85 0 136.5 43.5t51.5 115.5q0 68 -50.5 110t-133.5 42q-63 0 -113 -27l-20 39l273 294h-322v60h420v-48l-252 -263q21 3 42 3z" horiz-adv-x="574"/>
<glyph glyph-name="four.osf" d="M396 58l1 460l-300 -460h299zM394 0h-370v51l383 578h59v-569h112v-60h-112v-110h-72v110z" horiz-adv-x="608"/>
<glyph glyph-name="five.osf" d="M250 -110q-141 0 -214 69l23 55q66 -62 184 -62q89 0 143.5 46.5t54.5 121.5q0 71 -45.5 114t-120.5 43q-70 0 -139 -29l-51 7l51 374h350v-60h-286l-39 -247q62 17 127 17q102 0 165 -59.5t63 -155.5q0 -105 -74 -169.5t-192 -64.5z" horiz-adv-x="571"/>
<glyph glyph-name="six.osf" d="M282 53q72 0 116.5 46t44.5 121q0 76 -44.5 122t-116.5 46q-73 0 -117 -46t-44 -122q0 -75 44 -121t117 -46zM296 447q100 0 161 -62t61 -164q0 -104 -64.5 -167.5t-171.5 -63.5q-106 0 -171 63t-65 166q0 92 54 170l239 351h82l-213 -305q41 12 88 12z" horiz-adv-x="557"/>
<glyph glyph-name="seven.osf" d="M507 629l-261 -734l-70 19l232 655h-370v60h469z" horiz-adv-x="538"/>
<glyph glyph-name="eight.osf" d="M293 53q73 0 117 41t44 108t-44 108t-117 41q-72 0 -116.5 -41t-44.5 -108t44.5 -108t116.5 -41zM152 550q0 -61 39 -98t102 -37q64 0 102.5 37t38.5 98q0 62 -38.5 99.5t-102.5 37.5q-63 0 -102 -38t-39 -99zM395 384q63 -22 99 -71t36 -115q0 -94 -65 -151t-171 -57 t-171.5 57t-65.5 149q0 67 35.5 116t99.5 72q-54 22 -84.5 66.5t-30.5 104.5q0 88 59.5 141.5t157.5 53.5q97 0 156.5 -53.5t59.5 -140.5q0 -60 -30.5 -104.5t-84.5 -67.5z" horiz-adv-x="587"/>
<glyph glyph-name="nine.osf" d="M112 408q0 -75 44.5 -121.5t116.5 -46.5q73 0 117 46.5t44 121.5q0 76 -44 121.5t-117 45.5q-72 0 -116.5 -46t-44.5 -121zM274 639q106 0 171 -63.5t65 -166.5q0 -93 -55 -169l-235 -345l-68 19l195 280q-42 -13 -88 -13q-100 0 -161 62.5t-61 164.5q0 104 65 167.5 t172 63.5z" horiz-adv-x="556"/>
<glyph glyph-name="one.ss02" d="M21 740h212v-740h-76v677h-136v63z" horiz-adv-x="333"/>
<glyph glyph-name="one.lf.ss02" d="M21 740h212v-740h-76v677h-136v63z" horiz-adv-x="333"/>
<glyph glyph-name="one.osf.ss02" d="M39 629h200v-629h-72v569h-128v60z" horiz-adv-x="338"/>
<glyph glyph-name="one.tf.ss02" d="M536 63v-63h-446v63h222v614h-166v63h242v-677h148z" horiz-adv-x="615"/>
<glyph glyph-name="one.tosf.ss02" d="M539 60v-60h-446v60h220v509h-157v60h229v-569h154z" horiz-adv-x="615"/>
<glyph glyph-name="zero.tf" d="M308 53q71 0 115 87.5t44 229.5t-44 229.5t-115 87.5q-72 0 -116 -87t-44 -230t44 -230t116 -87zM308 -10q-107 0 -172.5 104.5t-65.5 275.5t65.5 275.5t172.5 104.5t172 -104.5t65 -275.5t-65 -275.5t-172 -104.5z" horiz-adv-x="615"/>
<glyph glyph-name="one.tf" d="M547 63v-63h-446v63h222v577l-185 -134l-39 56l242 178h58v-677h148z" horiz-adv-x="615"/>
<glyph glyph-name="two.tf" d="M538 63v-63h-466v49l224 241q2 2 23 24.5t26.5 29t24.5 29t26 33.5t20.5 32.5t19 37.5t10.5 36t5 39q0 63 -39.5 99.5t-105.5 36.5q-68 0 -109 -40.5t-41 -106.5l-77 6q0 92 62 148t163 56q102 0 163 -52.5t61 -140.5q0 -43 -14 -83.5t-46 -84.5t-54.5 -70t-68.5 -74 l-172 -183z" horiz-adv-x="615"/>
<glyph glyph-name="three.tf" d="M305 426q106 0 170.5 -58.5t64.5 -153.5q0 -102 -70.5 -163t-188.5 -61q-147 0 -215 83l30 56q61 -76 177 -76q85 0 136.5 44t51.5 116q0 70 -50.5 112t-133.5 42q-64 0 -113 -25l-21 39l270 296h-319v63h420v-48l-251 -268q26 2 42 2z" horiz-adv-x="615"/>
<glyph glyph-name="four.tf" d="M386 221l1 410l-280 -410h279zM384 160h-352v56l366 524h62v-517h112v-63h-112v-160h-76v160z" horiz-adv-x="615"/>
<glyph glyph-name="five.tf" d="M273 -10q-139 0 -213 69l22 56q68 -62 184 -62q89 0 143.5 46.5t54.5 123.5q0 71 -45.5 115.5t-120.5 44.5q-72 0 -138 -30l-52 8l51 379h350v-63h-282l-38 -248q59 17 123 17q103 0 167.5 -60.5t64.5 -158.5q0 -106 -75.5 -171.5t-195.5 -65.5z" horiz-adv-x="615"/>
<glyph glyph-name="six.tf" d="M311 53q73 0 117 46t44 121q0 76 -44 122t-117 46q-72 0 -116.5 -46t-44.5 -122q0 -75 44.5 -121t116.5 -46zM326 447q99 0 162.5 -62.5t63.5 -163.5q0 -104 -66 -167.5t-174 -63.5q-109 0 -175 63t-66 166q0 92 57 174l235 347h87l-213 -305q37 12 89 12z" horiz-adv-x="615"/>
<glyph glyph-name="seven.tf" d="M543 740l-264 -740h-81l246 677h-370v63h469z" horiz-adv-x="615"/>
<glyph glyph-name="eight.tf" d="M307 53q73 0 117 41t44 108t-44 108t-117 41t-117 -41t-44 -108t44 -108t117 -41zM166 550q0 -61 38.5 -98t102.5 -37t102.5 37t38.5 98q0 62 -38.5 99.5t-102.5 37.5t-102.5 -37.5t-38.5 -99.5zM411 384q64 -22 100 -71t36 -115q0 -94 -66 -151t-174 -57t-174 57 t-66 149q0 67 36.5 116t100.5 72q-55 22 -86 66.5t-31 104.5q0 88 60.5 141.5t159.5 53.5t159.5 -53.5t60.5 -140.5q0 -60 -30.5 -104.5t-85.5 -67.5z" horiz-adv-x="615"/>
<glyph glyph-name="nine.tf" d="M142 520q0 -76 44 -122t117 -46t117 46t44 122q0 75 -44 121t-117 46t-117 -46t-44 -121zM303 750q108 0 174 -63t66 -166q0 -92 -57 -174l-235 -347h-86l213 305q-39 -12 -89 -12q-99 0 -162.5 62.5t-63.5 163.5q0 104 66 167.5t174 63.5z" horiz-adv-x="562"/>
<glyph glyph-name="zero.tosf" d="M308 52q71 0 115 72t44 190t-44 190t-115 72q-72 0 -116 -72t-44 -190t44 -190t116 -72zM308 -10q-106 0 -171.5 89t-65.5 235t65 235.5t172 89.5q106 0 171 -89.5t65 -235.5q0 -145 -65 -234.5t-171 -89.5z" horiz-adv-x="615"/>
<glyph glyph-name="one.tosf" d="M542 60v-60h-446v60h203v472l-137 -99l-38 53l193 143h54v-569h171z" horiz-adv-x="615"/>
<glyph glyph-name="two.tosf" d="M540 60v-60h-467v49l248 196q27 21 44.5 36.5t41.5 42t36.5 56t12.5 60.5q0 62 -41 99t-108 37q-69 0 -111 -40.5t-42 -106.5l-74 6q0 92 62 148t164 56q101 0 162 -53t61 -140q0 -43 -14.5 -80.5t-44 -70.5t-52.5 -53t-62 -50l-171 -132h355z" horiz-adv-x="615"/>
<glyph glyph-name="three.tosf" d="M307 321q104 0 168 -58t64 -152q0 -100 -69.5 -160.5t-186.5 -60.5q-148 0 -214 83l30 56q57 -77 176 -77q86 0 137.5 43.5t51.5 115.5q0 68 -50.5 110t-133.5 42q-63 0 -114 -27l-20 39l273 294h-322v60h420v-48l-251 -263q19 3 41 3z" horiz-adv-x="615"/>
<glyph glyph-name="four.tosf" d="M393 58l1 455l-286 -455h285zM391 0h-355v51l367 578h61v-569h111v-60h-111v-110h-73v110z" horiz-adv-x="615"/>
<glyph glyph-name="five.tosf" d="M272 -110q-141 0 -214 69l22 55q68 -62 185 -62q89 0 143.5 46.5t54.5 121.5q0 71 -46 114t-121 43q-70 0 -138 -29l-52 7l51 374h351v-60h-286l-39 -247q60 17 127 17q102 0 165 -59.5t63 -155.5q0 -105 -74 -169.5t-192 -64.5z" horiz-adv-x="615"/>
<glyph glyph-name="six.tosf" d="M311 53q73 0 117 46t44 121q0 76 -44 122t-117 46q-72 0 -116.5 -46t-44.5 -122q0 -75 44.5 -121t116.5 -46zM326 447q100 0 161 -62t61 -164q0 -104 -65 -167.5t-171 -63.5t-171.5 63t-65.5 166q0 93 55 170l238 351h83l-213 -305q39 12 88 12z" horiz-adv-x="615"/>
<glyph glyph-name="seven.tosf" d="M545 629l-261 -734l-69 19l232 655h-371v60h469z" horiz-adv-x="615"/>
<glyph glyph-name="eight.tosf" d="M307 53q73 0 117 41t44 108t-44 108t-117 41t-117 -41t-44 -108t44 -108t117 -41zM166 550q0 -61 38.5 -98t102.5 -37t102.5 37t38.5 98q0 62 -38.5 99.5t-102.5 37.5t-102.5 -37.5t-38.5 -99.5zM409 384q63 -22 98.5 -71t35.5 -115q0 -94 -65 -151t-171 -57t-171 57 t-65 149q0 67 35.5 116t98.5 72q-54 22 -84 66.5t-30 104.5q0 88 59.5 141.5t156.5 53.5t156.5 -53.5t59.5 -140.5q0 -60 -30 -104.5t-84 -67.5z" horiz-adv-x="615"/>
<glyph glyph-name="nine.tosf" d="M142 408q0 -75 44 -121.5t117 -46.5q72 0 116.5 46.5t44.5 121.5t-44.5 121t-116.5 46q-73 0 -117 -45.5t-44 -121.5zM303 639q106 0 171 -63t65 -167q0 -93 -54 -169l-235 -345l-69 19l196 280q-44 -13 -88 -13q-100 0 -161 62.5t-61 164.5q0 104 64.5 167.5t171.5 63.5 z" horiz-adv-x="615"/>
<glyph glyph-name="zero.dnom" d="M214 37q55 0 88 51t33 134t-33 134t-88 51q-54 0 -87.5 -51t-33.5 -134t33.5 -134t87.5 -51zM214 -6q-78 0 -126.5 63t-48.5 165t48.5 165t126.5 63q79 0 127 -62.5t48 -165.5t-48 -165.5t-127 -62.5z" horiz-adv-x="428"/>
<glyph glyph-name="one.dnom" d="M10 336l146 108h40v-444h-52v376l-107 -77z" horiz-adv-x="261"/>
<glyph glyph-name="two.dnom" d="M317 43v-43h-284v34l134 145q1 2 10.5 11.5l12.5 12.5t11.5 13t12.5 15t11 14.5t10.5 16t9 16t7.5 17.5t4 17t2 18q0 35 -22.5 56t-59.5 21q-39 0 -62.5 -23.5t-23.5 -61.5l-52 5q0 56 37.5 89.5t99.5 33.5q61 0 98.5 -32t37.5 -85q0 -33 -17.5 -68t-37 -57.5 t-54.5 -59.5l-100 -106z" horiz-adv-x="353"/>
<glyph glyph-name="three.dnom" d="M174 258q64 0 102.5 -35.5t38.5 -92.5q0 -62 -42.5 -99t-114.5 -37q-89 0 -130 49l20 38q36 -44 104 -44q50 0 79.5 25.5t29.5 67.5q0 40 -29 64t-76 24q-38 0 -67 -15l-15 26l155 172h-184v43h254v-33l-145 -154q7 1 20 1z" horiz-adv-x="350"/>
<glyph glyph-name="four.dnom" d="M237 136v233l-169 -233h169zM235 94h-217v38l227 312h42v-306h66v-44h-66v-94h-52v94z" horiz-adv-x="378"/>
<glyph glyph-name="five.dnom" d="M155 -6q-83 0 -129 41l15 39q40 -37 109 -37q53 0 84.5 27t31.5 72q0 41 -26.5 66t-69.5 25q-39 0 -80 -19l-35 6l31 230h213v-43h-167l-21 -141q35 10 69 10q62 0 101 -36.5t39 -95.5q0 -64 -46 -104t-119 -40z" horiz-adv-x="354"/>
<glyph glyph-name="six.dnom" d="M177 37q41 0 66.5 26.5t25.5 69.5t-25.5 69.5t-66.5 26.5t-66.5 -26.5t-25.5 -69.5t25.5 -69.5t66.5 -26.5zM187 269q59 0 97.5 -37.5t38.5 -98.5q0 -63 -40 -101t-106 -38q-65 0 -105.5 38t-40.5 100q0 54 37 109l138 203h59l-127 -180q23 5 49 5z" horiz-adv-x="350"/>
<glyph glyph-name="seven.dnom" d="M301 444l-157 -444h-55l143 401h-216v43h285z" horiz-adv-x="315"/>
<glyph glyph-name="eight.dnom" d="M186 37q41 0 66.5 23.5t25.5 61.5q0 39 -25.5 62.5t-66.5 23.5t-67 -23.5t-26 -62.5q0 -38 26 -61.5t67 -23.5zM186 407q-36 0 -58.5 -21.5t-22.5 -56.5t22.5 -56t58.5 -21t58 21t22 56q0 34 -22.5 56t-57.5 22zM252 230q37 -14 58 -43t21 -68q0 -56 -40 -90.5 t-105 -34.5q-66 0 -106.5 34t-40.5 90q0 40 21.5 69t58.5 43q-68 29 -68 102q0 53 37 85.5t98 32.5q60 0 96.5 -32t36.5 -85q0 -73 -67 -103z" horiz-adv-x="371"/>
<glyph glyph-name="nine.dnom" d="M81 311q0 -43 25.5 -69.5t66.5 -26.5t66.5 26.5t25.5 69.5t-25.5 69.5t-66.5 26.5t-66.5 -26.5t-25.5 -69.5zM173 450q65 0 105.5 -38t40.5 -100q0 -54 -37 -109l-138 -203h-59l128 181q-23 -6 -50 -6q-59 0 -97.5 37.5t-38.5 98.5q0 63 40 101t106 38z" horiz-adv-x="350"/>
<glyph glyph-name="zero.numr" d="M214 333q55 0 88 51t33 134t-33 134t-88 51q-54 0 -87.5 -51t-33.5 -134t33.5 -134t87.5 -51zM214 290q-78 0 -126.5 63t-48.5 165t48.5 165t126.5 63q79 0 127 -62.5t48 -165.5t-48 -165.5t-127 -62.5z" horiz-adv-x="428"/>
<glyph glyph-name="one.numr" d="M10 632l146 108h40v-444h-52v376l-107 -77z" horiz-adv-x="261"/>
<glyph glyph-name="two.numr" d="M317 339v-43h-284v34l134 145q1 2 10.5 11.5l12.5 12.5t11.5 13t12.5 15t11 14.5t10.5 16t9 16t7.5 17.5t4 17t2 18q0 35 -22.5 56t-59.5 21q-39 0 -62.5 -23.5t-23.5 -61.5l-52 5q0 56 37.5 89.5t99.5 33.5q61 0 98.5 -32t37.5 -85q0 -33 -17.5 -68t-37 -57.5 t-54.5 -59.5l-100 -106z" horiz-adv-x="353"/>
<glyph glyph-name="three.numr" d="M174 554q64 0 102.5 -35.5t38.5 -92.5q0 -62 -42.5 -99t-114.5 -37q-89 0 -130 49l20 38q36 -44 104 -44q50 0 79.5 25.5t29.5 67.5q0 40 -29 64t-76 24q-38 0 -67 -15l-15 26l155 172h-184v43h254v-33l-145 -154q6 1 20 1z" horiz-adv-x="350"/>
<glyph glyph-name="four.numr" d="M237 432v233l-169 -233h169zM235 390h-217v38l227 312h42v-306h66v-44h-66v-94h-52v94z" horiz-adv-x="378"/>
<glyph glyph-name="five.numr" d="M155 290q-83 0 -129 41l15 39q40 -37 109 -37q53 0 84.5 27t31.5 72q0 41 -26.5 66t-69.5 25q-39 0 -80 -19l-35 6l31 230h213v-43h-167l-21 -141q35 10 69 10q62 0 101 -36.5t39 -95.5q0 -64 -46 -104t-119 -40z" horiz-adv-x="354"/>
<glyph glyph-name="six.numr" d="M177 333q41 0 66.5 26.5t25.5 69.5t-25.5 69.5t-66.5 26.5t-66.5 -26.5t-25.5 -69.5t25.5 -69.5t66.5 -26.5zM187 565q59 0 97.5 -37.5t38.5 -98.5q0 -63 -40 -101t-106 -38q-65 0 -105.5 38t-40.5 100q0 54 37 109l138 203h59l-128 -181q22 6 50 6z" horiz-adv-x="350"/>
<glyph glyph-name="seven.numr" d="M301 740l-157 -444h-55l144 401h-217v43h285z" horiz-adv-x="315"/>
<glyph glyph-name="eight.numr" d="M186 333q41 0 66.5 23.5t25.5 61.5q0 39 -25.5 62.5t-66.5 23.5t-67 -23.5t-26 -62.5q0 -38 26 -61.5t67 -23.5zM186 703q-36 0 -58.5 -21.5t-22.5 -56.5t22.5 -56t58.5 -21t58 21t22 56q0 34 -22.5 56t-57.5 22zM251 526q80 -29 80 -111q0 -56 -40 -90.5t-105 -34.5 q-66 0 -106.5 34t-40.5 90q0 39 21.5 68.5t59.5 43.5q-69 29 -69 102q0 53 37 85.5t98 32.5q60 0 96.5 -32t36.5 -85q0 -75 -68 -103z" horiz-adv-x="371"/>
<glyph glyph-name="nine.numr" d="M81 607q0 -43 25.5 -69.5t66.5 -26.5t66.5 26.5t25.5 69.5t-25.5 69.5t-66.5 26.5t-66.5 -26.5t-25.5 -69.5zM173 746q65 0 105.5 -38t40.5 -100q0 -54 -37 -109l-138 -203h-59l128 181q-23 -6 -50 -6q-59 0 -97.5 37.5t-38.5 98.5q0 63 40 101t106 38z" horiz-adv-x="350"/>
<glyph glyph-name="onehalf.ss02" d="M729 43v-43h-284v34l134 145q1 2 10.5 11.5l12.5 12.5t11.5 13t12.5 15t11 14.5t10.5 16t9 16t7.5 17.5t4 17t2 18q0 35 -22.5 56t-59.5 21q-39 0 -62.5 -23.5t-23.5 -61.5l-52 5q0 56 37.5 89.5t99.5 33.5q61 0 98.5 -32t37.5 -85q0 -33 -17.5 -68t-37 -57.5 t-54.5 -59.5l-100 -106zM19 740h131v-444h-52v401h-79v43zM119 -10l-42 26l430 734l42 -26z" horiz-adv-x="765"/>
<glyph glyph-name="onequarter.ss02" d="M611 136v233l-169 -233h169zM609 94h-217v38l227 312h42v-306h66v-44h-66v-94h-52v94zM19 740h131v-444h-52v401h-79v43zM119 -10l-42 26l430 734l42 -26z" horiz-adv-x="752"/>
<glyph glyph-name="oneeighth.ss02" d="M598 37q41 0 66.5 23.5t25.5 61.5q0 39 -25.5 62.5t-66.5 23.5t-67 -23.5t-26 -62.5q0 -38 26 -61.5t67 -23.5zM598 407q-36 0 -58.5 -21.5t-22.5 -56.5t22.5 -56t58.5 -21t58 21t22 56q0 34 -22.5 56t-57.5 22zM663 230q80 -29 80 -111q0 -56 -40 -90.5t-105 -34.5 q-66 0 -106.5 34t-40.5 90q0 39 21.5 68.5t59.5 43.5q-69 29 -69 102q0 53 37 85.5t98 32.5q60 0 96.5 -32t36.5 -85q0 -75 -68 -103zM98 697h-79v43h131v-444h-52v401zM549 724l-430 -734l-42 26l430 734z" horiz-adv-x="782"/>
<glyph glyph-name="one.dnom.ss02" d="M19 444h131v-444h-52v401h-79v43z" horiz-adv-x="215"/>
<glyph glyph-name="one.numr.ss02" d="M19 740h131v-444h-52v401h-79v43z" horiz-adv-x="215"/>
<glyph glyph-name="uni2081.ss02" d="M19 344h131v-444h-52v401h-79v43z" horiz-adv-x="215"/>
<glyph glyph-name="uni00B9.ss02" d="M12 840h131v-444h-52v401h-79v43z" horiz-adv-x="215"/>
<glyph glyph-name="exclamdown.case" d="M96 0l7 576h63l7 -576h-77zM183 701q0 -20 -14 -34t-34 -14q-21 0 -35 14t-14 34q0 21 14 35t35 14q20 0 34 -14t14 -35z" horiz-adv-x="269"/>
<glyph glyph-name="questiondown.case" d="M301 576q0 -61 -9.5 -107.5t-30 -79t-35 -48.5t-41.5 -40q-24 -20 -35.5 -32t-22 -34.5t-10.5 -49.5q0 -59 40.5 -95.5t107.5 -36.5q65 0 106 36.5t43 95.5l72 -4q-4 -86 -64.5 -138.5t-156.5 -52.5q-103 0 -165 52t-62 137q0 39 14 70.5t29 47t45 40.5q27 24 41 38.5 t33.5 43.5t28.5 67.5t9 89.5h63zM270 750q20 0 34 -14t14 -35q0 -20 -14 -34t-34 -14q-21 0 -35 14t-14 34q0 21 14 35t35 14z" horiz-adv-x="519"/>
<glyph glyph-name="slash.case" d="M119 0h-73l201 740h73z" horiz-adv-x="367"/>
<glyph glyph-name="braceleft.case" d="M206 509q0 -53 -21.5 -91t-55.5 -48q35 -10 56 -48t21 -90v-119q0 -45 23.5 -72.5t61.5 -27.5q42 0 79 10v-61q-48 -12 -101 -12q-62 0 -100.5 39.5t-38.5 104.5v129q0 52 -22.5 83.5t-59.5 31.5h-8v64h8q37 0 59.5 31.5t22.5 83.5v129q0 65 38.5 104.5t100.5 39.5 q53 0 101 -12v-61q-37 10 -79 10q-38 0 -61.5 -27.5t-23.5 -72.5v-118z" horiz-adv-x="410"/>
<glyph glyph-name="braceright.case" d="M204 627q0 45 -23.5 72.5t-61.5 27.5q-42 0 -79 -10v61q48 12 101 12q63 0 101 -39.5t38 -104.5v-129q0 -52 22.5 -83.5t59.5 -31.5h9v-64h-9q-37 0 -59.5 -31.5t-22.5 -83.5v-129q0 -65 -38 -104.5t-101 -39.5q-53 0 -101 12v61q37 -10 79 -10q38 0 61.5 27.5t23.5 72.5 v119q0 53 21.5 90.5t56.5 47.5q-35 10 -56.5 48t-21.5 91v118z" horiz-adv-x="410"/>
<glyph glyph-name="bracketleft.case" d="M100 780h234v-62h-159v-696h159v-62h-234v820z" horiz-adv-x="374"/>
<glyph glyph-name="bracketright.case" d="M39 -40v62h160v696h-160v62h234v-820h-234z" horiz-adv-x="374"/>
<glyph glyph-name="parenleft.case" d="M270 780q-50 -70 -94 -182.5t-44 -227.5t44 -227.5t94 -182.5h-66q-148 195 -148 410t148 410h66z" horiz-adv-x="305"/>
<glyph glyph-name="parenright.case" d="M102 780q148 -195 148 -410t-148 -410h-67q50 70 94 182.5t44 227.5t-44 227.5t-94 182.5h67z" horiz-adv-x="305"/>
<glyph glyph-name="logo" d="M846 -3q-7 -7 -17 -7q-20 0 -20 23v324l-339 -340q-7 -7 -17 -7q-20 0 -20 23v324l-340 -340q-7 -7 -17 -7q-17 0 -17 18q0 10 5 15l342 341h-324q-23 0 -23 19q0 7 7 16l340 342h-327q-20 0 -20 19v1q0 19 20 19h370q23 0 23 -20q0 -10 -8 -17l-341 -340h330q8 0 14 -6 t6 -14v-327l339 338q7 8 17 8q18 0 18 -22v-324l340 338q6 8 16 8q7 0 12 -5.5t5 -13.5q0 -9 -6 -14z" horiz-adv-x="1274"/>
</font>
</defs>
</svg>
