<?xml version="1.0" encoding="UTF-8" standalone="no"?>
<!DOCTYPE svg  PUBLIC '-//W3C//DTD SVG 1.1//EN'  'http://www.w3.org/Graphics/SVG/1.1/DTD/svg11.dtd'>
<svg xmlns="http://www.w3.org/2000/svg">
<defs>
<font id="TRIALBwModelica-Bold" horiz-adv-x="680">
<font-face underline-position="-100" font-weight="700" descent="-200" panose-1="0 0 8 0 0 0 0 0 0 0" units-per-em="1000" unicode-range="U+000D-FB02" bbox="-875 -230 1252 1020" x-height="539" underline-thickness="50" font-family="TRIALBwModelica" ascent="800" cap-height="740"/>
<missing-glyph d="M859 -3q-7 -7 -17 -7q-20 0 -20 23v324l-339 -340q-7 -7 -17 -7q-20 0 -20 23v324l-340 -340q-7 -7 -17 -7q-17 0 -17 18q0 10 5 15l342 341h-324q-23 0 -23 19q0 7 7 16l340 342h-327q-20 0 -20 19v1q0 19 20 19h370q23 0 23 -20q0 -10 -8 -17l-341 -340h330q8 0 14 -6 t6 -14v-327l339 338q7 8 17 8q18 0 18 -22v-324l340 338q6 8 16 8q7 0 12 -5.5t5 -13.5q0 -9 -6 -14z" horiz-adv-x="1274"/>
<glyph glyph-name="fi" horiz-adv-x="681" unicode="fi" d="M476 539h136v-539h-136v539zM544 627q-35 0 -58 22.5t-23 57.5t23 58t58 23t57.5 -23t22.5 -58t-22.5 -57.5t-57.5 -22.5zM113 620q0 77 48 123.5t126 46.5q72 0 119 -22l-9 -106q-26 11 -66 11q-37 0 -59.5 -20t-22.5 -54v-60h142v-111h-142v-428h-136v428h-87v111h87 v81z"/>
<glyph glyph-name="fl" horiz-adv-x="683" unicode="fl" d="M612 780v-780h-136v780h136zM113 620q0 77 48 123.5t126 46.5q72 0 119 -22l-9 -106q-26 11 -66 11q-37 0 -59.5 -20t-22.5 -54v-60h142v-111h-142v-428h-136v428h-87v111h87v81z"/>
<glyph glyph-name=".notdef" d="M859 -3q-7 -7 -17 -7q-20 0 -20 23v324l-339 -340q-7 -7 -17 -7q-20 0 -20 23v324l-340 -340q-7 -7 -17 -7q-17 0 -17 18q0 10 5 15l342 341h-324q-23 0 -23 19q0 7 7 16l340 342h-327q-20 0 -20 19v1q0 19 20 19h370q23 0 23 -20q0 -10 -8 -17l-341 -340h330q8 0 14 -6 t6 -14v-327l339 338q7 8 17 8q18 0 18 -22v-324l340 338q6 8 16 8q7 0 12 -5.5t5 -13.5q0 -9 -6 -14z" horiz-adv-x="1274"/>
<glyph glyph-name=".null" horiz-adv-x="0"/>
<glyph glyph-name="nonmarkingreturn" horiz-adv-x="333"/>
<glyph glyph-name="CR" horiz-adv-x="211" unicode=""/>
<glyph glyph-name="space" horiz-adv-x="247" unicode=" "/>
<glyph glyph-name="exclam" horiz-adv-x="290" unicode="!" d="M145 -10q-35 0 -58 23t-23 58t23 58t58 23t58 -23t23 -58t-23 -58t-58 -23zM204 217h-117l-13 523h142z"/>
<glyph glyph-name="quotedbl" horiz-adv-x="406" unicode='&quot;' d="M243 564l-3 216h109l-3 -216h-103zM61 564l-3 216h109l-3 -216h-103z"/>
<glyph glyph-name="numbersign" horiz-adv-x="744" unicode="#" d="M468 424h-160l-35 -151h160zM567 424l-35 -151h124l-22 -89h-123l-42 -184h-99l43 184h-160l-43 -184h-98l42 184h-121l22 89h120l35 151h-121l20 89h122l43 187h98l-43 -187h160l43 187h99l-44 -187h123l-21 -89h-122z"/>
<glyph glyph-name="dollar" horiz-adv-x="601" unicode="$" d="M328 109q93 14 93 87q0 60 -93 96v-183zM186 548q0 -33 21 -53t62 -36v172q-38 -7 -60.5 -29t-22.5 -54zM561 209q0 -92 -63.5 -151t-169.5 -67v-32h-59v32q-130 10 -214 92l53 95q71 -63 161 -71v201l-25 7q-96 31 -147 78t-51 132q0 94 60.5 154.5t162.5 69.5v31h59 v-31q116 -9 202 -84l-61 -98q-67 58 -141 65v-189l18 -6q215 -70 215 -228z"/>
<glyph glyph-name="percent" horiz-adv-x="863" unicode="%" d="M643 78q33 0 54 23t21 60t-21 60t-54 23q-35 0 -56 -22.5t-21 -60.5t21 -60.5t56 -22.5zM643 -10q-85 0 -136.5 47t-51.5 124t51.5 123.5t136.5 46.5q84 0 135 -46.5t51 -123.5t-51 -124t-135 -47zM222 496q33 0 54 23t21 60q0 38 -21 60.5t-54 22.5q-35 0 -56.5 -22.5 t-21.5 -60.5t21.5 -60.5t56.5 -22.5zM257 -10l-73 44l420 716l72 -44zM221 409q-84 0 -136 47t-52 123q0 77 52 124t136 47t135.5 -47t51.5 -124q0 -76 -51.5 -123t-135.5 -47z"/>
<glyph glyph-name="ampersand" horiz-adv-x="777" unicode="&amp;" d="M307 107q53 0 88 28.5t35 85.5v123h-103q-64 0 -102.5 -33t-38.5 -87q0 -52 33.5 -84.5t87.5 -32.5zM327 633q-46 0 -74 -24.5t-28 -65.5q0 -42 28 -67.5t74 -25.5h103v91q0 42 -28 67t-75 25zM639 107q50 0 94 18v-110q-60 -25 -138 -25q-96 0 -141 74q-71 -74 -181 -74 q-101 0 -164.5 59t-63.5 155q0 67 36.5 118t101.5 78q-100 52 -100 158q0 86 67 139t177 53q107 0 173 -54t66 -141v-105h159v-106h-159v-156q0 -37 20 -59t53 -22z"/>
<glyph glyph-name="quotesingle" horiz-adv-x="224" unicode="&apos;" d="M61 564l-3 216h109l-3 -216h-103z"/>
<glyph glyph-name="parenleft" horiz-adv-x="337" unicode="(" d="M317 780q-133 -233 -133 -480t133 -480h-126q-148 230 -148 480t148 480h126z"/>
<glyph glyph-name="parenright" horiz-adv-x="337" unicode=")" d="M146 780q148 -230 148 -480t-148 -480h-127q134 234 134 480t-134 480h127z"/>
<glyph glyph-name="asterisk" horiz-adv-x="394" unicode="*" d="M262 576l57 -73l-70 -51l-52 76l-51 -76l-71 51l58 73l-89 26l28 82l85 -31l-3 87h86l-2 -87l86 31l27 -82z"/>
<glyph glyph-name="plus" horiz-adv-x="558" unicode="+" d="M516 294h-169v-173h-136v173h-169v112h169v174h136v-174h169v-112z"/>
<glyph glyph-name="comma" horiz-adv-x="288" unicode="," d="M235 129l-89 -274h-138l70 274h157z"/>
<glyph glyph-name="hyphen" horiz-adv-x="479" unicode="-" d="M417 338v-97h-354v97h354z"/>
<glyph glyph-name="period" horiz-adv-x="272" unicode="." d="M136 -10q-37 0 -63 26t-26 63t26 63t63 26t63 -26t26 -63t-26 -63t-63 -26z"/>
<glyph glyph-name="slash" horiz-adv-x="450" unicode="/" d="M174 -100h-137l239 880h137z"/>
<glyph glyph-name="zero" horiz-adv-x="712" unicode="0" d="M357 107q73 0 117.5 72.5t44.5 190.5t-44.5 190.5t-117.5 72.5t-118 -72t-45 -191t45 -191t118 -72zM357 -10q-139 0 -224 104.5t-85 275.5t85 275.5t224 104.5q138 0 222.5 -104.5t84.5 -275.5t-84.5 -275.5t-222.5 -104.5z"/>
<glyph glyph-name="one" horiz-adv-x="448" unicode="1" d="M6 557l248 183h107v-740h-141v559l-144 -102z"/>
<glyph glyph-name="two" horiz-adv-x="593" unicode="2" d="M544 117v-117h-502v89l229 248q1 1 14 15.5t17.5 19.5t17 19.5t18.5 23t16.5 23.5t16 26t11.5 25t8.5 27t2.5 25q0 41 -26.5 66.5t-69.5 25.5q-47 0 -75.5 -30.5t-28.5 -80.5l-143 13q0 97 67 156t176 59q110 0 176 -54t66 -144q0 -72 -41.5 -137t-129.5 -157l-138 -144z "/>
<glyph glyph-name="three" horiz-adv-x="582" unicode="3" d="M309 449q104 -2 167 -63t63 -159q0 -107 -76 -172t-206 -65q-69 0 -129.5 19.5t-96.5 54.5l53 103q57 -60 157 -60q70 0 111 32.5t41 86.5q0 53 -38.5 84.5t-102.5 31.5q-56 0 -101 -24l-38 71l205 234h-253v117h436v-88z"/>
<glyph glyph-name="four" horiz-adv-x="642" unicode="4" d="M368 256l2 286l-212 -286h210zM364 143h-343v97l374 500h110v-480h102v-117h-102v-143h-141v143z"/>
<glyph glyph-name="five" horiz-adv-x="592" unicode="5" d="M249 -10q-145 0 -223 66l42 102q63 -51 168 -51q75 0 121 36.5t46 95.5q0 51 -32.5 82t-86.5 31q-68 0 -109 -36l-94 13l51 411h380v-117h-256l-28 -165q38 11 81 11q106 0 173 -61t67 -159q0 -116 -83.5 -187.5t-216.5 -71.5z"/>
<glyph glyph-name="six" horiz-adv-x="589" unicode="6" d="M298 107q51 0 82 32.5t31 86.5q0 53 -31 86.5t-82 33.5q-50 0 -81.5 -33.5t-31.5 -86.5q0 -54 31.5 -86.5t81.5 -32.5zM328 453q97 0 163.5 -63t66.5 -163q0 -106 -71.5 -171.5t-187.5 -65.5t-187.5 64.5t-71.5 170.5q0 108 80 219l209 296h159l-215 -289q32 2 55 2z"/>
<glyph glyph-name="seven" horiz-adv-x="540" unicode="7" d="M524 740l-250 -740h-149l216 623h-318v117h501z"/>
<glyph glyph-name="eight" horiz-adv-x="615" unicode="8" d="M307 107q51 0 82 29.5t31 78.5q0 50 -31 80t-82 30t-82 -30t-31 -80q0 -49 31 -78.5t82 -29.5zM307 633q-42 0 -67.5 -26.5t-25.5 -69.5t25.5 -69.5t67.5 -26.5t67.5 26.5t25.5 69.5t-25.5 69.5t-67.5 26.5zM447 385q56 -26 87.5 -72t31.5 -106q0 -98 -71 -157.5 t-187 -59.5q-117 0 -188 59t-71 155q0 125 119 181q-99 50 -99 161q0 92 65.5 148t173.5 56q107 0 172.5 -55.5t65.5 -146.5q0 -110 -99 -163z"/>
<glyph glyph-name="nine" horiz-adv-x="589" unicode="9" d="M177 514q0 -53 31 -86.5t82 -33.5q50 0 81.5 33.5t31.5 86.5q0 54 -31.5 86.5t-81.5 32.5q-51 0 -82 -32.5t-31 -86.5zM289 750q116 0 187.5 -64.5t71.5 -170.5q0 -108 -80 -219l-209 -296h-159l215 289q-32 -2 -55 -2q-97 0 -163.5 63t-66.5 163q0 106 71.5 171.5 t187.5 65.5z"/>
<glyph glyph-name="colon" horiz-adv-x="291" unicode=":" d="M146 -10q-37 0 -63.5 26t-26.5 63t26.5 63t63.5 26q36 0 62 -26t26 -63t-26 -63t-62 -26zM146 372q-37 0 -63.5 26t-26.5 63t26.5 62.5t63.5 25.5q36 0 62 -25.5t26 -62.5t-26 -63t-62 -26z"/>
<glyph glyph-name="semicolon" horiz-adv-x="321" unicode=";" d="M254 129l-90 -274h-137l70 274h157zM167 372q-37 0 -63 26t-26 63t26 62.5t63 25.5t63 -25.5t26 -62.5t-26 -63t-63 -26z"/>
<glyph glyph-name="less" horiz-adv-x="575" unicode="&lt;" d="M506 481l-302 -131l302 -131v-127l-470 214v88l470 214v-127z"/>
<glyph glyph-name="equal" horiz-adv-x="604" unicode="=" d="M539 296v-112h-473v112h473zM539 517v-112h-473v112h473z"/>
<glyph glyph-name="greater" horiz-adv-x="575" unicode="&gt;" d="M539 394v-88l-470 -214v127l302 131l-302 131v127z"/>
<glyph glyph-name="question" horiz-adv-x="549" unicode="?" d="M268 -10q-35 0 -58 23t-23 58t23 58t58 23t58 -23t23 -58t-23 -58t-58 -23zM210 217q0 50 9 89t27 68t31.5 44t36.5 36q18 16 28 27t18 28t8 35q0 40 -27.5 64.5t-72.5 24.5q-44 0 -72.5 -24t-32.5 -65l-131 6q5 90 69.5 145t166.5 55q111 0 178.5 -54.5t67.5 -143.5 q0 -37 -14.5 -67.5t-30 -47t-45.5 -41.5q-24 -20 -36.5 -32.5t-29 -35t-24 -50t-7.5 -61.5h-117z"/>
<glyph glyph-name="at" horiz-adv-x="1125" unicode="@" d="M552 153q45 0 72 30t27 79q0 50 -27 80t-72 30q-44 0 -71 -30t-27 -80q0 -49 27 -79t71 -30zM787 481v-261q0 -30 16 -48.5t43 -18.5q43 0 69 48.5t26 121.5q0 142 -99.5 226.5t-261.5 84.5q-179 0 -287 -103.5t-108 -272.5q0 -168 106.5 -269.5t288.5 -101.5 q148 0 273 34l40 -106q-146 -45 -318 -45q-242 0 -386.5 134.5t-144.5 355.5q0 222 146 356t390 134q224 0 360.5 -113.5t136.5 -304.5q0 -130 -63.5 -212.5t-165.5 -82.5q-54 0 -95.5 24.5t-62.5 68.5q-51 -94 -164 -94q-93 0 -153 62.5t-60 162.5q0 101 60 164.5t149 63.5 q84 0 132 -62l2 54h131z"/>
<glyph glyph-name="A" horiz-adv-x="758" unicode="A" d="M502 264l-123 301l-123 -301h246zM549 147h-341l-60 -147h-151l316 740h131l316 -740h-151z"/>
<glyph glyph-name="B" horiz-adv-x="708" unicode="B" d="M400 117q55 0 88.5 28t33.5 74t-33.5 74.5t-86.5 28.5h-173v-205h171zM229 438h142q50 0 80.5 25.5t30.5 67.5q0 41 -30.5 66.5t-79.5 25.5h-143v-185zM534 393q63 -22 98 -68.5t35 -109.5q0 -97 -67 -156t-178 -59h-334v740h329q94 0 152 -53.5t58 -140.5 q0 -99 -93 -153z"/>
<glyph glyph-name="C" horiz-adv-x="768" unicode="C" d="M638 541q-72 92 -201 92q-112 0 -180 -72t-68 -190q0 -119 69 -191.5t181 -72.5q140 0 216 117l95 -85q-109 -149 -314 -149q-176 0 -284.5 105t-108.5 277q0 170 108 274t284 104q182 0 292 -119z"/>
<glyph glyph-name="D" horiz-adv-x="788" unicode="D" d="M379 117q98 0 158 69.5t60 183.5t-60 183.5t-158 69.5h-150v-506h150zM379 740q164 0 264.5 -102t100.5 -268t-100.5 -268t-264.5 -102h-291v740h291z"/>
<glyph glyph-name="E" horiz-adv-x="650" unicode="E" d="M599 117v-117h-511v740h503v-117h-362v-190h330v-116h-330v-200h370z"/>
<glyph glyph-name="F" horiz-adv-x="589" unicode="F" d="M229 623v-210h280v-116h-280v-297h-141v740h467v-117h-326z"/>
<glyph glyph-name="G" horiz-adv-x="816" unicode="G" d="M788 417q2 -32 2 -47q-1 -172 -100 -276t-265 -104q-172 0 -276.5 104.5t-104.5 275.5t104 275.5t277 104.5q159 0 262 -82l-93 -88q-57 53 -167 53q-107 0 -172 -72.5t-65 -190.5q0 -119 65 -191t171 -72q92 0 149.5 52.5t66.5 140.5h-191v117h337z"/>
<glyph glyph-name="H" horiz-adv-x="867" unicode="H" d="M778 740v-740h-141v319h-408v-319h-141v740h141v-305h408v305h141z"/>
<glyph glyph-name="I" horiz-adv-x="317" unicode="I" d="M229 0h-141v740h141v-740z"/>
<glyph glyph-name="J" horiz-adv-x="427" unicode="J" d="M41 143q35 -36 82 -36q37 0 58.5 21t21.5 57v555h141v-580q0 -76 -54 -123t-140 -47q-93 0 -146 59z"/>
<glyph glyph-name="K" horiz-adv-x="707" unicode="K" d="M297 320h-68v-320h-141v740h141v-304h66l234 304h169l-283 -360l297 -380h-169z"/>
<glyph glyph-name="L" horiz-adv-x="571" unicode="L" d="M556 117v-117h-468v740h141v-623h327z"/>
<glyph glyph-name="M" horiz-adv-x="1000" unicode="M" d="M794 0l-27 477l-196 -477h-142l-195 476l-28 -476h-141l50 740h136l249 -612l249 612h136l50 -740h-141z"/>
<glyph glyph-name="N" horiz-adv-x="868" unicode="N" d="M780 740v-740h-87l-466 501l2 -501h-141v740h88l466 -501l-3 501h141z"/>
<glyph glyph-name="O" horiz-adv-x="863" unicode="O" d="M432 107q109 0 175.5 72.5t66.5 190.5t-66.5 190.5t-175.5 72.5t-176 -72.5t-67 -190.5t67 -190.5t176 -72.5zM432 -10q-175 0 -282 104.5t-107 275.5t107 275.5t282 104.5q174 0 281 -104.5t107 -275.5t-107 -275.5t-281 -104.5z"/>
<glyph glyph-name="P" horiz-adv-x="675" unicode="P" d="M373 369q59 0 94 34.5t35 92.5q0 57 -35.5 92t-93.5 35h-144v-254h144zM388 740q117 0 188 -66t71 -173q0 -112 -72.5 -180.5t-191.5 -68.5h-154v-252h-141v740h300z"/>
<glyph glyph-name="Q" horiz-adv-x="864" unicode="Q" d="M432 107q75 0 133 36l-104 135h159l29 -36q25 56 25 128q0 118 -66.5 190.5t-175.5 72.5t-176 -72.5t-67 -190.5t67 -190.5t176 -72.5zM677 0l-33 42q-93 -52 -212 -52q-175 0 -282 104.5t-107 275.5t107 275.5t282 104.5q174 0 281 -104.5t107 -275.5q0 -144 -78 -244 l101 -126h-166z"/>
<glyph glyph-name="R" horiz-adv-x="731" unicode="R" d="M229 389h143q63 0 101.5 32t38.5 85t-36 85t-94 32h-153v-234zM380 272h-151v-272h-141v740h310q117 0 188 -64.5t71 -169.5q0 -71 -36 -125t-101 -83l195 -298h-166z"/>
<glyph glyph-name="S" horiz-adv-x="608" unicode="S" d="M418 196q0 41 -32.5 64.5t-100.5 44.5l-37 12q-97 31 -147.5 77t-50.5 131q0 101 69.5 163t183.5 62q131 0 231 -85l-62 -98q-76 66 -167 66q-50 0 -79.5 -23t-29.5 -62q0 -28 17.5 -48t38 -29.5t61.5 -23.5l37 -12q44 -14 78 -31.5t67 -44t51 -64.5t18 -86 q0 -98 -72 -158.5t-190 -60.5q-148 0 -243 93l52 95q81 -71 182 -71q60 0 92.5 23t32.5 66z"/>
<glyph glyph-name="T" horiz-adv-x="622" unicode="T" d="M607 623h-226v-623h-141v623h-225v117h592v-117z"/>
<glyph glyph-name="U" horiz-adv-x="806" unicode="U" d="M727 740v-460q0 -131 -89 -210.5t-234 -79.5q-146 0 -235.5 79.5t-89.5 210.5v460h141v-454q0 -80 51 -129.5t133 -49.5t132 49.5t50 129.5v454h141z"/>
<glyph glyph-name="V" horiz-adv-x="758" unicode="V" d="M445 0h-131l-316 740h150l232 -565l229 565h151z"/>
<glyph glyph-name="W" horiz-adv-x="1178" unicode="W" d="M1175 740l-265 -740h-131l-190 549l-189 -549h-131l-266 740h151l188 -551l181 551h132l183 -551l187 551h150z"/>
<glyph glyph-name="X" horiz-adv-x="687" unicode="X" d="M527 0l-184 275l-183 -275h-163l268 383l-249 357h163l164 -247l164 247h163l-248 -356l268 -384h-163z"/>
<glyph glyph-name="Y" horiz-adv-x="692" unicode="Y" d="M681 740l-264 -467v-273h-141v273l-265 467h151l185 -342l184 342h150z"/>
<glyph glyph-name="Z" horiz-adv-x="668" unicode="Z" d="M633 117v-117h-597v88l394 535h-388v117h581v-87l-394 -536h404z"/>
<glyph glyph-name="bracketleft" horiz-adv-x="392" unicode="[" d="M81 780h282v-117h-141v-726h141v-117h-282v960z"/>
<glyph glyph-name="backslash" horiz-adv-x="450" unicode="\" d="M174 780l239 -880h-137l-239 880h137z"/>
<glyph glyph-name="bracketright" horiz-adv-x="392" unicode="]" d="M30 -180v117h140v726h-140v117h282v-960h-282z"/>
<glyph glyph-name="asciicircum" horiz-adv-x="548" unicode="^" d="M372 312l-98 196l-98 -196h-132l164 327h132l164 -327h-132z"/>
<glyph glyph-name="underscore" horiz-adv-x="591" unicode="_" d="M566 0v-97h-541v97h541z"/>
<glyph glyph-name="grave" horiz-adv-x="600" unicode="`" d="M-18 779h159l135 -161h-116z"/>
<glyph glyph-name="a" horiz-adv-x="577" unicode="a" d="M255 87q49 0 85.5 38t37.5 100q-55 11 -102 11q-48 0 -76.5 -20.5t-28.5 -55.5q0 -34 22 -53.5t62 -19.5zM283 549q104 0 167.5 -57.5t63.5 -152.5v-339h-131l-3 77q-27 -41 -70.5 -64t-93.5 -23q-84 0 -135.5 46t-51.5 121q0 78 63 125t167 47q57 0 119 -12v10 q0 54 -34.5 84.5t-95.5 30.5q-74 0 -126 -43l-59 80q86 70 220 70z"/>
<glyph glyph-name="b" d="M353 107q66 0 107 44.5t41 117.5t-41 118.5t-107 45.5q-67 0 -107.5 -45t-40.5 -118q0 -74 40.5 -118.5t107.5 -44.5zM384 549q110 0 184 -78.5t74 -203.5q0 -123 -74 -200t-184 -77q-120 0 -181 91l-3 -81h-131v780h136v-319q61 88 179 88z" unicode="b"/>
<glyph glyph-name="c" horiz-adv-x="548" unicode="c" d="M436 395q-44 38 -106 38q-68 0 -109.5 -45t-41.5 -118q0 -74 41.5 -118.5t110.5 -44.5q77 0 122 48l77 -90q-75 -75 -205 -75q-129 0 -208 77t-79 203q0 125 80 202t210 77q106 0 185 -62z"/>
<glyph glyph-name="d" d="M327 107q66 0 107 45t41 118t-41 118t-107 45q-67 0 -107.5 -45t-40.5 -119q0 -73 40.5 -117.5t107.5 -44.5zM611 780v-780h-131l-3 81q-59 -91 -181 -91q-111 0 -184.5 77t-73.5 200q0 125 73.5 203.5t184.5 78.5q118 0 179 -88v319h136z" unicode="d"/>
<glyph glyph-name="e" horiz-adv-x="612" unicode="e" d="M308 442q-108 0 -125 -129h252q-8 62 -40.5 95.5t-86.5 33.5zM577 278q0 -25 -4 -57h-390q16 -124 129 -124q79 0 132 64l105 -53q-37 -55 -98.5 -86.5t-136.5 -31.5q-124 0 -199.5 76t-75.5 200q0 128 74 205.5t195 77.5t195 -74.5t74 -196.5z"/>
<glyph glyph-name="f" horiz-adv-x="406" unicode="f" d="M331 673q-37 0 -59.5 -20t-22.5 -54v-60h142v-111h-142v-428h-136v428h-87v111h87v81q0 77 48 123.5t126 46.5q72 0 119 -22l-9 -106q-26 11 -66 11z"/>
<glyph glyph-name="g" d="M328 107q66 0 107 45t41 118t-41 118t-107 45q-67 0 -107.5 -44.5t-40.5 -117.5q0 -74 40.5 -119t107.5 -45zM612 539v-488q0 -127 -87.5 -204t-231.5 -77q-148 0 -240 68l30 107q85 -58 206 -58q84 0 135.5 45t51.5 120v26q-61 -88 -179 -88q-111 0 -184.5 78.5 t-73.5 203.5q0 123 73.5 200t184.5 77q122 0 181 -91l3 81h131z" unicode="g"/>
<glyph glyph-name="h" horiz-adv-x="655" unicode="h" d="M378 549q97 0 156 -57.5t59 -152.5v-339h-136v317q0 52 -34.5 84t-91.5 32t-91.5 -32t-34.5 -84v-317h-136v780h136v-306q60 75 173 75z"/>
<glyph glyph-name="i" horiz-adv-x="275" unicode="i" d="M206 539v-539h-136v539h136zM138 627q-35 0 -58 22.5t-23 57.5t23 58t58 23t57.5 -23t22.5 -58t-22.5 -57.5t-57.5 -22.5z"/>
<glyph glyph-name="j" horiz-adv-x="280" unicode="j" d="M-56 -105q23 -8 55 -8q34 0 55 23t21 61v568h136v-599q0 -76 -47 -123t-124 -47q-63 0 -105 17zM141 627q-35 0 -58 22.5t-23 57.5t23 58t58 23t58 -23t23 -58t-23 -57.5t-58 -22.5z"/>
<glyph glyph-name="k" horiz-adv-x="606" unicode="k" d="M251 227h-46v-227h-136v780h136v-441h47l178 200h172l-238 -255l251 -284h-172z"/>
<glyph glyph-name="l" horiz-adv-x="276" unicode="l" d="M70 780h136v-780h-136v780z"/>
<glyph glyph-name="m" horiz-adv-x="982" unicode="m" d="M700 549q98 0 158.5 -58t60.5 -152v-339h-136v317q0 53 -30.5 84.5t-80.5 31.5t-80 -32t-30 -84v-317h-136v317q0 53 -30.5 84.5t-80.5 31.5t-80 -32t-30 -84v-317h-136v539h131l2 -64q57 74 161 74q109 0 163 -82q59 82 174 82z"/>
<glyph glyph-name="n" horiz-adv-x="655" unicode="n" d="M378 549q97 0 156 -57.5t59 -152.5v-339h-136v317q0 52 -34.5 84t-91.5 32t-91.5 -32t-34.5 -84v-317h-136v539h131l2 -69q62 79 176 79z"/>
<glyph glyph-name="o" horiz-adv-x="653" unicode="o" d="M327 107q66 0 106.5 45t40.5 118t-40.5 118t-106.5 45q-67 0 -107.5 -44.5t-40.5 -118.5t40.5 -118.5t107.5 -44.5zM327 -10q-130 0 -209.5 77t-79.5 203q0 125 79.5 202t209.5 77q129 0 208.5 -77t79.5 -202q0 -126 -79.5 -203t-208.5 -77z"/>
<glyph glyph-name="p" d="M353 107q66 0 107 45t41 119q0 73 -41 117.5t-107 44.5q-67 0 -107.5 -44.5t-40.5 -118.5t40.5 -118.5t107.5 -44.5zM384 549q111 0 184.5 -77t73.5 -200q0 -125 -74 -203.5t-184 -78.5q-118 0 -179 88v-298h-136v759h131l3 -81q61 91 181 91z" unicode="p"/>
<glyph glyph-name="q" d="M327 107q66 0 107 45t41 118t-41 118t-107 45q-67 0 -107.5 -44.5t-40.5 -117.5q0 -74 40.5 -119t107.5 -45zM611 539v-759h-136v298q-61 -88 -179 -88q-111 0 -184.5 78.5t-73.5 203.5q0 123 73.5 200t184.5 77q122 0 181 -91l3 81h131z" unicode="q"/>
<glyph glyph-name="r" horiz-adv-x="408" unicode="r" d="M202 467q67 82 198 82l-9 -125q-84 0 -135 -37t-51 -98v-289h-136v539h131z"/>
<glyph glyph-name="s" horiz-adv-x="484" unicode="s" d="M305 148q0 24 -20 38t-60 27l-38 12q-71 22 -107 54t-36 92q0 80 54.5 129t143.5 49q118 0 190 -53l-57 -89q-57 35 -123 35q-31 0 -50 -13t-19 -36q0 -22 17.5 -35t52.5 -24l38 -13q73 -23 112.5 -59t39.5 -102q0 -77 -57 -123.5t-151 -46.5q-121 0 -191 64l52 82 q63 -39 141 -39q30 0 49 14t19 37z"/>
<glyph glyph-name="t" horiz-adv-x="432" unicode="t" d="M317 107q50 0 93 18v-110q-60 -25 -137 -25q-74 0 -120 47t-46 123v268h-89v111h89v158h136v-158h159v-111h-159v-240q0 -37 20.5 -59t53.5 -22z"/>
<glyph glyph-name="u" horiz-adv-x="635" unicode="u" d="M566 539v-539h-131l-2 66q-59 -76 -166 -76q-92 0 -148.5 58t-56.5 153v338h136v-317q0 -52 32 -83.5t85 -31.5q52 0 83.5 31.5t31.5 83.5v317h136z"/>
<glyph glyph-name="v" horiz-adv-x="603" unicode="v" d="M370 0h-136l-228 539h149l147 -384l146 384h149z"/>
<glyph glyph-name="w" horiz-adv-x="960" unicode="w" d="M952 539l-208 -539h-136l-128 381l-128 -381h-136l-208 539h149l136 -384l131 384h112l131 -384l136 384h149z"/>
<glyph glyph-name="x" horiz-adv-x="583" unicode="x" d="M417 0l-125 178l-125 -178h-162l205 276l-193 263h162l113 -163l113 163h162l-194 -263l206 -276h-162z"/>
<glyph glyph-name="y" horiz-adv-x="603" unicode="y" d="M345 -62q-37 -86 -79 -127t-115 -41q-47 0 -80 15l14 111q18 -9 43 -9q30 0 47.5 16t35.5 52l27 57l-231 527h149l152 -380l142 380h148z"/>
<glyph glyph-name="z" horiz-adv-x="546" unicode="z" d="M511 112v-112h-473v88l269 340h-264v111h456l1 -87l-268 -340h279z"/>
<glyph glyph-name="braceleft" horiz-adv-x="419" unicode="{" d="M253 422q0 -45 -23.5 -78.5t-61.5 -43.5q38 -10 61.5 -43t23.5 -79v-167q0 -38 20.5 -61t54.5 -23t61 6v-110q-55 -13 -113 -13q-74 0 -119 44t-45 116v191q0 37 -20.5 59t-54.5 22h-6v116h6q34 0 54.5 22.5t20.5 58.5v191q0 72 45 116t119 44q58 0 113 -13v-110 q-27 6 -61 6t-54.5 -23t-20.5 -61v-167z"/>
<glyph glyph-name="bar" horiz-adv-x="303" unicode="|" d="M222 780v-1000h-141v1000h141z"/>
<glyph glyph-name="braceright" horiz-adv-x="419" unicode="}" d="M166 589q0 38 -20.5 61t-54.5 23t-61 -6v110q55 13 113 13q74 0 119 -44t45 -116v-191q0 -36 20.5 -58.5t54.5 -22.5h6v-116h-6q-34 0 -54.5 -22t-20.5 -59v-191q0 -72 -45 -116t-119 -44q-58 0 -113 13v110q27 -6 61 -6t54.5 23t20.5 61v167q0 46 23.5 79t61.5 43 q-38 10 -61.5 43.5t-23.5 78.5v167z"/>
<glyph glyph-name="asciitilde" horiz-adv-x="600" unicode="~" d="M141 229h-74q0 65 37 104.5t96 39.5q44 0 110 -27.5t90 -27.5q61 0 61 45h75q0 -67 -37 -105.5t-97 -38.5q-43 0 -110 28.5t-90 28.5q-27 0 -44 -12.5t-17 -34.5z"/>
<glyph glyph-name="uni00A0" horiz-adv-x="247" unicode=" "/>
<glyph glyph-name="exclamdown" horiz-adv-x="277" unicode="¡" d="M67 -220l13 543h117l12 -543h-142zM139 549q35 0 57.5 -22.5t22.5 -57.5t-23 -58.5t-57 -23.5q-35 0 -58.5 23.5t-23.5 58.5q0 34 23.5 57t58.5 23z"/>
<glyph glyph-name="cent" horiz-adv-x="582" unicode="¢" d="M191 320q0 -64 32 -106.5t86 -53.5v320q-54 -11 -86 -53.5t-32 -106.5zM541 115q-63 -63 -170 -73v-42h-62v41q-118 8 -189 84t-71 195q0 118 70.5 193t189.5 85v41h62v-42q86 -7 153 -60l-77 -92q-34 29 -76 36v-322q56 8 93 46z"/>
<glyph glyph-name="sterling" horiz-adv-x="621" unicode="£" d="M569 112v-112h-520v110h68v185h-58v112h58v148q0 88 61.5 141.5t162.5 53.5q100 0 161.5 -54t61.5 -142l-139 -10q0 40 -23 64.5t-61 24.5t-60.5 -23t-22.5 -61v-142h269v-112h-269v-183h311z"/>
<glyph glyph-name="currency" horiz-adv-x="641" unicode="¤" d="M320 216q51 0 86.5 37.5t35.5 90.5t-35.5 91t-86.5 38q-50 0 -86 -38t-36 -91t36 -90.5t86 -37.5zM551 344q0 -61 -31 -116l66 -66l-83 -83l-66 66q-54 -30 -117 -30q-61 0 -115 30l-67 -67l-83 83l66 66q-32 54 -32 117t32 117l-66 65l83 83l67 -67q54 30 115 30 q63 0 116 -31l67 67l83 -83l-66 -66q31 -54 31 -115z"/>
<glyph glyph-name="yen" horiz-adv-x="727" unicode="¥" d="M481 356h107v-88h-154v-48h154v-87h-154v-133h-141v133h-153v87h153v48h-153v88h106l-218 384h152l184 -342l184 342h151z"/>
<glyph glyph-name="brokenbar" horiz-adv-x="301" unicode="¦" d="M221 180v-400h-141v400h141zM221 780v-400h-141v400h141z"/>
<glyph glyph-name="section" horiz-adv-x="614" unicode="§" d="M412 183q18 21 18 53q0 44 -34.5 69.5t-107.5 49.5l-80 26q-19 -22 -19 -53q0 -23 8.5 -40t29 -30t38 -20.5t50.5 -19.5zM567 249q0 -78 -49 -135q49 -52 49 -125q0 -98 -72.5 -158.5t-190.5 -60.5q-148 0 -243 93l53 95q79 -71 182 -71q60 0 92.5 23t32.5 65t-32.5 65.5 t-100.5 44.5l-38 12q-96 31 -147 77t-51 131q0 81 47 139q-47 49 -47 121q0 101 70 163t184 62q130 0 230 -85l-62 -98q-77 66 -166 66q-50 0 -80 -23t-30 -62q0 -28 17.5 -48t38 -29.5t61.5 -23.5l37 -12q44 -14 78.5 -31.5t67.5 -44t51 -64.5t18 -86z"/>
<glyph glyph-name="dieresis" horiz-adv-x="600" unicode="¨" d="M378 627q-35 0 -58 22.5t-23 57.5t23 58t58 23t58 -23t23 -58t-23 -57.5t-58 -22.5zM133 627q-35 0 -58 22.5t-23 57.5t23 58t58 23t58 -23t23 -58t-23 -57.5t-58 -22.5z"/>
<glyph glyph-name="copyright" horiz-adv-x="867" unicode="©" d="M545 451q-35 48 -104 48q-56 0 -90.5 -36.5t-34.5 -95.5q0 -60 35 -96.5t92 -36.5q73 0 112 63l63 -57q-61 -82 -177 -82q-98 0 -159 58t-61 152t60 151t159 57q104 0 163 -66zM434 52q138 0 223.5 87.5t85.5 230.5t-85.5 231t-223.5 88q-140 0 -225.5 -88t-85.5 -231 t85.5 -230.5t225.5 -87.5zM434 -10q-175 0 -281.5 104.5t-106.5 275.5t106.5 275.5t281.5 104.5q174 0 280 -104.5t106 -275.5t-106 -275.5t-280 -104.5z"/>
<glyph glyph-name="ordfeminine" horiz-adv-x="399" unicode="ª" d="M180 475q29 0 50 21.5t21 58.5q-30 6 -58 6t-45 -12t-17 -32q0 -19 13 -30.5t36 -11.5zM197 750q62 0 100.5 -34.5t38.5 -91.5v-204h-82l-1 45q-34 -51 -97 -51q-51 0 -82 27.5t-31 73.5q0 47 38 75.5t101 28.5q35 0 69 -7v5q0 32 -19.5 49.5t-56.5 17.5q-47 0 -74 -26 l-38 51q55 41 134 41z"/>
<glyph glyph-name="guillemotleft" horiz-adv-x="667" unicode="«" d="M453 270l174 -230h-144l-180 230l180 230h144zM185 270l174 -230h-144l-180 230l180 230h144z"/>
<glyph glyph-name="logicalnot" horiz-adv-x="602" unicode="¬" d="M534 183h-136v165h-338v111h474v-276z"/>
<glyph glyph-name="uni00AD" horiz-adv-x="479" unicode="­" d="M417 338v-97h-354v97h354z"/>
<glyph glyph-name="registered" horiz-adv-x="409" unicode="®" d="M176 640h28q29 0 29 24q0 10 -7.5 16.5t-18.5 6.5h-31v-47zM269 664q0 -33 -30 -46l41 -65h-40l-35 59h-29v-59h-36v163h71q26 0 42 -14.5t16 -37.5zM205 504q57 0 92 36t35 95q0 60 -35 96t-92 36q-58 0 -93 -36t-35 -96q0 -59 35 -95t93 -36zM205 790q71 0 114 -42.5 t43 -112.5t-43 -112.5t-114 -42.5t-114 42.5t-43 112.5t43 112.5t114 42.5z"/>
<glyph glyph-name="macron" horiz-adv-x="600" unicode="¯" d="M397 731v-107h-356v107h356z"/>
<glyph glyph-name="degree" horiz-adv-x="361" unicode="°" d="M181 605q25 0 40 16t15 42t-15 42t-40 16t-41 -16t-16 -42t15.5 -42t41.5 -16zM181 535q-64 0 -102.5 35t-38.5 93q0 57 38.5 92t102.5 35q63 0 101.5 -35t38.5 -92q0 -58 -38.5 -93t-101.5 -35z"/>
<glyph glyph-name="plusminus" horiz-adv-x="609" unicode="±" d="M68 146h473v-113h-473v113zM541 490v-112h-169v-174h-136v174h-168v112h168v173h136v-173h169z"/>
<glyph glyph-name="uni00B2" horiz-adv-x="366" unicode="²" d="M333 468v-72h-303v56l137 148q2 2 11 12t13.5 15.5t13 16t13.5 18.5t10.5 18.5t8 20.5t2.5 19q0 25 -15 39.5t-40 14.5q-27 0 -43.5 -18t-16.5 -47l-89 7q0 58 40.5 94t106.5 36q65 0 105 -33t40 -87q0 -42 -25 -81.5t-77 -92.5l-81 -85z"/>
<glyph glyph-name="uni00B3" horiz-adv-x="358" unicode="³" d="M193 667q61 -1 98 -38t37 -96q0 -65 -46.5 -104t-124.5 -39q-90 0 -136 43l34 65q34 -36 92 -36q42 0 66 19.5t24 51.5q0 30 -23 48.5t-60 18.5q-34 0 -59 -15l-24 45l121 138h-150v72h263v-54z"/>
<glyph glyph-name="acute" horiz-adv-x="600" unicode="´" d="M107 618l136 161h158l-178 -161h-116z"/>
<glyph glyph-name="paragraph" horiz-adv-x="622" unicode="¶" d="M527 -220h-102v862h-86v-862h-103v611h-66q-62 0 -100.5 49t-38.5 128q0 77 45 124.5t118 47.5h333v-960z"/>
<glyph glyph-name="periodcentered" horiz-adv-x="283" unicode="·" d="M141 202q-36 0 -62.5 26t-26.5 63t26.5 63t62.5 26q37 0 63 -26t26 -63t-26 -63t-63 -26z"/>
<glyph glyph-name="cedilla" horiz-adv-x="600" unicode="¸" d="M138 -60q47 0 75.5 -22.5t28.5 -59.5q0 -39 -33.5 -63.5t-90.5 -24.5q-65 0 -100 25l25 46q25 -18 67 -18q31 0 49 9.5t18 25.5q0 33 -62 33q-20 0 -43 -7l-18 32l47 84h64l-38 -61q2 0 6 0.5t5 0.5z"/>
<glyph glyph-name="uni00B9" horiz-adv-x="277" unicode="¹" d="M5 730l149 110h67v-444h-88v332l-84 -60z"/>
<glyph glyph-name="ordmasculine" horiz-adv-x="429" unicode="º" d="M215 488q38 0 62 25.5t24 68.5t-24 69.5t-62 26.5q-39 0 -63 -26.5t-24 -69.5t24 -68.5t63 -25.5zM215 414q-79 0 -126.5 46t-47.5 122t47.5 122t126.5 46q78 0 125.5 -46t47.5 -122t-47.5 -122t-125.5 -46z"/>
<glyph glyph-name="guillemotright" horiz-adv-x="667" unicode="»" d="M632 270l-180 -230h-145l175 230l-175 230h145zM364 270l-180 -230h-144l174 230l-174 230h144z"/>
<glyph glyph-name="onequarter" horiz-adv-x="855" unicode="¼" d="M684 155l1 165l-123 -165h122zM682 85h-205v60l224 299h69v-286h60v-73h-60v-85h-88v85zM5 630l149 110h67v-444h-88v332l-84 -60zM215 -10l-73 44l420 716l72 -44z"/>
<glyph glyph-name="onehalf" horiz-adv-x="867" unicode="½" d="M834 72v-72h-303v56l137 148q2 2 11 12t13.5 15.5t13 16t13.5 18.5t10.5 18.5t8 20.5t2.5 19q0 25 -15 39.5t-40 14.5q-27 0 -43.5 -18t-16.5 -47l-89 7q0 58 40.5 94t106.5 36q65 0 105 -33t40 -87q0 -42 -25 -81.5t-77 -92.5l-81 -85zM5 630l149 110h67v-444h-88v332 l-84 -60zM215 -10l-73 44l420 716l72 -44z"/>
<glyph glyph-name="threequarters" horiz-adv-x="937" unicode="¾" d="M766 320l-123 -165h122zM911 158v-73h-59v-85h-89v85h-205v60l224 299h70v-286h59zM328 433q0 -65 -46.5 -104t-124.5 -39q-90 0 -136 43l34 65q34 -36 92 -36q42 0 66 19.5t24 51.5q0 30 -23 48.5t-60 18.5q-34 0 -59 -15l-24 45l121 138h-150v72h263v-54l-112 -119 q61 -1 98 -38t37 -96zM715 706l-419 -716l-73 44l420 716z"/>
<glyph glyph-name="questiondown" horiz-adv-x="543" unicode="¿" d="M337 323q0 -54 -8.5 -96.5t-27.5 -74t-31.5 -46.5t-36.5 -40q-19 -17 -28.5 -27t-18 -27t-8.5 -36q0 -40 27.5 -64.5t73.5 -24.5q44 0 72.5 24.5t32.5 64.5l130 -6q-5 -90 -69 -145t-166 -55q-111 0 -179 54.5t-68 143.5q0 37 14.5 68t30 46.5t45.5 41.5q25 24 36.5 37 t29 38.5t25 55.5t7.5 68h117zM279 549q35 0 57.5 -22.5t22.5 -57.5t-23 -58.5t-57 -23.5q-35 0 -58.5 23.5t-23.5 58.5q0 34 23.5 57t58.5 23z"/>
<glyph glyph-name="Agrave" horiz-adv-x="758" unicode="À" d="M502 264l-123 301l-123 -301h246zM549 147h-341l-60 -147h-151l316 740h131l316 -740h-151zM347 819l-178 161h159l135 -161h-116z"/>
<glyph glyph-name="Aacute" horiz-adv-x="758" unicode="Á" d="M502 264l-123 301l-123 -301h246zM549 147h-341l-60 -147h-151l316 740h131l316 -740h-151zM411 819h-116l136 161h158z"/>
<glyph glyph-name="Acircumflex" horiz-adv-x="758" unicode="Â" d="M502 264l-123 301l-123 -301h246zM549 147h-341l-60 -147h-151l316 740h131l316 -740h-151zM308 819h-126l131 161h130l131 -161h-125l-71 84z"/>
<glyph glyph-name="Atilde" horiz-adv-x="758" unicode="Ã" d="M502 264l-123 301l-123 -301h246zM549 147h-341l-60 -147h-151l316 740h131l316 -740h-151zM299 876q-18 0 -29.5 -12.5t-11.5 -33.5h-74q0 65 31.5 104.5t82.5 39.5q36 0 88.5 -28t71.5 -28q41 0 41 46h74q0 -68 -30.5 -106t-82.5 -38q-34 0 -88 28t-73 28z"/>
<glyph glyph-name="Adieresis" horiz-adv-x="758" unicode="Ä" d="M502 264l-123 301l-123 -301h246zM549 147h-341l-60 -147h-151l316 740h131l316 -740h-151zM502 828q-35 0 -58 22.5t-23 57.5t23 58t58 23t58 -23t23 -58t-23 -57.5t-58 -22.5zM257 828q-35 0 -58 22.5t-23 57.5t23 58t58 23t58 -23t23 -58t-23 -57.5t-58 -22.5z"/>
<glyph glyph-name="Aring" horiz-adv-x="758" unicode="Å" d="M502 264l-123 301l-123 -301h246zM549 147h-341l-60 -147h-151l316 740h131l316 -740h-151zM379 939q-20 0 -32.5 -12.5t-12.5 -33.5t12.5 -34t32.5 -13t32 13t12 34t-12 33.5t-32 12.5zM379 785q-53 0 -85 29.5t-32 78.5t32 78.5t85 29.5t85 -29.5t32 -78.5t-32 -78.5 t-85 -29.5z"/>
<glyph glyph-name="AE" horiz-adv-x="1096" unicode="Æ" d="M530 264l-69 282l-164 -282h233zM1045 117v-117h-450l-36 147h-329l-86 -147h-160l459 740h593v-117h-455l50 -190h373v-116h-342l53 -200h330z"/>
<glyph glyph-name="Ccedilla" horiz-adv-x="768" unicode="Ç" d="M750 139q-105 -141 -295 -149l-31 -50h10q47 0 75.5 -22.5t28.5 -59.5q0 -39 -33.5 -63.5t-90.5 -24.5q-65 0 -100 25l25 46q25 -18 67 -18q31 0 49 9.5t18 25.5q0 33 -62 33q-20 0 -43 -7l-18 32l42 76q-158 14 -253.5 117t-95.5 263q0 170 108 274t284 104 q182 0 292 -119l-89 -90q-72 92 -201 92q-112 0 -180 -72t-68 -190q0 -119 69 -191.5t181 -72.5q140 0 216 117z"/>
<glyph glyph-name="Egrave" horiz-adv-x="650" unicode="È" d="M599 117v-117h-511v740h503v-117h-362v-190h330v-116h-330v-200h370zM307 819l-178 161h159l135 -161h-116z"/>
<glyph glyph-name="Eacute" horiz-adv-x="650" unicode="É" d="M599 117v-117h-511v740h503v-117h-362v-190h330v-116h-330v-200h370zM370 819h-116l136 161h158z"/>
<glyph glyph-name="Ecircumflex" horiz-adv-x="650" unicode="Ê" d="M599 117v-117h-511v740h503v-117h-362v-190h330v-116h-330v-200h370zM268 819h-126l131 161h130l131 -161h-125l-71 84z"/>
<glyph glyph-name="Edieresis" horiz-adv-x="650" unicode="Ë" d="M599 117v-117h-511v740h503v-117h-362v-190h330v-116h-330v-200h370zM461 828q-35 0 -58 22.5t-23 57.5t23 58t58 23t58 -23t23 -58t-23 -57.5t-58 -22.5zM216 828q-35 0 -58 22.5t-23 57.5t23 58t58 23t58 -23t23 -58t-23 -57.5t-58 -22.5z"/>
<glyph glyph-name="Igrave" horiz-adv-x="317" unicode="Ì" d="M229 0h-141v740h141v-740zM-52 980h159l135 -161h-116z"/>
<glyph glyph-name="Iacute" horiz-adv-x="317" unicode="Í" d="M229 0h-141v740h141v-740zM73 819l136 161h158l-178 -161h-116z"/>
<glyph glyph-name="Icircumflex" horiz-adv-x="317" unicode="Î" d="M88 740h141v-740h-141v740zM157 903l-70 -84h-126l131 161h130l131 -161h-125z"/>
<glyph glyph-name="Idieresis" horiz-adv-x="317" unicode="Ï" d="M229 0h-141v740h141v-740zM281 828q-35 0 -58 22.5t-23 57.5t23 58t58 23t58 -23t23 -58t-23 -57.5t-58 -22.5zM36 828q-35 0 -58 22.5t-23 57.5t23 58t58 23t58 -23t23 -58t-23 -57.5t-58 -22.5z"/>
<glyph glyph-name="Eth" horiz-adv-x="788" unicode="Ð" d="M379 117q98 0 158 69.5t60 183.5t-60 183.5t-158 69.5h-150v-203h167v-97h-167v-206h150zM379 740q164 0 264.5 -102t100.5 -268t-100.5 -268t-264.5 -102h-291v323h-77v97h77v320h291z"/>
<glyph glyph-name="Ntilde" horiz-adv-x="868" unicode="Ñ" d="M780 740v-740h-87l-466 501l2 -501h-141v740h88l466 -501l-3 501h141zM312 830h-74q0 65 31.5 104.5t82.5 39.5q36 0 88.5 -28t71.5 -28q41 0 41 46h74q0 -68 -30.5 -106t-82.5 -38q-34 0 -88 28t-73 28q-18 0 -29.5 -12.5t-11.5 -33.5z"/>
<glyph glyph-name="Ograve" horiz-adv-x="863" unicode="Ò" d="M432 107q109 0 175.5 72.5t66.5 190.5t-66.5 190.5t-175.5 72.5t-176 -72.5t-67 -190.5t67 -190.5t176 -72.5zM432 -10q-175 0 -282 104.5t-107 275.5t107 275.5t282 104.5q174 0 281 -104.5t107 -275.5t-107 -275.5t-281 -104.5zM222 980h159l135 -161h-116z"/>
<glyph glyph-name="Oacute" horiz-adv-x="863" unicode="Ó" d="M432 107q109 0 175.5 72.5t66.5 190.5t-66.5 190.5t-175.5 72.5t-176 -72.5t-67 -190.5t67 -190.5t176 -72.5zM432 -10q-175 0 -282 104.5t-107 275.5t107 275.5t282 104.5q174 0 281 -104.5t107 -275.5t-107 -275.5t-281 -104.5zM348 819l136 161h158l-178 -161h-116z "/>
<glyph glyph-name="Ocircumflex" horiz-adv-x="863" unicode="Ô" d="M432 107q109 0 175.5 72.5t66.5 190.5t-66.5 190.5t-175.5 72.5t-176 -72.5t-67 -190.5t67 -190.5t176 -72.5zM432 750q174 0 281 -104.5t107 -275.5t-107 -275.5t-281 -104.5q-175 0 -282 104.5t-107 275.5t107 275.5t282 104.5zM361 819h-126l131 161h130l131 -161 h-125l-71 84z"/>
<glyph glyph-name="Otilde" horiz-adv-x="863" unicode="Õ" d="M432 107q109 0 175.5 72.5t66.5 190.5t-66.5 190.5t-175.5 72.5t-176 -72.5t-67 -190.5t67 -190.5t176 -72.5zM432 -10q-175 0 -282 104.5t-107 275.5t107 275.5t282 104.5q174 0 281 -104.5t107 -275.5t-107 -275.5t-281 -104.5zM311 830h-74q0 65 31.5 104.5t82.5 39.5 q36 0 88.5 -28t71.5 -28q41 0 41 46h74q0 -68 -30.5 -106t-82.5 -38q-34 0 -88 28t-73 28q-18 0 -29.5 -12.5t-11.5 -33.5z"/>
<glyph glyph-name="Odieresis" horiz-adv-x="863" unicode="Ö" d="M432 107q109 0 175.5 72.5t66.5 190.5t-66.5 190.5t-175.5 72.5t-176 -72.5t-67 -190.5t67 -190.5t176 -72.5zM432 -10q-175 0 -282 104.5t-107 275.5t107 275.5t282 104.5q174 0 281 -104.5t107 -275.5t-107 -275.5t-281 -104.5zM555 828q-35 0 -58 22.5t-23 57.5t23 58 t58 23t58 -23t23 -58t-23 -57.5t-58 -22.5zM310 828q-35 0 -58 22.5t-23 57.5t23 58t58 23t58 -23t23 -58t-23 -57.5t-58 -22.5z"/>
<glyph glyph-name="multiply" horiz-adv-x="524" unicode="×" d="M346 349l125 -125l-84 -83l-125 125l-125 -125l-84 83l126 125l-127 127l84 83l126 -126l127 126l84 -83z"/>
<glyph glyph-name="Oslash" horiz-adv-x="865" unicode="Ø" d="M433 107q109 0 175.5 72.5t66.5 190.5q0 94 -44 162l-346 -378q61 -47 148 -47zM190 370q0 -95 45 -163l346 379q-61 47 -148 47q-109 0 -176 -72.5t-67 -190.5zM725 635q96 -104 96 -265q0 -171 -107 -275.5t-281 -104.5q-137 0 -237 67l-61 -67l-54 49l60 66 q-97 103 -97 265q0 171 107 275.5t282 104.5q138 0 237 -68l62 68l54 -49z"/>
<glyph glyph-name="Ugrave" horiz-adv-x="806" unicode="Ù" d="M727 740v-460q0 -131 -89 -210.5t-234 -79.5q-146 0 -235.5 79.5t-89.5 210.5v460h141v-454q0 -80 51 -129.5t133 -49.5t132 49.5t50 129.5v454h141zM194 980h159l135 -161h-116z"/>
<glyph glyph-name="Uacute" horiz-adv-x="806" unicode="Ú" d="M727 740v-460q0 -131 -89 -210.5t-234 -79.5q-146 0 -235.5 79.5t-89.5 210.5v460h141v-454q0 -80 51 -129.5t133 -49.5t132 49.5t50 129.5v454h141zM319 819l136 161h158l-178 -161h-116z"/>
<glyph glyph-name="Ucircumflex" horiz-adv-x="806" unicode="Û" d="M727 740v-460q0 -131 -89 -210.5t-234 -79.5q-146 0 -235.5 79.5t-89.5 210.5v460h141v-454q0 -80 51 -129.5t133 -49.5t132 49.5t50 129.5v454h141zM333 819h-126l131 161h130l131 -161h-125l-71 84z"/>
<glyph glyph-name="Udieresis" horiz-adv-x="806" unicode="Ü" d="M727 740v-460q0 -131 -89 -210.5t-234 -79.5q-146 0 -235.5 79.5t-89.5 210.5v460h141v-454q0 -80 51 -129.5t133 -49.5t132 49.5t50 129.5v454h141zM526 828q-35 0 -58 22.5t-23 57.5t23 58t58 23t58 -23t23 -58t-23 -57.5t-58 -22.5zM281 828q-35 0 -58 22.5t-23 57.5 t23 58t58 23t58 -23t23 -58t-23 -57.5t-58 -22.5z"/>
<glyph glyph-name="Yacute" horiz-adv-x="692" unicode="Ý" d="M681 740l-264 -467v-273h-141v273l-265 467h151l185 -342l184 342h150zM378 819h-116l136 161h158z"/>
<glyph glyph-name="Thorn" horiz-adv-x="675" unicode="Þ" d="M373 249q59 0 94 34.5t35 92.5t-35.5 93t-93.5 35h-144v-255h144zM388 620q117 0 188 -65.5t71 -173.5q0 -112 -72.5 -180.5t-191.5 -68.5h-154v-132h-141v740h141v-120h159z"/>
<glyph glyph-name="germandbls" horiz-adv-x="627" unicode="ß" d="M451 421q65 -27 102 -78.5t37 -118.5q0 -105 -68 -169.5t-180 -64.5q-49 0 -84 11l13 112q22 -6 47 -6q59 0 95 35t36 92q0 59 -38.5 94.5t-102.5 35.5v106q46 0 74 28.5t28 74.5q0 45 -28 72.5t-74 27.5q-47 0 -75 -26.5t-28 -71.5v-575h-136v588q0 91 66 146.5 t173 55.5q109 0 176 -55.5t67 -146.5q0 -113 -100 -167z"/>
<glyph glyph-name="agrave" horiz-adv-x="577" unicode="à" d="M255 87q49 0 85.5 38t37.5 100q-55 11 -102 11q-48 0 -76.5 -20.5t-28.5 -55.5q0 -34 22 -53.5t62 -19.5zM283 549q104 0 167.5 -57.5t63.5 -152.5v-339h-131l-3 77q-27 -41 -70.5 -64t-93.5 -23q-84 0 -135.5 46t-51.5 121q0 78 63 125t167 47q57 0 119 -12v10 q0 54 -34.5 84.5t-95.5 30.5q-74 0 -126 -43l-59 80q86 70 220 70zM261 618l-178 161h159l135 -161h-116z"/>
<glyph glyph-name="aacute" horiz-adv-x="577" unicode="á" d="M255 87q49 0 85.5 38t37.5 100q-55 11 -102 11q-48 0 -76.5 -20.5t-28.5 -55.5q0 -34 22 -53.5t62 -19.5zM283 549q104 0 167.5 -57.5t63.5 -152.5v-339h-131l-3 77q-27 -41 -70.5 -64t-93.5 -23q-84 0 -135.5 46t-51.5 121q0 78 63 125t167 47q57 0 119 -12v10 q0 54 -34.5 84.5t-95.5 30.5q-74 0 -126 -43l-59 80q86 70 220 70zM325 618h-116l136 161h158z"/>
<glyph glyph-name="acircumflex" horiz-adv-x="577" unicode="â" d="M255 87q49 0 85.5 38t37.5 100q-55 11 -102 11q-48 0 -76.5 -20.5t-28.5 -55.5q0 -34 22 -53.5t62 -19.5zM283 549q104 0 167.5 -57.5t63.5 -152.5v-339h-131l-3 77q-27 -41 -70.5 -64t-93.5 -23q-84 0 -135.5 46t-51.5 121q0 78 63 125t167 47q57 0 119 -12v10 q0 54 -34.5 84.5t-95.5 30.5q-74 0 -126 -43l-59 80q86 70 220 70zM222 618h-126l131 161h130l131 -161h-125l-71 84z"/>
<glyph glyph-name="atilde" horiz-adv-x="577" unicode="ã" d="M255 87q49 0 85.5 38t37.5 100q-55 11 -102 11q-48 0 -76.5 -20.5t-28.5 -55.5q0 -34 22 -53.5t62 -19.5zM283 549q104 0 167.5 -57.5t63.5 -152.5v-339h-131l-3 77q-27 -41 -70.5 -64t-93.5 -23q-84 0 -135.5 46t-51.5 121q0 78 63 125t167 47q57 0 119 -12v10 q0 54 -34.5 84.5t-95.5 30.5q-74 0 -126 -43l-59 80q86 70 220 70zM213 675q-18 0 -29.5 -12.5t-11.5 -33.5h-74q0 65 31.5 104.5t82.5 39.5q36 0 88.5 -28t71.5 -28q41 0 41 46h74q0 -68 -30.5 -106t-82.5 -38q-34 0 -88 28t-73 28z"/>
<glyph glyph-name="adieresis" horiz-adv-x="577" unicode="ä" d="M255 87q49 0 85.5 38t37.5 100q-55 11 -102 11q-48 0 -76.5 -20.5t-28.5 -55.5q0 -34 22 -53.5t62 -19.5zM283 549q104 0 167.5 -57.5t63.5 -152.5v-339h-131l-3 77q-27 -41 -70.5 -64t-93.5 -23q-84 0 -135.5 46t-51.5 121q0 78 63 125t167 47q57 0 119 -12v10 q0 54 -34.5 84.5t-95.5 30.5q-74 0 -126 -43l-59 80q86 70 220 70zM416 627q-35 0 -58 22.5t-23 57.5t23 58t58 23t58 -23t23 -58t-23 -57.5t-58 -22.5zM171 627q-35 0 -58 22.5t-23 57.5t23 58t58 23t58 -23t23 -58t-23 -57.5t-58 -22.5z"/>
<glyph glyph-name="aring" horiz-adv-x="577" unicode="å" d="M255 87q49 0 85.5 38t37.5 100q-55 11 -102 11q-48 0 -76.5 -20.5t-28.5 -55.5q0 -34 22 -53.5t62 -19.5zM283 549q104 0 167.5 -57.5t63.5 -152.5v-339h-131l-3 77q-27 -41 -70.5 -64t-93.5 -23q-84 0 -135.5 46t-51.5 121q0 78 63 125t167 47q57 0 119 -12v10 q0 54 -34.5 84.5t-95.5 30.5q-74 0 -126 -43l-59 80q86 70 220 70zM293 738q-20 0 -32.5 -12.5t-12.5 -33.5t12.5 -34t32.5 -13t32 13t12 34t-12 33.5t-32 12.5zM293 584q-53 0 -85 29.5t-32 78.5t32 78.5t85 29.5t85 -29.5t32 -78.5t-32 -78.5t-85 -29.5z"/>
<glyph glyph-name="ae" horiz-adv-x="942" unicode="æ" d="M255 87q49 0 85.5 38t37.5 100q-55 11 -102 11q-48 0 -76.5 -20.5t-28.5 -55.5q0 -34 22 -53.5t62 -19.5zM637 442q-108 0 -125 -129h252q-8 62 -40.5 95.5t-86.5 33.5zM906 278q0 -33 -3 -57h-391q18 -124 130 -124q79 0 132 64l104 -53q-35 -55 -94 -86.5t-131 -31.5 q-137 0 -211 100q-31 -47 -86.5 -73.5t-120.5 -26.5q-92 0 -149 46t-57 121q0 78 63 125t167 47q57 0 119 -12v10q0 54 -34.5 84.5t-95.5 30.5q-74 0 -126 -43l-59 80q82 70 210 70q120 0 182 -86q73 86 192 86q116 0 187.5 -74.5t71.5 -196.5z"/>
<glyph glyph-name="ccedilla" horiz-adv-x="548" unicode="ç" d="M322 -60q47 0 75.5 -22.5t28.5 -59.5q0 -39 -33.5 -63.5t-90.5 -24.5q-65 0 -100 25l25 46q25 -18 67 -18q31 0 49 9.5t18 25.5q0 33 -62 33q-20 0 -43 -7l-18 32l43 77q-111 13 -177 87.5t-66 189.5q0 125 80 202t210 77q106 0 185 -62l-77 -92q-44 38 -106 38 q-68 0 -109.5 -45t-41.5 -118q0 -74 41.5 -118.5t110.5 -44.5q77 0 122 48l77 -90q-69 -69 -187 -75l-31 -50h10z"/>
<glyph glyph-name="egrave" horiz-adv-x="612" unicode="è" d="M308 442q-108 0 -125 -129h252q-8 62 -40.5 95.5t-86.5 33.5zM577 278q0 -25 -4 -57h-390q16 -124 129 -124q79 0 132 64l105 -53q-37 -55 -98.5 -86.5t-136.5 -31.5q-124 0 -199.5 76t-75.5 200q0 128 74 205.5t195 77.5t195 -74.5t74 -196.5zM276 618l-178 161h159 l135 -161h-116z"/>
<glyph glyph-name="eacute" horiz-adv-x="612" unicode="é" d="M308 442q-108 0 -125 -129h252q-8 62 -40.5 95.5t-86.5 33.5zM577 278q0 -25 -4 -57h-390q16 -124 129 -124q79 0 132 64l105 -53q-37 -55 -98.5 -86.5t-136.5 -31.5q-124 0 -199.5 76t-75.5 200q0 128 74 205.5t195 77.5t195 -74.5t74 -196.5zM339 618h-116l136 161h158 z"/>
<glyph glyph-name="ecircumflex" horiz-adv-x="612" unicode="ê" d="M308 442q-108 0 -125 -129h252q-8 62 -40.5 95.5t-86.5 33.5zM577 278q0 -25 -4 -57h-390q16 -124 129 -124q79 0 132 64l105 -53q-37 -55 -98.5 -86.5t-136.5 -31.5q-124 0 -199.5 76t-75.5 200q0 128 74 205.5t195 77.5t195 -74.5t74 -196.5zM237 618h-126l131 161h130 l131 -161h-125l-71 84z"/>
<glyph glyph-name="edieresis" horiz-adv-x="612" unicode="ë" d="M308 442q-108 0 -125 -129h252q-8 62 -40.5 95.5t-86.5 33.5zM577 278q0 -25 -4 -57h-390q16 -124 129 -124q79 0 132 64l105 -53q-37 -55 -98.5 -86.5t-136.5 -31.5q-124 0 -199.5 76t-75.5 200q0 128 74 205.5t195 77.5t195 -74.5t74 -196.5zM430 627q-35 0 -58 22.5 t-23 57.5t23 58t58 23t58 -23t23 -58t-23 -57.5t-58 -22.5zM185 627q-35 0 -58 22.5t-23 57.5t23 58t58 23t58 -23t23 -58t-23 -57.5t-58 -22.5z"/>
<glyph glyph-name="igrave" horiz-adv-x="275" unicode="ì" d="M206 539v-539h-136v539h136zM-72 779h159l135 -161h-116z"/>
<glyph glyph-name="iacute" horiz-adv-x="275" unicode="í" d="M206 539v-539h-136v539h136zM53 618l136 161h158l-178 -161h-116z"/>
<glyph glyph-name="icircumflex" horiz-adv-x="275" unicode="î" d="M70 539h136v-539h-136v539zM333 618h-125l-71 84l-70 -84h-126l131 161h130z"/>
<glyph glyph-name="idieresis" horiz-adv-x="275" unicode="ï" d="M206 539v-539h-136v539h136zM261 627q-35 0 -58 22.5t-23 57.5t23 58t58 23t58 -23t23 -58t-23 -57.5t-58 -22.5zM16 627q-35 0 -58 22.5t-23 57.5t23 58t58 23t58 -23t23 -58t-23 -57.5t-58 -22.5z"/>
<glyph glyph-name="eth" horiz-adv-x="657" unicode="ð" d="M328 107q65 0 106 45t41 118t-41 118t-106 45q-67 0 -107.5 -44.5t-40.5 -118.5t40.5 -118.5t107.5 -44.5zM406 698q210 -168 210 -389q0 -144 -79.5 -231.5t-208.5 -87.5q-131 0 -210 77t-79 204q0 120 73.5 194.5t184.5 74.5q56 0 107 -23q-43 57 -110 109l-58 -37 l-75 49l59 39q-35 22 -70 39l114 74q46 -26 68 -40l60 40l74 -55z"/>
<glyph glyph-name="ntilde" horiz-adv-x="655" unicode="ñ" d="M378 549q97 0 156 -57.5t59 -152.5v-339h-136v317q0 52 -34.5 84t-91.5 32t-91.5 -32t-34.5 -84v-317h-136v539h131l2 -69q62 79 176 79zM252 675q-18 0 -29.5 -12.5t-11.5 -33.5h-74q0 65 31.5 104.5t82.5 39.5q36 0 88.5 -28t71.5 -28q41 0 41 46h74q0 -68 -30.5 -106 t-82.5 -38q-34 0 -88 28t-73 28z"/>
<glyph glyph-name="ograve" horiz-adv-x="653" unicode="ò" d="M327 107q66 0 106.5 45t40.5 118t-40.5 118t-106.5 45q-67 0 -107.5 -44.5t-40.5 -118.5t40.5 -118.5t107.5 -44.5zM327 -10q-130 0 -209.5 77t-79.5 203q0 125 79.5 202t209.5 77q129 0 208.5 -77t79.5 -202q0 -126 -79.5 -203t-208.5 -77zM117 779h159l135 -161h-116z "/>
<glyph glyph-name="oacute" horiz-adv-x="653" unicode="ó" d="M327 107q66 0 106.5 45t40.5 118t-40.5 118t-106.5 45q-67 0 -107.5 -44.5t-40.5 -118.5t40.5 -118.5t107.5 -44.5zM327 -10q-130 0 -209.5 77t-79.5 203q0 125 79.5 202t209.5 77q129 0 208.5 -77t79.5 -202q0 -126 -79.5 -203t-208.5 -77zM243 618l136 161h158 l-178 -161h-116z"/>
<glyph glyph-name="ocircumflex" horiz-adv-x="653" unicode="ô" d="M327 107q66 0 106.5 45t40.5 118t-40.5 118t-106.5 45q-67 0 -107.5 -44.5t-40.5 -118.5t40.5 -118.5t107.5 -44.5zM327 549q129 0 208.5 -77t79.5 -202q0 -126 -79.5 -203t-208.5 -77q-130 0 -209.5 77t-79.5 203q0 125 79.5 202t209.5 77zM256 618h-126l131 161h130 l131 -161h-125l-71 84z"/>
<glyph glyph-name="otilde" horiz-adv-x="653" unicode="õ" d="M327 107q66 0 106.5 45t40.5 118t-40.5 118t-106.5 45q-67 0 -107.5 -44.5t-40.5 -118.5t40.5 -118.5t107.5 -44.5zM327 -10q-130 0 -209.5 77t-79.5 203q0 125 79.5 202t209.5 77q129 0 208.5 -77t79.5 -202q0 -126 -79.5 -203t-208.5 -77zM206 629h-74q0 65 31.5 104.5 t82.5 39.5q36 0 88.5 -28t71.5 -28q41 0 41 46h74q0 -68 -30.5 -106t-82.5 -38q-34 0 -88 28t-73 28q-18 0 -29.5 -12.5t-11.5 -33.5z"/>
<glyph glyph-name="odieresis" horiz-adv-x="653" unicode="ö" d="M327 107q66 0 106.5 45t40.5 118t-40.5 118t-106.5 45q-67 0 -107.5 -44.5t-40.5 -118.5t40.5 -118.5t107.5 -44.5zM327 -10q-130 0 -209.5 77t-79.5 203q0 125 79.5 202t209.5 77q129 0 208.5 -77t79.5 -202q0 -126 -79.5 -203t-208.5 -77zM450 627q-35 0 -58 22.5 t-23 57.5t23 58t58 23t58 -23t23 -58t-23 -57.5t-58 -22.5zM205 627q-35 0 -58 22.5t-23 57.5t23 58t58 23t58 -23t23 -58t-23 -57.5t-58 -22.5z"/>
<glyph glyph-name="divide" horiz-adv-x="576" unicode="÷" d="M289 81q-35 0 -58.5 23t-23.5 58t23.5 58t58.5 23t57.5 -23t22.5 -58t-22.5 -58t-57.5 -23zM525 406v-112h-474v112h474zM289 459q-35 0 -58.5 23t-23.5 58t23.5 58t58.5 23t57.5 -23t22.5 -58t-22.5 -58t-57.5 -23z"/>
<glyph glyph-name="oslash" horiz-adv-x="655" unicode="ø" d="M327 107q67 0 107 44.5t40 118.5q0 52 -20 90l-207 -231q36 -22 80 -22zM180 270q0 -52 21 -90l207 231q-36 22 -81 22q-66 0 -106.5 -45t-40.5 -118zM546 462q70 -75 70 -192q0 -126 -79.5 -203t-208.5 -77q-97 0 -166 43l-39 -43l-55 42l40 45q-69 77 -69 193 q0 125 79.5 202t209.5 77q96 0 165 -43l39 43l55 -41z"/>
<glyph glyph-name="ugrave" horiz-adv-x="635" unicode="ù" d="M566 539v-539h-131l-2 66q-59 -76 -166 -76q-92 0 -148.5 58t-56.5 153v338h136v-317q0 -52 32 -83.5t85 -31.5q52 0 83.5 31.5t31.5 83.5v317h136zM283 618l-178 161h159l135 -161h-116z"/>
<glyph glyph-name="uacute" horiz-adv-x="635" unicode="ú" d="M566 539v-539h-131l-2 66q-59 -76 -166 -76q-92 0 -148.5 58t-56.5 153v338h136v-317q0 -52 32 -83.5t85 -31.5q52 0 83.5 31.5t31.5 83.5v317h136zM346 618h-116l136 161h158z"/>
<glyph glyph-name="ucircumflex" horiz-adv-x="635" unicode="û" d="M566 539v-539h-131l-2 66q-59 -76 -166 -76q-92 0 -148.5 58t-56.5 153v338h136v-317q0 -52 32 -83.5t85 -31.5q52 0 83.5 31.5t31.5 83.5v317h136zM244 618h-126l131 161h130l131 -161h-125l-71 84z"/>
<glyph glyph-name="udieresis" horiz-adv-x="635" unicode="ü" d="M566 539v-539h-131l-2 66q-59 -76 -166 -76q-92 0 -148.5 58t-56.5 153v338h136v-317q0 -52 32 -83.5t85 -31.5q52 0 83.5 31.5t31.5 83.5v317h136zM437 627q-35 0 -58 22.5t-23 57.5t23 58t58 23t58 -23t23 -58t-23 -57.5t-58 -22.5zM192 627q-35 0 -58 22.5t-23 57.5 t23 58t58 23t58 -23t23 -58t-23 -57.5t-58 -22.5z"/>
<glyph glyph-name="yacute" horiz-adv-x="603" unicode="ý" d="M345 -62q-37 -86 -79 -127t-115 -41q-47 0 -80 15l14 111q18 -9 43 -9q30 0 47.5 16t35.5 52l27 57l-231 527h149l152 -380l142 380h148zM220 618l136 161h158l-178 -161h-116z"/>
<glyph glyph-name="thorn" d="M353 107q66 0 107 45t41 119q0 73 -41 117.5t-107 44.5q-67 0 -107.5 -44.5t-40.5 -118.5t40.5 -118.5t107.5 -44.5zM384 549q111 0 184.5 -77t73.5 -200q0 -125 -74 -203.5t-184 -78.5q-118 0 -179 88v-298h-136v1000h136v-319q60 88 179 88z" unicode="þ"/>
<glyph glyph-name="ydieresis" horiz-adv-x="603" unicode="ÿ" d="M345 -62q-37 -86 -79 -127t-115 -41q-47 0 -80 15l14 111q18 -9 43 -9q30 0 47.5 16t35.5 52l27 57l-231 527h149l152 -380l142 380h148zM427 627q-35 0 -58 22.5t-23 57.5t23 58t58 23t58 -23t23 -58t-23 -57.5t-58 -22.5zM182 627q-35 0 -58 22.5t-23 57.5t23 58t58 23 t58 -23t23 -58t-23 -57.5t-58 -22.5z"/>
<glyph glyph-name="Amacron" horiz-adv-x="758" unicode="Ā" d="M502 264l-123 301l-123 -301h246zM549 147h-341l-60 -147h-151l316 740h131l316 -740h-151zM557 825h-356v107h356v-107z"/>
<glyph glyph-name="amacron" horiz-adv-x="577" unicode="ā" d="M255 87q49 0 85.5 38t37.5 100q-55 11 -102 11q-48 0 -76.5 -20.5t-28.5 -55.5q0 -34 22 -53.5t62 -19.5zM283 549q104 0 167.5 -57.5t63.5 -152.5v-339h-131l-3 77q-27 -41 -70.5 -64t-93.5 -23q-84 0 -135.5 46t-51.5 121q0 78 63 125t167 47q57 0 119 -12v10 q0 54 -34.5 84.5t-95.5 30.5q-74 0 -126 -43l-59 80q86 70 220 70zM471 624h-356v107h356v-107z"/>
<glyph glyph-name="Abreve" horiz-adv-x="758" unicode="Ă" d="M502 264l-123 301l-123 -301h246zM549 147h-341l-60 -147h-151l316 740h131l316 -740h-151zM379 810q-82 0 -131.5 46.5t-49.5 123.5h103q0 -40 21.5 -65.5t56.5 -25.5q36 0 57.5 25t21.5 66h103q0 -77 -50 -123.5t-132 -46.5z"/>
<glyph glyph-name="abreve" horiz-adv-x="577" unicode="ă" d="M255 87q49 0 85.5 38t37.5 100q-55 11 -102 11q-48 0 -76.5 -20.5t-28.5 -55.5q0 -34 22 -53.5t62 -19.5zM283 549q104 0 167.5 -57.5t63.5 -152.5v-339h-131l-3 77q-27 -41 -70.5 -64t-93.5 -23q-84 0 -135.5 46t-51.5 121q0 78 63 125t167 47q57 0 119 -12v10 q0 54 -34.5 84.5t-95.5 30.5q-74 0 -126 -43l-59 80q86 70 220 70zM293 609q-82 0 -131.5 46.5t-49.5 123.5h103q0 -40 21.5 -65.5t56.5 -25.5q36 0 57.5 25t21.5 66h103q0 -77 -50 -123.5t-132 -46.5z"/>
<glyph glyph-name="Aogonek" horiz-adv-x="758" unicode="Ą" d="M502 264l-123 301l-123 -301h246zM720 0q-72 0 -118 -34t-46 -87q0 -28 15 -42t39 -14q34 0 65 33l44 -35q-49 -51 -114 -51q-51 0 -82 29.5t-31 76.5t29.5 83t81.5 55l-54 133h-341l-60 -147h-151l316 740h131l316 -740h-40z"/>
<glyph glyph-name="aogonek" horiz-adv-x="577" unicode="ą" d="M255 87q49 0 85.5 38t37.5 100q-55 11 -102 11q-48 0 -76.5 -20.5t-28.5 -55.5q0 -34 22 -53.5t62 -19.5zM283 549q104 0 167.5 -57.5t63.5 -152.5v-339h-14q-72 0 -118 -34t-46 -87q0 -28 15 -42t39 -14q34 0 65 33l44 -35q-49 -51 -114 -51q-51 0 -82 29.5t-31 76.5 t29 82.5t81 55.5l-2 63q-27 -41 -70.5 -64t-93.5 -23q-84 0 -135.5 46t-51.5 121q0 78 63 125t167 47q57 0 119 -12v10q0 54 -34.5 84.5t-95.5 30.5q-74 0 -126 -43l-59 80q86 70 220 70z"/>
<glyph glyph-name="Cacute" horiz-adv-x="768" unicode="Ć" d="M638 541q-72 92 -201 92q-112 0 -180 -72t-68 -190q0 -119 69 -191.5t181 -72.5q140 0 216 117l95 -85q-109 -149 -314 -149q-176 0 -284.5 105t-108.5 277q0 170 108 274t284 104q182 0 292 -119zM341 819l136 161h158l-178 -161h-116z"/>
<glyph glyph-name="cacute" horiz-adv-x="548" unicode="ć" d="M436 395q-44 38 -106 38q-68 0 -109.5 -45t-41.5 -118q0 -74 41.5 -118.5t110.5 -44.5q77 0 122 48l77 -90q-75 -75 -205 -75q-129 0 -208 77t-79 203q0 125 80 202t210 77q106 0 185 -62zM231 618l136 161h158l-178 -161h-116z"/>
<glyph glyph-name="Cdotaccent" horiz-adv-x="768" unicode="Ċ" d="M638 541q-72 92 -201 92q-112 0 -180 -72t-68 -190q0 -119 69 -191.5t181 -72.5q140 0 216 117l95 -85q-109 -149 -314 -149q-176 0 -284.5 105t-108.5 277q0 170 108 274t284 104q182 0 292 -119zM426 828q-35 0 -58 22.5t-23 57.5t23 58t58 23t58 -23t23 -58t-23 -57.5 t-58 -22.5z"/>
<glyph glyph-name="cdotaccent" horiz-adv-x="548" unicode="ċ" d="M436 395q-44 38 -106 38q-68 0 -109.5 -45t-41.5 -118q0 -74 41.5 -118.5t110.5 -44.5q77 0 122 48l77 -90q-75 -75 -205 -75q-129 0 -208 77t-79 203q0 125 80 202t210 77q106 0 185 -62zM315 627q-35 0 -58 22.5t-23 57.5t23 58t58 23t58 -23t23 -58t-23 -57.5 t-58 -22.5z"/>
<glyph glyph-name="Ccaron" horiz-adv-x="768" unicode="Č" d="M750 139q-109 -149 -314 -149q-176 0 -284.5 105t-108.5 277q0 170 108 274t284 104q182 0 292 -119l-89 -90q-72 92 -201 92q-112 0 -180 -72t-68 -190q0 -119 69 -191.5t181 -72.5q140 0 216 117zM360 819l-131 161h126l70 -84l71 84h125l-131 -161h-130z"/>
<glyph glyph-name="ccaron" horiz-adv-x="548" unicode="č" d="M530 65q-75 -75 -205 -75q-129 0 -208 77t-79 203q0 125 80 202t210 77q106 0 185 -62l-77 -92q-44 38 -106 38q-68 0 -109.5 -45t-41.5 -118q0 -74 41.5 -118.5t110.5 -44.5q77 0 122 48zM249 618l-131 161h126l70 -84l71 84h125l-131 -161h-130z"/>
<glyph glyph-name="Dcaron" horiz-adv-x="788" unicode="Ď" d="M379 117q98 0 158 69.5t60 183.5t-60 183.5t-158 69.5h-150v-506h150zM379 740q164 0 264.5 -102t100.5 -268t-100.5 -268t-264.5 -102h-291v740h291zM273 819l-131 161h126l70 -84l71 84h125l-131 -161h-130z"/>
<glyph glyph-name="dcaron" horiz-adv-x="697" unicode="ď" d="M327 107q66 0 107 45t41 118t-41 118t-107 45q-67 0 -107.5 -45t-40.5 -119q0 -73 40.5 -117.5t107.5 -44.5zM830 780l-68 -187h-103l48 187h123zM475 780h136v-780h-131l-3 81q-59 -91 -181 -91q-111 0 -184.5 77t-73.5 200q0 125 73.5 203.5t184.5 78.5q118 0 179 -88 v319z"/>
<glyph glyph-name="Dcroat" horiz-adv-x="788" unicode="Đ" d="M379 117q98 0 158 69.5t60 183.5t-60 183.5t-158 69.5h-150v-203h167v-97h-167v-206h150zM379 740q164 0 264.5 -102t100.5 -268t-100.5 -268t-264.5 -102h-291v323h-77v97h77v320h291z"/>
<glyph glyph-name="dcroat" d="M327 107q66 0 107 45t41 118t-41 118t-107 45q-67 0 -107.5 -45t-40.5 -119q0 -73 40.5 -117.5t107.5 -44.5zM688 606h-77v-606h-131l-3 81q-59 -91 -181 -91q-111 0 -184.5 77t-73.5 200q0 125 73.5 203.5t184.5 78.5q118 0 179 -88v145h-172v97h172v77h136v-77h77v-97z " unicode="đ"/>
<glyph glyph-name="Emacron" horiz-adv-x="650" unicode="Ē" d="M599 117v-117h-511v740h503v-117h-362v-190h330v-116h-330v-200h370zM517 825h-356v107h356v-107z"/>
<glyph glyph-name="emacron" horiz-adv-x="612" unicode="ē" d="M308 442q-108 0 -125 -129h252q-8 62 -40.5 95.5t-86.5 33.5zM577 278q0 -25 -4 -57h-390q16 -124 129 -124q79 0 132 64l105 -53q-37 -55 -98.5 -86.5t-136.5 -31.5q-124 0 -199.5 76t-75.5 200q0 128 74 205.5t195 77.5t195 -74.5t74 -196.5zM486 624h-356v107h356 v-107z"/>
<glyph glyph-name="Edotaccent" horiz-adv-x="650" unicode="Ė" d="M599 117v-117h-511v740h503v-117h-362v-190h330v-116h-330v-200h370zM339 828q-35 0 -58 22.5t-23 57.5t23 58t58 23t58 -23t23 -58t-23 -57.5t-58 -22.5z"/>
<glyph glyph-name="edotaccent" horiz-adv-x="612" unicode="ė" d="M308 442q-108 0 -125 -129h252q-8 62 -40.5 95.5t-86.5 33.5zM577 278q0 -25 -4 -57h-390q16 -124 129 -124q79 0 132 64l105 -53q-37 -55 -98.5 -86.5t-136.5 -31.5q-124 0 -199.5 76t-75.5 200q0 128 74 205.5t195 77.5t195 -74.5t74 -196.5zM308 627q-35 0 -58 22.5 t-23 57.5t23 58t58 23t58 -23t23 -58t-23 -57.5t-58 -22.5z"/>
<glyph glyph-name="Eogonek" horiz-adv-x="650" unicode="Ę" d="M599 0q-72 0 -118 -34t-46 -87q0 -28 15 -42t39 -14q34 0 65 33l44 -35q-49 -51 -114 -51q-51 0 -82 29.5t-31 76.5q0 80 80 124h-363v740h503v-117h-362v-190h330v-116h-330v-200h370v-117z"/>
<glyph glyph-name="eogonek" horiz-adv-x="612" unicode="ę" d="M308 442q-108 0 -125 -129h252q-8 62 -40.5 95.5t-86.5 33.5zM577 278q0 -25 -4 -57h-390q16 -124 129 -124q79 0 132 64l105 -53q-31 -47 -83 -78q-117 -69 -117 -148q0 -30 17 -44.5t43 -14.5q37 0 68 33l44 -35q-49 -51 -115 -51q-54 0 -88 29t-34 77q0 62 60 115 q-10 -1 -30 -1q-124 0 -199.5 76t-75.5 200q0 128 74 205.5t195 77.5t195 -74.5t74 -196.5z"/>
<glyph glyph-name="Ecaron" horiz-adv-x="650" unicode="Ě" d="M599 117v-117h-511v740h503v-117h-362v-190h330v-116h-330v-200h370zM273 819l-131 161h126l70 -84l71 84h125l-131 -161h-130z"/>
<glyph glyph-name="ecaron" horiz-adv-x="612" unicode="ě" d="M308 442q-108 0 -125 -129h252q-8 62 -40.5 95.5t-86.5 33.5zM577 278q0 -25 -4 -57h-390q16 -124 129 -124q79 0 132 64l105 -53q-37 -55 -98.5 -86.5t-136.5 -31.5q-124 0 -199.5 76t-75.5 200q0 128 74 205.5t195 77.5t195 -74.5t74 -196.5zM242 618l-131 161h126 l70 -84l71 84h125l-131 -161h-130z"/>
<glyph glyph-name="Gbreve" horiz-adv-x="816" unicode="Ğ" d="M788 417q2 -32 2 -47q-1 -172 -100 -276t-265 -104q-172 0 -276.5 104.5t-104.5 275.5t104 275.5t277 104.5q159 0 262 -82l-93 -88q-57 53 -167 53q-107 0 -172 -72.5t-65 -190.5q0 -119 65 -191t171 -72q92 0 149.5 52.5t66.5 140.5h-191v117h337zM424 810 q-82 0 -131.5 46.5t-49.5 123.5h103q0 -40 21.5 -65.5t56.5 -25.5q36 0 57.5 25t21.5 66h103q0 -77 -50 -123.5t-132 -46.5z"/>
<glyph glyph-name="gbreve" d="M328 107q66 0 107 45t41 118t-41 118t-107 45q-67 0 -107.5 -44.5t-40.5 -117.5q0 -74 40.5 -119t107.5 -45zM612 539v-488q0 -127 -87.5 -204t-231.5 -77q-148 0 -240 68l30 107q85 -58 206 -58q84 0 135.5 45t51.5 120v26q-61 -88 -179 -88q-111 0 -184.5 78.5 t-73.5 203.5q0 123 73.5 200t184.5 77q122 0 181 -91l3 81h131zM337 609q-82 0 -131.5 46.5t-49.5 123.5h103q0 -40 21.5 -65.5t56.5 -25.5q36 0 57.5 25t21.5 66h103q0 -77 -50 -123.5t-132 -46.5z" unicode="ğ"/>
<glyph glyph-name="Gdotaccent" horiz-adv-x="816" unicode="Ġ" d="M788 417q2 -32 2 -47q-1 -172 -100 -276t-265 -104q-172 0 -276.5 104.5t-104.5 275.5t104 275.5t277 104.5q159 0 262 -82l-93 -88q-57 53 -167 53q-107 0 -172 -72.5t-65 -190.5q0 -119 65 -191t171 -72q92 0 149.5 52.5t66.5 140.5h-191v117h337zM425 828 q-35 0 -58 22.5t-23 57.5t23 58t58 23t58 -23t23 -58t-23 -57.5t-58 -22.5z"/>
<glyph glyph-name="gdotaccent" d="M328 107q66 0 107 45t41 118t-41 118t-107 45q-67 0 -107.5 -44.5t-40.5 -117.5q0 -74 40.5 -119t107.5 -45zM612 539v-488q0 -127 -87.5 -204t-231.5 -77q-148 0 -240 68l30 107q85 -58 206 -58q84 0 135.5 45t51.5 120v26q-61 -88 -179 -88q-111 0 -184.5 78.5 t-73.5 203.5q0 123 73.5 200t184.5 77q122 0 181 -91l3 81h131zM337 627q-35 0 -58 22.5t-23 57.5t23 58t58 23t58 -23t23 -58t-23 -57.5t-58 -22.5z" unicode="ġ"/>
<glyph glyph-name="Gcommaaccent" horiz-adv-x="816" unicode="Ģ" d="M355 -52h122l-62 -168h-103zM788 417q2 -32 2 -47q-1 -172 -100 -276t-265 -104q-172 0 -276.5 104.5t-104.5 275.5t104 275.5t277 104.5q159 0 262 -82l-93 -88q-57 53 -167 53q-107 0 -172 -72.5t-65 -190.5q0 -119 65 -191t171 -72q92 0 149.5 52.5t66.5 140.5h-191 v117h337z"/>
<glyph glyph-name="gcommaaccent" d="M328 107q66 0 107 45t41 118t-41 118t-107 45q-67 0 -107.5 -44.5t-40.5 -117.5q0 -74 40.5 -119t107.5 -45zM612 539v-488q0 -127 -87.5 -204t-231.5 -77q-148 0 -240 68l30 107q85 -58 206 -58q84 0 135.5 45t51.5 120v26q-61 -88 -179 -88q-111 0 -184.5 78.5 t-73.5 203.5q0 123 73.5 200t184.5 77q122 0 181 -91l3 81h131zM386 593h-123l68 187h103z" unicode="ģ"/>
<glyph glyph-name="Hbar" horiz-adv-x="867" unicode="Ħ" d="M637 541h-408v-106h408v106zM845 541h-67v-541h-141v319h-408v-319h-141v541h-66v97h66v102h141v-102h408v102h141v-102h67v-97z"/>
<glyph glyph-name="hbar" horiz-adv-x="655" unicode="ħ" d="M378 549q97 0 156 -57.5t59 -152.5v-339h-136v317q0 52 -34.5 84t-91.5 32t-91.5 -32t-34.5 -84v-317h-136v606h-77v97h77v77h136v-77h172v-97h-172v-132q60 75 173 75z"/>
<glyph glyph-name="Imacron" horiz-adv-x="317" unicode="Ī" d="M229 0h-141v740h141v-740zM336 932v-107h-356v107h356z"/>
<glyph glyph-name="imacron" horiz-adv-x="275" unicode="ī" d="M206 539v-539h-136v539h136zM316 731v-107h-356v107h356z"/>
<glyph glyph-name="Iogonek" horiz-adv-x="317" unicode="Į" d="M268 -179q-47 -51 -114 -51q-50 0 -81.5 29.5t-31.5 76.5q0 80 66 124h-19v740h141v-740q-54 0 -88.5 -34t-34.5 -87q0 -28 15 -42t39 -14q33 0 64 33z"/>
<glyph glyph-name="iogonek" horiz-adv-x="276" unicode="į" d="M246 -179q-49 -51 -114 -51q-50 0 -81.5 29.5t-31.5 76.5q0 80 66 124h-14v539h136v-539q-55 0 -89.5 -34t-34.5 -87q0 -28 15.5 -42t39.5 -14q33 0 64 33zM140 627q-35 0 -58.5 22.5t-23.5 57.5t23.5 58t58.5 23t57.5 -23t22.5 -58t-22.5 -57.5t-57.5 -22.5z"/>
<glyph glyph-name="Idotaccent" horiz-adv-x="317" unicode="İ" d="M229 0h-141v740h141v-740zM158 828q-35 0 -58 22.5t-23 57.5t23 58t58 23t58 -23t23 -58t-23 -57.5t-58 -22.5z"/>
<glyph glyph-name="dotlessi" horiz-adv-x="275" unicode="ı" d="M206 539v-539h-136v539h136z"/>
<glyph glyph-name="Kcommaaccent" horiz-adv-x="707" unicode="Ķ" d="M313 -52h122l-62 -168h-103zM712 0h-169l-246 320h-68v-320h-141v740h141v-304h66l234 304h169l-283 -360z"/>
<glyph glyph-name="kcommaaccent" horiz-adv-x="606" unicode="ķ" d="M255 -52h122l-62 -168h-103zM615 0h-172l-192 227h-46v-227h-136v780h136v-441h47l178 200h172l-238 -255z"/>
<glyph glyph-name="Lacute" horiz-adv-x="571" unicode="Ĺ" d="M556 117v-117h-468v740h141v-623h327zM189 819h-116l136 161h158z"/>
<glyph glyph-name="lacute" horiz-adv-x="276" unicode="ĺ" d="M70 780h136v-780h-136v780zM54 859l136 161h158l-178 -161h-116z"/>
<glyph glyph-name="Lcommaaccent" horiz-adv-x="571" unicode="Ļ" d="M237 -52h122l-62 -168h-103zM556 117v-117h-468v740h141v-623h327z"/>
<glyph glyph-name="lcommaaccent" horiz-adv-x="276" unicode="ļ" d="M199 -52l-62 -168h-103l43 168h122zM70 780h136v-780h-136v780z"/>
<glyph glyph-name="Lcaron" horiz-adv-x="569" unicode="Ľ" d="M467 525h-123l54 215h142zM556 117v-117h-468v740h141v-623h327z"/>
<glyph glyph-name="lcaron" horiz-adv-x="292" unicode="ľ" d="M425 780l-68 -187h-103l48 187h123zM70 780h136v-780h-136v780z"/>
<glyph glyph-name="Lslash" horiz-adv-x="571" unicode="Ł" d="M556 117v-117h-468v281l-57 -41v104l57 40v356h141v-275l104 73v-103l-104 -73v-245h327z"/>
<glyph glyph-name="lslash" horiz-adv-x="276" unicode="ł" d="M290 435l-84 -59v-376h-136v298l-82 -58v104l82 58v378h136v-301l84 59v-103z"/>
<glyph glyph-name="Nacute" horiz-adv-x="868" unicode="Ń" d="M780 740v-740h-87l-466 501l2 -501h-141v740h88l466 -501l-3 501h141zM349 819l136 161h158l-178 -161h-116z"/>
<glyph glyph-name="nacute" horiz-adv-x="655" unicode="ń" d="M378 549q97 0 156 -57.5t59 -152.5v-339h-136v317q0 52 -34.5 84t-91.5 32t-91.5 -32t-34.5 -84v-317h-136v539h131l2 -69q62 79 176 79zM364 618h-116l136 161h158z"/>
<glyph glyph-name="Ncommaaccent" horiz-adv-x="868" unicode="Ņ" d="M494 -52l-62 -168h-103l43 168h122zM780 740v-740h-87l-466 501l2 -501h-141v740h88l466 -501l-3 501h141z"/>
<glyph glyph-name="ncommaaccent" horiz-adv-x="655" unicode="ņ" d="M268 -52h122l-62 -168h-103zM378 549q97 0 156 -57.5t59 -152.5v-339h-136v317q0 52 -34.5 84t-91.5 32t-91.5 -32t-34.5 -84v-317h-136v539h131l2 -69q62 79 176 79z"/>
<glyph glyph-name="Ncaron" horiz-adv-x="868" unicode="Ň" d="M780 740v-740h-87l-466 501l2 -501h-141v740h88l466 -501l-3 501h141zM368 819l-131 161h126l70 -84l71 84h125l-131 -161h-130z"/>
<glyph glyph-name="ncaron" horiz-adv-x="655" unicode="ň" d="M378 549q97 0 156 -57.5t59 -152.5v-339h-136v317q0 52 -34.5 84t-91.5 32t-91.5 -32t-34.5 -84v-317h-136v539h131l2 -69q62 79 176 79zM267 618l-131 161h126l70 -84l71 84h125l-131 -161h-130z"/>
<glyph glyph-name="Eng" horiz-adv-x="868" unicode="Ŋ" d="M780 740v-800q0 -76 -54 -123t-140 -47q-93 0 -146 58l37 95q35 -36 82 -36q37 0 58.5 21t21.5 57v93l-412 443l2 -501h-141v740h88l466 -501l-3 501h141z"/>
<glyph glyph-name="eng" horiz-adv-x="655" unicode="ŋ" d="M378 549q97 0 156 -57.5t59 -152.5v-399q0 -76 -47 -123t-124 -47q-62 0 -105 17l10 106q20 -6 54 -6t55 23t21 61v346q0 52 -34.5 84t-91.5 32t-91.5 -32t-34.5 -84v-317h-136v539h131l2 -69q62 79 176 79z"/>
<glyph glyph-name="Omacron" horiz-adv-x="863" unicode="Ō" d="M432 107q109 0 175.5 72.5t66.5 190.5t-66.5 190.5t-175.5 72.5t-176 -72.5t-67 -190.5t67 -190.5t176 -72.5zM432 -10q-175 0 -282 104.5t-107 275.5t107 275.5t282 104.5q174 0 281 -104.5t107 -275.5t-107 -275.5t-281 -104.5zM610 932v-107h-356v107h356z"/>
<glyph glyph-name="omacron" horiz-adv-x="653" unicode="ō" d="M327 107q66 0 106.5 45t40.5 118t-40.5 118t-106.5 45q-67 0 -107.5 -44.5t-40.5 -118.5t40.5 -118.5t107.5 -44.5zM327 -10q-130 0 -209.5 77t-79.5 203q0 125 79.5 202t209.5 77q129 0 208.5 -77t79.5 -202q0 -126 -79.5 -203t-208.5 -77zM505 731v-107h-356v107h356z "/>
<glyph glyph-name="Ohungarumlaut" horiz-adv-x="863" unicode="Ő" d="M432 107q109 0 175.5 72.5t66.5 190.5t-66.5 190.5t-175.5 72.5t-176 -72.5t-67 -190.5t67 -190.5t176 -72.5zM432 -10q-175 0 -282 104.5t-107 275.5t107 275.5t282 104.5q174 0 281 -104.5t107 -275.5t-107 -275.5t-281 -104.5zM465 819l106 161h159l-149 -161h-116z M268 819l106 161h159l-149 -161h-116z"/>
<glyph glyph-name="ohungarumlaut" horiz-adv-x="653" unicode="ő" d="M327 107q66 0 106.5 45t40.5 118t-40.5 118t-106.5 45q-67 0 -107.5 -44.5t-40.5 -118.5t40.5 -118.5t107.5 -44.5zM327 -10q-130 0 -209.5 77t-79.5 203q0 125 79.5 202t209.5 77q129 0 208.5 -77t79.5 -202q0 -126 -79.5 -203t-208.5 -77zM360 618l106 161h159 l-149 -161h-116zM163 618l106 161h159l-149 -161h-116z"/>
<glyph glyph-name="OE" horiz-adv-x="1242" unicode="Œ" d="M433 107q109 0 175.5 72.5t66.5 190.5t-66.5 190.5t-175.5 72.5t-176 -72t-67 -191t67 -191t176 -72zM1190 117v-117h-510v84q-100 -94 -257 -94q-170 0 -274.5 104.5t-104.5 275.5t104.5 275.5t274.5 104.5q157 0 257 -94v84h502v-117h-361v-190h329v-116h-329v-200h369 z"/>
<glyph glyph-name="oe" horiz-adv-x="1048" unicode="œ" d="M327 107q66 0 106.5 45t40.5 118t-40.5 118t-106.5 45t-107 -45t-41 -118t41 -118t107 -45zM743 442q-53 0 -84.5 -33.5t-39.5 -95.5h252q-8 62 -40.5 95.5t-87.5 33.5zM1012 278q0 -37 -2 -57h-392q18 -124 131 -124q78 0 131 64l105 -53q-36 -55 -94.5 -86.5 t-130.5 -31.5t-128 30.5t-88 86.5q-73 -117 -226 -117q-125 0 -202 77t-77 203q0 125 77 202t202 77q75 0 133.5 -30.5t92.5 -86.5q68 117 209 117q117 0 188 -74.5t71 -196.5z"/>
<glyph glyph-name="Racute" horiz-adv-x="731" unicode="Ŕ" d="M229 389h143q63 0 101.5 32t38.5 85t-36 85t-94 32h-153v-234zM380 272h-151v-272h-141v740h310q117 0 188 -64.5t71 -169.5q0 -71 -36 -125t-101 -83l195 -298h-166zM370 819h-116l136 161h158z"/>
<glyph glyph-name="racute" horiz-adv-x="408" unicode="ŕ" d="M202 467q67 82 198 82l-9 -125q-84 0 -135 -37t-51 -98v-289h-136v539h131zM255 618h-116l136 161h158z"/>
<glyph glyph-name="Rcommaaccent" horiz-adv-x="731" unicode="Ŗ" d="M314 -52h122l-62 -168h-103zM229 389h143q63 0 101.5 32t38.5 85t-36 85t-94 32h-153v-234zM715 0h-166l-169 272h-151v-272h-141v740h310q117 0 188 -64.5t71 -169.5q0 -71 -36 -125t-101 -83z"/>
<glyph glyph-name="rcommaaccent" horiz-adv-x="408" unicode="ŗ" d="M109 -52h122l-62 -168h-103zM202 467q67 82 198 82l-9 -125q-84 0 -135 -37t-51 -98v-289h-136v539h131z"/>
<glyph glyph-name="Rcaron" horiz-adv-x="731" unicode="Ř" d="M229 389h143q63 0 101.5 32t38.5 85t-36 85t-94 32h-153v-234zM380 272h-151v-272h-141v740h310q117 0 188 -64.5t71 -169.5q0 -71 -36 -125t-101 -83l195 -298h-166zM273 819l-131 161h126l70 -84l71 84h125l-131 -161h-130z"/>
<glyph glyph-name="rcaron" horiz-adv-x="408" unicode="ř" d="M202 467q67 82 198 82l-9 -125q-84 0 -135 -37t-51 -98v-289h-136v539h131zM158 618l-131 161h126l70 -84l71 84h125l-131 -161h-130z"/>
<glyph glyph-name="Sacute" horiz-adv-x="608" unicode="Ś" d="M418 196q0 41 -32.5 64.5t-100.5 44.5l-37 12q-97 31 -147.5 77t-50.5 131q0 101 69.5 163t183.5 62q131 0 231 -85l-62 -98q-76 66 -167 66q-50 0 -79.5 -23t-29.5 -62q0 -28 17.5 -48t38 -29.5t61.5 -23.5l37 -12q44 -14 78 -31.5t67 -44t51 -64.5t18 -86 q0 -98 -72 -158.5t-190 -60.5q-148 0 -243 93l52 95q81 -71 182 -71q60 0 92.5 23t32.5 66zM219 819l136 161h158l-178 -161h-116z"/>
<glyph glyph-name="sacute" horiz-adv-x="484" unicode="ś" d="M305 148q0 24 -20 38t-60 27l-38 12q-71 22 -107 54t-36 92q0 80 54.5 129t143.5 49q118 0 190 -53l-57 -89q-57 35 -123 35q-31 0 -50 -13t-19 -36q0 -22 17.5 -35t52.5 -24l38 -13q73 -23 112.5 -59t39.5 -102q0 -77 -57 -123.5t-151 -46.5q-121 0 -191 64l52 82 q63 -39 141 -39q30 0 49 14t19 37zM158 618l136 161h158l-178 -161h-116z"/>
<glyph glyph-name="Scedilla" horiz-adv-x="608" unicode="Ş" d="M564 209q0 -92 -64 -151t-171 -67l-31 -51h10q47 0 75.5 -22.5t28.5 -59.5q0 -39 -33.5 -63.5t-90.5 -24.5q-65 0 -100 25l25 46q25 -18 67 -18q31 0 49 9.5t18 25.5q0 33 -62 33q-20 0 -43 -7l-18 32l42 76q-127 11 -207 91l52 95q81 -71 182 -71q60 0 92.5 23t32.5 66 q0 41 -32.5 64.5t-100.5 44.5l-37 12q-97 31 -147.5 77t-50.5 131q0 101 69.5 163t183.5 62q131 0 231 -85l-62 -98q-76 66 -167 66q-50 0 -79.5 -23t-29.5 -62q0 -28 17.5 -48t38 -29.5t61.5 -23.5l37 -12q44 -14 78 -31.5t67 -44t51 -64.5t18 -86z"/>
<glyph glyph-name="scedilla" horiz-adv-x="484" unicode="ş" d="M443 160q0 -70 -49 -115.5t-130 -53.5l-32 -51h10q47 0 75.5 -22.5t28.5 -59.5q0 -39 -33.5 -63.5t-90.5 -24.5q-65 0 -100 25l25 46q25 -18 67 -18q31 0 49 9.5t18 25.5q0 33 -62 33q-20 0 -43 -7l-18 32l42 76q-96 8 -156 62l52 82q63 -39 141 -39q30 0 49 14t19 37 q0 24 -20 38t-60 27l-38 12q-71 22 -107 54t-36 92q0 80 54.5 129t143.5 49q118 0 190 -53l-57 -89q-57 35 -123 35q-31 0 -50 -13t-19 -36q0 -22 17.5 -35t52.5 -24l38 -13q73 -23 112.5 -59t39.5 -102z"/>
<glyph glyph-name="Scaron" horiz-adv-x="608" unicode="Š" d="M350 435q44 -14 78 -31.5t67 -44t51 -64.5t18 -86q0 -98 -72 -158.5t-190 -60.5q-148 0 -243 93l52 95q81 -71 182 -71q60 0 92.5 23t32.5 66q0 41 -32.5 64.5t-100.5 44.5l-37 12q-97 31 -147.5 77t-50.5 131q0 101 69.5 163t183.5 62q131 0 231 -85l-62 -98 q-76 66 -167 66q-50 0 -79.5 -23t-29.5 -62q0 -28 17.5 -48t38 -29.5t61.5 -23.5zM238 819l-131 161h126l70 -84l71 84h125l-131 -161h-130z"/>
<glyph glyph-name="scaron" horiz-adv-x="484" unicode="š" d="M291 321q73 -23 112.5 -59t39.5 -102q0 -77 -57 -123.5t-151 -46.5q-121 0 -191 64l52 82q63 -39 141 -39q30 0 49 14t19 37q0 24 -20 38t-60 27l-38 12q-71 22 -107 54t-36 92q0 80 54.5 129t143.5 49q118 0 190 -53l-57 -89q-57 35 -123 35q-31 0 -50 -13t-19 -36 q0 -22 17.5 -35t52.5 -24zM177 618l-131 161h126l70 -84l71 84h125l-131 -161h-130z"/>
<glyph glyph-name="uni0162" horiz-adv-x="622" unicode="Ţ" d="M345 0l-37 -60h10q47 0 75.5 -22.5t28.5 -59.5q0 -39 -33.5 -63.5t-90.5 -24.5q-65 0 -100 25l25 46q25 -18 67 -18q31 0 49 9.5t18 25.5q0 33 -62 33q-20 0 -43 -7l-18 32l47 84h-41v623h-225v117h592v-117h-226v-623h-36z"/>
<glyph glyph-name="uni0163" horiz-adv-x="432" unicode="ţ" d="M270 -10l-31 -50h10q47 0 75.5 -22.5t28.5 -59.5q0 -39 -33.5 -63.5t-90.5 -24.5q-65 0 -100 25l25 46q25 -18 67 -18q31 0 49 9.5t18 25.5q0 33 -62 33q-20 0 -43 -7l-18 32l47 84q-49 17 -77 59t-28 101v268h-89v111h89v158h136v-158h159v-111h-159v-240 q0 -37 20.5 -59t53.5 -22q50 0 93 18v-110q-60 -25 -137 -25h-3z"/>
<glyph glyph-name="Tcaron" horiz-adv-x="622" unicode="Ť" d="M607 623h-226v-623h-141v623h-225v117h592v-117zM245 819l-131 161h126l70 -84l71 84h125l-131 -161h-130z"/>
<glyph glyph-name="tcaron" horiz-adv-x="432" unicode="ť" d="M243 188q0 -37 20.5 -59t53.5 -22q50 0 93 18v-110q-60 -25 -137 -25q-74 0 -120 47t-46 123v268h-89v111h89v158h136v-158h159v-111h-159v-240zM409 593h-103l48 187h123z"/>
<glyph glyph-name="Tbar" horiz-adv-x="622" unicode="Ŧ" d="M381 623v-213h124v-97h-124v-313h-141v313h-120v97h120v213h-225v117h592v-117h-226z"/>
<glyph glyph-name="tbar" horiz-adv-x="438" unicode="ŧ" d="M321 107q51 0 94 18v-110q-60 -25 -137 -25q-74 0 -120 47t-46 123v69h-86v98h86v101h-89v111h89v158h136v-158h159v-111h-159v-101h148v-98h-148v-41q0 -37 20.5 -59t52.5 -22z"/>
<glyph glyph-name="Umacron" horiz-adv-x="806" unicode="Ū" d="M727 740v-460q0 -131 -89 -210.5t-234 -79.5q-146 0 -235.5 79.5t-89.5 210.5v460h141v-454q0 -80 51 -129.5t133 -49.5t132 49.5t50 129.5v454h141zM582 932v-107h-356v107h356z"/>
<glyph glyph-name="umacron" horiz-adv-x="635" unicode="ū" d="M566 539v-539h-131l-2 66q-59 -76 -166 -76q-92 0 -148.5 58t-56.5 153v338h136v-317q0 -52 32 -83.5t85 -31.5q52 0 83.5 31.5t31.5 83.5v317h136zM493 624h-356v107h356v-107z"/>
<glyph glyph-name="Uring" horiz-adv-x="806" unicode="Ů" d="M727 740v-460q0 -131 -89 -210.5t-234 -79.5q-146 0 -235.5 79.5t-89.5 210.5v460h141v-454q0 -80 51 -129.5t133 -49.5t132 49.5t50 129.5v454h141zM403 846q20 0 32 13t12 34t-12 33.5t-32 12.5t-32.5 -12.5t-12.5 -33.5t12.5 -34t32.5 -13zM403 785q-53 0 -85 29.5 t-32 78.5t32 78.5t85 29.5t85 -29.5t32 -78.5t-32 -78.5t-85 -29.5z"/>
<glyph glyph-name="uring" horiz-adv-x="635" unicode="ů" d="M566 539v-539h-131l-2 66q-59 -76 -166 -76q-92 0 -148.5 58t-56.5 153v338h136v-317q0 -52 32 -83.5t85 -31.5q52 0 83.5 31.5t31.5 83.5v317h136zM314 738q-20 0 -32.5 -12.5t-12.5 -33.5t12.5 -34t32.5 -13t32 13t12 34t-12 33.5t-32 12.5zM314 584q-53 0 -85 29.5 t-32 78.5t32 78.5t85 29.5t85 -29.5t32 -78.5t-32 -78.5t-85 -29.5z"/>
<glyph glyph-name="Uhungarumlaut" horiz-adv-x="806" unicode="Ű" d="M727 740v-460q0 -131 -89 -210.5t-234 -79.5q-146 0 -235.5 79.5t-89.5 210.5v460h141v-454q0 -80 51 -129.5t133 -49.5t132 49.5t50 129.5v454h141zM436 819l106 161h159l-149 -161h-116zM239 819l106 161h159l-149 -161h-116z"/>
<glyph glyph-name="uhungarumlaut" horiz-adv-x="635" unicode="ű" d="M430 539h136v-539h-131l-2 66q-59 -76 -166 -76q-92 0 -148.5 58t-56.5 153v338h136v-317q0 -52 32 -83.5t85 -31.5q52 0 83.5 31.5t31.5 83.5v317zM347 618l106 161h159l-149 -161h-116zM266 618h-116l106 161h159z"/>
<glyph glyph-name="Uogonek" horiz-adv-x="806" unicode="Ų" d="M727 740v-460q0 -79 -36 -141t-98 -102q-60 -38 -94 -75t-34 -80q0 -30 17.5 -44.5t43.5 -14.5q37 0 67 33l44 -35q-47 -51 -114 -51q-55 0 -88.5 29t-33.5 77q0 64 63 118q-27 -4 -60 -4q-146 0 -235.5 79.5t-89.5 210.5v460h141v-454q0 -80 51 -129.5t133 -49.5 t132 49.5t50 129.5v454h141z"/>
<glyph glyph-name="uogonek" horiz-adv-x="635" unicode="ų" d="M566 539v-539h-14q-72 0 -118 -34t-46 -87q0 -28 15 -42t39 -14q34 0 65 33l44 -35q-49 -51 -114 -51q-51 0 -82 29.5t-31 76.5t29.5 82.5t81.5 55.5l-2 52q-59 -76 -166 -76q-92 0 -148.5 58t-56.5 153v338h136v-317q0 -52 32 -83.5t85 -31.5q52 0 83.5 31.5t31.5 83.5 v317h136z"/>
<glyph glyph-name="Wcircumflex" horiz-adv-x="1178" unicode="Ŵ" d="M1175 740l-265 -740h-131l-190 549l-189 -549h-131l-266 740h151l188 -551l181 551h132l183 -551l187 551h150zM519 819h-126l131 161h130l131 -161h-125l-71 84z"/>
<glyph glyph-name="wcircumflex" horiz-adv-x="960" unicode="ŵ" d="M952 539l-208 -539h-136l-128 381l-128 -381h-136l-208 539h149l136 -384l131 384h112l131 -384l136 384h149zM408 618h-126l131 161h130l131 -161h-125l-71 84z"/>
<glyph glyph-name="Ycircumflex" horiz-adv-x="692" unicode="Ŷ" d="M681 740l-264 -467v-273h-141v273l-265 467h151l185 -342l184 342h150zM276 819h-126l131 161h130l131 -161h-125l-71 84z"/>
<glyph glyph-name="ycircumflex" horiz-adv-x="603" unicode="ŷ" d="M598 539l-253 -601q-37 -86 -79 -127t-115 -41q-47 0 -80 15l14 111q18 -9 43 -9q30 0 47.5 16t35.5 52l27 57l-231 527h149l152 -380l142 380h148zM234 618h-126l131 161h130l131 -161h-125l-71 84z"/>
<glyph glyph-name="Ydieresis" horiz-adv-x="692" unicode="Ÿ" d="M681 740l-264 -467v-273h-141v273l-265 467h151l185 -342l184 342h150zM470 828q-35 0 -58 22.5t-23 57.5t23 58t58 23t58 -23t23 -58t-23 -57.5t-58 -22.5zM225 828q-35 0 -58 22.5t-23 57.5t23 58t58 23t58 -23t23 -58t-23 -57.5t-58 -22.5z"/>
<glyph glyph-name="Zacute" horiz-adv-x="668" unicode="Ź" d="M633 117v-117h-597v88l394 535h-388v117h581v-87l-394 -536h404zM363 819h-116l136 161h158z"/>
<glyph glyph-name="zacute" horiz-adv-x="546" unicode="ź" d="M511 112v-112h-473v88l269 340h-264v111h456l1 -87l-268 -340h279zM187 618l136 161h158l-178 -161h-116z"/>
<glyph glyph-name="Zdotaccent" horiz-adv-x="668" unicode="Ż" d="M633 117v-117h-597v88l394 535h-388v117h581v-87l-394 -536h404zM332 828q-35 0 -58 22.5t-23 57.5t23 58t58 23t58 -23t23 -58t-23 -57.5t-58 -22.5z"/>
<glyph glyph-name="zdotaccent" horiz-adv-x="546" unicode="ż" d="M511 112v-112h-473v88l269 340h-264v111h456l1 -87l-268 -340h279zM271 627q-35 0 -58 22.5t-23 57.5t23 58t58 23t58 -23t23 -58t-23 -57.5t-58 -22.5z"/>
<glyph glyph-name="Zcaron" horiz-adv-x="668" unicode="Ž" d="M633 117v-117h-597v88l394 535h-388v117h581v-87l-394 -536h404zM266 819l-131 161h126l70 -84l71 84h125l-131 -161h-130z"/>
<glyph glyph-name="zcaron" horiz-adv-x="546" unicode="ž" d="M511 112v-112h-473v88l269 340h-264v111h456l1 -87l-268 -340h279zM206 618l-131 161h126l70 -84l71 84h125l-131 -161h-130z"/>
<glyph glyph-name="florin" horiz-adv-x="504" unicode="ƒ" d="M408 633q-79 0 -93 -84l-26 -147h160v-112h-180l-69 -390h-137l69 390h-81v112h101l33 188q15 77 70 118.5t136 41.5q55 0 94 -16l-15 -110q-27 9 -62 9z"/>
<glyph glyph-name="Scommaaccent" horiz-adv-x="608" unicode="Ș" d="M361 -52l-62 -168h-103l43 168h122zM418 196q0 41 -32.5 64.5t-100.5 44.5l-37 12q-97 31 -147.5 77t-50.5 131q0 101 69.5 163t183.5 62q131 0 231 -85l-62 -98q-76 66 -167 66q-50 0 -79.5 -23t-29.5 -62q0 -28 17.5 -48t38 -29.5t61.5 -23.5l37 -12q44 -14 78 -31.5 t67 -44t51 -64.5t18 -86q0 -98 -72 -158.5t-190 -60.5q-148 0 -243 93l52 95q81 -71 182 -71q60 0 92.5 23t32.5 66z"/>
<glyph glyph-name="scommaaccent" horiz-adv-x="484" unicode="ș" d="M295 -52l-62 -168h-103l43 168h122zM305 148q0 24 -20 38t-60 27l-38 12q-71 22 -107 54t-36 92q0 80 54.5 129t143.5 49q118 0 190 -53l-57 -89q-57 35 -123 35q-31 0 -50 -13t-19 -36q0 -22 17.5 -35t52.5 -24l38 -13q73 -23 112.5 -59t39.5 -102q0 -77 -57 -123.5 t-151 -46.5q-121 0 -191 64l52 82q63 -39 141 -39q30 0 49 14t19 37z"/>
<glyph glyph-name="uni021A" horiz-adv-x="622" unicode="Ț" d="M248 -52h122l-62 -168h-103zM607 623h-226v-623h-141v623h-225v117h592v-117z"/>
<glyph glyph-name="uni021B" horiz-adv-x="432" unicode="ț" d="M180 -52h122l-62 -168h-103zM317 107q50 0 93 18v-110q-60 -25 -137 -25q-74 0 -120 47t-46 123v268h-89v111h89v158h136v-158h159v-111h-159v-240q0 -37 20.5 -59t53.5 -22z"/>
<glyph glyph-name="circumflex" horiz-adv-x="600" unicode="ˆ" d="M302 618l-71 84l-70 -84h-126l131 161h130l131 -161h-125z"/>
<glyph glyph-name="caron" horiz-adv-x="600" unicode="ˇ" d="M427 779l-131 -161h-130l-131 161h126l70 -84l71 84h125z"/>
<glyph glyph-name="breve" horiz-adv-x="600" unicode="˘" d="M394 779q0 -77 -50 -123.5t-132 -46.5t-131.5 46.5t-49.5 123.5h103q0 -40 21.5 -65.5t56.5 -25.5q36 0 57.5 25t21.5 66h103z"/>
<glyph glyph-name="dotaccent" horiz-adv-x="600" unicode="˙" d="M133 627q-35 0 -58 22.5t-23 57.5t23 58t58 23t58 -23t23 -58t-23 -57.5t-58 -22.5z"/>
<glyph glyph-name="ring" horiz-adv-x="600" unicode="˚" d="M168 645q20 0 32 13t12 34t-12 33.5t-32 12.5t-32.5 -12.5t-12.5 -33.5t12.5 -34t32.5 -13zM168 584q-53 0 -85 29.5t-32 78.5t32 78.5t85 29.5t85 -29.5t32 -78.5t-32 -78.5t-85 -29.5z"/>
<glyph glyph-name="ogonek" horiz-adv-x="600" unicode="˛" d="M250 0q-72 0 -118 -34t-46 -87q0 -28 15 -42t39 -14q34 0 65 33l44 -35q-49 -51 -114 -51q-51 0 -82 29.5t-31 76.5q0 70 63 113.5t165 43.5v-33z"/>
<glyph glyph-name="tilde" horiz-adv-x="600" unicode="˜" d="M108 629h-74q0 65 31.5 104.5t82.5 39.5q36 0 88.5 -28t71.5 -28q41 0 41 46h74q0 -68 -30.5 -106t-82.5 -38q-34 0 -88 28t-73 28q-18 0 -29.5 -12.5t-11.5 -33.5z"/>
<glyph glyph-name="hungarumlaut" horiz-adv-x="600" unicode="˝" d="M319 618l106 161h159l-149 -161h-116zM122 618l106 161h159l-149 -161h-116z"/>
<glyph glyph-name="gravecomb" horiz-adv-x="0" unicode="̀" d="M-402 779h159l135 -161h-116z"/>
<glyph glyph-name="acutecomb" horiz-adv-x="0" unicode="́" d="M-277 618l136 161h158l-178 -161h-116z"/>
<glyph glyph-name="uni0302" horiz-adv-x="0" unicode="̂" d="M-161 618l-71 84l-70 -84h-126l131 161h130l131 -161h-125z"/>
<glyph glyph-name="tildecomb" horiz-adv-x="0" unicode="̃" d="M-349 629h-74q0 65 31.5 104.5t82.5 39.5q36 0 88.5 -28t71.5 -28q41 0 41 46h74q0 -68 -30.5 -106t-82.5 -38q-34 0 -88 28t-73 28q-18 0 -29.5 -12.5t-11.5 -33.5z"/>
<glyph glyph-name="uni0304" horiz-adv-x="0" unicode="̄" d="M-41 731v-107h-356v107h356z"/>
<glyph glyph-name="uni0306" horiz-adv-x="0" unicode="̆" d="M-31 779q0 -77 -50 -123.5t-132 -46.5t-131.5 46.5t-49.5 123.5h103q0 -40 21.5 -65.5t56.5 -25.5q36 0 57.5 25t21.5 66h103z"/>
<glyph glyph-name="uni0307" horiz-adv-x="0" unicode="̇" d="M-133 627q-35 0 -58 22.5t-23 57.5t23 58t58 23t58 -23t23 -58t-23 -57.5t-58 -22.5z"/>
<glyph glyph-name="uni0308" horiz-adv-x="0" unicode="̈" d="M-133 627q-35 0 -58 22.5t-23 57.5t23 58t58 23t58 -23t23 -58t-23 -57.5t-58 -22.5zM-378 627q-35 0 -58 22.5t-23 57.5t23 58t58 23t58 -23t23 -58t-23 -57.5t-58 -22.5z"/>
<glyph glyph-name="uni030A" horiz-adv-x="0" unicode="̊" d="M-168 645q20 0 32 13t12 34t-12 33.5t-32 12.5t-32.5 -12.5t-12.5 -33.5t12.5 -34t32.5 -13zM-168 584q-53 0 -85 29.5t-32 78.5t32 78.5t85 29.5t85 -29.5t32 -78.5t-32 -78.5t-85 -29.5z"/>
<glyph glyph-name="uni030B" horiz-adv-x="0" unicode="̋" d="M-252 618l106 161h159l-149 -161h-116zM-449 618l106 161h159l-149 -161h-116z"/>
<glyph glyph-name="uni030C" horiz-adv-x="0" unicode="̌" d="M-36 779l-131 -161h-130l-131 161h126l70 -84l71 84h125z"/>
<glyph glyph-name="uni0312" horiz-adv-x="0" unicode="̒" d="M-207 593l68 187h103l-48 -187h-123z"/>
<glyph glyph-name="uni0326" horiz-adv-x="0" unicode="̦" d="M-20 -52l-62 -168h-103l43 168h122z"/>
<glyph glyph-name="uni0327" horiz-adv-x="0" unicode="̧" d="M-126 -60q47 0 75.5 -22.5t28.5 -59.5q0 -39 -33.5 -63.5t-90.5 -24.5q-65 0 -100 25l25 46q25 -18 67 -18q31 0 49 9.5t18 25.5q0 33 -62 33q-20 0 -43 -7l-18 32l47 84h64l-38 -61q2 0 6 0.5t5 0.5z"/>
<glyph glyph-name="uni0328" horiz-adv-x="0" unicode="̨" d="M-15 0q-72 0 -118 -34t-46 -87q0 -28 15 -42t39 -14q34 0 65 33l44 -35q-49 -51 -114 -51q-51 0 -82 29.5t-31 76.5q0 70 63 113.5t165 43.5v-33z"/>
<glyph glyph-name="uni0335" horiz-adv-x="0" unicode="̵" d="M-144 338v-97h-385v97h385z"/>
<glyph glyph-name="uni0336" horiz-adv-x="0" unicode="̶" d="M-52 338v-97h-823v97h823z"/>
<glyph glyph-name="uni0337" horiz-adv-x="0" unicode="̷" d="M-115 549v-103l-153 -108v19l-149 -106v104l149 105v-18z"/>
<glyph glyph-name="uni0338" horiz-adv-x="0" unicode="̸" d="M-450 -10l-72 44l420 716l72 -44z"/>
<glyph glyph-name="uni0394" horiz-adv-x="827" unicode="Δ" d="M597 117l-183 448l-183 -448h366zM795 0h-763l316 740h132z"/>
<glyph glyph-name="uni03A9" horiz-adv-x="802" unicode="Ω" d="M565 117h177v-117h-289v255q73 15 115 64t42 122q0 87 -57.5 139.5t-150.5 52.5q-94 0 -151 -52.5t-57 -139.5q0 -72 42 -121t115 -65v-255h-289v117h177v46q-90 36 -140.5 108.5t-50.5 169.5q0 139 97 224t257 85q158 0 255 -85t97 -224q0 -97 -50 -170t-139 -108v-46z "/>
<glyph glyph-name="uni03BC" horiz-adv-x="641" unicode="μ" d="M572 539v-539h-130l-2 53q-45 -63 -120 -63q-71 0 -115 58v-268h-136v759h136v-317q0 -52 31.5 -83.5t83.5 -31.5t84 31.5t32 83.5v317h136z"/>
<glyph glyph-name="pi" horiz-adv-x="699" unicode="π" d="M595 107q33 0 59 18v-110q-44 -25 -102 -25q-59 0 -95 36t-36 94v308h-164v-428h-136v428h-90v111h622v-111h-96v-280q0 -19 10.5 -30t27.5 -11z"/>
<glyph glyph-name="Wgrave" horiz-adv-x="1178" unicode="Ẁ" d="M1175 740l-265 -740h-131l-190 549l-189 -549h-131l-266 740h151l188 -551l181 551h132l183 -551l187 551h150zM558 819l-178 161h159l135 -161h-116z"/>
<glyph glyph-name="wgrave" horiz-adv-x="960" unicode="ẁ" d="M952 539l-208 -539h-136l-128 381l-128 -381h-136l-208 539h149l136 -384l131 384h112l131 -384l136 384h149zM447 618l-178 161h159l135 -161h-116z"/>
<glyph glyph-name="Wacute" horiz-adv-x="1178" unicode="Ẃ" d="M1175 740l-265 -740h-131l-190 549l-189 -549h-131l-266 740h151l188 -551l181 551h132l183 -551l187 551h150zM621 819h-116l136 161h158z"/>
<glyph glyph-name="wacute" horiz-adv-x="960" unicode="ẃ" d="M952 539l-208 -539h-136l-128 381l-128 -381h-136l-208 539h149l136 -384l131 384h112l131 -384l136 384h149zM511 618h-116l136 161h158z"/>
<glyph glyph-name="Wdieresis" horiz-adv-x="1178" unicode="Ẅ" d="M1175 740l-265 -740h-131l-190 549l-189 -549h-131l-266 740h151l188 -551l181 551h132l183 -551l187 551h150zM712 828q-35 0 -58 22.5t-23 57.5t23 58t58 23t58 -23t23 -58t-23 -57.5t-58 -22.5zM467 828q-35 0 -58 22.5t-23 57.5t23 58t58 23t58 -23t23 -58t-23 -57.5 t-58 -22.5z"/>
<glyph glyph-name="wdieresis" horiz-adv-x="960" unicode="ẅ" d="M952 539l-208 -539h-136l-128 381l-128 -381h-136l-208 539h149l136 -384l131 384h112l131 -384l136 384h149zM602 627q-35 0 -58 22.5t-23 57.5t23 58t58 23t58 -23t23 -58t-23 -57.5t-58 -22.5zM357 627q-35 0 -58 22.5t-23 57.5t23 58t58 23t58 -23t23 -58t-23 -57.5 t-58 -22.5z"/>
<glyph glyph-name="uni1E9E" horiz-adv-x="694" unicode="ẞ" d="M509 391q68 -25 105.5 -72.5t37.5 -109.5q0 -98 -69.5 -158.5t-182.5 -60.5q-62 0 -108 16l13 112q33 -11 70 -11q59 0 95 31t36 81q0 52 -41 83.5t-109 31.5v107q51 0 81.5 26.5t30.5 70.5q0 43 -33 69t-89 26q-55 0 -89 -28t-34 -74v-531h-141v548q0 91 72.5 146.5 t191.5 55.5q121 0 195 -53.5t74 -139.5q0 -111 -106 -166z"/>
<glyph glyph-name="Ygrave" horiz-adv-x="692" unicode="Ỳ" d="M681 740l-264 -467v-273h-141v273l-265 467h151l185 -342l184 342h150zM315 819l-178 161h159l135 -161h-116z"/>
<glyph glyph-name="ygrave" horiz-adv-x="603" unicode="ỳ" d="M345 -62q-37 -86 -79 -127t-115 -41q-47 0 -80 15l14 111q18 -9 43 -9q30 0 47.5 16t35.5 52l27 57l-231 527h149l152 -380l142 380h148zM95 779h159l135 -161h-116z"/>
<glyph glyph-name="endash" horiz-adv-x="615" unicode="–" d="M553 338v-97h-490v97h490z"/>
<glyph glyph-name="emdash" horiz-adv-x="974" unicode="—" d="M912 338v-97h-849v97h849z"/>
<glyph glyph-name="quoteleft" horiz-adv-x="279" unicode="‘" d="M40 483l85 257h123l-66 -257h-142z"/>
<glyph glyph-name="quoteright" horiz-adv-x="276" unicode="’" d="M251 740l-85 -257h-122l65 257h142z"/>
<glyph glyph-name="quotesinglbase" horiz-adv-x="273" unicode="‚" d="M219 129l-84 -257h-123l66 257h141z"/>
<glyph glyph-name="quotedblleft" horiz-adv-x="494" unicode="“" d="M255 483l84 257h123l-66 -257h-141zM41 483l85 257h122l-65 -257h-142z"/>
<glyph glyph-name="quotedblright" horiz-adv-x="490" unicode="”" d="M465 740l-85 -257h-122l65 257h142zM251 740l-84 -257h-123l66 257h141z"/>
<glyph glyph-name="quotedblbase" horiz-adv-x="486" unicode="„" d="M433 129l-85 -257h-122l65 257h142zM219 129l-84 -257h-123l66 257h141z"/>
<glyph glyph-name="dagger" horiz-adv-x="568" unicode="†" d="M530 423h-176v-643h-140v643h-176v116h176v241h140v-241h176v-116z"/>
<glyph glyph-name="daggerdbl" horiz-adv-x="568" unicode="‡" d="M354 423v-103h176v-117h-176v-423h-140v423h-176v117h176v103h-176v116h176v241h140v-241h176v-116h-176z"/>
<glyph glyph-name="bullet" horiz-adv-x="395" unicode="•" d="M198 187q-55 0 -88 33t-33 88t33 88t88 33t88 -33t33 -88t-33 -88t-88 -33z"/>
<glyph glyph-name="ellipsis" horiz-adv-x="785" unicode="…" d="M650 -10q-37 0 -63.5 26t-26.5 63t26.5 63t63.5 26q36 0 62 -26t26 -63t-26 -63t-62 -26zM393 -10q-37 0 -63 26t-26 63t26 63t63 26t62.5 -26t25.5 -63t-25.5 -63t-62.5 -26zM136 -10q-37 0 -63 26t-26 63t26 63t63 26t63 -26t26 -63t-26 -63t-63 -26z"/>
<glyph glyph-name="perthousand" horiz-adv-x="1284" unicode="‰" d="M1065 78q34 0 55 23t21 60t-21 60t-55 23q-35 0 -56 -23t-21 -60t21 -60t56 -23zM643 78q33 0 54 23t21 60t-21 60t-54 23q-35 0 -56 -22.5t-21 -60.5t21 -60.5t56 -22.5zM1065 -10q-84 0 -135.5 47t-51.5 124q0 76 51.5 123t135.5 47t135.5 -47t51.5 -123 q0 -77 -51.5 -124t-135.5 -47zM643 -10q-85 0 -136.5 47t-51.5 124t51.5 123.5t136.5 46.5q84 0 135 -46.5t51 -123.5t-51 -124t-135 -47zM222 496q33 0 54 23t21 60q0 38 -21 60.5t-54 22.5q-35 0 -56.5 -22.5t-21.5 -60.5t21.5 -60.5t56.5 -22.5zM257 -10l-73 44l420 716 l72 -44zM221 409q-84 0 -136 47t-52 123q0 77 52 124t136 47t135.5 -47t51.5 -124q0 -76 -51.5 -123t-135.5 -47z"/>
<glyph glyph-name="guilsinglleft" horiz-adv-x="399" unicode="‹" d="M185 270l174 -230h-144l-180 230l180 230h144z"/>
<glyph glyph-name="guilsinglright" horiz-adv-x="399" unicode="›" d="M364 270l-180 -230h-145l175 230l-175 230h145z"/>
<glyph glyph-name="fraction" horiz-adv-x="223" unicode="⁄" d="M-62 -10l-73 44l420 716l72 -44z"/>
<glyph glyph-name="uni2070" horiz-adv-x="438" unicode="⁰" d="M220 462q43 0 69 43t26 113t-26 113t-69 43t-69.5 -43t-26.5 -113t26.5 -113t69.5 -43zM220 390q-84 0 -135.5 62.5t-51.5 165.5t51.5 165.5t135.5 62.5q83 0 134 -63t51 -165t-51 -165t-134 -63z"/>
<glyph glyph-name="uni2074" horiz-adv-x="394" unicode="⁴" d="M222 551l1 165l-123 -165h122zM220 481h-205v60l224 299h69v-286h60v-73h-60v-85h-88v85z"/>
<glyph glyph-name="uni2075" horiz-adv-x="363" unicode="⁵" d="M152 390q-88 0 -134 39l26 64q38 -31 100 -31q44 0 71.5 22t27.5 57q0 29 -19.5 47t-50.5 18q-38 0 -64 -22l-58 8l31 248h229v-72h-152l-16 -96q21 7 46 7q64 0 104 -36.5t40 -95.5q0 -70 -50.5 -113.5t-130.5 -43.5z"/>
<glyph glyph-name="uni2076" horiz-adv-x="363" unicode="⁶" d="M184 462q29 0 47.5 19.5t18.5 50.5t-18.5 50t-47.5 19t-47 -19t-18 -50q0 -32 18 -51t47 -19zM203 668q58 0 98 -38t40 -98q0 -64 -43.5 -103t-113.5 -39q-71 0 -113.5 38.5t-42.5 102.5q0 66 49 135l124 174h99l-129 -173q9 1 32 1z"/>
<glyph glyph-name="uni2077" horiz-adv-x="327" unicode="⁷" d="M318 840l-149 -444h-93l128 372h-188v72h302z"/>
<glyph glyph-name="uni2078" horiz-adv-x="380" unicode="⁸" d="M190 462q29 0 47.5 18t18.5 46t-18.5 46t-47.5 18t-47 -17.5t-18 -46.5t18 -46.5t47 -17.5zM190 774q-24 0 -38.5 -15.5t-14.5 -41.5q0 -25 14.5 -40t38.5 -15q25 0 39.5 15t14.5 40q0 26 -14.5 41.5t-39.5 15.5zM276 627q71 -32 71 -106q0 -59 -43 -95t-114 -36 q-70 0 -113 35.5t-43 93.5q0 75 70 108q-58 31 -58 97q0 55 39.5 88.5t104.5 33.5t105 -33.5t40 -87.5q0 -66 -59 -98z"/>
<glyph glyph-name="uni2079" horiz-adv-x="363" unicode="⁹" d="M113 704q0 -31 18.5 -50t47.5 -19t47 19t18 50q0 32 -18 51t-47 19t-47.5 -19.5t-18.5 -50.5zM179 846q71 0 113.5 -38.5t42.5 -102.5q0 -66 -49 -135l-124 -174h-99l129 173q-9 -1 -32 -1q-58 0 -98 38t-40 98q0 64 43.5 103t113.5 39z"/>
<glyph glyph-name="uni2080" horiz-adv-x="438" unicode="₀" d="M220 -34q43 0 69 43t26 113t-26 113t-69 43t-69.5 -43t-26.5 -113t26.5 -113t69.5 -43zM220 -106q-84 0 -135.5 62.5t-51.5 165.5t51.5 165.5t135.5 62.5q83 0 134 -63t51 -165t-51 -165t-134 -63z"/>
<glyph glyph-name="uni2081" horiz-adv-x="277" unicode="₁" d="M5 234l149 110h67v-444h-88v332l-84 -60z"/>
<glyph glyph-name="uni2082" horiz-adv-x="366" unicode="₂" d="M333 -28v-72h-303v56l137 148q2 2 11 12t13.5 15.5t13 16t13.5 18.5t10.5 18.5t8 20.5t2.5 19q0 25 -15 39.5t-40 14.5q-27 0 -43.5 -18t-16.5 -47l-89 7q0 58 40.5 94t106.5 36q65 0 105 -33t40 -87q0 -42 -25 -81.5t-77 -92.5l-81 -85z"/>
<glyph glyph-name="uni2083" horiz-adv-x="358" unicode="₃" d="M193 171q61 -1 98 -38t37 -96q0 -65 -46.5 -104t-124.5 -39q-90 0 -136 43l34 65q34 -36 92 -36q42 0 66 19.5t24 51.5q0 30 -23 48.5t-60 18.5q-34 0 -59 -15l-24 45l121 138h-150v72h263v-54z"/>
<glyph glyph-name="uni2084" horiz-adv-x="394" unicode="₄" d="M222 55l1 165l-123 -165h122zM220 -15h-205v60l224 299h69v-286h60v-73h-60v-85h-88v85z"/>
<glyph glyph-name="uni2085" horiz-adv-x="363" unicode="₅" d="M152 -106q-88 0 -134 39l26 64q38 -31 100 -31q44 0 71.5 22t27.5 57q0 29 -19.5 47t-50.5 18q-38 0 -64 -22l-58 8l31 248h229v-72h-152l-16 -96q21 7 46 7q64 0 104 -36.5t40 -95.5q0 -70 -50.5 -113.5t-130.5 -43.5z"/>
<glyph glyph-name="uni2086" horiz-adv-x="363" unicode="₆" d="M184 -34q29 0 47.5 19.5t18.5 50.5t-18.5 50t-47.5 19t-47 -19t-18 -50t18 -50.5t47 -19.5zM203 172q58 0 98 -38t40 -98q0 -64 -43.5 -103t-113.5 -39q-71 0 -113.5 38.5t-42.5 102.5q0 66 49 135l124 174h99l-129 -173q9 1 32 1z"/>
<glyph glyph-name="uni2087" horiz-adv-x="327" unicode="₇" d="M318 344l-149 -444h-93l128 372h-188v72h302z"/>
<glyph glyph-name="uni2088" horiz-adv-x="380" unicode="₈" d="M190 -34q29 0 47.5 18t18.5 46t-18.5 46t-47.5 18t-47 -17.5t-18 -46.5t18 -46.5t47 -17.5zM190 278q-24 0 -38.5 -15.5t-14.5 -41.5q0 -25 14.5 -40t38.5 -15q25 0 39.5 15t14.5 40q0 26 -14.5 41.5t-39.5 15.5zM276 131q71 -32 71 -106q0 -59 -43 -95t-114 -36 q-70 0 -113 35.5t-43 93.5q0 75 70 108q-58 31 -58 97q0 55 39.5 88.5t104.5 33.5t105 -33.5t40 -87.5q0 -66 -59 -98z"/>
<glyph glyph-name="uni2089" horiz-adv-x="363" unicode="₉" d="M113 208q0 -31 18.5 -50t47.5 -19t47 19t18 50q0 32 -18 51t-47 19t-47.5 -19.5t-18.5 -50.5zM179 350q71 0 113.5 -38.5t42.5 -102.5q0 -66 -49 -135l-124 -174h-99l129 173q-9 -1 -32 -1q-58 0 -98 38t-40 98q0 64 43.5 103t113.5 39z"/>
<glyph glyph-name="Euro" horiz-adv-x="845" unicode="€" d="M807 139q-111 -149 -314 -149q-142 0 -241.5 69.5t-134.5 190.5h-75v88h59q-1 11 -1 34v13h-58v88h69q30 128 131.5 202.5t249.5 74.5q181 0 291 -119l-88 -90q-73 92 -201 92q-85 0 -145.5 -42.5t-86.5 -117.5h228v-88h-244v-14q0 -13 2 -33h242v-88h-221 q29 -67 88 -105t138 -38q139 0 217 117z"/>
<glyph glyph-name="uni20B9" horiz-adv-x="633" unicode="₹" d="M588 652h-155q56 -46 70 -120h80v-88h-79q-17 -116 -116 -174l177 -270h-165l-146 232h-191v117h159q51 0 86.5 25.5t47.5 69.5h-293v88h293q-11 42 -43.5 66.5t-80.5 24.5h-169v117h525v-88z"/>
<glyph glyph-name="uni20BD" horiz-adv-x="686" unicode="₽" d="M254 408h123q60 0 94.5 29.5t34.5 78.5q0 48 -35.5 77.5t-93.5 29.5h-123v-215zM254 292v-48h220v-88h-220v-156h-141v156h-57v88h57v48h-57v87h57v361h280q117 0 188 -60.5t71 -158.5q0 -103 -73 -166t-192 -63h-133z"/>
<glyph glyph-name="trademark" horiz-adv-x="735" unicode="™" d="M598 494l-10 161l-68 -161h-56l-69 162l-10 -162h-73l21 286h71l88 -221l86 221h71l22 -286h-73zM285 719h-87v-225h-73v225h-87v61h247v-61z"/>
<glyph glyph-name="oneeighth" horiz-adv-x="881" unicode="⅛" d="M691 66q29 0 47.5 18t18.5 46t-18.5 46t-47.5 18t-47 -17.5t-18 -46.5t18 -46.5t47 -17.5zM691 378q-24 0 -38.5 -15.5t-14.5 -41.5q0 -25 14.5 -40t38.5 -15q25 0 39.5 15t14.5 40q0 26 -14.5 41.5t-39.5 15.5zM777 231q71 -32 71 -106q0 -59 -43 -95t-114 -36 q-70 0 -113 35.5t-43 93.5q0 75 70 108q-58 31 -58 97q0 55 39.5 88.5t104.5 33.5t105 -33.5t40 -87.5q0 -66 -59 -98zM133 296v332l-84 -60l-44 62l149 110h67v-444h-88zM634 706l-419 -716l-73 44l420 716z"/>
<glyph glyph-name="threeeighths" horiz-adv-x="962" unicode="⅜" d="M772 66q29 0 47.5 18t18.5 46t-18.5 46t-47.5 18t-47 -17.5t-18 -46.5t18 -46.5t47 -17.5zM772 378q-24 0 -38.5 -15.5t-14.5 -41.5q0 -25 14.5 -40t38.5 -15q25 0 39.5 15t14.5 40q0 26 -14.5 41.5t-39.5 15.5zM858 231q71 -32 71 -106q0 -59 -43 -95t-114 -36 q-70 0 -113 35.5t-43 93.5q0 75 70 108q-58 31 -58 97q0 55 39.5 88.5t104.5 33.5t105 -33.5t40 -87.5q0 -66 -59 -98zM328 433q0 -65 -46.5 -104t-124.5 -39q-90 0 -136 43l34 65q34 -36 92 -36q42 0 66 19.5t24 51.5q0 30 -23 48.5t-60 18.5q-34 0 -59 -15l-24 45l121 138 h-150v72h263v-54l-112 -119q61 -1 98 -38t37 -96zM715 706l-419 -716l-73 44l420 716z"/>
<glyph glyph-name="fiveeighths" horiz-adv-x="967" unicode="⅝" d="M777 66q29 0 47.5 18t18.5 46t-18.5 46t-47.5 18t-47 -17.5t-18 -46.5t18 -46.5t47 -17.5zM777 378q-24 0 -38.5 -15.5t-14.5 -41.5q0 -25 14.5 -40t38.5 -15q25 0 39.5 15t14.5 40q0 26 -14.5 41.5t-39.5 15.5zM863 231q71 -32 71 -106q0 -59 -43 -95t-114 -36 q-70 0 -113 35.5t-43 93.5q0 75 70 108q-58 31 -58 97q0 55 39.5 88.5t104.5 33.5t105 -33.5t40 -87.5q0 -66 -59 -98zM333 447q0 -70 -50.5 -113.5t-130.5 -43.5q-88 0 -134 39l26 64q38 -31 100 -31q44 0 71.5 22t27.5 57q0 29 -19.5 47t-50.5 18q-38 0 -64 -22l-58 8 l31 248h229v-72h-152l-16 -96q21 7 46 7q64 0 104 -36.5t40 -95.5zM720 706l-419 -716l-73 44l420 716z"/>
<glyph glyph-name="seveneighths" horiz-adv-x="902" unicode="⅞" d="M711 66q29 0 47.5 18t18.5 46t-18.5 46t-47.5 18t-47 -17.5t-18 -46.5t18 -46.5t47 -17.5zM711 378q-24 0 -38.5 -15.5t-14.5 -41.5q0 -25 14.5 -40t38.5 -15q25 0 39.5 15t14.5 40q0 26 -14.5 41.5t-39.5 15.5zM797 231q71 -32 71 -106q0 -59 -43 -95t-114 -36 q-70 0 -113 35.5t-43 93.5q0 75 70 108q-58 31 -58 97q0 55 39.5 88.5t104.5 33.5t105 -33.5t40 -87.5q0 -66 -59 -98zM76 296l128 372h-188v72h302l-149 -444h-93zM655 706l-419 -716l-73 44l420 716z"/>
<glyph glyph-name="partialdiff" horiz-adv-x="683" unicode="∂" d="M285 107q88 0 144.5 64t64.5 172q-146 -3 -235 -42.5t-89 -101.5q0 -42 31.5 -67t83.5 -25zM320 750q145 0 233 -104t88 -274q0 -172 -97.5 -277t-255.5 -105q-117 0 -188 58t-71 154q0 109 125 179t332 78q-16 81 -60.5 127.5t-107.5 46.5q-54 0 -98 -25t-72 -67l-89 90 q99 119 261 119z"/>
<glyph glyph-name="emptyset" horiz-adv-x="682" unicode="∅" d="M341 190q66 0 106.5 45t40.5 118q0 52 -20 89l-207 -230q35 -22 80 -22zM193 353q0 -50 21 -90l207 231q-35 22 -80 22q-66 0 -107 -45t-41 -118zM560 546q69 -77 69 -193q0 -126 -79 -203t-208 -77q-97 0 -167 44l-39 -44l-54 42l40 45q-69 75 -69 193q0 126 79.5 203 t209.5 77q96 0 165 -43l39 43l54 -43z"/>
<glyph glyph-name="product" horiz-adv-x="735" unicode="∏" d="M649 -220h-141v883h-281v-883h-141v1000h563v-1000z"/>
<glyph glyph-name="summation" horiz-adv-x="666" unicode="∑" d="M626 -220h-592v89l294 414l-284 408v89h572v-117h-402l280 -380l-291 -386h423v-117z"/>
<glyph glyph-name="minus" horiz-adv-x="606" unicode="−" d="M540 406v-112h-474v112h474z"/>
<glyph glyph-name="radical" horiz-adv-x="788" unicode="√" d="M366 -220h-136l-228 539h149l147 -384l338 845h149z"/>
<glyph glyph-name="infinity" horiz-adv-x="735" unicode="∞" d="M500 196q33 0 54 23t21 60q0 38 -21 60.5t-54 22.5q-35 0 -56 -22.5t-21 -60.5t21 -60.5t56 -22.5zM236 196q34 0 54.5 23t20.5 60q0 38 -20.5 60.5t-54.5 22.5q-35 0 -56 -22.5t-21 -60.5q0 -37 21 -60t56 -23zM509 450q80 0 128.5 -47t48.5 -124t-48.5 -124t-128.5 -47 q-96 0 -142 72q-45 -72 -140 -72q-80 0 -129.5 47t-49.5 124t49.5 124t129.5 47q95 0 140 -72q46 72 142 72z"/>
<glyph glyph-name="integral" horiz-adv-x="458" unicode="∫" d="M332 790q81 0 126 -48l-37 -95q-26 26 -62 26q-28 0 -44 -16t-16 -42v-695q0 -67 -48 -108.5t-125 -41.5q-79 0 -127 48l38 95q26 -26 62 -26q27 0 43 15.5t16 42.5v695q0 67 48.5 108.5t125.5 41.5z"/>
<glyph glyph-name="approxequal" horiz-adv-x="598" unicode="≈" d="M140 129h-74q0 65 37 104.5t96 39.5q44 0 110 -27.5t90 -27.5q61 0 61 45h74q0 -67 -36.5 -105.5t-96.5 -38.5q-43 0 -110 28.5t-90 28.5q-27 0 -44 -12.5t-17 -34.5zM140 329h-74q0 65 37 104.5t96 39.5q44 0 110 -27.5t90 -27.5q61 0 61 45h74q0 -67 -36.5 -105.5 t-96.5 -38.5q-43 0 -110 28.5t-90 28.5q-27 0 -44 -12.5t-17 -34.5z"/>
<glyph glyph-name="notequal" horiz-adv-x="604" unicode="≠" d="M386 405l-29 -109h182v-112h-212l-32 -118h-137l32 118h-124v112h154l29 109h-183v112h214l31 118h137l-31 -118h122v-112h-153z"/>
<glyph glyph-name="lessequal" horiz-adv-x="604" unicode="≤" d="M534 145v-112h-472v112h472zM533 190l-470 195v87l470 194v-127l-281 -111l281 -110v-128z"/>
<glyph glyph-name="greaterequal" horiz-adv-x="603" unicode="≥" d="M541 145v-112h-471v112h471zM71 190v128l281 110l-281 111v127l470 -194v-87z"/>
<glyph glyph-name="lozenge" horiz-adv-x="618" unicode="◊" d="M440 320l-131 200l-130 -200l130 -200zM581 320l-209 -320h-126l-209 320l209 319h126z"/>
<glyph glyph-name="A.ss01" d="M586 333v121q0 80 -50 129.5t-131 49.5q-83 0 -133.5 -49.5t-50.5 -129.5v-121h365zM404 750q145 0 234 -79.5t89 -210.5v-460h-141v217h-365v-217h-141v460q0 130 89 210t235 80z" horiz-adv-x="807"/>
<glyph glyph-name="Aacute.ss01" d="M586 333v121q0 80 -50 129.5t-131 49.5q-83 0 -133.5 -49.5t-50.5 -129.5v-121h365zM404 750q145 0 234 -79.5t89 -210.5v-460h-141v217h-365v-217h-141v460q0 130 89 210t235 80zM435 819h-116l136 161h158z" horiz-adv-x="807"/>
<glyph glyph-name="Abreve.ss01" d="M586 333v121q0 80 -50 129.5t-131 49.5q-83 0 -133.5 -49.5t-50.5 -129.5v-121h365zM404 750q145 0 234 -79.5t89 -210.5v-460h-141v217h-365v-217h-141v460q0 130 89 210t235 80zM404 810q-82 0 -131.5 46.5t-49.5 123.5h103q0 -40 21.5 -65.5t56.5 -25.5q36 0 57.5 25 t21.5 66h103q0 -77 -50 -123.5t-132 -46.5z" horiz-adv-x="807"/>
<glyph glyph-name="Acircumflex.ss01" d="M586 333v121q0 80 -50 129.5t-131 49.5q-83 0 -133.5 -49.5t-50.5 -129.5v-121h365zM404 750q145 0 234 -79.5t89 -210.5v-460h-141v217h-365v-217h-141v460q0 130 89 210t235 80zM333 819h-126l131 161h130l131 -161h-125l-71 84z" horiz-adv-x="807"/>
<glyph glyph-name="Adieresis.ss01" d="M586 333v121q0 80 -50 129.5t-131 49.5q-83 0 -133.5 -49.5t-50.5 -129.5v-121h365zM404 750q145 0 234 -79.5t89 -210.5v-460h-141v217h-365v-217h-141v460q0 130 89 210t235 80zM526 828q-35 0 -58 22.5t-23 57.5t23 58t58 23t58 -23t23 -58t-23 -57.5t-58 -22.5z M281 828q-35 0 -58 22.5t-23 57.5t23 58t58 23t58 -23t23 -58t-23 -57.5t-58 -22.5z" horiz-adv-x="807"/>
<glyph glyph-name="Agrave.ss01" d="M586 333v121q0 80 -50 129.5t-131 49.5q-83 0 -133.5 -49.5t-50.5 -129.5v-121h365zM404 750q145 0 234 -79.5t89 -210.5v-460h-141v217h-365v-217h-141v460q0 130 89 210t235 80zM372 819l-178 161h159l135 -161h-116z" horiz-adv-x="807"/>
<glyph glyph-name="Amacron.ss01" d="M586 333v121q0 80 -50 129.5t-131 49.5q-83 0 -133.5 -49.5t-50.5 -129.5v-121h365zM404 750q145 0 234 -79.5t89 -210.5v-460h-141v217h-365v-217h-141v460q0 130 89 210t235 80zM582 825h-356v107h356v-107z" horiz-adv-x="807"/>
<glyph glyph-name="Aogonek.ss01" d="M586 333v121q0 80 -50 129.5t-131 49.5q-83 0 -133.5 -49.5t-50.5 -129.5v-121h365zM404 750q145 0 234 -79.5t89 -210.5v-460h-14q-72 0 -118 -34t-46 -87q0 -28 15 -42t39 -14q34 0 65 33l44 -35q-49 -51 -114 -51q-51 0 -82 29.5t-31 76.5q0 92 101 134v207h-365v-217 h-141v460q0 130 89 210t235 80z" horiz-adv-x="807"/>
<glyph glyph-name="Aring.ss01" d="M586 333v121q0 80 -50 129.5t-131 49.5q-83 0 -133.5 -49.5t-50.5 -129.5v-121h365zM404 750q145 0 234 -79.5t89 -210.5v-460h-141v217h-365v-217h-141v460q0 130 89 210t235 80zM404 939q-20 0 -32.5 -12.5t-12.5 -33.5t12.5 -34t32.5 -13t32 13t12 34t-12 33.5 t-32 12.5zM404 785q-53 0 -85 29.5t-32 78.5t32 78.5t85 29.5t85 -29.5t32 -78.5t-32 -78.5t-85 -29.5z" horiz-adv-x="807"/>
<glyph glyph-name="Atilde.ss01" d="M586 333v121q0 80 -50 129.5t-131 49.5q-83 0 -133.5 -49.5t-50.5 -129.5v-121h365zM404 750q145 0 234 -79.5t89 -210.5v-460h-141v217h-365v-217h-141v460q0 130 89 210t235 80zM323 876q-18 0 -29.5 -12.5t-11.5 -33.5h-74q0 65 31.5 104.5t82.5 39.5q36 0 88.5 -28 t71.5 -28q41 0 41 46h74q0 -68 -30.5 -106t-82.5 -38q-34 0 -88 28t-73 28z" horiz-adv-x="807"/>
<glyph glyph-name="AE.ss01" d="M217 333h234v290q-105 0 -169.5 -63t-64.5 -166v-61zM912 117v-117h-461v217h-234v-217h-140v400q0 153 102.5 246.5t271.5 93.5h453v-117h-312v-190h280v-116h-280v-200h320z" horiz-adv-x="963"/>
<glyph glyph-name="J.ss01" d="M505 249q0 -117 -74.5 -188t-197.5 -71q-127 0 -214 84l70 94q53 -61 135 -61q63 0 101.5 40.5t38.5 107.5v368h-309v117h450v-491z" horiz-adv-x="586"/>
<glyph glyph-name="C.ss02" d="M613 574q-69 59 -181 59q-109 0 -176 -72.5t-67 -190.5t67 -190.5t176 -72.5q112 0 181 59v-129q-76 -47 -181 -47q-175 0 -282 104.5t-107 275.5t107 275.5t282 104.5q105 0 181 -47v-129z" horiz-adv-x="656"/>
<glyph glyph-name="Cacute.ss02" d="M613 574q-69 59 -181 59q-109 0 -176 -72.5t-67 -190.5t67 -190.5t176 -72.5q112 0 181 59v-129q-76 -47 -181 -47q-175 0 -282 104.5t-107 275.5t107 275.5t282 104.5q105 0 181 -47v-129zM341 819l136 161h158l-178 -161h-116z" horiz-adv-x="656"/>
<glyph glyph-name="Ccaron.ss02" d="M43 370q0 171 107 275.5t282 104.5q105 0 181 -47v-129q-69 59 -181 59q-109 0 -176 -72.5t-67 -190.5t67 -190.5t176 -72.5q112 0 181 59v-129q-76 -47 -181 -47q-175 0 -282 104.5t-107 275.5zM360 819l-131 161h126l70 -84l71 84h125l-131 -161h-130z" horiz-adv-x="656"/>
<glyph glyph-name="Ccedilla.ss02" d="M432 633q-109 0 -176 -72.5t-67 -190.5t67 -190.5t176 -72.5q112 0 181 59v-129q-68 -41 -158 -46l-31 -51h10q47 0 75.5 -22.5t28.5 -59.5q0 -39 -33.5 -63.5t-90.5 -24.5q-65 0 -100 25l25 46q25 -18 67 -18q31 0 49 9.5t18 25.5q0 33 -62 33q-20 0 -43 -7l-18 32 l42 76q-159 12 -254 114.5t-95 263.5q0 171 107 275.5t282 104.5q105 0 181 -47v-129q-69 59 -181 59z" horiz-adv-x="656"/>
<glyph glyph-name="Cdotaccent.ss02" d="M613 574q-69 59 -181 59q-109 0 -176 -72.5t-67 -190.5t67 -190.5t176 -72.5q112 0 181 59v-129q-76 -47 -181 -47q-175 0 -282 104.5t-107 275.5t107 275.5t282 104.5q105 0 181 -47v-129zM426 828q-35 0 -58 22.5t-23 57.5t23 58t58 23t58 -23t23 -58t-23 -57.5 t-58 -22.5z" horiz-adv-x="656"/>
<glyph glyph-name="Z.ss02" d="M580 117v-117h-553l333 623h-327v117h541l-332 -623h338z" horiz-adv-x="609"/>
<glyph glyph-name="Zacute.ss02" d="M580 117v-117h-553l333 623h-327v117h541l-332 -623h338zM336 819h-116l136 161h158z" horiz-adv-x="609"/>
<glyph glyph-name="Zcaron.ss02" d="M580 117v-117h-553l333 623h-327v117h541l-332 -623h338zM239 819l-131 161h126l70 -84l71 84h125l-131 -161h-130z" horiz-adv-x="609"/>
<glyph glyph-name="Zdotaccent.ss02" d="M580 117v-117h-553l333 623h-327v117h541l-332 -623h338zM304 828q-35 0 -58 22.5t-23 57.5t23 58t58 23t58 -23t23 -58t-23 -57.5t-58 -22.5z" horiz-adv-x="609"/>
<glyph glyph-name="i.loclTRK" d="M206 539v-539h-136v539h136zM138 627q-35 0 -58 22.5t-23 57.5t23 58t58 23t58 -23t23 -58t-23 -57.5t-58 -22.5z" horiz-adv-x="275"/>
<glyph glyph-name="a.ss01" d="M327 107q66 0 107 45t41 118t-41 118t-107 45q-67 0 -107.5 -45t-40.5 -119q0 -73 40.5 -117.5t107.5 -44.5zM610 539v-539h-130l-3 81q-59 -91 -181 -91q-111 0 -184.5 77t-73.5 200q0 125 73.5 203.5t184.5 78.5q120 0 181 -91l3 81h130z"/>
<glyph glyph-name="aacute.ss01" d="M327 107q66 0 107 45t41 118t-41 118t-107 45q-67 0 -107.5 -45t-40.5 -119q0 -73 40.5 -117.5t107.5 -44.5zM610 539v-539h-130l-3 81q-59 -91 -181 -91q-111 0 -184.5 77t-73.5 200q0 125 73.5 203.5t184.5 78.5q120 0 181 -91l3 81h130zM366 618h-116l136 161h158z "/>
<glyph glyph-name="abreve.ss01" d="M327 107q66 0 107 45t41 118t-41 118t-107 45q-67 0 -107.5 -45t-40.5 -119q0 -73 40.5 -117.5t107.5 -44.5zM610 539v-539h-130l-3 81q-59 -91 -181 -91q-111 0 -184.5 77t-73.5 200q0 125 73.5 203.5t184.5 78.5q120 0 181 -91l3 81h130zM335 609q-82 0 -131.5 46.5 t-49.5 123.5h103q0 -40 21.5 -65.5t56.5 -25.5q36 0 57.5 25t21.5 66h103q0 -77 -50 -123.5t-132 -46.5z"/>
<glyph glyph-name="acircumflex.ss01" d="M327 107q66 0 107 45t41 118t-41 118t-107 45q-67 0 -107.5 -45t-40.5 -119q0 -73 40.5 -117.5t107.5 -44.5zM610 539v-539h-130l-3 81q-59 -91 -181 -91q-111 0 -184.5 77t-73.5 200q0 125 73.5 203.5t184.5 78.5q120 0 181 -91l3 81h130zM264 618h-126l131 161h130 l131 -161h-125l-71 84z"/>
<glyph glyph-name="adieresis.ss01" d="M327 107q66 0 107 45t41 118t-41 118t-107 45q-67 0 -107.5 -45t-40.5 -119q0 -73 40.5 -117.5t107.5 -44.5zM610 539v-539h-130l-3 81q-59 -91 -181 -91q-111 0 -184.5 77t-73.5 200q0 125 73.5 203.5t184.5 78.5q120 0 181 -91l3 81h130zM458 627q-35 0 -58 22.5 t-23 57.5t23 58t58 23t58 -23t23 -58t-23 -57.5t-58 -22.5zM213 627q-35 0 -58 22.5t-23 57.5t23 58t58 23t58 -23t23 -58t-23 -57.5t-58 -22.5z"/>
<glyph glyph-name="agrave.ss01" d="M327 107q66 0 107 45t41 118t-41 118t-107 45q-67 0 -107.5 -45t-40.5 -119q0 -73 40.5 -117.5t107.5 -44.5zM610 539v-539h-130l-3 81q-59 -91 -181 -91q-111 0 -184.5 77t-73.5 200q0 125 73.5 203.5t184.5 78.5q120 0 181 -91l3 81h130zM303 618l-178 161h159 l135 -161h-116z"/>
<glyph glyph-name="amacron.ss01" d="M327 107q66 0 107 45t41 118t-41 118t-107 45q-67 0 -107.5 -45t-40.5 -119q0 -73 40.5 -117.5t107.5 -44.5zM610 539v-539h-130l-3 81q-59 -91 -181 -91q-111 0 -184.5 77t-73.5 200q0 125 73.5 203.5t184.5 78.5q120 0 181 -91l3 81h130zM513 624h-356v107h356v-107z "/>
<glyph glyph-name="aogonek.ss01" d="M327 107q66 0 107 45t41 118t-41 118t-107 45q-67 0 -107.5 -45t-40.5 -119q0 -73 40.5 -117.5t107.5 -44.5zM610 539v-539h-13q-72 0 -118 -34t-46 -87q0 -28 15 -42t39 -14q34 0 65 33l44 -35q-49 -51 -114 -51q-51 0 -82 29.5t-31 76.5t29.5 82.5t81.5 55.5l-3 67 q-59 -91 -181 -91q-111 0 -184.5 77t-73.5 200q0 125 73.5 203.5t184.5 78.5q120 0 181 -91l3 81h130z"/>
<glyph glyph-name="aring.ss01" d="M327 107q66 0 107 45t41 118t-41 118t-107 45q-67 0 -107.5 -45t-40.5 -119q0 -73 40.5 -117.5t107.5 -44.5zM610 539v-539h-130l-3 81q-59 -91 -181 -91q-111 0 -184.5 77t-73.5 200q0 125 73.5 203.5t184.5 78.5q120 0 181 -91l3 81h130zM335 738q-20 0 -32.5 -12.5 t-12.5 -33.5t12.5 -34t32.5 -13t32 13t12 34t-12 33.5t-32 12.5zM335 584q-53 0 -85 29.5t-32 78.5t32 78.5t85 29.5t85 -29.5t32 -78.5t-32 -78.5t-85 -29.5z"/>
<glyph glyph-name="atilde.ss01" d="M327 107q66 0 107 45t41 118t-41 118t-107 45q-67 0 -107.5 -45t-40.5 -119q0 -73 40.5 -117.5t107.5 -44.5zM610 539v-539h-130l-3 81q-59 -91 -181 -91q-111 0 -184.5 77t-73.5 200q0 125 73.5 203.5t184.5 78.5q120 0 181 -91l3 81h130zM255 675q-18 0 -29.5 -12.5 t-11.5 -33.5h-74q0 65 31.5 104.5t82.5 39.5q36 0 88.5 -28t71.5 -28q41 0 41 46h74q0 -68 -30.5 -106t-82.5 -38q-34 0 -88 28t-73 28z"/>
<glyph glyph-name="f.ss01" d="M286 673q-36 0 -58.5 -20t-22.5 -54v-60h142v-111h-142v-428h-136v620q0 77 48 123.5t126 46.5q72 0 119 -22l-10 -106q-24 11 -66 11z" horiz-adv-x="364"/>
<glyph glyph-name="j.ss01" d="M70 539h136v-759h-136v759zM137 627q-35 0 -58 22.5t-23 57.5t23 58t58 23t58 -23t23 -58t-23 -57.5t-58 -22.5z" horiz-adv-x="275"/>
<glyph glyph-name="t.ss01" d="M273 107q51 0 94 18v-110q-60 -25 -138 -25q-74 0 -119.5 47t-45.5 123v537h136v-158h159v-111h-159v-240q0 -37 20.5 -59t52.5 -22z" horiz-adv-x="389"/>
<glyph glyph-name="tbar.ss01" d="M273 107q51 0 94 18v-110q-60 -25 -138 -25q-74 0 -119.5 47t-45.5 123v537h136v-158h159v-111h-159v-101h148v-98h-148v-41q0 -37 20.5 -59t52.5 -22z" horiz-adv-x="390"/>
<glyph glyph-name="tcaron.ss01" d="M200 188q0 -37 20.5 -59t52.5 -22q51 0 94 18v-110q-60 -25 -138 -25q-74 0 -119.5 47t-45.5 123v537h136v-158h159v-111h-159v-240zM366 593h-103l48 187h122z" horiz-adv-x="389"/>
<glyph glyph-name="uni0163.ss01" d="M228 -10l-31 -50h10q47 0 75.5 -22.5t28.5 -59.5q0 -39 -33.5 -63.5t-90.5 -24.5q-65 0 -100 25l25 46q25 -18 67 -18q31 0 49 9.5t18 25.5q0 33 -62 33q-20 0 -43 -7l-18 32l47 83q-49 17 -77.5 59.5t-28.5 101.5v537h136v-158h159v-111h-159v-240q0 -37 20.5 -59 t52.5 -22q51 0 94 18v-110q-60 -25 -138 -25h-1z" horiz-adv-x="389"/>
<glyph glyph-name="uni021B.ss01" d="M137 -52h122l-62 -168h-103zM273 107q51 0 94 18v-110q-60 -25 -138 -25q-74 0 -119.5 47t-45.5 123v537h136v-158h159v-111h-159v-240q0 -37 20.5 -59t52.5 -22z" horiz-adv-x="389"/>
<glyph glyph-name="u.ss01" d="M429 539h136v-342q0 -93 -69 -150t-182 -57q-114 0 -183 63t-69 167v319h136v-317q0 -52 32 -83.5t84 -31.5t83.5 31.5t31.5 83.5v317z" horiz-adv-x="628"/>
<glyph glyph-name="uacute.ss01" d="M429 539h136v-342q0 -93 -69 -150t-182 -57q-114 0 -183 63t-69 167v319h136v-317q0 -52 32 -83.5t84 -31.5t83.5 31.5t31.5 83.5v317zM229 618l136 161h158l-178 -161h-116z" horiz-adv-x="628"/>
<glyph glyph-name="ucircumflex.ss01" d="M565 539v-342q0 -93 -69 -150t-182 -57q-114 0 -183 63t-69 167v319h136v-317q0 -52 32 -83.5t84 -31.5t83.5 31.5t31.5 83.5v317h136zM243 618h-126l131 161h130l131 -161h-125l-71 84z" horiz-adv-x="628"/>
<glyph glyph-name="udieresis.ss01" d="M429 539h136v-342q0 -93 -69 -150t-182 -57q-114 0 -183 63t-69 167v319h136v-317q0 -52 32 -83.5t84 -31.5t83.5 31.5t31.5 83.5v317zM436 627q-35 0 -58 22.5t-23 57.5t23 58t58 23t58 -23t23 -58t-23 -57.5t-58 -22.5zM191 627q-35 0 -58 22.5t-23 57.5t23 58t58 23 t58 -23t23 -58t-23 -57.5t-58 -22.5z" horiz-adv-x="628"/>
<glyph glyph-name="ugrave.ss01" d="M429 539h136v-342q0 -93 -69 -150t-182 -57q-114 0 -183 63t-69 167v319h136v-317q0 -52 32 -83.5t84 -31.5t83.5 31.5t31.5 83.5v317zM104 779h159l135 -161h-116z" horiz-adv-x="628"/>
<glyph glyph-name="uhungarumlaut.ss01" d="M429 539h136v-342q0 -93 -69 -150t-182 -57q-114 0 -183 63t-69 167v319h136v-317q0 -52 32 -83.5t84 -31.5t83.5 31.5t31.5 83.5v317zM347 618l106 161h159l-149 -161h-116zM150 618l106 161h159l-149 -161h-116z" horiz-adv-x="628"/>
<glyph glyph-name="umacron.ss01" d="M429 539h136v-342q0 -93 -69 -150t-182 -57q-114 0 -183 63t-69 167v319h136v-317q0 -52 32 -83.5t84 -31.5t83.5 31.5t31.5 83.5v317zM492 731v-107h-356v107h356z" horiz-adv-x="628"/>
<glyph glyph-name="uogonek.ss01" d="M473 30q-55 -37 -86.5 -72t-31.5 -76q0 -30 17 -44.5t43 -14.5q37 0 68 33l44 -35q-49 -51 -115 -51q-54 0 -88 29t-34 77q0 62 61 116q-24 -2 -37 -2q-114 0 -183 63t-69 167v319h136v-317q0 -52 32 -83.5t84 -31.5t83.5 31.5t31.5 83.5v317h136v-342q0 -108 -92 -167z " horiz-adv-x="628"/>
<glyph glyph-name="uring.ss01" d="M429 539h136v-342q0 -93 -69 -150t-182 -57q-114 0 -183 63t-69 167v319h136v-317q0 -52 32 -83.5t84 -31.5t83.5 31.5t31.5 83.5v317zM314 645q20 0 32 13t12 34t-12 33.5t-32 12.5t-32.5 -12.5t-12.5 -33.5t12.5 -34t32.5 -13zM314 584q-53 0 -85 29.5t-32 78.5 t32 78.5t85 29.5t85 -29.5t32 -78.5t-32 -78.5t-85 -29.5z" horiz-adv-x="628"/>
<glyph glyph-name="y.ss01" d="M566 539v-488q0 -127 -80.5 -204t-213.5 -77q-132 0 -215 68l30 107q76 -58 182 -58q72 0 116.5 45t44.5 120v11q-59 -73 -163 -73q-92 0 -148.5 58t-56.5 153v338h136v-317q0 -52 32 -83.5t85 -31.5q52 0 83.5 31.5t31.5 83.5v317h136z" horiz-adv-x="635"/>
<glyph glyph-name="yacute.ss01" d="M566 539v-488q0 -127 -80.5 -204t-213.5 -77q-132 0 -215 68l30 107q76 -58 182 -58q72 0 116.5 45t44.5 120v11q-59 -73 -163 -73q-92 0 -148.5 58t-56.5 153v338h136v-317q0 -52 32 -83.5t85 -31.5q52 0 83.5 31.5t31.5 83.5v317h136zM341 618h-116l136 161h158z" horiz-adv-x="635"/>
<glyph glyph-name="ycircumflex.ss01" d="M566 539v-488q0 -127 -80.5 -204t-213.5 -77q-132 0 -215 68l30 107q76 -58 182 -58q72 0 116.5 45t44.5 120v11q-59 -73 -163 -73q-92 0 -148.5 58t-56.5 153v338h136v-317q0 -52 32 -83.5t85 -31.5q52 0 83.5 31.5t31.5 83.5v317h136zM239 618h-126l131 161h130 l131 -161h-125l-71 84z" horiz-adv-x="635"/>
<glyph glyph-name="ydieresis.ss01" d="M566 539v-488q0 -127 -80.5 -204t-213.5 -77q-132 0 -215 68l30 107q76 -58 182 -58q72 0 116.5 45t44.5 120v11q-59 -73 -163 -73q-92 0 -148.5 58t-56.5 153v338h136v-317q0 -52 32 -83.5t85 -31.5q52 0 83.5 31.5t31.5 83.5v317h136zM432 627q-35 0 -58 22.5t-23 57.5 t23 58t58 23t58 -23t23 -58t-23 -57.5t-58 -22.5zM187 627q-35 0 -58 22.5t-23 57.5t23 58t58 23t58 -23t23 -58t-23 -57.5t-58 -22.5z" horiz-adv-x="635"/>
<glyph glyph-name="ygrave.ss01" d="M566 539v-488q0 -127 -80.5 -204t-213.5 -77q-132 0 -215 68l30 107q76 -58 182 -58q72 0 116.5 45t44.5 120v11q-59 -73 -163 -73q-92 0 -148.5 58t-56.5 153v338h136v-317q0 -52 32 -83.5t85 -31.5q52 0 83.5 31.5t31.5 83.5v317h136zM278 618l-178 161h159l135 -161 h-116z" horiz-adv-x="635"/>
<glyph glyph-name="a.ss02" d="M257 87q50 0 86.5 37.5t36.5 100.5q-55 11 -102 11t-76 -21t-29 -55t22 -53.5t62 -19.5zM516 539v-539h-131l-2 77q-27 -42 -71 -64.5t-94 -22.5q-83 0 -134.5 46t-51.5 121q0 78 62.5 125t166.5 47q57 0 119 -12v115h-314v107h450z" horiz-adv-x="585"/>
<glyph glyph-name="aacute.ss02" d="M257 87q50 0 86.5 37.5t36.5 100.5q-55 11 -102 11t-76 -21t-29 -55t22 -53.5t62 -19.5zM516 539v-539h-131l-2 77q-27 -42 -71 -64.5t-94 -22.5q-83 0 -134.5 46t-51.5 121q0 78 62.5 125t166.5 47q57 0 119 -12v115h-314v107h450zM327 618h-116l136 161h158z" horiz-adv-x="585"/>
<glyph glyph-name="abreve.ss02" d="M257 87q50 0 86.5 37.5t36.5 100.5q-55 11 -102 11t-76 -21t-29 -55t22 -53.5t62 -19.5zM516 539v-539h-131l-2 77q-27 -42 -71 -64.5t-94 -22.5q-83 0 -134.5 46t-51.5 121q0 78 62.5 125t166.5 47q57 0 119 -12v115h-314v107h450zM295 609q-82 0 -131.5 46.5 t-49.5 123.5h103q0 -40 21.5 -65.5t56.5 -25.5q36 0 57.5 25t21.5 66h103q0 -77 -50 -123.5t-132 -46.5z" horiz-adv-x="585"/>
<glyph glyph-name="acircumflex.ss02" d="M257 87q50 0 86.5 37.5t36.5 100.5q-55 11 -102 11t-76 -21t-29 -55t22 -53.5t62 -19.5zM516 539v-539h-131l-2 77q-27 -42 -71 -64.5t-94 -22.5q-83 0 -134.5 46t-51.5 121q0 78 62.5 125t166.5 47q57 0 119 -12v115h-314v107h450zM225 618h-126l131 161h130l131 -161 h-125l-71 84z" horiz-adv-x="585"/>
<glyph glyph-name="adieresis.ss02" d="M257 87q50 0 86.5 37.5t36.5 100.5q-55 11 -102 11t-76 -21t-29 -55t22 -53.5t62 -19.5zM516 539v-539h-131l-2 77q-27 -42 -71 -64.5t-94 -22.5q-83 0 -134.5 46t-51.5 121q0 78 62.5 125t166.5 47q57 0 119 -12v115h-314v107h450zM418 627q-35 0 -58 22.5t-23 57.5 t23 58t58 23t58 -23t23 -58t-23 -57.5t-58 -22.5zM173 627q-35 0 -58 22.5t-23 57.5t23 58t58 23t58 -23t23 -58t-23 -57.5t-58 -22.5z" horiz-adv-x="585"/>
<glyph glyph-name="agrave.ss02" d="M257 87q50 0 86.5 37.5t36.5 100.5q-55 11 -102 11t-76 -21t-29 -55t22 -53.5t62 -19.5zM516 539v-539h-131l-2 77q-27 -42 -71 -64.5t-94 -22.5q-83 0 -134.5 46t-51.5 121q0 78 62.5 125t166.5 47q57 0 119 -12v115h-314v107h450zM264 618l-178 161h159l135 -161h-116z " horiz-adv-x="585"/>
<glyph glyph-name="amacron.ss02" d="M257 87q50 0 86.5 37.5t36.5 100.5q-55 11 -102 11t-76 -21t-29 -55t22 -53.5t62 -19.5zM516 539v-539h-131l-2 77q-27 -42 -71 -64.5t-94 -22.5q-83 0 -134.5 46t-51.5 121q0 78 62.5 125t166.5 47q57 0 119 -12v115h-314v107h450zM474 624h-356v107h356v-107z" horiz-adv-x="585"/>
<glyph glyph-name="aogonek.ss02" d="M257 87q50 0 86.5 37.5t36.5 100.5q-55 11 -102 11t-76 -21t-29 -55t22 -53.5t62 -19.5zM516 539v-539h-14q-72 0 -118 -34t-46 -87q0 -28 15 -42t39 -14q34 0 65 33l44 -35q-49 -51 -114 -51q-51 0 -82 29.5t-31 76.5t29 82.5t81 55.5l-1 63q-27 -42 -71 -64.5 t-94 -22.5q-83 0 -134.5 46t-51.5 121q0 78 62.5 125t166.5 47q57 0 119 -12v115h-314v107h450z" horiz-adv-x="585"/>
<glyph glyph-name="aring.ss02" d="M257 87q50 0 86.5 37.5t36.5 100.5q-55 11 -102 11t-76 -21t-29 -55t22 -53.5t62 -19.5zM516 539v-539h-131l-2 77q-27 -42 -71 -64.5t-94 -22.5q-83 0 -134.5 46t-51.5 121q0 78 62.5 125t166.5 47q57 0 119 -12v115h-314v107h450zM295 738q-20 0 -32.5 -12.5 t-12.5 -33.5t12.5 -34t32.5 -13t32 13t12 34t-12 33.5t-32 12.5zM295 584q-53 0 -85 29.5t-32 78.5t32 78.5t85 29.5t85 -29.5t32 -78.5t-32 -78.5t-85 -29.5z" horiz-adv-x="585"/>
<glyph glyph-name="atilde.ss02" d="M257 87q50 0 86.5 37.5t36.5 100.5q-55 11 -102 11t-76 -21t-29 -55t22 -53.5t62 -19.5zM516 539v-539h-131l-2 77q-27 -42 -71 -64.5t-94 -22.5q-83 0 -134.5 46t-51.5 121q0 78 62.5 125t166.5 47q57 0 119 -12v115h-314v107h450zM215 675q-18 0 -29.5 -12.5 t-11.5 -33.5h-74q0 65 31.5 104.5t82.5 39.5q36 0 88.5 -28t71.5 -28q41 0 41 46h74q0 -68 -30.5 -106t-82.5 -38q-34 0 -88 28t-73 28z" horiz-adv-x="585"/>
<glyph glyph-name="c.ss02" d="M439 395q-40 38 -109 38q-68 0 -109.5 -44.5t-41.5 -118.5t41.5 -118.5t109.5 -44.5q74 0 112 41v-126q-46 -32 -115 -32q-130 0 -209.5 77t-79.5 203q0 125 79.5 202t209.5 77q61 0 112 -28v-126z" horiz-adv-x="487"/>
<glyph glyph-name="cacute.ss02" d="M439 395q-40 38 -109 38q-68 0 -109.5 -44.5t-41.5 -118.5t41.5 -118.5t109.5 -44.5q74 0 112 41v-126q-46 -32 -115 -32q-130 0 -209.5 77t-79.5 203q0 125 79.5 202t209.5 77q61 0 112 -28v-126zM230 618l136 161h158l-178 -161h-116z" horiz-adv-x="487"/>
<glyph glyph-name="ccaron.ss02" d="M330 107q74 0 112 41v-126q-46 -32 -115 -32q-130 0 -209.5 77t-79.5 203q0 125 79.5 202t209.5 77q61 0 112 -28v-126q-40 38 -109 38q-68 0 -109.5 -44.5t-41.5 -118.5t41.5 -118.5t109.5 -44.5zM249 618l-131 161h126l70 -84l71 84h125l-131 -161h-130z" horiz-adv-x="487"/>
<glyph glyph-name="ccedilla.ss02" d="M442 22q-38 -28 -99 -31l-31 -51h10q47 0 75.5 -22.5t28.5 -59.5q0 -39 -33.5 -63.5t-90.5 -24.5q-65 0 -100 25l25 46q25 -18 67 -18q31 0 49 9.5t18 25.5q0 33 -62 33q-20 0 -43 -7l-18 32l43 77q-111 14 -177 88.5t-66 188.5q0 125 79.5 202t209.5 77q61 0 112 -28 v-126q-40 38 -109 38q-68 0 -109.5 -44.5t-41.5 -118.5t41.5 -118.5t109.5 -44.5q74 0 112 41v-126z" horiz-adv-x="487"/>
<glyph glyph-name="cdotaccent.ss02" d="M439 395q-40 38 -109 38q-68 0 -109.5 -44.5t-41.5 -118.5t41.5 -118.5t109.5 -44.5q74 0 112 41v-126q-46 -32 -115 -32q-130 0 -209.5 77t-79.5 203q0 125 79.5 202t209.5 77q61 0 112 -28v-126zM315 627q-35 0 -58 22.5t-23 57.5t23 58t58 23t58 -23t23 -58t-23 -57.5 t-58 -22.5z" horiz-adv-x="487"/>
<glyph glyph-name="f.ss02" d="M249 669v-130h142v-111h-142v-428h-136v428h-87v111h87v241h288v-111h-152z" horiz-adv-x="406"/>
<glyph glyph-name="g.ss02" d="M328 107q66 0 107 45t41 118t-41 118t-107 45q-67 0 -107.5 -44.5t-40.5 -117.5q0 -74 40.5 -119t107.5 -45zM612 539v-759h-544v111h408v187q-61 -88 -179 -88q-111 0 -184.5 78.5t-73.5 203.5q0 123 73.5 200t184.5 77q122 0 181 -91l3 81h131z"/>
<glyph glyph-name="gbreve.ss02" d="M328 107q66 0 107 45t41 118t-41 118t-107 45q-67 0 -107.5 -44.5t-40.5 -117.5q0 -74 40.5 -119t107.5 -45zM612 539v-759h-544v111h408v187q-61 -88 -179 -88q-111 0 -184.5 78.5t-73.5 203.5q0 123 73.5 200t184.5 77q122 0 181 -91l3 81h131zM337 609 q-82 0 -131.5 46.5t-49.5 123.5h103q0 -40 21.5 -65.5t56.5 -25.5q36 0 57.5 25t21.5 66h103q0 -77 -50 -123.5t-132 -46.5z"/>
<glyph glyph-name="gcommaaccent.ss02" d="M328 107q66 0 107 45t41 118t-41 118t-107 45q-67 0 -107.5 -44.5t-40.5 -117.5q0 -74 40.5 -119t107.5 -45zM612 539v-759h-544v111h408v187q-61 -88 -179 -88q-111 0 -184.5 78.5t-73.5 203.5q0 123 73.5 200t184.5 77q122 0 181 -91l3 81h131zM386 593h-123l68 187 h103z"/>
<glyph glyph-name="gdotaccent.ss02" d="M328 107q66 0 107 45t41 118t-41 118t-107 45q-67 0 -107.5 -44.5t-40.5 -117.5q0 -74 40.5 -119t107.5 -45zM612 539v-759h-544v111h408v187q-61 -88 -179 -88q-111 0 -184.5 78.5t-73.5 203.5q0 123 73.5 200t184.5 77q122 0 181 -91l3 81h131zM337 627q-35 0 -58 22.5 t-23 57.5t23 58t58 23t58 -23t23 -58t-23 -57.5t-58 -22.5z"/>
<glyph glyph-name="j.ss02" d="M70 539h136v-759h-136v759zM137 627q-35 0 -58 22.5t-23 57.5t23 58t58 23t58 -23t23 -58t-23 -57.5t-58 -22.5z" horiz-adv-x="275"/>
<glyph glyph-name="l.ss02" d="M70 780h136v-668h101v-112h-237v780z" horiz-adv-x="322"/>
<glyph glyph-name="lacute.ss02" d="M70 780h136v-668h101v-112h-237v780zM54 859l136 161h158l-178 -161h-116z" horiz-adv-x="322"/>
<glyph glyph-name="lcaron.ss02" d="M425 780l-68 -187h-103l48 187h123zM70 780h136v-668h101v-112h-237v780z" horiz-adv-x="338"/>
<glyph glyph-name="lcommaaccent.ss02" d="M249 -52l-62 -168h-103l43 168h122zM70 780h136v-668h101v-112h-237v780z" horiz-adv-x="322"/>
<glyph glyph-name="lslash.ss02" d="M307 112v-112h-237v298l-82 -58v104l82 58v378h136v-301l84 59v-103l-84 -59v-264h101z" horiz-adv-x="322"/>
<glyph glyph-name="t.ss02" d="M384 428h-115v-428h-136v428h-113v111h113v158h136v-158h115v-111z" horiz-adv-x="395"/>
<glyph glyph-name="tbar.ss02" d="M276 428v-109h104v-98h-104v-221h-136v221h-103v98h103v109h-114v111h114v158h136v-158h114v-111h-114z" horiz-adv-x="414"/>
<glyph glyph-name="tcaron.ss02" d="M269 539h115v-111h-115v-428h-136v428h-113v111h113v158h136v-158zM503 780l-67 -187h-103l48 187h122z" horiz-adv-x="395"/>
<glyph glyph-name="uni0163.ss02" d="M236 0l-38 -61q2 0 6 0.5t5 0.5q47 0 75.5 -22.5t28.5 -59.5q0 -39 -33.5 -63.5t-90.5 -24.5q-65 0 -100 25l25 46q25 -18 67 -18q31 0 49 9.5t18 25.5q0 33 -62 33q-20 0 -43 -7l-18 32l46 84h-38v428h-113v111h113v158h136v-158h115v-111h-115v-428h-33z" horiz-adv-x="395"/>
<glyph glyph-name="uni021B.ss02" d="M140 -52h122l-62 -168h-103zM384 428h-115v-428h-136v428h-113v111h113v158h136v-158h115v-111z" horiz-adv-x="395"/>
<glyph glyph-name="u.ss02" d="M429 539h136v-342q0 -93 -69 -150t-182 -57q-114 0 -183 63t-69 167v319h136v-317q0 -52 32 -83.5t84 -31.5t83.5 31.5t31.5 83.5v317z" horiz-adv-x="628"/>
<glyph glyph-name="uacute.ss02" d="M429 539h136v-342q0 -93 -69 -150t-182 -57q-114 0 -183 63t-69 167v319h136v-317q0 -52 32 -83.5t84 -31.5t83.5 31.5t31.5 83.5v317zM229 618l136 161h158l-178 -161h-116z" horiz-adv-x="628"/>
<glyph glyph-name="ucircumflex.ss02" d="M565 539v-342q0 -93 -69 -150t-182 -57q-114 0 -183 63t-69 167v319h136v-317q0 -52 32 -83.5t84 -31.5t83.5 31.5t31.5 83.5v317h136zM243 618h-126l131 161h130l131 -161h-125l-71 84z" horiz-adv-x="628"/>
<glyph glyph-name="udieresis.ss02" d="M429 539h136v-342q0 -93 -69 -150t-182 -57q-114 0 -183 63t-69 167v319h136v-317q0 -52 32 -83.5t84 -31.5t83.5 31.5t31.5 83.5v317zM436 627q-35 0 -58 22.5t-23 57.5t23 58t58 23t58 -23t23 -58t-23 -57.5t-58 -22.5zM191 627q-35 0 -58 22.5t-23 57.5t23 58t58 23 t58 -23t23 -58t-23 -57.5t-58 -22.5z" horiz-adv-x="628"/>
<glyph glyph-name="ugrave.ss02" d="M429 539h136v-342q0 -93 -69 -150t-182 -57q-114 0 -183 63t-69 167v319h136v-317q0 -52 32 -83.5t84 -31.5t83.5 31.5t31.5 83.5v317zM104 779h159l135 -161h-116z" horiz-adv-x="628"/>
<glyph glyph-name="uhungarumlaut.ss02" d="M429 539h136v-342q0 -93 -69 -150t-182 -57q-114 0 -183 63t-69 167v319h136v-317q0 -52 32 -83.5t84 -31.5t83.5 31.5t31.5 83.5v317zM347 618l106 161h159l-149 -161h-116zM150 618l106 161h159l-149 -161h-116z" horiz-adv-x="628"/>
<glyph glyph-name="umacron.ss02" d="M429 539h136v-342q0 -93 -69 -150t-182 -57q-114 0 -183 63t-69 167v319h136v-317q0 -52 32 -83.5t84 -31.5t83.5 31.5t31.5 83.5v317zM492 731v-107h-356v107h356z" horiz-adv-x="628"/>
<glyph glyph-name="uogonek.ss02" d="M473 30q-55 -37 -86.5 -72t-31.5 -76q0 -30 17 -44.5t43 -14.5q37 0 68 33l44 -35q-49 -51 -115 -51q-54 0 -88 29t-34 77q0 62 61 116q-24 -2 -37 -2q-114 0 -183 63t-69 167v319h136v-317q0 -52 32 -83.5t84 -31.5t83.5 31.5t31.5 83.5v317h136v-342q0 -108 -92 -167z " horiz-adv-x="628"/>
<glyph glyph-name="uring.ss02" d="M429 539h136v-342q0 -93 -69 -150t-182 -57q-114 0 -183 63t-69 167v319h136v-317q0 -52 32 -83.5t84 -31.5t83.5 31.5t31.5 83.5v317zM314 645q20 0 32 13t12 34t-12 33.5t-32 12.5t-32.5 -12.5t-12.5 -33.5t12.5 -34t32.5 -13zM314 584q-53 0 -85 29.5t-32 78.5 t32 78.5t85 29.5t85 -29.5t32 -78.5t-32 -78.5t-85 -29.5z" horiz-adv-x="628"/>
<glyph glyph-name="y.ss02" d="M566 539v-759h-499v111h363v172q-59 -73 -163 -73q-92 0 -148.5 58t-56.5 153v338h136v-317q0 -52 32 -83.5t85 -31.5q52 0 83.5 31.5t31.5 83.5v317h136z" horiz-adv-x="635"/>
<glyph glyph-name="yacute.ss02" d="M566 539v-759h-499v111h363v172q-59 -73 -163 -73q-92 0 -148.5 58t-56.5 153v338h136v-317q0 -52 32 -83.5t85 -31.5q52 0 83.5 31.5t31.5 83.5v317h136zM346 618h-116l136 161h158z" horiz-adv-x="635"/>
<glyph glyph-name="ycircumflex.ss02" d="M566 539v-759h-499v111h363v172q-59 -73 -163 -73q-92 0 -148.5 58t-56.5 153v338h136v-317q0 -52 32 -83.5t85 -31.5q52 0 83.5 31.5t31.5 83.5v317h136zM244 618h-126l131 161h130l131 -161h-125l-71 84z" horiz-adv-x="635"/>
<glyph glyph-name="ydieresis.ss02" d="M566 539v-759h-499v111h363v172q-59 -73 -163 -73q-92 0 -148.5 58t-56.5 153v338h136v-317q0 -52 32 -83.5t85 -31.5q52 0 83.5 31.5t31.5 83.5v317h136zM437 627q-35 0 -58 22.5t-23 57.5t23 58t58 23t58 -23t23 -58t-23 -57.5t-58 -22.5zM192 627q-35 0 -58 22.5 t-23 57.5t23 58t58 23t58 -23t23 -58t-23 -57.5t-58 -22.5z" horiz-adv-x="635"/>
<glyph glyph-name="ygrave.ss02" d="M566 539v-759h-499v111h363v172q-59 -73 -163 -73q-92 0 -148.5 58t-56.5 153v338h136v-317q0 -52 32 -83.5t85 -31.5q52 0 83.5 31.5t31.5 83.5v317h136zM283 618l-178 161h159l135 -161h-116z" horiz-adv-x="635"/>
<glyph glyph-name="z.ss02" d="M496 112v-112h-466l253 428h-249v111h457l-252 -427h257z" horiz-adv-x="527"/>
<glyph glyph-name="zacute.ss02" d="M496 112v-112h-466l253 428h-249v111h457l-252 -427h257zM179 618l136 161h158l-178 -161h-116z" horiz-adv-x="527"/>
<glyph glyph-name="zcaron.ss02" d="M496 112v-112h-466l253 428h-249v111h457l-252 -427h257zM198 618l-131 161h126l70 -84l71 84h125l-131 -161h-130z" horiz-adv-x="527"/>
<glyph glyph-name="zdotaccent.ss02" d="M496 112v-112h-466l253 428h-249v111h457l-252 -427h257zM263 627q-35 0 -58 22.5t-23 57.5t23 58t58 23t58 -23t23 -58t-23 -57.5t-58 -22.5z" horiz-adv-x="527"/>
<glyph glyph-name="fi.ss01" d="M570 539v-539h-136v539h136zM502 627q-35 0 -58 22.5t-23 57.5t23 58t58 23t57.5 -23t22.5 -58t-22.5 -57.5t-57.5 -22.5zM286 673q-36 0 -58.5 -20t-22.5 -54v-60h142v-111h-142v-428h-136v620q0 77 48 123.5t126 46.5q72 0 119 -22l-10 -106q-24 11 -66 11z" horiz-adv-x="639"/>
<glyph glyph-name="fl.ss01" d="M434 780h136v-780h-136v780zM286 673q-36 0 -58.5 -20t-22.5 -54v-60h142v-111h-142v-428h-136v620q0 77 48 123.5t126 46.5q72 0 119 -22l-10 -106q-24 11 -66 11z" horiz-adv-x="640"/>
<glyph glyph-name="fi.ss02" d="M612 539v-539h-136v539h136zM249 669v-130h142v-111h-142v-428h-136v428h-87v111h87v241h288v-111h-152zM544 627q-35 0 -58 22.5t-23 57.5t23 58t58 23t57.5 -23t22.5 -58t-22.5 -57.5t-57.5 -22.5z" horiz-adv-x="681"/>
<glyph glyph-name="fl.ss02" d="M476 780h136v-668h101v-112h-237v780zM249 669v-130h142v-111h-142v-428h-136v428h-87v111h87v241h288v-111h-152z" horiz-adv-x="728"/>
<glyph glyph-name="zero.lf" d="M357 107q73 0 117.5 72.5t44.5 190.5t-44.5 190.5t-117.5 72.5t-118 -72t-45 -191t45 -191t118 -72zM357 -10q-139 0 -224 104.5t-85 275.5t85 275.5t224 104.5q138 0 222.5 -104.5t84.5 -275.5t-84.5 -275.5t-222.5 -104.5z" horiz-adv-x="712"/>
<glyph glyph-name="one.lf" d="M6 557l248 183h107v-740h-141v559l-144 -102z" horiz-adv-x="448"/>
<glyph glyph-name="two.lf" d="M544 117v-117h-502v89l229 248q1 1 14 15.5t17.5 19.5t17 19.5t18.5 23t16.5 23.5t16 26t11.5 25t8.5 27t2.5 25q0 41 -26.5 66.5t-69.5 25.5q-47 0 -75.5 -30.5t-28.5 -80.5l-143 13q0 97 67 156t176 59q110 0 176 -54t66 -144q0 -72 -41.5 -137t-129.5 -157l-138 -144z " horiz-adv-x="593"/>
<glyph glyph-name="three.lf" d="M309 449q104 -2 167 -63t63 -159q0 -107 -76 -172t-206 -65q-69 0 -129.5 19.5t-96.5 54.5l53 103q57 -60 157 -60q70 0 111 32.5t41 86.5q0 53 -38.5 84.5t-102.5 31.5q-56 0 -101 -24l-38 71l205 234h-253v117h436v-88z" horiz-adv-x="582"/>
<glyph glyph-name="four.lf" d="M368 256l2 286l-212 -286h210zM364 143h-343v97l374 500h110v-480h102v-117h-102v-143h-141v143z" horiz-adv-x="642"/>
<glyph glyph-name="five.lf" d="M249 -10q-145 0 -223 66l42 102q63 -51 168 -51q75 0 121 36.5t46 95.5q0 51 -32.5 82t-86.5 31q-68 0 -109 -36l-94 13l51 411h380v-117h-256l-28 -165q38 11 81 11q106 0 173 -61t67 -159q0 -116 -83.5 -187.5t-216.5 -71.5z" horiz-adv-x="592"/>
<glyph glyph-name="six.lf" d="M298 107q51 0 82 32.5t31 86.5q0 53 -31 86.5t-82 33.5q-50 0 -81.5 -33.5t-31.5 -86.5q0 -54 31.5 -86.5t81.5 -32.5zM328 453q97 0 163.5 -63t66.5 -163q0 -106 -71.5 -171.5t-187.5 -65.5t-187.5 64.5t-71.5 170.5q0 108 80 219l209 296h159l-215 -289q32 2 55 2z" horiz-adv-x="589"/>
<glyph glyph-name="seven.lf" d="M524 740l-250 -740h-149l216 623h-318v117h501z" horiz-adv-x="540"/>
<glyph glyph-name="eight.lf" d="M307 107q51 0 82 29.5t31 78.5q0 50 -31 80t-82 30t-82 -30t-31 -80q0 -49 31 -78.5t82 -29.5zM307 633q-42 0 -67.5 -26.5t-25.5 -69.5t25.5 -69.5t67.5 -26.5t67.5 26.5t25.5 69.5t-25.5 69.5t-67.5 26.5zM447 385q56 -26 87.5 -72t31.5 -106q0 -98 -71 -157.5 t-187 -59.5q-117 0 -188 59t-71 155q0 125 119 181q-99 50 -99 161q0 92 65.5 148t173.5 56q107 0 172.5 -55.5t65.5 -146.5q0 -110 -99 -163z" horiz-adv-x="615"/>
<glyph glyph-name="nine.lf" d="M177 514q0 -53 31 -86.5t82 -33.5q50 0 81.5 33.5t31.5 86.5q0 54 -31.5 86.5t-81.5 32.5q-51 0 -82 -32.5t-31 -86.5zM289 750q116 0 187.5 -64.5t71.5 -170.5q0 -108 -80 -219l-209 -296h-159l215 289q-32 -2 -55 -2q-97 0 -163.5 63t-66.5 163q0 106 71.5 171.5 t187.5 65.5z" horiz-adv-x="589"/>
<glyph glyph-name="zero.osf" d="M382 107q83 0 134.5 58.5t51.5 154.5t-51.5 154.5t-134.5 58.5q-85 0 -136.5 -58.5t-51.5 -154.5t51.5 -154.5t136.5 -58.5zM382 -10q-151 0 -242.5 90.5t-91.5 239.5q0 148 91.5 238.5t242.5 90.5q149 0 240.5 -90.5t91.5 -238.5t-91.5 -239t-240.5 -91z" horiz-adv-x="762"/>
<glyph glyph-name="one.osf" d="M12 484l209 155h104v-639h-136v459l-107 -75z" horiz-adv-x="410"/>
<glyph glyph-name="two.osf" d="M550 112v-112h-503v89l264 217q92 70 92 134q0 42 -27.5 67.5t-73.5 25.5q-49 0 -78.5 -31t-29.5 -81l-139 13q0 97 67 156t177 59q109 0 175.5 -54.5t66.5 -143.5q0 -42 -12 -77t-38 -65.5t-48.5 -50t-62.5 -50.5l-126 -96h296z" horiz-adv-x="602"/>
<glyph glyph-name="three.osf" d="M314 348q102 -1 163.5 -62t61.5 -159q0 -107 -75.5 -172t-202.5 -65q-70 0 -130.5 19.5t-94.5 54.5l54 103q55 -60 156 -60q70 0 111 32.5t41 86.5q0 53 -39 84t-104 31q-58 0 -100 -24l-37 71l209 240h-257v111h436v-87z" horiz-adv-x="585"/>
<glyph glyph-name="four.osf" d="M377 108l2 324l-217 -324h215zM374 0h-348v88l379 551h105v-527h102v-112h-102v-110h-136v110z" horiz-adv-x="645"/>
<glyph glyph-name="five.osf" d="M247 -110q-143 0 -222 65l42 103q63 -51 168 -51q75 0 120.5 36.5t45.5 95.5q0 50 -32.5 81.5t-85.5 31.5q-69 0 -109 -37l-95 14l51 410h380v-111h-259l-29 -171q35 11 86 11q104 0 169.5 -60.5t65.5 -159.5q0 -116 -82.5 -187t-213.5 -71z" horiz-adv-x="589"/>
<glyph glyph-name="six.osf" d="M294 107q51 0 82 32.5t31 86.5q0 53 -31 86.5t-82 33.5t-82 -33.5t-31 -86.5q0 -54 31 -86.5t82 -32.5zM324 453q101 0 162.5 -62t61.5 -164q0 -107 -69.5 -172t-183.5 -65q-115 0 -185 64.5t-70 170.5q0 56 16 104t57 103l219 308h154l-215 -290q25 3 53 3z" horiz-adv-x="582"/>
<glyph glyph-name="seven.osf" d="M533 639l-252 -749l-131 35l201 603h-319v111h501z" horiz-adv-x="560"/>
<glyph glyph-name="eight.osf" d="M302 107q51 0 82 29.5t31 78.5q0 50 -31 80t-82 30t-82 -30t-31 -80q0 -49 31 -78.5t82 -29.5zM302 633q-42 0 -67.5 -26.5t-25.5 -69.5t25.5 -69.5t67.5 -26.5t67.5 26.5t25.5 69.5t-25.5 69.5t-67.5 26.5zM439 385q117 -54 117 -178q0 -98 -69.5 -157.5t-183.5 -59.5 q-115 0 -184.5 59t-69.5 155q0 125 117 181q-97 51 -97 161q0 92 64 148t170 56q105 0 169 -55.5t64 -146.5q0 -111 -97 -163z" horiz-adv-x="605"/>
<glyph glyph-name="nine.osf" d="M172 414q0 -54 31 -87t82 -33q50 0 81.5 33t31.5 87q0 53 -31.5 86t-81.5 33q-51 0 -82 -33t-31 -86zM539 415q0 -56 -15.5 -103.5t-56.5 -103.5l-227 -318l-127 35l196 264q-34 -2 -53 -2q-101 0 -163 62t-62 164q0 106 70 171t184 65q115 0 184.5 -64.5t69.5 -169.5z " horiz-adv-x="577"/>
<glyph glyph-name="one.ss02" d="M28 740h256v-740h-141v623h-115v117z" horiz-adv-x="370"/>
<glyph glyph-name="one.lf.ss02" d="M28 740h256v-740h-141v623h-115v117z" horiz-adv-x="370"/>
<glyph glyph-name="one.osf.ss02" d="M39 639h244v-639h-136v528h-108v111z" horiz-adv-x="368"/>
<glyph glyph-name="one.tf.ss02" d="M554 117v-117h-485v117h207v506h-145v117h286v-623h137z" horiz-adv-x="615"/>
<glyph glyph-name="one.tosf.ss02" d="M557 112v-112h-484v112h198v416h-139v111h275v-527h150z" horiz-adv-x="615"/>
<glyph glyph-name="zero.tf" d="M308 107q50 0 81 72.5t31 190.5t-31 190.5t-81 72.5t-81.5 -72.5t-31.5 -190.5t31.5 -190.5t81.5 -72.5zM308 -10q-116 0 -187.5 104.5t-71.5 275.5t71.5 275.5t187.5 104.5t187 -104.5t71 -275.5t-71 -275.5t-187 -104.5z" horiz-adv-x="615"/>
<glyph glyph-name="one.tf" d="M564 117v-117h-485v117h207v442l-145 -102l-70 100l248 183h108v-623h137z" horiz-adv-x="615"/>
<glyph glyph-name="two.tf" d="M556 117v-117h-503v89l229 248q1 1 14 15.5t17.5 19.5t17 19.5t18.5 23t16.5 23.5t16 26t11.5 25t8.5 27t2.5 25q0 41 -26.5 66.5t-69.5 25.5q-47 0 -75.5 -30.5t-28.5 -80.5l-143 13q0 97 67 156t177 59q109 0 175.5 -54t66.5 -144q0 -72 -42 -136.5t-130 -157.5 l-138 -144z" horiz-adv-x="615"/>
<glyph glyph-name="three.tf" d="M325 449q104 -2 167 -63t63 -159q0 -107 -76 -172t-206 -65q-71 0 -131.5 19.5t-94.5 54.5l54 103q55 -60 156 -60q71 0 112 32.5t41 86.5q0 53 -39.5 84.5t-104.5 31.5q-56 0 -99 -24l-38 71l205 234h-253v117h436v-88z" horiz-adv-x="615"/>
<glyph glyph-name="four.tf" d="M345 256l2 286l-194 -286h192zM340 143h-323v97l354 500h110v-480h103v-117h-103v-143h-141v143z" horiz-adv-x="615"/>
<glyph glyph-name="five.tf" d="M260 -10q-144 0 -223 66l42 102q63 -51 168 -51q76 0 121.5 36.5t45.5 95.5q0 51 -32.5 82t-86.5 31q-68 0 -109 -36l-94 13l51 411h380v-117h-256l-27 -165q39 11 81 11q106 0 172.5 -61t66.5 -159q0 -116 -83.5 -187.5t-216.5 -71.5z" horiz-adv-x="615"/>
<glyph glyph-name="six.tf" d="M312 107q50 0 81.5 32.5t31.5 86.5q0 53 -31.5 86.5t-81.5 33.5q-51 0 -82 -33.5t-31 -86.5q0 -54 31 -86.5t82 -32.5zM341 453q97 0 163.5 -63t66.5 -163q0 -106 -71.5 -171.5t-187.5 -65.5t-187.5 64.5t-71.5 170.5q0 108 80 219l210 296h158l-215 -289q32 2 55 2z" horiz-adv-x="615"/>
<glyph glyph-name="seven.tf" d="M561 740l-249 -740h-149l216 623h-319v117h501z" horiz-adv-x="615"/>
<glyph glyph-name="eight.tf" d="M307 107q51 0 82 29.5t31 78.5q0 50 -31 80t-82 30t-82 -30t-31 -80q0 -49 31 -78.5t82 -29.5zM307 633q-42 0 -67.5 -26.5t-25.5 -69.5t25.5 -69.5t67.5 -26.5t67.5 26.5t25.5 69.5t-25.5 69.5t-67.5 26.5zM447 385q56 -26 87.5 -72t31.5 -106q0 -98 -71 -157.5 t-187 -59.5q-117 0 -188.5 59t-71.5 155q0 61 31.5 107.5t88.5 73.5q-100 51 -100 161q0 92 66 148t174 56q107 0 172.5 -55.5t65.5 -146.5q0 -110 -99 -163z" horiz-adv-x="615"/>
<glyph glyph-name="nine.tf" d="M190 514q0 -53 31 -86.5t82 -33.5q50 0 81.5 33.5t31.5 86.5q0 54 -31.5 86.5t-81.5 32.5q-51 0 -82 -32.5t-31 -86.5zM302 750q116 0 187.5 -64.5t71.5 -170.5q0 -108 -80 -219l-209 -296h-159l215 289q-32 -2 -55 -2q-97 0 -163.5 63t-66.5 163q0 106 71.5 171.5 t187.5 65.5z" horiz-adv-x="589"/>
<glyph glyph-name="zero.tosf" d="M308 107q50 0 81 58.5t31 154.5t-31 154.5t-81 58.5t-81.5 -58.5t-31.5 -154.5t31.5 -154.5t81.5 -58.5zM308 -10q-116 0 -187.5 91t-71.5 239t71.5 238.5t187.5 90.5t187 -90.5t71 -238.5t-71 -239t-187 -91z" horiz-adv-x="615"/>
<glyph glyph-name="one.tosf" d="M561 112v-112h-484v112h187v347l-107 -75l-70 100l210 155h103v-527h161z" horiz-adv-x="615"/>
<glyph glyph-name="two.tosf" d="M556 112v-112h-502v89l264 217q92 72 92 134q0 42 -28 67.5t-73 25.5q-49 0 -79 -31t-30 -81l-139 13q0 97 67 156t177 59q109 0 175.5 -54.5t66.5 -143.5q0 -42 -12 -76.5t-38.5 -66t-48 -50.5t-62.5 -50l-124 -96h294z" horiz-adv-x="615"/>
<glyph glyph-name="three.tosf" d="M329 348q101 -1 162.5 -62t61.5 -159q0 -107 -75 -172t-202 -65q-70 0 -130.5 19.5t-95.5 54.5l54 103q55 -60 157 -60q70 0 111 32.5t41 86.5q0 53 -39.5 84t-104.5 31q-58 0 -99 -24l-37 71l209 240h-258v111h436v-87z" horiz-adv-x="615"/>
<glyph glyph-name="four.tosf" d="M353 108l1 315l-198 -315h197zM349 0h-329v88l360 551h106v-527h102v-112h-102v-110h-137v110z" horiz-adv-x="615"/>
<glyph glyph-name="five.tosf" d="M260 -110q-143 0 -222 65l42 103q63 -51 167 -51q76 0 121.5 36.5t45.5 95.5q0 50 -32.5 81.5t-85.5 31.5q-69 0 -109 -37l-95 14l51 410h380v-111h-259l-29 -171q35 11 86 11q104 0 169.5 -60.5t65.5 -159.5q0 -116 -82.5 -187t-213.5 -71z" horiz-adv-x="615"/>
<glyph glyph-name="six.tosf" d="M311 107q51 0 82 32.5t31 86.5q0 53 -31 86.5t-82 33.5t-82 -33.5t-31 -86.5q0 -54 31 -86.5t82 -32.5zM340 453q101 0 163 -62t62 -164q0 -107 -69.5 -172t-184.5 -65q-114 0 -184 64.5t-70 170.5q0 108 72 207l220 308h153l-215 -290q26 3 53 3z" horiz-adv-x="615"/>
<glyph glyph-name="seven.tosf" d="M561 639l-253 -749l-131 35l202 603h-319v111h501z" horiz-adv-x="615"/>
<glyph glyph-name="eight.tosf" d="M307 107q51 0 82 29.5t31 78.5q0 50 -31 80t-82 30t-82 -30t-31 -80q0 -49 31 -78.5t82 -29.5zM307 633q-42 0 -67.5 -26.5t-25.5 -69.5t25.5 -69.5t67.5 -26.5t67.5 26.5t25.5 69.5t-25.5 69.5t-67.5 26.5zM444 385q55 -26 86 -72t31 -106q0 -98 -69.5 -157.5 t-183.5 -59.5q-115 0 -185 59t-70 155q0 125 118 181q-46 24 -72 66t-26 95q0 92 64.5 148t170.5 56q105 0 169 -55.5t64 -146.5q0 -111 -97 -163z" horiz-adv-x="615"/>
<glyph glyph-name="nine.tosf" d="M191 414q0 -54 31 -87t82 -33t82 33t31 87q0 53 -31 86t-82 33t-82 -33t-31 -86zM558 415q0 -56 -16 -103.5t-56 -103.5l-227 -318l-127 35l196 264q-34 -2 -52 -2q-102 0 -164 62t-62 164q0 106 70 171t185 65q114 0 183.5 -64.5t69.5 -169.5z" horiz-adv-x="615"/>
<glyph glyph-name="zero.dnom" d="M220 66q43 0 69 43t26 113t-26 113t-69 43t-69.5 -43t-26.5 -113t26.5 -113t69.5 -43zM220 -6q-84 0 -135.5 62.5t-51.5 165.5t51.5 165.5t135.5 62.5q83 0 134 -63t51 -165t-51 -165t-134 -63z" horiz-adv-x="438"/>
<glyph glyph-name="one.dnom" d="M5 334l149 110h67v-444h-88v332l-84 -60z" horiz-adv-x="277"/>
<glyph glyph-name="two.dnom" d="M333 72v-72h-303v56l137 148q2 2 11 12t13.5 15.5t13 16t13.5 18.5t10.5 18.5t8 20.5t2.5 19q0 25 -15 39.5t-40 14.5q-27 0 -43.5 -18t-16.5 -47l-89 7q0 58 40.5 94t106.5 36q65 0 105 -33t40 -87q0 -42 -25 -81.5t-77 -92.5l-81 -85z" horiz-adv-x="366"/>
<glyph glyph-name="three.dnom" d="M193 270q61 -2 98 -38.5t37 -94.5q0 -65 -46.5 -104t-124.5 -39q-90 0 -136 43l34 65q34 -36 92 -36q42 0 66 19.5t24 51.5q0 30 -23 48.5t-60 18.5q-34 0 -59 -15l-24 45l120 138h-149v72h263v-54z" horiz-adv-x="358"/>
<glyph glyph-name="four.dnom" d="M222 155l1 165l-123 -165h122zM220 85h-205v60l224 299h69v-286h60v-73h-60v-85h-88v85z" horiz-adv-x="394"/>
<glyph glyph-name="five.dnom" d="M152 -6q-88 0 -134 39l26 64q38 -31 100 -31q44 0 71.5 22t27.5 57q0 29 -19.5 47t-50.5 18q-38 0 -64 -22l-58 8l31 248h229v-72h-152l-16 -96q21 7 46 7q64 0 104 -36.5t40 -95.5q0 -70 -50.5 -113.5t-130.5 -43.5z" horiz-adv-x="363"/>
<glyph glyph-name="six.dnom" d="M184 66q29 0 47.5 19.5t18.5 50.5t-18.5 50t-47.5 19t-47 -19t-18 -50q0 -32 18 -51t47 -19zM203 272q58 0 98 -38t40 -98q0 -64 -43.5 -103t-113.5 -39q-71 0 -113.5 38.5t-42.5 102.5q0 66 49 135l124 174h99l-129 -173q9 1 32 1z" horiz-adv-x="363"/>
<glyph glyph-name="seven.dnom" d="M318 444l-149 -444h-93l128 372h-188v72h302z" horiz-adv-x="327"/>
<glyph glyph-name="eight.dnom" d="M190 66q29 0 47.5 18t18.5 46t-18.5 46t-47.5 18t-47 -17.5t-18 -46.5t18 -46.5t47 -17.5zM190 378q-24 0 -38.5 -15.5t-14.5 -41.5q0 -25 14.5 -40t38.5 -15q25 0 39.5 15t14.5 40q0 26 -14.5 41.5t-39.5 15.5zM276 231q71 -32 71 -106q0 -59 -43 -95t-114 -36 q-70 0 -113 35.5t-43 93.5q0 75 71 108q-59 32 -59 97q0 55 39.5 88.5t104.5 33.5t105 -33.5t40 -87.5q0 -66 -59 -98z" horiz-adv-x="380"/>
<glyph glyph-name="nine.dnom" d="M113 308q0 -31 18.5 -50t47.5 -19t47 19t18 50q0 32 -18 51t-47 19t-47.5 -19.5t-18.5 -50.5zM179 450q71 0 113.5 -38.5t42.5 -102.5q0 -66 -49 -135l-124 -174h-99l129 173q-9 -1 -32 -1q-58 0 -98 38t-40 98q0 64 43.5 103t113.5 39z" horiz-adv-x="363"/>
<glyph glyph-name="zero.numr" d="M220 362q43 0 69 43t26 113t-26 113t-69 43t-69.5 -43t-26.5 -113t26.5 -113t69.5 -43zM220 290q-84 0 -135.5 62.5t-51.5 165.5t51.5 165.5t135.5 62.5q83 0 134 -63t51 -165t-51 -165t-134 -63z" horiz-adv-x="438"/>
<glyph glyph-name="one.numr" d="M5 630l149 110h67v-444h-88v332l-84 -60z" horiz-adv-x="277"/>
<glyph glyph-name="two.numr" d="M333 368v-72h-303v56l137 148q2 2 11 12t13.5 15.5t13 16t13.5 18.5t10.5 18.5t8 20.5t2.5 19q0 25 -15 39.5t-40 14.5q-27 0 -43.5 -18t-16.5 -47l-89 7q0 58 40.5 94t106.5 36q65 0 105 -33t40 -87q0 -42 -25 -81.5t-77 -92.5l-81 -85z" horiz-adv-x="366"/>
<glyph glyph-name="three.numr" d="M193 567q61 -1 98 -38t37 -96q0 -65 -46.5 -104t-124.5 -39q-90 0 -136 43l34 65q34 -36 92 -36q42 0 66 19.5t24 51.5q0 30 -23 48.5t-60 18.5q-34 0 -59 -15l-24 45l121 138h-150v72h263v-54z" horiz-adv-x="358"/>
<glyph glyph-name="four.numr" d="M222 451l1 165l-123 -165h122zM220 381h-205v60l224 299h69v-286h60v-73h-60v-85h-88v85z" horiz-adv-x="394"/>
<glyph glyph-name="five.numr" d="M152 290q-88 0 -134 39l26 64q38 -31 100 -31q44 0 71.5 22t27.5 57q0 29 -19.5 47t-50.5 18q-38 0 -64 -22l-58 8l31 248h229v-72h-152l-16 -96q21 7 46 7q64 0 104 -36.5t40 -95.5q0 -70 -50.5 -113.5t-130.5 -43.5z" horiz-adv-x="363"/>
<glyph glyph-name="six.numr" d="M184 362q29 0 47.5 19.5t18.5 50.5t-18.5 50t-47.5 19t-47 -19t-18 -50q0 -32 18 -51t47 -19zM203 568q58 0 98 -38t40 -98q0 -64 -43.5 -103t-113.5 -39q-71 0 -113.5 38.5t-42.5 102.5q0 66 49 135l124 174h99l-129 -173q9 1 32 1z" horiz-adv-x="363"/>
<glyph glyph-name="seven.numr" d="M318 740l-149 -444h-93l128 372h-188v72h302z" horiz-adv-x="327"/>
<glyph glyph-name="eight.numr" d="M190 362q29 0 47.5 18t18.5 46t-18.5 46t-47.5 18t-47 -17.5t-18 -46.5t18 -46.5t47 -17.5zM190 674q-24 0 -38.5 -15.5t-14.5 -41.5q0 -25 14.5 -40t38.5 -15q25 0 39.5 15t14.5 40q0 26 -14.5 41.5t-39.5 15.5zM276 527q71 -32 71 -106q0 -59 -43 -95t-114 -36 q-70 0 -113 35.5t-43 93.5q0 75 70 108q-58 31 -58 97q0 55 39.5 88.5t104.5 33.5t105 -33.5t40 -87.5q0 -66 -59 -98z" horiz-adv-x="380"/>
<glyph glyph-name="nine.numr" d="M113 604q0 -31 18.5 -50t47.5 -19t47 19t18 50q0 32 -18 51t-47 19t-47.5 -19.5t-18.5 -50.5zM179 746q71 0 113.5 -38.5t42.5 -102.5q0 -66 -49 -135l-124 -174h-99l129 173q-9 -1 -32 -1q-58 0 -98 38t-40 98q0 64 43.5 103t113.5 39z" horiz-adv-x="363"/>
<glyph glyph-name="onehalf.ss02" d="M790 72v-72h-303v56l137 148q2 2 11 12t13.5 15.5t13 16t13.5 18.5t10.5 18.5t8 20.5t2.5 19q0 25 -15 39.5t-40 14.5q-27 0 -43.5 -18t-16.5 -47l-89 7q0 58 40.5 94t106.5 36q65 0 105 -33t40 -87q0 -42 -25 -81.5t-77 -92.5l-81 -85zM21 740h157v-444h-88v372h-69v72z M172 -10l-73 44l420 716l72 -44z" horiz-adv-x="823"/>
<glyph glyph-name="onequarter.ss02" d="M640 155l1 165l-123 -165h122zM638 85h-205v60l224 299h69v-286h60v-73h-60v-85h-88v85zM21 740h157v-444h-88v372h-69v72zM172 -10l-73 44l420 716l72 -44z" horiz-adv-x="812"/>
<glyph glyph-name="oneeighth.ss02" d="M647 66q29 0 47.5 18t18.5 46t-18.5 46t-47.5 18t-47 -17.5t-18 -46.5t18 -46.5t47 -17.5zM647 378q-24 0 -38.5 -15.5t-14.5 -41.5q0 -25 14.5 -40t38.5 -15q25 0 39.5 15t14.5 40q0 26 -14.5 41.5t-39.5 15.5zM733 231q71 -32 71 -106q0 -59 -43 -95t-114 -36 q-70 0 -113 35.5t-43 93.5q0 75 70 108q-58 31 -58 97q0 55 39.5 88.5t104.5 33.5t105 -33.5t40 -87.5q0 -66 -59 -98zM90 296v372h-69v72h157v-444h-88zM591 706l-419 -716l-73 44l420 716z" horiz-adv-x="837"/>
<glyph glyph-name="one.dnom.ss02" d="M21 444h157v-444h-88v372h-69v72z" horiz-adv-x="234"/>
<glyph glyph-name="one.numr.ss02" d="M21 740h157v-444h-88v372h-69v72z" horiz-adv-x="234"/>
<glyph glyph-name="uni2081.ss02" d="M21 344h157v-444h-88v372h-69v72z" horiz-adv-x="234"/>
<glyph glyph-name="uni00B9.ss02" d="M12 840h157v-444h-88v372h-69v72z" horiz-adv-x="234"/>
<glyph glyph-name="exclamdown.case" d="M79 0l13 523h117l12 -523h-142zM231 669q0 -35 -23 -58t-58 -23t-58 23t-23 58t23 58t58 23t58 -23t23 -58z" horiz-adv-x="300"/>
<glyph glyph-name="questiondown.case" d="M340 523q0 -50 -9 -89t-27 -68t-31.5 -44t-36.5 -36q-28 -24 -41.5 -43.5t-13.5 -46.5q0 -40 27.5 -64.5t73.5 -24.5q44 0 72.5 24.5t32.5 64.5l130 -6q-4 -90 -69 -145t-166 -55q-111 0 -179 54.5t-68 143.5q0 37 14.5 67.5t30 47t45.5 41.5q32 27 49 44.5t33 53.5 t16 81h117zM281 750q35 0 58.5 -23t23.5 -58t-23.5 -58t-58.5 -23t-57.5 23t-22.5 58t22.5 58t57.5 23z" horiz-adv-x="549"/>
<glyph glyph-name="slash.case" d="M176 0h-137l201 740h137z" horiz-adv-x="417"/>
<glyph glyph-name="braceleft.case" d="M260 492q0 -45 -23.5 -78.5t-61.5 -43.5q38 -10 61.5 -43t23.5 -79v-97q0 -38 20.5 -61t54.5 -23t61 6v-110q-55 -13 -113 -13q-74 0 -119 44t-45 116v121q0 37 -20.5 59t-54.5 22h-6v116h6q34 0 54.5 22.5t20.5 58.5v121q0 72 45 116t119 44q58 0 113 -13v-110 q-27 6 -61 6t-54.5 -23t-20.5 -61v-97z" horiz-adv-x="439"/>
<glyph glyph-name="braceright.case" d="M179 589q0 38 -20.5 61t-54.5 23t-62 -6v110q55 13 113 13q75 0 120 -44t45 -116v-121q0 -36 20.5 -58.5t54.5 -22.5h6v-116h-6q-34 0 -54.5 -22t-20.5 -59v-121q0 -72 -45 -116t-120 -44q-58 0 -113 13v110q28 -6 62 -6t54.5 23t20.5 61v97q0 46 23.5 79t61.5 43 q-38 10 -61.5 43.5t-23.5 78.5v97z" horiz-adv-x="439"/>
<glyph glyph-name="bracketleft.case" d="M86 780h282v-117h-141v-586h141v-117h-282v820z" horiz-adv-x="410"/>
<glyph glyph-name="bracketright.case" d="M42 -40v117h141v586h-141v117h282v-820h-282z" horiz-adv-x="410"/>
<glyph glyph-name="parenleft.case" d="M322 780q-48 -68 -90.5 -181t-42.5 -229t42.5 -229t90.5 -181h-126q-148 195 -148 410t148 410h126z" horiz-adv-x="351"/>
<glyph glyph-name="parenright.case" d="M155 780q148 -195 148 -410t-148 -410h-126q49 68 91.5 181t42.5 229t-42.5 229t-91.5 181h126z" horiz-adv-x="351"/>
<glyph glyph-name="logo" d="M846 -3q-7 -7 -17 -7q-20 0 -20 23v324l-339 -340q-7 -7 -17 -7q-20 0 -20 23v324l-340 -340q-7 -7 -17 -7q-17 0 -17 18q0 10 5 15l342 341h-324q-23 0 -23 19q0 7 7 16l340 342h-327q-20 0 -20 19v1q0 19 20 19h370q23 0 23 -20q0 -10 -8 -17l-341 -340h330q8 0 14 -6 t6 -14v-327l339 338q7 8 17 8q18 0 18 -22v-324l340 338q6 8 16 8q7 0 12 -5.5t5 -13.5q0 -9 -6 -14z" horiz-adv-x="1274"/>
</font>
</defs>
</svg>
